<svg height="512" viewBox="0 0 22.4 22.399" width="512" xmlns="http://www.w3.org/2000/svg"><g id="Layer_2" data-name="Layer 2"><g id="Layer_1-2" data-name="Layer 1"><g id="paint_brush" data-name="paint brush"><path d="m7.39 7.036h2.125v13.82h-2.125z" fill="#618ef4" transform="matrix(.707 -.707 .707 .707 -7.386 10.062)"/><path d="m2.815 9.811-1 1a1.772 1.772 0 0 0 0 2.506l1.844 1.845a.707.707 0 0 1 -.059 1.054l-2.812 2.284a2.128 2.128 0 0 0 -.1 3.218 2.131 2.131 0 0 0 3.219-.1l2.275-2.818a.709.709 0 0 1 1.053-.055l1.844 1.845a1.774 1.774 0 0 0 2.506 0l1-1z" fill="#b1c2fe"/><path d="m2.768 20.869a.876.876 0 0 1 -1.238-1.238.876.876 0 0 1 1.238 1.238z" fill="#fff"/><g fill="#faba62"><path d="m16.721 5.677-.702-.703-7.28 7.755.932.931 7.753-7.281z"/><path d="m11.459.414a1.417 1.417 0 0 0 -2.193.237l-4.939 7.666 1.062 1.062 6.331-8.704z"/><path d="m17.92 6.876-7.755 7.279.93.931 8.229-6.806z"/><path d="m12.221 1.176-6.332 8.703.928.927 6.806-8.228z"/><path d="m14.12 3.075-6.807 8.228.931.931 7.28-7.755z"/><path d="m21.985 10.94-.262-.262-8.7 6.332 1.063 1.063 7.666-4.94a1.417 1.417 0 0 0 .233-2.193z"/><path d="m19.821 8.776-8.229 6.807.928.926 8.703-6.331z"/></g><path d="m11.72.675-6.331 8.704.5.5 6.332-8.703z" fill="#6176cd"/><path d="m13.623 2.578-6.806 8.228.496.497 6.807-8.228z" fill="#6176cd"/><path d="m15.524 4.479-7.28 7.755.495.495 7.28-7.755z" fill="#6176cd"/><path d="m17.424 6.379-7.753 7.281.494.495 7.755-7.279z" fill="#6176cd"/><path d="m19.324 8.28-8.229 6.806.497.497 8.229-6.807z" fill="#6176cd"/><path d="m21.223 10.178-8.703 6.331.5.501 8.703-6.332z" fill="#6176cd"/></g></g></g></svg>