<svg height="512" viewBox="0 0 64 64" width="512" xmlns="http://www.w3.org/2000/svg"><g id="_40-sand" data-name="40-sand"><path d="m10.977 2.76a1.516 1.516 0 0 0 -2.037-.66l-6.213 3.16a1.516 1.516 0 0 0 -.662 2.04 13.453 13.453 0 0 0 6.062 5.974l.462.227 3.564-1.815.088-.507a13.456 13.456 0 0 0 -1.264-8.419zm-1.31 6.525-.033.191-1.348.687-.174-.086a5.089 5.089 0 0 1 -2.293-2.259.573.573 0 0 1 .251-.77l2.349-1.2a.572.572 0 0 1 .77.25 5.08 5.08 0 0 1 .478 3.187z" fill="#94350f"/><path d="m1 63 5.842-2.656a16 16 0 0 0 7.692-7.411l1.72-3.441a30.691 30.691 0 0 1 10.779-12.043 16 16 0 0 1 19.03 1.22 16 16 0 0 1 5.188 8.331 23.6 23.6 0 0 0 7.11 11.82l4.639 4.18z" fill="#d0bdb6"/><path d="m32.106 40.89a11.31 11.31 0 0 0 -.776-5.667l-2.588-6.223a.693.693 0 0 0 -1.094-.256 10.863 10.863 0 0 1 -5.513 2.545l-3.565 1.811a10.864 10.864 0 0 1 -5.3 2.961.693.693 0 0 0 -.436 1.035l3.511 5.755a11.313 11.313 0 0 0 6.555 4.984 32.727 32.727 0 0 1 9.206-6.945z" fill="#94350f"/><path d="m14.723 11.067h4a0 0 0 0 1 0 0v26a2 2 0 0 1 -2 2 2 2 0 0 1 -2-2v-26a0 0 0 0 1 0 0z" fill="#ad9990" transform="matrix(.891 -.454 .454 .891 -9.553 10.316)"/><g fill="#6e5f5c"><path d="m21 51a1 1 0 0 1 -.759-1.65l1.044-1.218a33.9 33.9 0 0 1 12.321-9.051 1 1 0 0 1 .788 1.838 31.906 31.906 0 0 0 -11.594 8.514l-1.041 1.217a.993.993 0 0 1 -.759.35z"/><circle cx="46" cy="45" r="1"/><circle cx="42" cy="45" r="1"/><circle cx="41" cy="41" r="1"/></g></g></svg>