<svg clip-rule="evenodd" fill-rule="evenodd" height="512" image-rendering="optimizeQuality" shape-rendering="geometricPrecision" text-rendering="geometricPrecision" viewBox="0 0 1707 1707" width="512" xmlns="http://www.w3.org/2000/svg"><g id="Layer_x0020_1"><path d="m738 1097c-6 0-13-2-17-7l-104-104c-4-4-7-11-7-16 0-7 3-13 7-17l751-749c9-9 24-9 34 0l104 103c4 4 7 11 7 17s-3 12-7 16l-751 750c-5 6-12 7-17 7z" fill="#ecb37f"/><path d="m420 1706c-112 0-217-44-297-123-163-164-163-430 0-594l265-265c10-9 25-9 35 0l560 559c5 4 7 11 7 17 0 5-2 12-7 17l-265 264c-79 81-184 125-298 125z" fill="#cdcdcd"/><g fill="#b9b9b9"><path d="m221 1511c-6 0-13-3-17-7-58-58-90-135-90-217 0-81 32-159 90-216 10-10 25-10 35 0 9 10 9 25 0 35-49 48-75 113-75 183 0 69 26 134 75 183 9 10 9 25 0 35-6 1-11 4-18 4z"/><path d="m1580 441c-6 0-13-2-17-6l-290-290c-4-5-7-11-7-17 0-7 3-12 7-17l74-73c50-50 130-50 180 0l141 143c50 50 50 130 0 180l-73 74c-3 4-8 6-15 6z"/><path d="m718 1581 265-264c5-5 7-12 7-17 0-6-2-13-7-17l-90-90-253 253c-79 80-184 125-298 125-112 0-218-45-297-124-7-7-14-15-21-22 20 57 53 112 99 158 80 79 185 123 297 123 114 0 219-44 298-125z"/></g></g></svg>