<svg id="Capa_1" enable-background="new 0 0 512 512" height="512" viewBox="0 0 512 512" width="512" xmlns="http://www.w3.org/2000/svg"><g><g><path d="m311.031 78.807h37.307v37.307h-37.307z" fill="#ebf7ff" transform="matrix(.707 .707 -.707 .707 165.477 -204.577)"/><path d="m395.885 78.807h37.307v37.307h-37.307z" fill="#ebf7ff" transform="matrix(.707 .707 -.707 .707 190.33 -264.578)"/><path d="m411.807 85.402h18.654v37.307h-18.654z" fill="#d6e9f8" transform="matrix(.707 .707 -.707 .707 196.925 -267.309)"/><path d="m353.458 121.233h37.307v37.307h-37.307z" fill="#ebf7ff" transform="matrix(.707 .707 -.707 .707 207.904 -222.151)"/><path d="m395.885 163.66h37.307v37.307h-37.307z" fill="#d6e9f8" transform="matrix(.707 .707 -.707 .707 250.331 -239.725)"/><path d="m311.386 163.306h37.307v37.307h-37.307z" fill="#ebf7ff" transform="matrix(.707 .707 -.707 .707 225.331 -180.079)"/><g fill="#d6e9f8"><path d="m369.38 127.828h18.654v37.307h-18.654z" transform="matrix(.707 .707 -.707 .707 214.499 -224.883)"/><path d="m327.308 169.901h18.654v37.307h-18.654z" transform="matrix(.707 .707 -.707 .707 231.926 -182.81)"/></g></g><g><path d="m211.562 343.215-129.084 86.302-12.41-73.15 195.623-174.408 32.174 32.174z" fill="#7d8186"/><path d="m155.629 441.927-73.151-12.41 215.387-215.384 32.173 32.173z" fill="#5a5f64"/><path d="m70.068 356.367-48.558 43.296c-13.343 11.9-20.972 28.298-21.481 46.174-.523 17.876 6.166 34.676 18.809 47.319l84.854-42.426 9.157-51.583z" fill="#5a5f64"/><path d="m112.332 490.483c-11.901 13.343-28.299 20.973-46.167 21.489-17.883.516-34.684-6.173-47.327-18.816l94.011-94.01 42.78 42.78z" fill="#373c41"/><g><g><path d="m311.88 79.655c33.263-33.262 87.201-33.262 120.464 0l31.58-3.295 7.057-35.341c-25.329-25.328-60.296-41.019-98.862-41.019-37.364 0-72.493 14.552-98.911 40.97s-40.97 61.547-40.97 98.91c0 38.565 15.684 73.539 41.013 98.867l35.349-7.064 3.281-31.565c-33.264-33.262-33.264-87.2-.001-120.463z" fill="#ebf7ff"/><path d="m471.03 238.789c-26.418 26.418-61.547 40.97-98.911 40.97-38.559.007-73.54-15.684-98.869-41.012l38.63-38.629c33.263 33.262 87.201 33.262 120.464 0s33.262-87.2 0-120.462l38.637-38.636c25.328 25.328 41.019 60.294 41.019 98.86 0 37.363-14.552 72.492-40.97 98.909z" fill="#d6e9f8"/></g><path d="m308.832 181.952 21.213-21.213 10.607 10.607 17.374-3.232 3.478-17.62-10.607-10.607 21.213-21.213 10.607 10.607 18.083-3.941 2.784-16.926-10.607-10.607 21.213-21.213 10.609 10.606 19.505-5.363 5.477-19.619c-19.898-19.898-47.362-32.216-77.662-32.223-60.593.007-109.885 49.299-109.885 109.884.007 30.3 12.332 57.771 32.223 77.661l19.585-5.443 5.397-19.539zm20.853-63.279-21.213-21.213 21.213-21.213 21.213 21.213z" fill="#d6e9f8"/><path d="m482.004 139.88c0-30.292-12.325-57.763-32.223-77.661l-24.982 24.981 10.607 10.607-21.213 21.213-10.607-10.607-20.867 20.867 10.607 10.607-21.214 21.213-10.607-10.607-20.853 20.853 10.607 10.607-21.213 21.213-10.607-10.607-24.982 24.982c19.898 19.898 47.369 32.223 77.662 32.223 60.585 0 109.878-49.293 109.885-109.884zm-67.465 63.646-21.213-21.213 21.213-21.213 21.213 21.213z" fill="#b2d7f3"/></g></g></g></svg>