<svg id="svg14514" height="512" viewBox="0 0 16.933333 16.933334" width="512" xmlns="http://www.w3.org/2000/svg" xmlns:svg="http://www.w3.org/2000/svg"><g id="layer1" transform="translate(0 -280.067)"><path id="path5401" d="m5.9670776 284.32789c-.2090632.10454-.4738185.25266-.6774762.51004-.2036604.25738-.3270356.63017-.259932 1.08779.00265.0173.00696.0342.012912.0506l1.3229167 3.70417c.01315.0369.03433.0705.06201.0982l.79375.79375c.02768.0279.06122.0492.09818.0625l3.7041659 1.32292c.01643.006.0334.01.05064.0124.457615.0671.830411-.0558 1.087789-.25941.257379-.20366.405514-.46893.510046-.678 1.258422-2.51686 2.826996-7.13997 3.556373-9.25008.104455-.3022.07298-.60814-.166399-.84491-.239377-.23677-.528786-.26844-.844908-.1664-2.11012.72937-6.7332269 2.29796-9.2500784 3.55637z" fill="#dbe9ee" font-variant-ligatures="normal" font-variant-position="normal" font-variant-caps="normal" font-variant-numeric="normal" font-variant-alternates="normal" font-feature-settings="normal" text-indent="0" text-align="start" text-decoration-line="none" text-decoration-style="solid" text-decoration-color="#000000" text-transform="none" text-orientation="mixed" white-space="normal" shape-padding="0" isolation="auto" mix-blend-mode="normal" solid-color="#000000" solid-opacity="1" vector-effect="none"/><path id="path5408" d="m8.4361801 287.7375c-.21099 0-.423773.0822-.583946.24236l-2.7621047 2.76211 1.1678867 1.16788 2.762107-2.7621c.320278-.32028.320276-.84761 0-1.16789-.160171-.16017-.372965-.24236-.583943-.24236z" fill="#c8d4d9" font-variant-ligatures="normal" font-variant-position="normal" font-variant-caps="normal" font-variant-numeric="normal" font-variant-alternates="normal" font-feature-settings="normal" text-indent="0" text-align="start" text-decoration-line="none" text-decoration-style="solid" text-decoration-color="#000000" text-transform="none" text-orientation="mixed" white-space="normal" shape-padding="0" isolation="auto" mix-blend-mode="normal" solid-color="#000000" solid-opacity="1" vector-effect="none"/><path id="path5415" d="m4.7485496 290.35646c-.2033481 0-.4068365.0771-.5606917.23099l-3.19928681 3.19722c-.6134399.61344-.6134381 1.61279 0 2.22622.61343701.61343 1.61329741.61344 2.22673661 0l3.1972224-3.19722c.307697-.30771.307697-.81522 0-1.12293l-1.1038099-1.10329c-.1538526-.15385-.356825-.23099-.5601706-.23099z" fill="#ff6b6b" font-variant-ligatures="normal" font-variant-position="normal" font-variant-caps="normal" font-variant-numeric="normal" font-variant-alternates="normal" font-feature-settings="normal" text-indent="0" text-align="start" text-decoration-line="none" text-decoration-style="solid" text-decoration-color="#000000" text-transform="none" text-orientation="mixed" white-space="normal" shape-padding="0" isolation="auto" mix-blend-mode="normal" solid-color="#000000" solid-opacity="1" vector-effect="none"/></g></svg>