<svg xmlns="http://www.w3.org/2000/svg" viewBox="0 0 497 497" width="497" height="497">
	<style>
		tspan { white-space:pre }
		.shp0 { fill: #ccccca } 
		.shp1 { fill: #dadada } 
		.shp2 { fill: #a19dae } 
		.shp3 { fill: #b2b0bc } 
		.shp4 { fill: #c7c5cb } 
		.shp5 { fill: #ffffff } 
		.shp6 { fill: #423e4f } 
	</style>
	<g id="Layer">
		<path id="Layer" class="shp0" d="M252.13 152.92L197.89 157.8L197.89 112.39L259.3 74.03C273.19 81.6 283.94 91.02 292.19 100.55L252.13 152.92Z" />
		<path id="Layer" class="shp0" d="M171.66 120.67C168.15 104.42 162.97 90.4 158.45 80.07C154.22 70.39 160.76 59.34 171.28 58.45C188.83 56.95 204.35 57.68 218.05 60.02L171.66 120.67Z" />
		<path id="Layer" class="shp1" d="M259.3 74.03C242.91 91.19 219.27 119.4 197.89 157.8L175.78 159.8C175.95 145.94 174.26 132.69 171.66 120.67C188.47 92.23 206.43 71.78 218.05 60.02C234.19 62.78 247.82 67.78 259.3 74.03Z" />
		<path id="Layer" class="shp1" d="M317.56 147.03L252.13 152.92C266.48 129.54 281.36 111.95 292.19 100.55C312.1 123.47 317.56 147.03 317.56 147.03Z" />
		<path id="Layer" class="shp2" d="M62.53 246.55C49.69 233.71 32.85 227.74 17.25 228.94C8.12 229.65 0.86 236.91 0.15 246.04C-1.05 261.65 4.92 278.48 17.76 291.32C21.48 295.05 25.55 298.19 29.82 300.76C25.55 303.32 21.48 306.46 17.76 310.19C4.92 323.03 -1.05 339.87 0.15 355.47C0.86 364.6 8.12 371.86 17.25 372.57C32.86 373.77 49.69 367.8 62.53 354.96C77.87 339.63 83.4 318.59 78.61 300.76C83.4 282.92 77.87 261.89 62.53 246.55L62.53 246.55Z" />
		<path id="Layer" class="shp3" d="M494.03 372.5C482.59 361.39 463.55 341.75 459.3 330.19L414.94 365.7C414.94 365.7 436.8 421.01 492.25 387.9C497.76 384.61 498.64 376.97 494.03 372.5Z" />
		<path id="Layer" class="shp4" d="M468.9 300.75C468.9 388.34 378.93 439.33 267.95 439.33C156.98 439.33 67.01 388.34 67.01 300.75C67.01 213.17 156.98 142.16 267.95 142.16C378.93 142.16 468.9 213.17 468.9 300.75Z" />
		<g id="Layer">
			<path id="Layer" class="shp5" d="M243.96 332.53C226.04 332.53 211.55 320.99 211.55 306.72C211.55 292.44 226.04 280.9 243.96 280.9C261.89 280.9 276.37 292.44 276.37 306.72C276.37 320.99 261.89 332.53 243.96 332.53Z" />
			<path id="Layer" class="shp5" d="M419.65 332.53C401.73 332.53 387.24 320.99 387.24 306.72C387.24 292.44 401.73 280.9 419.65 280.9C437.58 280.9 452.07 292.44 452.07 306.72C452.07 320.99 437.58 332.53 419.65 332.53Z" />
		</g>
		<g id="Layer">
			<path id="Layer" class="shp6" d="M262.85 289.37C258.71 289.37 255.35 286.01 255.35 281.87L255.35 268.62C255.35 264.48 258.71 261.12 262.85 261.12C266.99 261.12 270.35 264.48 270.35 268.62L270.35 281.87C270.35 286.01 266.99 289.37 262.85 289.37Z" />
		</g>
		<g id="Layer">
			<path id="Layer" class="shp6" d="M400.76 289.37C396.62 289.37 393.26 286.01 393.26 281.87L393.26 268.62C393.26 264.48 396.62 261.12 400.76 261.12C404.9 261.12 408.26 264.48 408.26 268.62L408.26 281.87C408.26 286.01 404.9 289.37 400.76 289.37Z" />
		</g>
		<g id="Layer">
			<path id="Layer" class="shp6" d="M331.81 297.26C322.67 297.26 313.99 293.3 307.97 286.4C305.25 283.28 305.58 278.54 308.7 275.82C311.82 273.1 316.56 273.42 319.28 276.55C322.44 280.18 327.01 282.26 331.81 282.26C336.6 282.26 341.17 280.18 344.33 276.55C347.05 273.42 351.79 273.1 354.91 275.82C358.04 278.54 358.36 283.28 355.64 286.4C349.63 293.3 340.94 297.26 331.81 297.26L331.81 297.26Z" />
		</g>
		<g id="Layer">
			<path id="Layer" class="shp3" d="M214.13 405.98C202.54 405.98 190.18 402.09 177.2 394.34C172.69 391.65 169.69 387.12 168.97 381.91C168.24 376.68 169.91 371.47 173.54 367.63C178.05 362.86 184.03 355.51 186.94 347.62C188.37 343.73 192.67 341.74 196.56 343.17C200.45 344.6 202.44 348.91 201.01 352.8C197.24 363.07 189.92 372.14 184.44 377.93C183.77 378.64 183.77 379.44 183.82 379.85C183.89 380.34 184.13 381.01 184.89 381.47C200.01 390.49 213.54 393.1 225.09 389.2C243.06 383.15 251.3 363.12 251.38 362.92C252.93 359.09 257.29 357.21 261.13 358.74C264.96 360.28 266.84 364.61 265.32 368.46C264.9 369.54 254.58 395.01 230.03 403.37C224.91 405.11 219.6 405.98 214.13 405.98Z" />
		</g>
		<g id="Layer">
			<g id="Layer">
				<path id="Layer" class="shp3" d="M130.44 317.05C128.36 317.05 126.29 316.19 124.81 314.5C121.22 310.43 119.25 304.91 119.25 298.98C119.25 293.05 121.22 287.54 124.81 283.46C127.54 280.35 132.28 280.05 135.39 282.78C138.5 285.51 138.81 290.25 136.07 293.37C134.93 294.66 134.25 296.76 134.25 298.98C134.25 301.2 134.93 303.31 136.07 304.6C138.81 307.72 138.5 312.45 135.39 315.19C133.97 316.44 132.2 317.05 130.44 317.05L130.44 317.05Z" />
			</g>
		</g>
		<g id="Layer">
			<path id="Layer" class="shp3" d="M187.95 324.33C185.87 324.33 183.8 323.47 182.32 321.78C177.17 315.93 174.22 307.62 174.22 298.98C174.22 290.35 177.17 282.04 182.32 276.19C185.05 273.07 189.79 272.77 192.9 275.5C196.01 278.24 196.32 282.97 193.58 286.09C190.81 289.24 189.22 293.94 189.22 298.98C189.22 304.03 190.81 308.73 193.58 311.88C196.32 314.99 196.01 319.73 192.9 322.46C191.48 323.72 189.71 324.33 187.95 324.33L187.95 324.33Z" />
		</g>
		<g id="Layer">
			<path id="Layer" class="shp3" d="M159.2 320.69C157.12 320.69 155.04 319.83 153.56 318.14C149.22 313.21 146.74 306.22 146.74 298.98C146.74 291.74 149.22 284.76 153.56 279.82C156.3 276.71 161.03 276.41 164.15 279.14C167.26 281.87 167.56 286.61 164.83 289.72C162.87 291.96 161.74 295.33 161.74 298.98C161.74 302.63 162.87 306 164.83 308.24C167.56 311.35 167.26 316.09 164.15 318.82C162.72 320.08 160.96 320.69 159.2 320.69L159.2 320.69Z" />
		</g>
		<path id="Layer" class="shp3" d="M101.42 285.27C101.42 236.31 129.52 192.04 174.81 160.21C110.74 186.71 67.01 239.7 67.01 300.75C67.01 375.83 133.11 424.01 221.89 436.25C149.76 405.65 101.42 349.49 101.42 285.27L101.42 285.27Z" />
	</g>
</svg>