<svg xmlns="http://www.w3.org/2000/svg" viewBox="0 0 1738.22 1970.92"><defs><style>.cls-1{fill:#6a493a;}.cls-2{fill:#996850;}.cls-3{fill:#b87e61;}.cls-4{fill:#3e4852;}.cls-5{fill:#2e3b43;}.cls-6{fill:#75808b;}.cls-7{fill:#d2d2d2;}.cls-8{fill:#656f79;}.cls-9{fill:#f74b4b;}.cls-10{fill:#d04341;}</style></defs><g id="Layer_2" data-name="Layer 2"><g id="Layer_1-2" data-name="Layer 1"><path id="Layer" class="cls-1" d="M485.2,160.23c1-8,1.8-14,2.3-20a21.32,21.32,0,0,0-.8-6.1c-1.2-5.5-4.5-11.4-3.3-16.3a493.83,493.83,0,0,1,14.7-47.6c3.8-10.6,12.1-16.7,22.7-21.3,61-26,125.9-36.4,190.7-45.7,66.4-9.5,131.2,2.9,194.3,24.9,18.9,6.6,38.1,12.4,57.3,18.4,15.8,5,28,14.1,36.3,28.7,16.9,29.5,30.7,60,31.9,94.6.3,8.5-2.9,17.1-5.2,29.2,6.9,9.9,16.2,23.4,26.1,37.7-14.9,6.3-28.7,5.1-41.1-3.8-6.4-4.6-10.8-12-16.3-18-2-2.2-4.1-5-6.7-5.6-23.3-5.6-46.7-10.9-70.1-16.2-1.9-.4-3.8-.7-6.2-1.1-.2,2.3-.5,4.2-.5,6.1,0,28.9-18.7,51.5-47.5,52.9-22.7,1.1-45.9.3-68.3-3.4-42-6.9-83.8-15.6-125.3-25.5-15.6-3.7-30.6-11.7-44.7-19.9-8.7-5.1-15.9-13.5-22-21.8-4.1-5.6-7.8-9.7-14.7-11.2-7.1-1.5-15.6-7.4-20.5-5.1-5.7,2.6-8.3,12.1-11.9,18.8-6,11.2-11.1,23-17.8,33.8-10.1,16.3-28.4,24-46,20.4s-31.7-16.6-33.5-34.9c-1-10.5,2.4-21.6,4.6-32.2.4-1.8,3.9-3.5,6.2-4.4C475.5,163.33,481.3,161.53,485.2,160.23Z"/><path id="Layer-2" data-name="Layer" class="cls-2" d="M492.2,87.13c5.6-19.6,14.4-32.2,33.1-39.7,61.3-24.5,125.6-35.5,190.2-44.2,65.1-8.8,130.1,2.1,191.7,23.6,15.7,5.5,29.8,12.6,46,16.7,24.6,6.2,41.9,20.2,52.2,43.2,2.5,5.6,5.4,11.1,6.7,18.5-7.2-3.4-14.9-6.1-21.5-10.4-49.3-32.2-104.1-46.7-161.9-53-45.3-4.9-90.4-2.7-135.6,0-22,1.3-137.2,23.7-172.2,35.5C511.8,80.43,502.8,83.53,492.2,87.13Z"/><path id="Layer-3" data-name="Layer" class="cls-3" d="M672.4,581.13c17.9,3.8,35.7,7.8,53.6,11.5,46.3,9.8,92.8,17.3,140.3,17.8,31.4.3,62.8,2.2,94.1.9a346.4,346.4,0,0,0,46.3-5.7c2.6-.5,6.3-.4,3.4-5-8.4-13.3-9.1-27.7-5.5-42.5.1-.4-.3-1-.6-1.7-6.2,1.9-12.2,4.1-18.5,5.6-39.3,9.2-73.4-15.9-75.8-56.3-1.6-26.6,5-51.4,17.4-75,7.8-14.9,7.1-15-10.2-16.2-23.4-1.7-46.8-3.9-70.2-5.9-4.5-.4-9-.6-14.8-1,6,6.8,11.5,12.4,14.8,19.6,12.1,26.4.8,55.9-26.4,69.1-15,7.3-31.2,10-47.6,11.6-34.8,3.2-69.5.6-104.1-3.8-47-6-92.6-18.1-138-31.3-2-.6-4-2.5-6.8-.3,3.5,5.7,9.6,8.5,14.4,12.6,6.5,5.5,13.4,10.5,18.8,17.1,15.4,18.8,17.2,42.6,4.6,60.5-13.2,18.6-36,25.3-59,17.2-12.9-4.6-24.9-10.9-36.5-17.9-6.1-3.7-12.7-5.6-21.5-8,10.5,12.2,19.9,22.7,28.7,33.6,16.4,20.3,16.9,44.7,1.4,63-10.1,12-23.3,17.3-39.1,16.2-10.7-.7-21.3,2.6-32.1.3-23.6-4.9-43.8-16.9-62.7-30.9-70.7-52.3-135-111.2-184.9-184.3-22.9-33.6-42.1-69-50.4-109.5-10.4-50.7,2.3-95.4,35-134.6,40-48,92.8-75.8,151.5-93.9,58-17.9,115.8-16.3,173.8.6,32.3,9.4,64.1,20.4,96.1,30.9,45,14.7,91.3,21.5,138.3,24.3,81.5,4.9,162-4.1,242.1-18.8,52.3-9.6,104.7-19.2,157.7-22.6,61.2-4,121.7.1,178.6,26.5,36.6,16.9,68.3,40.2,92.4,72.8,33,44.7,42.7,94.9,32.1,148.9-10.1,51.6-34.8,96.5-65.4,138.5-46.1,63.4-106.8,109.4-175.4,145.6-15.4,8.1-32,12.9-49.9,9.2-1.4-.3-3.1,0-4.1-.8-11-7.8-22.2-3.2-33.3-.4-32.8,8-66.1,12.5-99.7,14.8-50.8,3.4-99.6-6.1-147.6-22-49.6-16.5-97.4-36.6-140.7-66.4-5.3-3.6-10.4-7.6-15.6-11.3A12.38,12.38,0,0,0,672.4,581.13Z"/><path id="Layer-4" data-name="Layer" class="cls-2" d="M162.8,181.43c17.6-16.5,34.7-28.5,58.3-29.4,45.8-1.8,91.4-6.6,137.2-7.2,58.7-.8,115.9,10.6,172.1,26.6,72.4,20.5,145.9,30.9,221.2,29.2,72.2-1.6,144.2-6.9,215.6-17.3,101.5-14.8,203.3-18.5,305.6-12.4,5.7.3,11.5,2.6,16.8,4.9,16.1,6.9,32,14.3,47.9,21.6,2,.9,4.6,1.5,6,3,9.2,9.8,18.2,19.9,27.3,29.8-.5.5-.9,1-1.4,1.6-15.1-5.7-30.3-11.4-45.5-16.9-48.5-17.9-98.7-20.9-149.7-16.9-49.3,3.8-96.8,16.9-145,27-74.9,15.7-150.3,26.5-227,28.6-92.3,2.5-181.8-9-268.6-43.2A776.28,776.28,0,0,0,360.2,164c-56.6-8.1-112.3-3.6-167.5,9.9C183.5,176.13,174.1,178.53,162.8,181.43Z"/><path id="Layer-5" data-name="Layer" class="cls-4" d="M704,883.73H658.1c-6.1-.7-12.2-1.5-18.4-2-31.6-2.4-62-8.8-89.9-24.8-64.1-36.7-117.6-85.8-168.1-138.9-12.2-12.8-15.4-25.1-14.5-42.1,3.2-60.5,5-121,14.9-180.9,7.4-44.8,17.2-88.9,37.7-129.9,1.9-3.7,3.7-8.6,6.9-10.4,13.2-7.5,26.4-17.1,40.8-20.2,30-6.5,60.7-12.1,91.3-13.1,63.9-2.2,127.9-.6,191.8-1.5,65.8-1,130.2,7.9,194.2,22.1,57.3,12.7,100.9,42.7,131.4,93.3,16.4,27.1,26,56.4,34.5,86.3,10.4,36.6,10.4,74.4,11,112a16.79,16.79,0,0,1-1.9,7.2c-20.7,42.3-47.2,80.5-81.7,112.6-14,13.1-29.6,24.6-45.3,35.7-39,27.5-77.7,55.2-125.7,66.6-37.1,8.8-73.6,20.1-111.8,23.5Z"/><path id="Layer-6" data-name="Layer" class="cls-5" d="M958.8,344.93c15.5,7,31.3,13.6,46.6,21,44.6,21.6,70.2,60.3,89.4,103.4,23.3,52.3,30.7,108.2,28.4,165.1-.4,10.7-7.2,21.9-13.4,31.5-20.3,31.6-39.9,64.3-69.3,88.6-25.7,21.2-53,40.5-80.3,59.6-13.1,9.2-27.5,16.8-42,23.6-55.1,25.8-113.3,39.7-174.1,42.8-39.1,2-78,2.6-117-2-24.3-2.8-47.9-8.5-69.9-19.5-28.7-14.3-57.8-29.1-80.2-51.9-31.8-32.2-70.4-57.3-98.1-93.8-5.8-7.6-13.1-14.6-10.3-25.6a22.08,22.08,0,0,1,1-2.4c9.6,8.9,19.8,17,28.4,26.7,23.5,26.6,51.9,45.9,84,60.5,45.4,20.7,91.3,40,140.3,50.2,75.1,15.7,148.5,8.1,220.5-17.4,10.1-3.6,20.4-6.7,30.7-9.7a277.41,277.41,0,0,0,108.6-61.2c31.3-28.4,47.3-65.3,51.7-107.6,4.8-46.2,10.5-92.2,7.5-138.8a128,128,0,0,0-15.5-54.1c-13.8-25.4-32.7-46.8-52.4-67.5-5.6-5.9-10.9-12.2-16.3-18.3A32.39,32.39,0,0,1,958.8,344.93Z"/><path id="Layer-7" data-name="Layer" class="cls-5" d="M361.4,705.43c15.7,14.2,30.2,27.6,45,40.6,43.7,38.7,90.6,72.5,144.6,95.4,29.5,12.5,61.1,13.4,92.6,13.8,74.7,1,146.9-13.1,217.4-36.6,25.1-8.4,46.5-23.4,67.9-38.1q35.7-24.45,69.6-51.4c8.2-6.5,14.3-15.8,21-24.2a176.58,176.58,0,0,0,14.6-20.8c10.6-17.9,21-36.1,31-54.4,2.4-4.4,4.7-6.2,9.7-5.7,9,1,18.1,1.4,27.1,1.9,7.9.4,14.1,2.8,19.9,9.1,7.7,8.5,17.2,15.5,26.2,22.8,68.7,55.3,133.4,115,191.5,181.4q130.05,148.35,170.3,341.8c8.8,42.2,12.6,85,13.2,128.2.2,11.2,1.8,22.4,3.4,33.5,2.6,18.4-2.5,34.6-14.9,47.7-8.1,8.5-17.7,15.8-27.5,22.4-72.8,48.6-152.2,82.2-237,103-53.5,13.1-107.5,23.8-162.6,27.9-54.1,4-108,2.2-162-.7-1.4-.1-2.8-.4-4.6-.7.4-1.3.4-2.4,1-3.2,4.2-6.3,5.9-13,1.8-19.9-4.4-7.3-11.6-9.9-19.7-9.1-8.4.8-16.7,2.9-25.2,3.7-93.6,8.5-182.2-5.8-262.7-57.6a70.36,70.36,0,0,0-16.8-8.1c-3.6-1.1-9.1-1-11.6,1.1s-3.7,7.8-2.9,11.3c1.2,5.3,4.1,10.5,7.1,15.1,2.7,4.2,6.5,7.7,10.8,12.6-2.8-.6-4.6-.6-6.1-1.3-28.3-12.1-56.7-24.2-84.9-36.7-5-2.2-9.7-6-13.6-9.9-50.5-50.8-82.7-110.7-90.1-182.8-.4-3.8-2.2-7.6-4-11-10.4-19.5-23.3-38-30.8-58.5-7.5-20.7-11.2-43.1-13.9-65.1-5.8-47.7-1.4-95.6,2.1-143.2,6.2-82.6,5.1-165.2,3-247.8-.2-7.1-.3-14.1-.3-21.2A31.46,31.46,0,0,1,361.4,705.43Z"/><path id="Layer-8" data-name="Layer" class="cls-6" d="M915.4,1543c1.5-2.2,2.2-3.4,3-4.5,8.5-13.2,1.9-27-13.8-28-6.4-.4-12.9,1.3-19.3,2-96.3,11.8-187.2-2.6-270.6-54.9a90.27,90.27,0,0,0-18.1-9.1c-3.5-1.2-9.5-1.5-11.6.6-2.6,2.5-4.2,8.9-2.7,12,4,8.2,9.7,15.6,14.9,23.2,1,1.5,2.5,2.8,3.1,5.4-8.1-3-16.4-5.7-24.4-9.1-19.8-8.4-39.8-16.5-59-26.1-10.4-5.2-19.7-13-28.5-20.7-4.2-3.6-7.4-9.4-9-14.9-20.1-68.2-28.1-137.7-22.4-208.9,3.6-44.3,11.2-87.5,29.8-128.2,14.6-32.2,33.1-61.4,63.8-80.7,27-17,56-26.9,88.5-23.1,3.1.4,7.3-1.2,9.6-3.3C702.3,925,777.5,923,833,970.53c7.9,6.8,15.7,14.1,22.1,22.3,44.4,57.5,85.7,117.1,112.6,185,47.4,119.5,43.9,238-11.5,354.6-4.3,9-9.1,14-19.8,11.8C930.1,1543,923.2,1543.43,915.4,1543Z"/><g id="Layer-9" data-name="Layer"><g id="Layer-10" data-name="Layer"><path id="Layer-11" data-name="Layer" class="cls-4" d="M1104,1187.53c3.2,46.8-6.8,91.9-16.9,136.9-9.3,41.2-16,82.7-18.3,124.8-.7,12,1.3,24.3,3.4,36.2,4.3,24.2,10.7,48,14.1,72.3,1.8,13.1-.3,26.9-1.6,40.3-.3,3.2-3.5,7.2-6.5,9-27.8,16.8-57.4,27.1-90.4,27.5-40.6.5-80.8-1-120.6-10.1-16.4-3.8-31.1-10.8-43-22.6-4.6-4.6-9.4-11.4-9.7-17.3a467.21,467.21,0,0,1,1.9-55.5c.5-5.4,4.5-11.1,8.3-15.4,9.7-11,19.1-22.7,30.5-31.7,18.2-14.3,31.1-32.4,40.1-52.9,22-50.2,36.1-102.5,35.8-157.8-.3-55.7-18.3-105.6-52.2-149.5-16.1-20.9-36.7-36.9-60.2-48.8-6-3.1-12.5-6.6-18.9-7.2-16.6-1.5-28.9-10.8-42.4-19-54.3-32.8-109.3-29.6-162.3,2.4-20.1,12.1-38,28.6-54.7,45.2-20.6,20.5-28.2,48.3-33.6,75.9-13.4,68.8,2,132.1,40.1,190.1,13.3,20.3,29,39.1,43.3,58.8,6.3,8.7,12.1,17.8,17.7,26.9,21.3,34.5,20.6,70.9,7.2,107.5-4.5,12.3-11.2,23.9-18,35.2-4.5,7.4-12.1,11.8-21.1,13-18.5,2.5-36.9,5.3-55.4,7.3-26,2.7-50.5-5-74.8-12.6a269.24,269.24,0,0,1-43.3-17.2,136.39,136.39,0,0,1-30.1-21.5c-14.3-13.3-14.8-38.4-3.8-54.8a406.91,406.91,0,0,0,26.4-44.5c12.4-24.8,10.2-50.4,1-75.9-16.7-46.3-33.6-92.5-50-138.8-19.2-54.1-31.6-109.7-35.8-167.1-5.4-74,4.1-146.4,23.1-217.6,7-26.3,18.1-51.7,28.1-77.2,6.1-15.6,18.7-21.5,31.5-16.4,7.9,3.1,12.9,8.6,14.5,17.4.5,2.7,2.8,6.3,5.2,7.3,49.4,19.7,85.5,70.6,138.7,78.7,45.1,6.9,110.7,47.1,156.3,47.6,45.3.5,100.8-5,146.1-5.1,14.4,0,17.9-40,32.3-39.1,6.8.4,6.9-18.5,13.6-18.9,23.3-1.5,44.3,3.2,61.1,20.5,13.1,13.6,27.5,26.3,39,41.2,49.8,64.7,82.2,137.9,100.8,217C1104.5,1149.63,1102.9,1168.83,1104,1187.53Z"/><path id="Layer-12" data-name="Layer" class="cls-4" d="M1176.9,1512.83c1.1-28.2,17.7-59.2,50.5-79.3,19.3-11.9,41.3-19.6,62.2-28.9a11.07,11.07,0,0,1,7.4-.4c26.9,9.3,55.2,8.6,83,10.9,8.5.7,17,.9,25.4.9,7,0,9.2,3.4,8.8,10.1-1.4,24.2-17.6,42.8-41.8,46.6a31.15,31.15,0,0,0-16.8,8.3c-6.1,5.5-14.4,8.6-21.6,12.9-9.2,5.4-18.8,10.3-27.3,16.6s-11.2,15.3-8.2,25.8c1.6,5.7,3.3,11.4,4.5,17.2,4.6,21.1-5.3,38.4-24.4,45.2C1225.3,1617.73,1175.7,1581.93,1176.9,1512.83Z"/></g></g><g id="Layer-13" data-name="Layer"><g id="Layer-14" data-name="Layer"><path id="Layer-15" data-name="Layer" class="cls-7" d="M534.8,1490.93c-24.1,35.4-33.5,74-20,119.2-15.3-2.5-28.1-5.6-41.2-6.7-28.8-2.5-38.2-22-44.4-46.4-5.4-21.5-6.2-42.3,1.4-63.2.6-1.6.1-3.7-1.2-6-13.1,11.6-16.8,27.7-21.7,43.5-5.2,16.5-6.2,32.5,1.5,49.8-17.8-6.4-31-16.4-40.9-30s-7.9-34.5,1.1-48.8c10.8-17.1,20-35.3,30-53,1.2-2.1,2.4-4.9,4.3-5.9,21.6-11.6,42.7-24.3,68.2-26.3,48.4-3.7,91.1,9.3,128,41a10.08,10.08,0,0,0,1.9,1.7c19.1,11.7,22.9,29.9,21.8,50.5-1.3,24.2-8.3,46.7-19.7,67.8-7.5,13.8-18.7,23.3-35.6,23.9-3.1.1-6.1,1.1-9.2,1.5-18.8,2.4-19.2,2.4-22.1-16.6a259.32,259.32,0,0,1,1.1-87,69.91,69.91,0,0,0,.8-8C537.6,1491.63,536.2,1491.33,534.8,1490.93Z"/><path id="Layer-16" data-name="Layer" class="cls-7" d="M1005.4,1632.23c-6.9.7-12.2,1.8-17.5,1.6-26.5-.9-53.1-2.2-79.6-3.1-6.2-.2-7.8-2.4-7.4-8.9.8-13.5-.1-27.2.3-40.7.5-17.7,1.7-35.4,2.6-53.1a24.38,24.38,0,0,0-1.2-9.5c-25.6,31.1-27.8,68.2-26.3,107.1-24.8-5.2-46.8-12.1-58.3-34.5-4.3-8.5-4-19.7-4.4-29.7-1-21.8,2.3-42.5,20.1-57.8,4.2-3.6,8.6-7.5,13.6-9.6,25.9-11.1,50.7-25.3,79.1-29.8,45-7.2,87.4-.7,126.4,23.5,13.9,8.6,24.2,19.6,26.2,37.3,1.7,15.6,6.9,31,8,46.6,1.9,27.3-2.6,33.6-27.3,44.7-10.2,4.6-20.7,8.6-31.6,13,1.7-43.2-19.7-77.4-36.4-113.4C987.5,1555.43,1002.3,1592.53,1005.4,1632.23Z"/></g></g><path id="Layer-17" data-name="Layer" class="cls-8" d="M1474.9,1055.33c25.6,9.2,50.5,16.5,72.6,30.7,54.3,34.8,100.6,77.8,137,131.2,48.4,71,63.4,148.9,47.8,232.9-15.1,81.3-57.4,147.1-116,203.8-46.8,45.4-102.4,77-160,106.1-33.8,17.1-67.9,33.8-100.8,52.7-44.9,25.8-78.1,62.9-100.5,109.8a137.85,137.85,0,0,1-18.9,30c-15.6,18.3-36,22.1-58.6,15.1-4.8-1.5-9.8-3.3-14-6.1-32-21.3-64.1-42-91.3-70.1-55.1-57-72.9-158.6-17.9-238,25.4-36.7,58.5-65.4,95.1-89.9,28.9-19.4,58.4-37.9,88.7-54.9,37.5-21,72.3-45.5,105.4-72.7,37.2-30.5,74.3-61,108.4-95.2,45.7-45.9,59.1-100.5,52.7-163.2-3.9-38.7-14.8-75.2-27.1-111.5-.7-2.1-1.4-4.3-2-6.5C1475.2,1058.93,1475.2,1058,1474.9,1055.33Z"/><path id="Layer-18" data-name="Layer" class="cls-9" d="M642.2,1210.43c-14.9-15.6-29.6-30.1-43.3-45.5-39.7-44.6-79.6-89.1-111.9-139.6-35.8-55.9-60.6-117-82.9-179.1-13.7-38.1-27.6-76.1-39.4-114.8-4.3-14.2-2.9-30.2-3.9-45.3-.5-6.8-.8-13.6-.7-20.3,0-2.5,1.6-5,2.4-7.4,2.7,1.2,6.1,1.7,7.8,3.6a96.18,96.18,0,0,1,11.8,16.6c38.2,71.6,97.9,118.7,170.6,151.4,46.6,20.9,95.8,29.2,146.3,33.5,76.1,6.4,149.1-5.3,218.7-35.8,56-24.6,106.5-58,146.3-105.2,14.3-16.9,25.6-36.6,37.4-55.5,12-19.2,12.5-42,17.7-63.3,1.8-7.2,2.9-14.6,4.4-21.9.8,0,1.6.1,2.3.1.3,2.6.7,5.3.8,7.9.5,18.4,1,36.8,1.4,55.1a22.47,22.47,0,0,1-.7,5.8c-14.1,44.8-29.6,89.4-53.6,129.8-35.6,60.3-76.8,116.7-126.3,166.7-79.8,80.6-165.7,154.2-255,224C676,1184,659.7,1196.73,642.2,1210.43Z"/><path id="Layer-19" data-name="Layer" class="cls-10" d="M846.4,968.53c-105.2,30.1-203.4,10.9-296.7-41.1-26.7-14.9-51.1-32.7-71.1-56.8,21.2,4.8,42.2,10,63.5,14.3,45,8.9,90.2,16.2,136.4,13.8,38.4-2,76.9-2.6,115.1-6.4,22.3-2.3,44.2-8.9,65.9-15.1,14.2-4,27.8-7.6,42.9-2.5,1-2.1,2.4-4,2.7-6,1.8-15.4,10.8-27.8,17.8-40.9,1.9-3.5,6.4-6.2,10.2-8.1,47.7-24.5,92-53.9,126.9-95.1,14.7-17.3,26.4-37.4,38.7-56.7,12.5-19.6,13-43,18.3-64.9,1.8-7.2,2.9-14.6,4.4-21.9.9.1,1.7.1,2.6.2.3,2.9.8,5.8.9,8.8.5,17.8.9,35.6,1.3,53.5a20.85,20.85,0,0,1-.7,7.5c-14,44.3-29.2,88.3-52.8,128.3-31.1,52.7-65.8,103-108,147.7-82.6,87.5-173.8,165.4-268.2,239.7-16,12.6-32.4,24.7-48,37.8-6.4,5.4-10.7,3.2-15.1-1.4-13.4-13.8-27.2-27.3-39.9-41.7-36.6-41.3-73.2-82.7-103.9-128.8a179.1,179.1,0,0,1-15-26.9c7.1,5.2,13.9,10.8,21.3,15.5,39.6,25.5,83.5,36.8,130,39.7,48.4,3,96-2,143.1-13.2a11.08,11.08,0,0,1,2.5-.5c17.7.8,28.1-9.4,37.1-23.2,10.2-15.6,21.9-30.2,32.9-45.3,1.9-2.7,3.6-5.5,5.4-8.3A19.45,19.45,0,0,0,846.4,968.53Z"/><g id="Layer-20" data-name="Layer"><path id="Layer-21" data-name="Layer" d="M507.3,661.63c3.8.2,7.7.4,11.5.8,40.8,3.5,78.5-6.3,113.5-27.2,1-.6,1.9-1.2,2.8-1.8,14.8-10.9,13.9-10,1.6-22.9-6.9-7.2-10.5-17.7-15-27a117.47,117.47,0,0,1-6.9-18.2c-2.8-9.6,3.4-16.7,13.4-16.4,15,.5,29.9.4,44.9,1,7,.3,14.3.6,20.9,2.6,12.4,3.8,17.9,16.6,11.6,27.9a329.66,329.66,0,0,1-22.1,34c-6,8.1-6.3,12.8,1.3,19.5,31.1,27.3,68.3,42.7,107.4,54.2,17.8,5.3,35.9,9.9,54,16.4-11.5.2-23,1.3-34.4.4-45.5-3.5-85.5-22.5-123.5-46.1-7.3-4.6-13.5-11.1-19.8-17.1-4.2-3.9-7.9-3.5-12.9-1.5-23.6,9.4-47.1,19.1-71.2,27.2-21.6,7.3-44.1,5.7-66.3,2-4.1-.7-7.9-3.1-11.8-4.7C506.6,663.73,507,662.73,507.3,661.63Z"/><path id="Layer-22" data-name="Layer" d="M1471.8,542.73c-35.8-5.1-71.6-10.8-107.5-15-85.4-10-170.9-13.7-256.7-8-45.5,3-90.9,4.8-135.1,16.6-17.4,4.6-33.9,16.3-50.8,22.6-1.6.6-3.1,2.2-4.6,2.1-3.5-.2-7.8-.1-10.1-2.1-3.9-3.3-1.4-6.8,1.9-9.8a127.05,127.05,0,0,1,53.3-28.9c26.7-7,53.9-13.8,81.3-16.2a1198.08,1198.08,0,0,1,127.1-4.9c68.2,1,136.1,7.2,203.2,20.4,29.4,5.8,58.6,12.8,87.8,19.4,3.5.8,7,2.2,10.4,3.2A1.42,1.42,0,0,1,1471.8,542.73Z"/><path id="Layer-23" data-name="Layer" d="M978.2,582.33c57.6-9.1,115.4-4.6,172.7,3.6,111,15.9,209.8,59.3,299.6,125.1-.3.7-.6,1.5-.9,2.2-2.4-1.1-4.9-2-7.2-3.3-88-49.6-182.3-80.5-281.5-98.7-56.1-10.3-112.5-16.6-169.1-21.7-4.7-.4-9.4-2.1-14.1-3.2C977.9,585,978,583.63,978.2,582.33Z"/><path id="Layer-24" data-name="Layer" d="M1212.8,846.53c-4.4-7.8-8.5-15.7-13.1-23.2-37.1-60.8-88.5-105.9-151.7-138.3-37.7-19.3-76.2-35.9-118-44.1-4.3-.8-8-4.8-11.9-7.3,4.3-2.2,78.4-2.6,109.1,9.7,80.3,32,139.2,87.3,175.4,166.1,5.3,11.6,8.6,24.1,12.8,36.2C1214.6,845.83,1213.7,846.23,1212.8,846.53Z"/><path id="Layer-25" data-name="Layer" d="M475.1,538.73c-4.2-.2-9.5,1.2-12.5-.8C431,516.63,395,507.13,358.3,502c-45.6-6.4-91.6-11.5-137.6-13.4-68.5-2.8-136.8,3.1-204.4,15.3-4.5.8-8.9,1.5-13.4,2.3a3.52,3.52,0,0,1-2.9-1c2.3-.8,4.5-1.8,6.9-2.5,59.3-17,119.6-28.1,181.2-30.3,42.3-1.6,84.8-1.2,127.1.5a352.49,352.49,0,0,1,94.1,17.2c21.5,7,41.3,17.2,57.4,33.4,3.6,3.6,6.4,8.2,9.6,12.3A12.61,12.61,0,0,0,475.1,538.73Z"/><path id="Layer-26" data-name="Layer" d="M412.5,562.83c-6.4,1.1-12.8,2.5-19.3,3.1-25.9,2.5-51.9,3.7-77.7,7.2-98.7,13.5-193.4,39.3-278.9,92.6a106.86,106.86,0,0,1-18.3,9.7c67.1-59.2,143.7-100.7,232-117.4,53.7-10.1,108-11.2,161.8.1C412.3,559.73,412.4,561.23,412.5,562.83Z"/><path id="Layer-27" data-name="Layer" d="M213,814c5.7-16.5,10.1-33.5,17.2-49.4,29.3-65.6,73.9-116.9,140.5-146.7,22.4-10,46.2-15.3,70.9-14.7a58.61,58.61,0,0,1,15,2.3c2.3.7,5.2,3.5,5.4,5.5.1,1.8-3,4.2-5.1,5.7-1.5,1.1-3.7,1.2-5.7,1.7-105.9,28-184.6,89.4-231.4,189.5-1.2,2.5-2.5,4.9-3.7,7.3A24.48,24.48,0,0,1,213,814Z"/><path id="Layer-28" data-name="Layer" d="M885.7,478.73c-37.9-34.3-76.3-32.5-117.3-4.4,1-5.8,1.1-9.1,2-12.1,8.1-27.3,24.4-47.1,53.4-51.7,32.1-5.1,56.5,10,61.8,48.7C886.4,465.23,885.7,471.53,885.7,478.73Z"/><path id="Layer-29" data-name="Layer" d="M580.3,453.63c-32.3-21.2-64.1-26.9-97.7-9.9-7-23.8,16.8-52.2,44-52.6,17-.3,28.9,8.5,38.8,20.9C574.5,423.33,577.7,437,580.3,453.63Z"/></g></g></g></svg>