<svg id="Layer_1" enable-background="new 0 0 497 497" height="512" viewBox="0 0 497 497" width="512" xmlns="http://www.w3.org/2000/svg"><g><g><g><path d="m75.5 66.5c-8-15-14.365-66.5-14.365-66.5 28.048 67.948 101.494 66.803 101.494 66.803h111.506s73.446 1.146 101.494-66.803c0 0-6.365 51.5-14.365 66.5l-14.616 41.673-128.266 39.167-128.903-37.295z" fill="#d6b963"/></g><g><path d="m497 217.833c-45.973 4.926-64.167-23.333-96.167-38.333-27.179-12.74-45.333-10.667-56-35.333l-107.076 7.054 7.004 275.289s30.558 12.045 42.295 70.49h209.944z" fill="#f2f2f2"/><g><g><g fill="#d8d8d8"><path d="m326.742 105.514s21.08-62.315 108.275-49.097c0 0-3.005 73.546-96.363 68.403l-17.821-3.32z"/><path d="m108.275 105.514s-21.08-62.315-108.275-49.097c0 0 3.005 73.546 96.363 68.403l19.137-3.32z"/></g><g><path d="m218.251 426.532c-57.822 0-86.907-27.773-82.995-97.25 2.071-36.79-7.952-65.769-25.871-97.25-18.291-32.135-27.646-72.016-11.912-107.213 22.108-47.815 70.119-65.256 120.778-65.256 49.574.128 98.166 17.16 120.403 65.256 15.734 35.197 6.379 75.078-11.912 107.213-17.919 31.481-27.942 60.46-25.871 97.25 3.224 57.258-22.695 97.196-82.62 97.25z" fill="#f2f2f2"/></g><path d="m338.654 124.82c-22.238-48.096-70.829-65.128-120.403-65.256-6.834 0-13.616.33-20.296.996 42.35 4.234 81.425 22.573 100.699 64.26 15.734 35.197 6.379 75.078-11.912 107.213-17.919 31.481-27.942 60.46-25.871 97.25 2.865 50.888-17.292 88.092-63.879 95.779 6.587.987 13.673 1.471 21.259 1.471 59.925-.054 85.844-39.992 82.62-97.25-2.071-36.79 7.952-65.769 25.871-97.25 18.291-32.135 27.646-72.016 11.912-107.213z" fill="#e6e6e6"/></g></g><g><g><path d="m262.669 245.632c-3.848 0-7.604-3.927-7.501-7.706.252-9.204 4.07-17.755 10.75-24.078 6.679-6.322 15.414-9.666 24.631-9.413 9.698.266 9.271 15.281-.412 14.994-5.188-.144-10.138 1.744-13.907 5.313-5.559 5.26-4.062 20.89-13.561 20.89z" fill="#934d36"/></g><g><path d="m172.349 245.632c-4.047 0-7.381-3.224-7.493-7.294-.294-10.72-9.22-19.18-19.976-18.908-9.686.301-10.108-14.728-.411-14.994 18.991-.516 34.86 14.503 35.381 33.491.104 3.778-3.653 7.705-7.501 7.705z" fill="#934d36"/></g></g><g><path d="m216.5 296c-46.25 0-81.25 19.5-81.25 48.167l-.313.313c1.021 58.359 29.909 82.053 83.313 82.053 56.554-.051 82.816-35.629 82.882-87.761-.72-24.947-31.434-42.772-84.632-42.772z" fill="#ffd8d5"/></g><path d="m216.5 296c-6.368 0-12.513.382-18.392 1.095 39.822 4.215 62.408 20.334 63.025 41.677-.058 45.983-20.512 79.07-64.145 86.274 6.592.989 13.671 1.487 21.263 1.487 56.554-.051 82.816-35.629 82.882-87.761-.721-24.947-31.435-42.772-84.633-42.772z" fill="#f4c3c6"/><g><g><path d="m197.26 385.125c-4.142 0-7.5-3.358-7.5-7.5v-31.499c0-4.142 3.358-7.5 7.5-7.5s7.5 3.358 7.5 7.5v31.499c0 4.143-3.358 7.5-7.5 7.5z" fill="#934d36"/></g><g><path d="m237.758 385.125c-4.142 0-7.5-3.358-7.5-7.5v-31.499c0-4.142 3.358-7.5 7.5-7.5s7.5 3.358 7.5 7.5v31.499c0 4.143-3.358 7.5-7.5 7.5z" fill="#934d36"/></g></g></g></g><g><path d="m391.411 254.568c-7.23 27.587-23.266 54.57-18.207 82.636.701 3.889 2.052 8.05 5.387 10.17 3.693 2.348 8.514 1.413 12.714.189 19.804-5.77 42.048-15.965 59.59-5.113 8.05 4.98 13.157 13.557 20.465 19.573s19.446 8.65 25.5 1.374v-145.552c-45.869 4.852-64.06-23.361-96.027-38.345-4.7-2.203-9.124-3.958-13.293-5.49l1.318 2.989c8.306 24.885 9.204 52.191 2.553 77.569z" fill="#934d36"/></g></g></svg>