<svg xmlns="http://www.w3.org/2000/svg" viewBox="0 0 2664.88 2073.67"><defs><style>.cls-1{fill:#b5a18b;}.cls-2{fill:#6b4d3d;}.cls-3{fill:#a27f63;}.cls-4{fill:#815e48;}.cls-5{fill:#815f49;}.cls-6{fill:#352112;}.cls-7{fill:#372213;}.cls-8{fill:#5a8f5d;}.cls-9{fill:#fff;}.cls-10{fill:#a1bc30;}.cls-11{fill:#789917;}.cls-12{fill:#789918;}.cls-13{fill:#dfd3ca;}.cls-14{fill:#e0d3ca;}.cls-15{fill:#cb1201;}.cls-16{fill:#6d5040;}.cls-17{fill:#b4a08a;}.cls-18{fill:#f8e0df;}.cls-19{fill:#f8e1df;}</style></defs><g id="Layer_2" data-name="Layer 2"><g id="Слой_1" data-name="Слой 1"><path class="cls-1" d="M1243.9,249.87c30.8.2,61.7.3,92.5.5,14.7,1.1,29.5,2.2,44.2,3.1,56.2,3.5,112.2,9.4,167.6,20.1,22.2,4.3,44.7,6.5,67.1,9.5,33.9,4.6,67.5,11.1,101,18,55.4,11.3,110.4,24.2,165.3,37.9,14.6,3.7,29.2,7.4,43.8,11.3s25.3,13.8,36.3,23.3c3.8,3.2,3.9,7.6,2.2,12.1-1.1,3-1.3,6.3,1.6,7.8,13.5,6.6,12.3,19.7,12.2,30.8-.1,14.4-4.1,28.7-5.2,43.1-.7,10.3-7,13.5-15.1,14.8-11.3,1.7-22.2.2-31-8-2.4-2.3-4.9-2.7-7.9-2.4-84.6,8.9-169.6,3.7-254.4,5.4-70.3,1.4-140.6,2.3-211,3.8-36.9.8-73.8,1.8-110.6,3.5-61.5,2.7-122.9,5.7-184.2,11.4-45.7,4.2-91.4,7.4-137.1,11.2-33.3,2.8-66.5,6-99.9,6.9-3,.1-5.9.4-8.4,2-28,18-59.9,24.9-91.7,31.7a488.28,488.28,0,0,1-112.4,11c-42.8-.9-85.3-5.3-125.8-20.4-24.4-9.1-47.9-19.8-64.5-41.3-2.2-2.9-4.9-2.6-7.8-2.8-7-.6-11.5-3-13-11.1-2-10.8-6.9-21.3-6.6-32.3a67.32,67.32,0,0,0-5.3-29c-2.8-6.9,3.2-12.3,9-16.3,12.5-8.8,26.9-13.6,40.9-19.4,62.8-26.2,126.3-50.3,190.3-73.2,21-7.5,43.1-8.9,64.9-12.3,63.6-9.9,127.3-19.9,191-29,44.5-6.3,89.2-11.2,134.1-15C1158.6,253.07,1201.2,251.37,1243.9,249.87Z"/><path class="cls-2" d="M113.1,2073.67H102.6c-2.4-2.3-5.5-1.4-8.3-1.7a369,369,0,0,1-45.3-8.6c-5.8-1.4-7.4-4.1-7-9.7.7-8.7,1.3-17.4,3.9-25.8,11.9-39.2,32-73.9,58.5-105,18.3-21.4,39.8-39.9,57.9-61.6,11.7-14.1,23-28.8,36.5-41,53.5-48.2,98.4-104.5,147.3-156.9,22-23.6,43.2-47.9,63.2-73.4,25.2-32.1,47.5-66.3,63.5-103.9,7.3-17.1,15.4-33.8,23.4-50.5,42.2-88,66.7-180.8,72.3-278.3a1055.26,1055.26,0,0,0-1.8-149.8c-3.7-44.4-9.4-88.3-20.1-131.6-4.7-18.9-10.3-37.5-12.9-56.9-6.5-49-11-98.2-17.3-147.2-8.4-64.8-20.4-129.1-28-194-1.6-13.3-3.8-26.4-5.7-39.6-.6-3.8-1.1-8.2,2.8-10.2,3.5-1.8,6.8,1.1,9.3,3.3a218.11,218.11,0,0,1,17,16.3c22.2,24,45.6,46.4,73.6,63.7,20,12.4,41.5,19.5,65,20.1,38,.9,75.3-5.3,112.6-11.4,48.4-7.9,96.2-19.6,144.7-27.1,82.1-12.6,164.2-25.4,246.3-37.8,79.6-12,159.1-24.2,239.2-32.4a1950.13,1950.13,0,0,1,278.7-8.5c78.7,3.2,157.4,6.5,236.2,1.9,16-.9,28.3-7.5,38.1-19.7a122.7,122.7,0,0,0,14.5-22.6c4.5,3.4,6.9,7.3,9.1,11.5,9.2,17.5,11.9,36.9,16.6,55.7.4,1.6-.2,3.5-.2,5.2.4,12.1-5.4,22.1-9.6,32.9-15.4,40-38,75.7-62.9,110.1-22.7,31.4-39.8,65.2-39.7,105,.1,36.9-2.1,73.8.5,110.7,3.8,54.4,11.6,108,24.9,160.9,5.2,20.7,23.9,31.1,44.5,25,8.6-2.6,17.1-5.7,25.8-7.7,45.7-10.3,90.5-23.5,133.1-43.3,61.3-28.4,120.1-60.4,165.2-112.4,3-3.4,4.8-2.1,7.9-.2,31.4,19.8,52.1,48.3,66.8,81.8,2.1,4.7,1.6,7.8-1.9,11.6-17,18.4-34.2,36.6-53.3,52.7-72.4,61.2-155,104.4-244,135.7-36.4,12.8-73.5,23.9-110.3,35.4-5.9,1.8-8,4.1-6.4,10.4,1.9,7.9,2.8,16,4.1,24.1,12.8,79.8,28.1,158.9,52.4,236.2a653.6,653.6,0,0,0,77.1,163.4c2.7,4.1,5.2,8,10.4,10,51.1,19,99.5,43.6,147.2,69.8,48.7,26.8,93.9,58.3,132.5,98.5,16.4,17.1,31.5,35.4,39.5,57.9,3.6,10.2,9.7,21.3-.3,33.1-12.6,14.9-30.5,17.5-44.6,3.8a87,87,0,0,1-11.6-14.1c-4-5.9-9.2-9.2-15.9-11.3-30.3-9.4-60.9-17.3-91.8-24.3-60-13.5-120.4-23-182-24.8-23.9-.7-47.1,4.9-70.6,7.4-5.9.7-7.3,3.3-2.6,8.9,54.8,65.1,104.1,134,144.1,209.3,8.1,15.2,10.8,29.2,5.2,45.5-2.3,6.7-5.5,9.7-12.3,11.1-30,6.1-60.1,10.6-90.7,11.7-52.3,2-104.2-1.2-154.8-15.1-31.8-8.7-59.9-26.61-90.2-39.31-28.4-11.8-53.9-28-78.4-46.5-61.8-46.69-127.6-87.1-196.8-122.19-102.7-52.11-210.3-78.5-326-65.2a204.7,204.7,0,0,1-70.2-4c-22.6-5.3-45.4-10.3-63.2-27.2-5.2-5-12.3-7.8-19.1-10.2-33.3-12-61.1-1.4-78.4,29.5-6,10.8-9.5,22.4-11.9,34.5-2.7,13.4-4.8,26.8-9.3,39.8-2.5,7.2-6.4,11.3-14.1,13.4-73.4,20.3-147.4,37.9-223.1,48-22.2,2.9-44.1,8.9-66.5,8.8-59.9-.3-119.7,2.3-179.4,6.1-62.2,3.9-120.5,20.8-176.4,47.8C204.6,1995.47,157.2,2032.27,113.1,2073.67Z"/><path class="cls-3" d="M504.4,401.27c3.2-3.4,7.1-4.8,10.8-6.3,70.3-29,141.1-56.9,212.9-82.2,20.7-7.3,42.6-8.5,64-11.9q96.75-15.3,193.7-29.1c61.8-8.7,123.9-15.1,186.3-18.5a1751.52,1751.52,0,0,1,176-1.3c66.8,3,133.2,9.1,199,21.8,23,4.4,46.5,6.3,69.7,9.6,14.6,2.1,29.1,4.9,43.8,8.3-15.5,2.3-31,5.2-46.6,6.9-61.5,6.9-121.9,19.7-182.2,33.7-86.5,20.1-173.6,37.5-260.8,54.1a106.73,106.73,0,0,0-20.1,5.5c-41.5,17-84.5,29.1-128,39.7-14.3,3.5-26.5,11.8-39.5,18-34.1,16.1-69.5,28.3-106.5,34.7-29.1,5-58.6,1.6-87.8-1-35.2-3.2-69.5-10.7-103.2-20.9-20.2-6.1-40.6-12.4-59.8-21.6-18.5-8.9-38.7-10.2-58.2-14.3C545.4,421.57,524,414.17,504.4,401.27Z"/><path class="cls-1" d="M1900,2005.77c-36.5-16.3-62.9-44.8-89.4-73.5-38-41.2-70.2-87.5-110.9-126.4-28.4-27.1-61.1-48.4-95-67.4-16.3-9.1-36-11.1-54.4-14.9-47.3-9.7-95.2-15.8-143.5-14.3-57.1,1.8-114.3,3.8-171.1,11.5-18.7,2.5-37.5,3.5-56.3,5.1-2.4.2-5.2.5-6.1-2-1.1-3,1.5-4.8,3.7-6.2,10.5-6.8,22.1-11.6,33.7-16.3,56.3-22.9,113.2-43.7,172-59.3,36.2-9.6,72.8-9.8,109.8-6.9,38.2,3.1,76.1,8,114,13.8,35.6,5.5,69.2,17.3,102.1,31.6,49.6,21.6,94.9,50.1,131.4,90.1,27.8,30.5,61.3,53.1,94,77.1,38.9,28.5,77.2,57.8,117.5,84.3,1.7,1.1,3.6,2.3,4.6,3.9,13,20.9,27.3,41.2,35.8,65.5-8.3.7-15.5-2.5-22.9-3.7-46.8-7.5-93.6-9.4-140.4-.9-8.1,1.5-16.5,2.9-23.2,8.5A25.49,25.49,0,0,1,1900,2005.77Z"/><path class="cls-1" d="M91.2,2003.77a45.1,45.1,0,0,1-5.2,0c-9-1.5-19.2-3.5-23.9-11-4-6.3,3.9-13.1,7.2-19.2,15-28.2,34.6-52.9,57.7-74.8,14.8-14,28.3-29.3,41.5-44.8a48.9,48.9,0,0,1,15.6-12.2c68.3-34.4,137.5-66.8,206.2-100.2,27.5-13.4,50.2-33.6,72.4-53.9a304.55,304.55,0,0,1,49.4-37c20.7-12.3,43.5-14.1,65.9-2.8,14,7,28.7,12.6,41.9,21.2,25.6,16.7,40.3,41.3,51.2,68.8,7.6,19.2,7.3,19.2-10.8,29.2-32.8,18.1-68.5,27.2-105.1,32.6a766.41,766.41,0,0,0-248.7,81.5,1033.79,1033.79,0,0,0-112.6,69.7c-13.9,9.8-24.8,23.6-39.9,32.3C132.1,1995.77,109.3,2003.77,91.2,2003.77Z"/><path class="cls-1" d="M1995.7,1681.07c-22-.2-39.7.9-57.1,4.2-6.7,1.3-9.9-2.1-8.1-8.6a51.36,51.36,0,0,1,18.4-26.9c22.7-17.7,46.6-33.5,74.7-42,15.3-4.6,30.2-10.4,45.2-15.8,4-1.4,7.7-1.8,11.8-.1,80.2,33.2,157.9,71.1,226.6,125,29.6,23.2,56.7,49,76,82,6.2,10.6,11.3,21.6,10.9,34.4-.1,4.7,3.9,9-3.1,13.1-4.1,2.4-5.3,1.5-7.6-.7-45.5-42.5-99.3-71.4-156.5-94.4-41.5-16.6-83-33.4-125-48.6C2066.2,1689.87,2030,1678.87,1995.7,1681.07Z"/><path class="cls-1" d="M840.3,1543.17c40,4,84.6,5.1,126.4,22.8,26,11.1,50.4,25.3,73.9,40.9a44.33,44.33,0,0,1,9.7,8.6c14.2,16.8,9,37.1-12.3,43-28.5,7.8-57.7,13.3-86.4,20.4-37.3,9.3-75.5,12.6-113.2,19.4-4.6.8-5.8-1-6.5-5.4q-11.55-77.85-66-134.7c-2-2.1-6.3-3.8-4.8-7.4,1.2-2.7,5.2-1.9,8-2.2C791.5,1545.67,813.8,1544.17,840.3,1543.17Z"/><path class="cls-4" d="M1606.9,499.67h33.2c2,3.6,5.7,2.4,8.6,2.6,41,2.6,81.5,8.5,122,14.8,20,3.1,39.9,6.1,60.6,11.3-5.7,6.7-11.1,12.4-15.8,18.5-40.1,51.7-63.6,110.4-73.8,174.8-7.8,49.3-9.8,98.9-10,148.7-.2,56.5,8.2,111.6,28.1,164.9,11.9,31.8,24.8,63.3,23,99.3-1.6,32.4-3.1,64.1-14,95q-22.65,64-43.4,128.8c-11,34.3-18.9,69.5-30.9,103.6-15.7,44.5-44.2,76.3-88.4,94.1-18.6,7.5-37.2,15-56.1,21.6-59.6,20.8-120.6,32.4-184,28.5-43.6-2.7-85.8-14.4-129.3-18.3-33.8-3.1-64.8-17.6-95.6-31.7-67.8-31.3-134.9-64.3-203.5-93.7-11.7-5-23.1-10.9-33.3-18.8-13.8-10.7-21-25-20.8-42.2a73.28,73.28,0,0,0-3.3-23.8c-61.6-194.8-135-385.6-202.2-578.5-19.2-55.1-44.3-108.1-58.2-165a25.71,25.71,0,0,0-2.5-6.5c-9.9-17-12.2-36.2-16.7-54.8-1.1-4.5-.8-7,5.3-6.2,60.6,8.8,121.6,10.7,182.6,12.5,73.3,2.2,145.9-4.1,217.9-16.2,80.9-13.6,162.5-23.1,243-40.4-.2-.5.2.1.2.6-4.6,53.8-5.9,107.8-7.1,161.8a42.89,42.89,0,0,0,2.3,14.6c1.5,4.5,3.2,6.1,6.6,1.2,15-21.7,33.9-39.8,52.2-58.5,73-74.9,161.7-118.8,264.5-135.7C1580.8,504.27,1594.3,504.47,1606.9,499.67Z"/><path class="cls-5" d="M1839,1628.67c-2.3-3.3-6-2.8-9.1-3.2a159.14,159.14,0,0,1-58.4-19.3c-16.5-9.5-29.9-24.1-31.8-45.4-.5-6,0-12.2,3.8-16.6,5.6-6.6,6.7-14.6,9.3-22.2a405.06,405.06,0,0,1,41.5-86.2c15.4-24.3,23.3-51.9,33.8-78.3,12.5-31.6,25.3-63.1,33.7-96.2,3.3-13.1,15.2-19.4,26.8-15.4,6.7,2.3,10.5,6.5,11.2,13.9,2.6,28.4,11.1,55.1,22.9,80.9,19.6,42.5,40.7,84.3,64.1,124.8,6.2,10.7,3.4,21.2-2,30.7-8,14.1-17.1,27.7-26.1,41.2-12.7,19.1-26,37.9-38.5,57.1-11.3,17.4-25.4,30.2-47.1,32.1-1.5.1-3.6-.3-4.3,2C1858.7,1628.67,1848.8,1628.67,1839,1628.67Z"/><path class="cls-5" d="M640.6,1046.77c7.1,18,14.4,36,21.4,54.1q43.65,113.4,87.1,227c7.7,20.1,14.4,40.5,21.7,60.7,2.2,6.1,5,11.9,9.8,16.3,4.1,3.7,2.4,6-.6,9.1a257.62,257.62,0,0,1-55,42.5c-25.6,14.9-52.1,28.2-78.8,41.1-10.2,4.9-19.3,10.7-24.5,21.2-1.5,3.1-4.4,4.4-7.3,5.9-15.6,7.8-31.3,15.4-46.7,23.5-4.3,2.3-6.6,1.7-9-2.5-5.4-9.3-10.7-18.6-14.7-28.7a39.52,39.52,0,0,1-2.2-21.3c4.8-30.7,9.1-61.5,17.9-91.4.8-2.6.9-4.9-1.1-7.3-6.1-7.2-5.9-15.4-3.1-23.8,1.2-3.6,2.4-7.2,3.9-10.6,25-57.4,42.7-117.3,60.1-177.1C632.6,1140.47,640.8,1094.37,640.6,1046.77Z"/><path class="cls-5" d="M2208.6,882c0,4-1.8,6.6-3.5,9.2-25.1,37.9-54.3,72.6-84.1,106.7-7.4,8.5-17.9,12.9-27.9,17.5-50.3,23.4-101.6,44.4-153,65.5-19.1,7.8-45.2-8.4-50.4-31-2-8.7-2-17.5,1.6-25.7,5.2-11.9,13.6-22.1,18.5-34.3,1.4-3.5,3.8-3.3,7-1.6,10.1,5.4,20.6,4.9,31.2,1.1,26.1-9.1,53.6-12.8,79.9-21.1,63.5-20.2,123.5-47.7,178.3-86C2206.5,882,2207.2,882.17,2208.6,882Z"/><path class="cls-6" d="M797.2,850.47c4.2-.8,2.9-4.5,3.4-7,5.7-25.4,14-49.8,30-70.8,6.8-8.9,14.7-16.5,25.6-20.2,12.8-4.5,24.3-1.4,32.9,8.9,40,47.7,60.1,103.5,66,164.8.9,9-.1,18-.8,27-.6,7.2-3.1,10.9-11.3,12-34.3,4.3-67.2,13.4-97.3,30.9-.8.4-1.5.8-2.3,1.3-4.2,2.5-8.3,5-12.5,7.5-3.2-5.4-7.5-10.2-9.8-16.2-7.7-19.5-12.4-39.9-17.1-60.2-2-8.5-2.1-17.7-6.9-25.5v-12.2a36.49,36.49,0,0,0,0-24.4C797.2,861,797.2,855.67,797.2,850.47Z"/><path class="cls-7" d="M797.2,866.17a36.49,36.49,0,0,1,0,24.4Z"/><path class="cls-7" d="M1291,1345.77c-99.7-1.2-197.5-14.6-292.4-46.5-7.5-2.5-11.7-6.1-13.4-13.8-2.1-9.3-5-18.5-7.8-27.6-2-6.6-.9-9.2,6.9-7.8,22,3.9,43.8,9,65.5,14.5,93.3,24,188.1,33.6,284.2,30.4,50.6-1.7,100.9-7.3,148.9-25.3a242.72,242.72,0,0,0,63.8-35.3c7.7-6,15.8-10.9,26.3-9,5.3,1,8.2,3.3,8,9.3-.4,9.6-.5,19.2-.2,28.8.2,5.3-3.1,7.8-6.5,10.5-31.7,25.6-68,42.2-107,52.9C1409.6,1342.67,1350.5,1345.87,1291,1345.77Z"/><path class="cls-6" d="M1500.1,848.87c-.8-21.8,1.8-42.3,6-62.4,5.6-27.2,20-49,44.2-64,9.2-5.7,16.4-3.7,23.8,2,14.1,10.8,23.3,25.6,33.3,39.9,22.5,32,28.5,69.5,35.6,106.4,6,31.1,10.1,62.5,10.6,94.2.1,10.7-.5,11.4-10,6.4-38.5-20.4-78.8-34.9-122.5-39.3-7.9-.8-13.7-4.5-14.5-14.8C1504.6,894.07,1499,871.27,1500.1,848.87Z"/><path class="cls-8" d="M341.1,1410.37c-6.2-84.1-10.8-168.2-15.5-252.4-2.7-47-7.4-93.9-10.2-140.8q-3.6-62.7-7-125.3c-2.7-50.2-6.4-100.4-6.7-150.7-.2-41.2-2.7-82.6,3.1-123.7a20.69,20.69,0,0,1,3.5-10.2c7.9,17.2,15.4,33.5,22.7,49.8,33.7,75.1,55.5,154,75,233.7,19.5,79.5,30,160.4,38.7,241.7,8.1,75.8,11.8,151.8,17.9,227.7,2.4,29.3,2.5,58.6,5.2,87.8.3,3.4.9,6.9,1.3,10,35.7-71.6,96-108.5,172.5-120.4,56.8-8.8,109.2,5.2,156.5,38.5-55.8-7.7-108.2,1.7-156.7,30.4-31.3,18.5-55.6,44.3-76.6,75.7,14,.2,26.6-.5,39.1,2,54.2,10.8,95.1,41.3,127,85.4,30.8,42.5,47.4,89.8,48.3,142.2.9,54.5-17.4,102.5-52.1,144.4a26,26,0,0,1-3,2.2c3.7-18.2,5.9-35.6,5-53.2-3.6-69.3-30.7-125.7-90.1-164.4-46-30-97-40.3-151.1-37.4-8.4.4-16.8,2.1-25.2,1.8-12.2-.5-19.3,4.8-25.7,15-18.2,29-37.1,57.7-58.4,84.6-12.9,16.3-27.7,28.5-48.2,33.5-11,2.7-21.8,6.3-32.5,9.8-4.4,1.4-7.3.8-10.7-2.7q-23.4-23.55-47.4-46.3a102,102,0,0,1-15.9-19.5c-59.5-92.4-120.5-183.8-185.9-272.2-10.7-14.5-22.3-28.4-33.4-42.6-1.7-2.2-4.3-3.9-4.6-7.6,7-1.1,13.2,1.3,19.3,3.4,17.1,6,32.8,15,47.8,25,74.3,49.4,144.9,103.3,203,171.9,11.7,13.8,21.6,28.8,32.1,44,4.8-6.1,5.4-11.6,2.4-18.5-21.6-50-37.7-101.9-52.9-154.1-7.2-24.6-8.1-50.4-12.3-75.6-12.4-75.4-22-151.2-29.4-227.2-6.1-62.2-12.8-124.4-13.9-186.9-.4-19.3,2-38.7,3.2-59.7,7.8,5.5,11.7,12.2,15.1,18.9,11,21.6,18.1,44.6,25,67.8,34.9,118,62.9,237.6,86,358.4,5.4,28.2,8.6,56.9,12.8,85.3-.7,7.5,1.9,14.6,2.6,23.4C343.4,1425,342.7,1417.67,341.1,1410.37Z"/><path class="cls-9" d="M895.7,819.37c-.2,15.8-11.9,26-29.6,25.8-15-.2-28.8-17.6-28.7-36.2.1-15.9,12-28.2,27.2-28.1C882,781.07,896,798.27,895.7,819.37Z"/><path class="cls-9" d="M1546,783.07c.1-18.2,7.4-25.8,24.4-25.3,14.7.4,28.3,14.5,27.1,29.7a79.64,79.64,0,0,1-6.1,24.3c-3.8,9.3-11.3,11.7-20.9,8.5C1554.5,814.77,1545.9,801.77,1546,783.07Z"/><path class="cls-10" d="M2076.4,1051.07c5.5-19.3,18.5-30.9,37.4-36.6,14.1-4.2,28.2-3.5,42.1.5,30.2,8.7,56.8,23.1,77.8,47.2,27.5,31.5,56.2,62,77.6,98.2,3,5.1,3.6,7.4-3.3,8.3-9.2,1.2-18.3,3.1-27.4,4.7-40,1.4-80-1.1-117.9-13.9-42.2-14.3-75.2-40-87.3-85.9C2075.1,1072.07,2075.8,1053.17,2076.4,1051.07Z"/><path class="cls-11" d="M2443.2,751.37c37.8,1.6,85,5.3,129.5,24a227.77,227.77,0,0,1,64,40.1c12.8,11.4,22.7,24.8,27.5,41.6,1.7,5.9.4,8.3-6.2,8.5-54.3,1.8-108.5,7-162.6,11.4q-94.2,7.65-188,19.8c-11,1.4-21.8,3.9-32.7,5.2-12.8,1.6-22-7-29.3-15.9-13.5-16.5-13.9-40.6-2.7-58.8,14-22.6,34.4-37.4,58-48.5C2342.9,759,2387.3,750.37,2443.2,751.37Z"/><path class="cls-12" d="M2465.6,1340.57c-4.3-9.2-8.2-16.9-11.7-24.8-25.4-58.5-63.3-108.8-103.3-157.8-36.5-44.6-75.2-87.2-117.3-126.6-14.9-14-30.6-27.1-48.8-36.4-8-4.1-7.5-8.6-3.7-13.9,15.7-22.2,33.7-41.1,61.4-48.7,52.2-14.3,94.6,5.6,131.6,39.1s55.3,78.5,67.1,126c13.6,54.9,19.6,110.9,24.5,167.1,1.7,19.7,4.6,39.3,3.9,59.1C2469.1,1328.87,2469.2,1334.07,2465.6,1340.57Z"/><path class="cls-13" d="M671.6,229.17c.8,9,9,13.7,12.7,21.2,5.9,11.9,29.1,44.4,32.9,50.3,12.8,19.8,19.7,41.8,21.5,65.2.5,6.3-2.8,13.5-6.9,17.3-13.5,12.7-25.4,27.5-42.9,35.6-25.5,11.8-52.9,3.5-70.2-18.7-13.8-17.8-17.4-38.8-23.7-59.1-5.7-18.5-10.1-37.4-15-56.1-1.2-4.5-2.2-9.3.4-13.5s8-2.7,11.8-4.5c21-9.7,42.7-18.1,63-29.5,4.4-2.5,10.1-3.2,13-8.2Z"/><path class="cls-14" d="M853,473.47c-11.7-3.8-23.7-6.6-34.7-12.3-9.6-5-18-16.7-17.4-26.1.8-12.1,8.9-21.6,20.6-25.2,4.4-1.4,8,.5,11.9,1.1,36.8,5.1,72.5.3,107.6-11.1a80.36,80.36,0,0,1,8.3-2.7c4.6-1,7.9-.7,9.2,5.5,4.1,18.3,5.6,35.9-10.3,49.7-9.3,8.1-21.3,10-32.9,12.4-14.9,3.1-29.8,5.9-44.7,8.8C864.7,473.47,858.9,473.47,853,473.47Z"/><path class="cls-15" d="M635,1.87c40.2,6.8,74.9,24.5,104.3,52.5,9.7,9.2,19.2,18.6,28,28.7,16.7,19.3,18.4,41.1,5.3,62.9-23.8,39.6-65.1,71.6-107.4,89.3-20.8,8.7-33.2,15.3-54.2,23.9-44.3,18.1-90,30.8-137.7,35.6-17.2,1.8-33.4-1.2-49.7-9.1-11-5.3-11.6-11.7-12.4-21.2-3.4-40.6,8.5-77.6,25.2-113.6,18.3-39.3,41.5-75.4,72.3-106.1,30.4-30.4,66.9-46.6,110.6-44.6C622.1.37,633,1.57,635,1.87Z"/><path class="cls-15" d="M881.8,198.37c46.2,1,86.3,12.1,121.2,38.3,18.8,14.1,41.9,59.4,43.1,61.3,13.8,21.4,11.4,45.4-6.6,63.6-11.3,11.4-25.4,18.1-39.9,24.2-11.5,4.8-23.5,9.8-34.9,12.5-48.8,11.3-96.8,27.3-147.6,29.5-28.2,1.2-55.5-3.2-82.4-10.8-16.8-4.7-35.1-21.7-35.6-22.3-16.1-17.9-12.1-50-2.8-68.2,11.5-22.4,19.2-38.9,33.2-60,25.8-30.4,48.7-48.9,79.8-55.9A686,686,0,0,1,881.8,198.37Z"/><path class="cls-16" d="M1261.3,921.37c29.7,1.3,53,18.4,65.2,45.9,2.6,5.8,5,11.7,7.6,17.5,14.7,62.8-20.2,122.2-70.8,136.1-3.5,0-19.1-2.9-21.6-3.6-28.4-7-50-23.2-62.4-49.6-13.2-28.2-14.5-58.4-8.6-88.5,5.5-28.2,23.6-45.9,51.1-54.1C1224,924.47,1256.6,921.17,1261.3,921.37Z"/><path class="cls-17" d="M1258.7,1119.67c-33.6-14.3-65.8-55.6-56.9-103.5,3-16.1,10.9-29.1,24.9-37.3,29.4-17.2,59.7-19.4,90.4-2.6,5.5,3,22.1,13.8,24.8,16.3,21.9,20,30.5,44.6,22.4,73.3-8.3,29.2-24.5,48.8-54,55.2C1275.4,1126.27,1261.7,1120.87,1258.7,1119.67Z"/><path class="cls-18" d="M563.5,103.57c-14.5.2-26.3-1.4-36.1-10.1-13.5-12-14.3-33.3-2.4-46.8,16.7-19,51.5-17.9,66.5-7.5,10.4,7.2,14.7,17.3,12.1,30C599.4,90.87,583.8,103.57,563.5,103.57Z"/><path class="cls-19" d="M980.4,320.37c1.3,7.2-2.9,13.4-7.3,19.1-10.9,14.2-34.4,26.7-52.9,17.6-12.4-6.1-21.3-18.6-19.9-31.8,1.3-12.5,7.8-26.4,22.4-30.1,11.4-2.9,22.2-8.5,34.5-5.4C973.5,294,980.5,302.67,980.4,320.37Z"/><path class="cls-18" d="M806.2,306c-26.3,0-38.2-11.9-36.9-36,.5-9.6,5.9-17,13.1-22.6,15.8-12.3,33.7-11.1,51-4.7,12.1,4.5,16.6,16.4,17.3,28.1.6,10.8-5.2,20.3-14.7,26.1S816.5,307.17,806.2,306Z"/><path class="cls-18" d="M507.7,161.07c17.2,0,28.2,8.1,33.3,24.9,4.4,14.2-1.7,27.5-14.4,37.7-15.6,12.5-31.4,13.4-47.9,3.6-13.9-8.2-17-17.4-13.1-33.1C469.6,178.17,489.7,159.37,507.7,161.07Z"/><path class="cls-18" d="M666.1,94.77c25.9-.6,40.4,17.4,38.7,37.5-.8,9.6-6.8,15.7-13.1,21.6-14.4,13.8-41.7,14.2-56.7,1.1-14.3-12.5-13.1-36.2,2.5-49.6A42.93,42.93,0,0,1,666.1,94.77Z"/></g></g></svg>