<svg xmlns="http://www.w3.org/2000/svg" viewBox="0 0 1831.27 2013"><defs><style>.cls-1{fill:#d93733;}.cls-2{fill:#912a36;}.cls-3{fill:#b52f37;}.cls-4{fill:#ff4f37;}.cls-5{fill:#b12a36;}.cls-6{fill:#febf57;}.cls-7{fill:#902a35;}</style></defs><g id="Layer_2" data-name="Layer 2"><g id="Слой_1" data-name="Слой 1"><path class="cls-1" d="M0,1412.3c74.5-18.5,146.7-43.3,224.9-57.3-19,61.9-33.8,121.7-23.8,184.6l-2.7,2.7c-30.3-18.6-60.5-37.1-91.5-56.1-6.1,18.9-4.4,37-.2,54,23.5,94.2,78.7,164.6,166.5,205.3,82.3,38.2,177,11.7,234.7-61.4,26.9-34.1,51-70.4,78.2-104.2,62.6-78,145.2-125.6,240.1-153.1,24.2-7,49.1-7,73.2,2.9,10.3,4.3,17.6,10.8,18.6,22.7,1,11.6-4.9,19.4-14.3,24.3s-19.3,9.6-29.6,12.6c-66,18.9-126.5,49-182.9,87.7-42.7,29.3-73.6,69.7-103.8,110.8-27.1,36.9-54.3,73.5-92.9,99.7-61,41.3-127.3,52.1-197.5,31.3-87.9-26.1-146.1-88-189.6-165.4-23.2-41.3-36.6-86-36.1-133.9.1-14,2.5-28.1,5-41.9,1.1-6.2.3-9.7-5.4-12.4-14-6.7-27.8-13.9-41.8-20.8C15.5,1437.9,5.5,1428.2,0,1412.3Z"/><path class="cls-2" d="M.3,1412.4c74.9-18.5,146.8-43.2,224.5-57.2-19.6,61.7-33.4,121.6-23,186.8-7.3-3.5-12.7-5.5-17.5-8.4-21.1-13-41.7-27-63.2-39.3-29.8-17.1-60.1-33.3-90.6-49.2C16.9,1437.9,6,1429,.3,1412.4Z"/><path class="cls-3" d="M1364.7,0c10.6,17.5,22.2,34.4,31.6,52.5,39.3,75.9,63,156.4,73.4,241.2,11,90.8-9,175-51,255.2-10.4,19.8-20,40.1-31.1,59.5-9.7,16.9-22.8,30.7-42.6,36.5-15.7,4.5-20.7,3-30.2-9.9-13.1-17.8-25.9-35.8-39.4-53.3-11.7-15.3-12.5-31.6-6.6-49,1.3-3.8,2.6-7.8,4.8-11.1,32.3-48,45.9-103,59.8-157.9,10.3-40.5,21.5-80.9,29.1-122,10-54,10.2-108.9,6.7-163.6-1.7-25.6-4.7-51.1-7.2-76.6C1362.9.9,1363.8.5,1364.7,0Z"/><path class="cls-3" d="M1478.4,585.6c7.2,14.1,14.5,25.3,18.9,37.5,13.7,37.6,21.9,76.4,17,116.6-2.9,23.5-12.5,45.1-27.1,63.8a93.14,93.14,0,0,1-19.3,18.3c-35.3,25-70.3,9-75.6-33.9-3.8-30.9,5.1-59,19.2-85.4,19.6-36.6,40.7-72.4,61.2-108.6C1473.5,592.3,1474.7,590.9,1478.4,585.6Z"/><path class="cls-4" d="M1461.5,1977.6c-5.1-29.1-11.1-58.1-15.1-87.3-8.8-63.1-16.7-126.4-24.6-189.6-.9-7.1-4.5-9.5-10.5-10.6-44.2-7.6-88.2-16.4-132.5-22.7a1022.86,1022.86,0,0,0-195.5-8.9c-51,2.7-101.9,9.1-152.8,14.1-8,.8-19.1.2-22.9,5s-.9,15.5.3,23.4c9.1,60,18,120.1,28,180,6.9,40.9,15.7,81.5,23.6,122.2.3,1.7.5,3.5,1.1,7.5-4.2-3-6.8-4.7-9.2-6.7-78-64.7-132.9-146.9-180.8-235-31.8-58.5-44.3-122.3-57.6-186.1-23.7-113.4-24-228.4-22.2-343.5.1-9.3,1.2-18.5,2-27.7.5-5.8-1.7-9.1-7.7-9.8-85.3-10.1-155.5-53.4-222.8-102.6A516.24,516.24,0,0,1,330.5,958.7c-2.2-3.4-4.3-6.8-7.9-12.5,5,1.2,7.6,1.5,10,2.4,73.5,27.2,148.6,48.4,225.8,61.4,38,6.4,76.5,9.4,114.7,14.3,11.7,1.5,23.3,4,37.1,6.3,2.4-14.2,4.6-28.2,7-42.2C738.4,863.7,767,741.3,824,627.2c25.4-50.8,54.5-99.1,99.4-135.5,82.4-66.7,173.1-75.2,269.8-36.5,81.6,32.7,142,90.3,189.1,163.3,55.5,86.1,90.2,180.7,116,279.2a1473.2,1473.2,0,0,1,38.1,200.7c.4,3.6,1.5,7.2,2.4,11.9,112.7-38.2,204.5-106.9,287.2-189.5,1.1.5,2.2,1.1,3.3,1.6-3.7,17.5-6.2,35.3-11.2,52.4-33,111.5-101.2,196.9-196.2,261.8-15.7,10.7-34.1,17.9-51.9,25.1-8.7,3.5-10.8,7.6-9.5,16.4,5.8,39.2,11.5,78.5,16.2,117.8,3.5,29.8,6.4,59.8,7.8,89.7,2.4,47.8,4.6,95.7,4.6,143.5,0,47.6-14.2,92.8-28.4,137.8-22.5,71.3-50.6,140.1-91.4,203.3-1.6,2.5-3.4,4.8-5.1,7.2A5.85,5.85,0,0,1,1461.5,1977.6Z"/><path class="cls-1" d="M958.8,2011.6c-15.1-13.6-30.9-26.5-45.1-41-72.9-74.3-129.5-160-167.5-256.6-16.3-41.3-23.8-86.3-33.1-130-24.4-114.1-24.5-229.9-22.4-345.8.2-8.5,1-17.1,2-25.5.9-7.3-2.6-9.6-9.2-10.7-115.1-18.2-205-81.7-286.7-159.9-.2-.2-.2-.7-.8-3.3,14.6,8.3,28.2,15.4,41.1,23.6,60.2,38.4,122,73.5,187.8,101.5,34.6,14.8,70.2,17.6,106.8,13.9,9.7-1,13.4-9.1,14.1-16.4,1.4-16.1,2.5-32.7.2-48.6-4.1-28.3-10.8-56.3-30.6-78.8-1.1-1.3-2.3-3.3-2.2-4.8,1.1-13.2,2-26.5,4.4-39.6.5-2.7,6.9-6.1,10.7-6.2,16.4-.4,30.4,7,42.4,17.2,29.9,25.6,59.4,51.7,88.7,77.9,31.3,28,62.4,56.1,93.1,84.6,8.1,7.5,13.6,17.8,21.8,25.1,11.1,10,22.4,22.1,35.9,26.9a568.34,568.34,0,0,0,88.9,23.7c56.3,10,113.1,11.4,169.3-1,22.3-4.9,44.3-12.3,65.6-20.8,23.1-9.2,41.7-24.8,55.8-46.1,26.1-39.2,54-77.2,79.4-116.9,16.9-26.5,30.5-55,47.4-85.7,4.9,27.8,9.7,52.3,13.3,77,7,47.7,12.9,95.6,19.9,143.3,2.6,17.6,3.8,16.4,22.1,14.4,32.1-3.5,58.9-17.9,85.8-34.4,48.6-29.9,91.2-66.1,127.6-110.5-1,2.3-1.9,4.6-3.1,6.8-37.3,66-86.4,121.7-148.5,165-19.3,13.4-41.4,23-63,32.6-8.9,3.9-10.4,8.2-9.2,16.6,5.5,37.4,11.8,74.8,15.4,112.4,4.5,46.5,6.8,93.2,9.7,139.9q2.55,41.1,3.7,82.3c1.6,53.6-12.9,104.2-28.9,154.5-22.5,70.9-50.4,139.5-91,202.3-2,3.1-4.1,6.1-7.7,11.5-4.3-21.7-9.1-41-11.8-60.5q-15.15-109.05-29-218.3c-1-8.1-4.1-11.4-11.8-13a1463.77,1463.77,0,0,0-214.6-29.9c-89-5.5-177.3-.4-265.2,13.1-7.6,1.2-15.3,1.9-23.7,2.9,7.4,113.6,35.1,223,55,333.6A29.08,29.08,0,0,0,958.8,2011.6Z"/><path class="cls-1" d="M1345.6,912.7c-23-.8-43.5-9.8-61.5-24.1-5.4-4.3-9-11.6-12-18.1-3.3-7.1,2.6-21.9,9.8-25,2.6-1.2,6.8,0,9.8,1.2,5,2,9.4,6.1,14.5,7.4,19.6,4.7,39.5,8,59.1.8,8.9-3.3,17.2-8.4,25.5-13.2,5.3-3,9.4-8.9,16.5-3.7s11.5,12,9.4,20.8a56.6,56.6,0,0,1-7.2,17.2C1394.8,899.3,1374.1,912.2,1345.6,912.7Z"/><path class="cls-1" d="M1116.5,860.8c7.5,11.5,4.1,21.3.6,30.5a60.41,60.41,0,0,1-57,38.6c-24.7-.3-48.7-4.1-70.3-17.3a99.94,99.94,0,0,1-10.1-6.9c-13.2-10.5-17.3-22.5-11.2-32.5,5.8-9.5,17.6-11.6,32.8-4.1,23.6,11.7,48.2,15.7,74.3,12.9,12-1.3,22-5.7,30.5-14.1C1109,865.2,1112.7,863.4,1116.5,860.8Z"/><path class="cls-5" d="M690.1,1355.8c77.8,20.1,153.9,41.3,232.3,51.3,55.2,7,110.7,11.4,166.2,16.3,31,2.7,62.2,6.2,93.1,5.3,69.4-1.9,138.1-11.9,206.4-24.6,29.9-5.6,60-10.3,89.7-16.7,33.2-7.1,63.7-21.4,94.5-38.2,2.9,24.9,6.8,49.3,8.3,73.9q5.7,96.15,9.6,192.3c1.9,50.5-11.7,98.4-26.6,145.9-23,73.5-51.4,144.6-93.4,209.7-2,3-4,6-7.7,11.5-4.3-21.9-9-41.1-11.8-60.7q-15.15-109-29.1-218.3c-1-7.9-3.6-11.4-11.6-13.2-112.2-24.6-225.7-36.6-340.5-31-51.8,2.5-103.3,10.4-154.9,15.8-2.5.3-5,1-8.1,1.6,7.4,113.2,35.1,222.6,55.6,336.3-5-3.8-8-6-10.9-8.3-73.9-61.1-126.6-138.7-173.7-221.1-36.8-64.5-52.1-135.1-66.2-206.5-13.8-70.1-19.9-141-21.3-212.3C690,1361.7,690.1,1358.4,690.1,1355.8Z"/><path class="cls-4" d="M1309.4,1443.7c-2.2,36.7-15.5,68.4-29.6,99.9-3,6.6-7.5,8-14.4,6.4-28.7-6.7-49-26-67.2-47.1-29.5-34.3-31.4-74-17.5-115.1,7.8-23,23.9-38.9,48.8-41.9,24.5-3,43.2,8.6,56.9,28.1C1301.3,1395.3,1306.5,1419.9,1309.4,1443.7Z"/><path class="cls-4" d="M961,2010.8c-4.3-2.8-6.1-3.8-7.7-5.1C895.4,1959,850.8,1900.9,810.7,1839c-3.5-5.4-2.6-9.1,2.1-12.1,14-8.8,27.6-18.7,42.5-25.7,17-8,35.3-13.5,53-19.9,2.3-.8,4.9-.9,8.2-1.5C931.2,1856.2,945.8,1931.9,961,2010.8Z"/><path class="cls-4" d="M1459.8,1977.8q-15.45-109.8-31-219.6c1.1-.9,2.1-1.8,3.2-2.7,13.2,5.1,26.9,9,39.3,15.6,22.5,11.9,44.4,25,66,38.4,3.1,1.9,5.8,9.3,4.5,12.7-19.2,54-43.9,105.4-75.5,153.4a12.56,12.56,0,0,1-2.4,2.2Z"/><path class="cls-4" d="M936.3,1398.8c-1.1,20.5-9.1,45.7-19.5,70.4-3.3,7.9-7.7,10.6-15.1,5.4-40.7-28.5-73.3-85.7-40.6-138.6,17.4-28,44.1-28.1,61.4.1C933,1353.4,937.4,1372.2,936.3,1398.8Z"/><path class="cls-4" d="M1479.4,1366.3c-.4-24.5,4.8-40.1,16.1-53.2,14.5-16.9,35.2-16.9,50.3-.6,11,12,15.8,27,16.9,42.5,1.4,20.4-1.2,40.7-11.3,59.1-6.4,11.7-13,23.2-19.9,34.6-4.4,7.3-9.3,8.4-15.5,1.1A152.77,152.77,0,0,1,1479.4,1366.3Z"/><path class="cls-6" d="M1051.2,901.2c-17.8-4.5-34.2-11.3-47.2-25.1a81,81,0,0,1-14.5-89.9c22.4-47.7,76.4-55,110.7-15,29.9,34.8,25.6,88.7-10.1,117.5-7.2,5.8-17,8.4-25.5,12.5Z"/><path class="cls-6" d="M1278.6,806.4c-2.4-19.6,1.7-37.8,12.7-54.1,12-17.9,28.6-28.2,50.7-26.5,21.6,1.7,36.9,13.8,45.2,33.2,10.7,25,16,51.1,7.8,78.1-9.5,31-35.2,47.9-65.9,43.9-25.7-3.4-48.8-30.4-50.4-59C1278.3,816.8,1278.6,811.6,1278.6,806.4Z"/><path class="cls-3" d="M1143.8,732c-4.5,0-9.3,1.1-13.4-.2a246.55,246.55,0,0,1-27.8-10.9c-38.8-17.5-76-19.3-112.2,7.3-9.6,7.1-21.5,11.6-33,15.4-4.9,1.6-11.5-1.5-17.3-2.4,1.2-5.7.5-13.3,4-16.7,29.7-28.5,62.9-52,103.3-62.2,9.8-2.5,22.6,0,32.1,4.5,28.3,13.3,45.3,39.3,65.6,61.4C1144.6,729.4,1144.2,730.7,1143.8,732Z"/><path class="cls-3" d="M1404.1,695c-7.6,0-12.6.6-17.3-.1-17.6-2.6-35-6.2-52.6-8.1a39.21,39.21,0,0,0-20.2,3.7c-20.5,9.5-40.4,20.2-60.8,29.9-6.9,3.3-14.6,4.9-22,7.3-.8-1.3-1.7-2.5-2.5-3.7,3.8-5.5,6.7-12.2,11.7-16.5q36.75-31.35,74.5-61.5c3.3-2.6,9.5-4.2,13.5-3.1C1358.6,650.8,1381,670.8,1404.1,695Z"/><path class="cls-7" d="M1223.6,977.3c21.3-.5,40.8,4.6,55,21.4,3.8,4.5,4.5,11.6,6.6,17.5-5.1,1.8-10.1,4.4-15.4,5.3-27,4.5-54.2,7.9-81.1,12.9-13.8,2.5-21.7-4.1-19-18.4,3.6-19.5,22.9-36.6,43.9-38.6A83.42,83.42,0,0,1,1223.6,977.3Z"/><path class="cls-3" d="M365,840.6c-3.4,24.3-7.3,48.3-9.9,72.4-1.1,10.2.3,20.7.6,31,.3,9.1-.4,17.4-12.7,18-2.2.1-4.3,3.2-7.2,5.5-18.2-13.5-24.4-32.1-21.7-54.2C318,880.1,340.9,848.3,365,840.6Z"/><path class="cls-3" d="M450.1,935.2c-26-2.3-37.2,3.4-44.1,23.2-1.8,5.3-1.7,11.6-1.4,17.4.6,14.1-6.5,19.9-19.9,15.4-19-6.4-28.6-24.5-24-45.5,4.1-18.8,21.6-32.6,44.1-34.8C424,908.9,443,918.8,450.1,935.2Z"/><path class="cls-3" d="M1747.2,860.8c30.1-11.4,91.1,23.2,83.4,64.8-1.4,7.7-6,16.2-11.9,21.3-9.5,8.2-18.8,2.8-23.1-9.1-9.7-26.7-18-54.6-43.9-71.5a18.07,18.07,0,0,1-3.3-2.9C1747.9,862.9,1747.8,862.1,1747.2,860.8Z"/><path class="cls-3" d="M1699.3,985.1c-5.5-21.8,4-41.4,24.5-53.5,20.1-11.9,42.2-11,56.3,3.7,4.8,5,8.8,12.4,9.8,19.2,2,14.2-11.7,23.5-24.9,18-2.7-1.1-5.3-2.7-7.9-4-20.9-10.4-37-7.1-52.5,10.7C1703.1,980.7,1701.7,982.3,1699.3,985.1Z"/><path class="cls-7" d="M1037.3,770.7c13.1,0,28.3,15.8,28.4,29.6.2,15.8-13.4,29.4-29,29.1-16-.3-32.3-16.9-32.1-32.6C1004.7,784,1021.4,770.7,1037.3,770.7Z"/><path class="cls-7" d="M1322.8,807.2c-18.5-.6-29.6-10.7-29.1-26.5.5-15.1,13.9-26.8,30.1-26.4,16,.4,26.8,11,26.2,25.5C1349.2,796.6,1338.3,807.7,1322.8,807.2Z"/><path class="cls-3" d="M726.8,6.3c-1.8,20.3-4.8,40.5-5.3,60.8C717.7,205,768.2,321.9,860.4,422.2c17.1,18.6,36.7,34.8,53.7,53.4,18.9,20.8,37.6,42.1,53.9,65,18,25.4,11.3,48.7-15.2,64.9a80.77,80.77,0,0,0-11.5,8.7c-29.2,26.6-62.2,29.8-98.4,17.2s-64.4-37-84-68.4c-38-60.9-76.5-122.1-95.8-192.3-12.7-46.1-15.7-93.2-13.1-141,4.2-75.7,26.3-145.5,65.5-210.1,3-4.9,6.4-9.6,9.7-14.4C725.7,5.5,726.2,5.9,726.8,6.3Z"/><path class="cls-3" d="M677.3,611.2c14.1,7,29,12.6,42.1,21.2,29.6,19.4,53.4,44.7,70,76.2,17.2,32.9,15.4,65.9-1.8,98-17.6,32.9-47,35.5-71.8,8-23.9-26.4-36.5-56.6-36.7-92.7-.2-29.6-3.1-59.2-4.7-88.8-.3-6.2,0-12.5,0-18.7C675.3,613.3,676.3,612.3,677.3,611.2Z"/><path class="cls-2" d="M798.1,562.7c-26.5,5.3-47.2-6.7-66.9-21.4-20.6-15.4-17-45.6,8-55.7,25.5-10.4,47.8-25.3,69.2-41.8a215.17,215.17,0,0,0,30.3-27.7c7.3-8.2,14.8-8.9,23.8-5.5,27.7,10.6,49.9,46.1,46.5,75.6-.6,5.1-3.4,11.1-7.1,14.4-21.9,18.8-43.5,38.1-67,54.7C825,562.1,798.2,563.9,798.1,562.7Z"/><path class="cls-2" d="M1300.3,460.6c4-13.9,6.5-25.5,10.8-36.4,4.6-11.4,11.9-12.6,22.6-6,30.9,19.1,65.5,27.1,100.8,32.9,16.3,2.7,23.8,12.4,23.6,28.9-.2,15.9-5.8,29.6-14.1,42.6-8.8,13.8-25.2,20.8-42.9,16.2-33.4-8.6-65.2-21.3-86.7-50.2C1308.1,480.2,1304.7,469.5,1300.3,460.6Z"/><path class="cls-2" d="M699.3,398.1c-22.2,0-36.9-8.4-47.2-23.9-8.4-12.7-2.9-24.7,10.9-31.1q43.35-20,85.6-42.2c11.3-6,21.6-7.5,32.5-1.1,11.5,6.8,17.1,17.6,16.9,30.6-.1,4.7-2.3,10.7-5.7,14-22,21.5-48.5,36.3-75.7,50C710.8,397.4,703.2,397.3,699.3,398.1Z"/><path class="cls-2" d="M1433.4,368.8c-29.2-1.9-53.8-11.7-74.4-32-10.7-10.6-13.6-22.9-11-36.5.9-4.6,7-11.1,11.2-11.5,11.5-1.1,23.6-.9,34.8,1.6,17.3,3.8,34,10,50.9,15.3a55.27,55.27,0,0,1,11.2,4.7c15.8,8.9,23.3,22.4,19.9,35-3.3,12.4-20,23.3-35.8,23.5C1437.8,368.9,1435.2,368.8,1433.4,368.8Z"/><path class="cls-4" d="M694.1,669.3c25,37.5,52.8,70.4,60.4,114.2a27.31,27.31,0,0,1-35.7,30.8c-12.4-4-20.7-12.9-26.4-24.1-12-23.5-15-49.3-13.7-74.6C679.4,700.8,688.1,686.4,694.1,669.3Z"/><path class="cls-2" d="M704,214.1c-12.5-1.7-24.4-2.6-35.9-5.2-13-2.8-20.9-18.1-17.6-31.6s14.4-19.5,28.6-16.8c13,2.5,26.2,4.2,39.4,5.7,11,1.3,18.5,9.5,19.8,22.7,1.2,11.9-2.6,17.9-14.4,21.2C717.3,212,710.3,212.9,704,214.1Z"/><path class="cls-2" d="M1412.7,209.1c-8.7-2.4-24.5-5.9-39.7-11.3-9.9-3.5-11.8-32.7-3.1-38.8,2-1.4,5.6-1,8.3-.8,18.1,1.2,36.2,2.9,54.3,3.9,10.6.6,17,5.3,17.4,15.8C1450.6,197,1444.4,210.5,1412.7,209.1Z"/></g></g></svg>