<svg xmlns="http://www.w3.org/2000/svg" viewBox="0 0 1848.62 1898.85"><defs><style>.cls-1{fill:#3a3b55;}.cls-2{fill:#26273a;}.cls-3{fill:#6b6d90;}.cls-4{fill:#548bc2;}.cls-5{fill:#548bc1;}.cls-6{fill:#7cb4eb;}.cls-7{fill:#c6def6;}.cls-8{fill:#7bb3eb;}.cls-9{fill:#9ad0f9;}.cls-10{fill:#d4ebfc;}.cls-11{fill:#99cff9;}.cls-12{fill:#99d0f9;}.cls-13{fill:#558bc2;}.cls-14{fill:#558cc2;}.cls-15{fill:#568cc2;}.cls-16{fill:#fefefe;}.cls-17{fill:#304678;}.cls-18{fill:#fff;}.cls-19{fill:#914f4f;}.cls-20{fill:#f69d9d;}.cls-21{fill:#f69e9e;}.cls-22{fill:#7bb4eb;}.cls-23{fill:#578dc2;}</style></defs><g id="Layer_2" data-name="Layer 2"><g id="Слой_1" data-name="Слой 1"><path class="cls-1" d="M840.8,1426c-1.6,11.2-1.7,20.6-4.5,29.2-5.1,16.1-5.8,32.3-5.1,48.8.9,20.5,1.2,41,3,61.5,2.5,29.3,10.1,57.6,19.4,85.4,8.8,26.1,18.9,51.8,28.7,77.6,7.6,19.9,9.5,40.2,1.5,60-2.5,6.2-8.9,12-15,15.3-16.8,9.3-34.5,17.1-51.6,25.9-7.2,3.8-14.6,5.5-22.6,6.2-19.2,1.6-38.4,3.8-57.6,5.3-17.6,1.4-35.2,2.6-52.9,3.2-29,1-56.6,6.9-82.8,19.7-10.7,5.2-22.1,9.2-33.2,13.5s-22.8,4.4-34.2,2.2a39.17,39.17,0,0,1-14.1-6.4c-3.6-2.5-6.7-3-9.9-.6-5.4,4.1-11.4,4.7-17.9,4.2-14.8-1.2-29.7-1.4-44.3-3.3-7.7-1-14.9-5.6-22.5-6.8-9.2-1.5-18.8-1.4-28.2-1.6-7.6-.2-15.5,1.2-22.9-.2-9.8-1.9-20.4-4-28.7-9.1-28.2-17.4-35.7-45-33.1-76,.9-10.8,4.8-21.3,7.8-31.8.7-2.4,3.1-4.6,5.1-6.4,23.1-19.7,50.3-30,79.6-37.4,69.8-17.7,139.4-36.7,208.7-56.1,20.1-5.6,39.5-13.7,58.7-22,11.3-4.9,21.7-12,31.9-18.9,8.2-5.6,10.9-14.7,10.9-24.1,0-8.9-1.1-17.8-2.2-26.7a591.31,591.31,0,0,0-26.5-117.5c-3.2-9.4-7.5-18.5-10.3-28a124.92,124.92,0,0,1-4.5-25c-.6-8.3,5-11.5,12.8-9.1a53.3,53.3,0,0,0,14.3,2.2q63.45.75,126.9,1.1c4.9,0,7.5,1.2,8.4,6.2C836,1400.4,838.6,1414.1,840.8,1426Z"/><path class="cls-1" d="M1346.2,1464.5c.8,20.2.3,47,3.3,73.4,2.3,20.4,8.3,40.5,13.8,60.4,6.2,22.5,13,44.9,20.9,66.8,5.1,14,11.2,28.1,19.4,40.4,20.1,29.9,30,62.5,28.5,98.3-.7,16.6-3.4,33.1-5.8,49.5-1.5,10.6-8.5,16.7-18.1,21.3-14.2,6.7-28.5,8.9-44.3,7.6-9.7-.8-19.8,3.8-29.7,5.8-17.9,3.6-35.7,7.7-53.8,10.3-15.8,2.3-30.4-3-44.7-9.3-9.8-4.3-19.9-5.8-30.7-1.6-12.7,4.9-26.3,3.9-39.1.5-13.6-3.5-26.6-9.7-40-14-5-1.6-10.9-2.6-15.8-1.5-25.6,5.8-50.3-3.4-63.8-25.9a399.47,399.47,0,0,1-21.7-42.8c-9-20.5-4.3-39.1,9.7-56.2,19.8-24.1,44.9-39.4,75.2-46.8,34.4-8.5,65.8-23.3,93.1-46.2,10.8-9,21.5-18.1,32-27.4,2.1-1.9,4.6-4.9,4.6-7.4-.1-23.8,4-48.2-6.1-71-7.2-16.3-15-32.4-22.9-48.4-4.6-9.4-10.3-18.3-14.9-27.7a27.9,27.9,0,0,1-3-12.3c.5-25.2,1.5-50.4,2.2-75.6.1-4.1,2.7-3.9,5.3-3.9h38.4c33.4,0,66.7.2,100.1-.2,6.3-.1,8,1.9,7.9,7.9C1346,1411.7,1346.2,1434.9,1346.2,1464.5Z"/><path class="cls-2" d="M1240.5,1595.6c-1-11.9-.6-22.6-3-32.8-5.8-24.5-17.9-46.5-30.2-68.3-4.4-7.9-8.9-15.9-12.6-24.1a33,33,0,0,1-2.7-13.6c.6-25,1.6-49.9,2.5-74.9a10.08,10.08,0,0,1,.6-1.9h150.7c.2,3.2.5,6,.5,8.8.2,34.9.7,69.9.3,104.8-.4,36.6,6.1,71.9,17.4,106.5l2.5,8.2C1324,1604.1,1282.2,1599.8,1240.5,1595.6Z"/><path class="cls-2" d="M714.4,1589.4c2.5-21-3.4-40.8-6.1-60.8-5.6-40.7-17.8-79.6-32.3-117.9-3.1-8.2-4.1-17.3-4.7-26.1-.6-7.8,5.2-11,12.7-8.7a44.87,44.87,0,0,0,13,2.2c42.7.5,85.4,1,128.1,1.1,5.1,0,7.5,1.4,8.8,6.5,7.1,26.3,8.5,52.4.1,78.7-4.8,15.1-2.8,30.7-2.2,46,.9,25.3,2.5,50.6,3.8,77-3.6,0-8.3-.3-13.1,0-18.6,1.2-37.4,1.6-55.8,4.2a154.8,154.8,0,0,1-46.6-.6C718.2,1590.9,716.3,1590,714.4,1589.4Z"/><path class="cls-3" d="M1270.1,1779.3c.2,11.8-4.1,22.4-9.4,32.5-4.5,8.6-13,8.5-21.4,8.1-12-.5-21.6-6-30.7-13.2-4.9-3.9-6.3-9.6-2.7-15.2q9.45-14.85,19.8-29.1a27.7,27.7,0,0,1,20.6-11.4c13.7-1.2,14.9-.9,19.7,12.6,1.1,3,2.7,5.9,3.5,9C1270.3,1774.8,1270,1777.1,1270.1,1779.3Z"/><path class="cls-3" d="M587,1739.3c-2.6,2.3-3.5,3.4-4.7,4-16.3,8.6-29.8,20.7-43.4,32.9-6.2,5.6-13.7,10.1-20.9,14.4-6.8,4-13.3-.6-19.8-2.1-1.1-.2-2.4-3.1-2.2-4.5.8-4.9,1.3-10.2,3.6-14.5,4.3-8.1,9.9-15.4,14.5-23.2,13.2-22.2,34.5-22.2,54.4-16.2C574.7,1732,580.2,1735.8,587,1739.3Z"/><path class="cls-3" d="M1355.4,1752.4c6.3,1,12.4,1.1,17.7,3.3,2.6,1.1,5.4,6.2,5,9-2.6,21.1-13.7,36.5-33,45.7-5.5,2.6-18.8,1.2-20.8-4.9-.3-.9,4.6-14.4,7.4-20.9,3.8-8.5,7.7-17,11.8-25.4C1346.1,1754,1349.7,1752.3,1355.4,1752.4Z"/><path class="cls-3" d="M442.8,1733.2a26.4,26.4,0,0,1-1.5,5c-9.4,17.9-15.7,37.9-34.2,47.6-4.6,2.4-14.7.4-19.8,1.1-6.9.9-11.3-4.5-9.4-11.2a29.45,29.45,0,0,1,5-10.4c15-19.1,36.8-26.2,58.4-33.5C441.9,1732.3,442.3,1732.7,442.8,1733.2Z"/><path class="cls-3" d="M1104.8,1783.1c.9-2.3,1.8-7.3,4.6-11.1,7.2-9.8,14.9-19.3,23-28.4,6.1-6.9,14.1-7.2,20-2s6.3,14.1.2,20.7c-8.2,9-16.8,17.6-25.7,25.9-3,2.8-7.2,4.6-11.2,5.7C1108.9,1796,1104.9,1792.5,1104.8,1783.1Z"/><path d="M427.2,1865.6c-2.9-.8-6.1-1.1-8.7-2.5-20.1-10.2-36.1-25.4-49.9-43-5.1-6.5-4.9-14.3-3.5-21.6a253.71,253.71,0,0,1,8.5-33c4.9-14.2,16-23.2,28.7-30.3a67.08,67.08,0,0,1,14.4-5.9c-6.5,6.9-13.2,13.5-19.3,20.7a79.83,79.83,0,0,0-18.6,43.6,28.52,28.52,0,0,0,5.6,19.1c13.2,16.9,27.7,32.9,41.7,49.2.6.7,1.2,1.4,1.8,2.2A10.09,10.09,0,0,0,427.2,1865.6Z"/><path d="M525.4,1871.8c-3.7-1.1-6.9-1.4-9.1-3-14.6-10.2-27.5-22.1-37.6-36.9-7.1-10.4-6.1-21.7-4.2-33.4,4.5-27.4,19.8-47.9,40.3-65.3.8-.7,2-1,4-.5-4.2,6.1-8.2,12.2-12.5,18.2-10.2,14.1-17.4,29.3-18.6,46.9-.8,12.6,2.9,23.7,10.7,34C507.8,1844,515.8,1857.4,525.4,1871.8Z"/><path d="M1133.4,1731.5c-7.9,9.2-15.6,18.6-23.8,27.5-11.5,12.6-17.3,26.2-12.7,43.8a198.13,198.13,0,0,0,25.8,58.1c1.8,2.8,5.2,5.9,1,8.8s-7.1-.2-9.4-3.7c-14.9-21.6-24.9-45.6-33.6-70.1-4.2-11.9,3-21.7,10-29.8,9.3-10.6,20.3-19.8,30.8-29.4,3.1-2.8,6.9-4.7,10.4-7C1132.4,1730.4,1132.9,1730.9,1133.4,1731.5Z"/><path d="M1222.2,1879.8c-5.6,1.4-8.4-1.7-10.7-7.5-4.6-11.7-10.8-22.7-15.4-34.4-3.5-8.8-5.7-18.2-8.2-27.3a11.21,11.21,0,0,1,.6-6.5c5.9-14.7,12.7-29,24.3-40.3a18.92,18.92,0,0,1,8.2-4.9c-.5,1.5-.9,3-1.4,4.5-4.4,12.2-10.5,24-12.8,36.6-1.8,10-.3,21,1.9,31.1C1212.3,1847.6,1217.6,1863.5,1222.2,1879.8Z"/><path d="M1335,1759.4a54.12,54.12,0,0,1-2.5,7.1c-7,14.9-11,30.5-11.1,47a39.36,39.36,0,0,0,2.9,13.5c6.7,16.8,13.9,33.3,20.5,50.1.8,2.1-.9,5.2-1.5,7.8-2.3-.9-5.1-1.2-6.7-2.8a32.69,32.69,0,0,1-6-9.1q-10-22.8-19.5-45.9c-3.5-8.5-2.4-16.9,1.6-25.3,5.9-12.2,11-24.8,16.6-37.1,1-2.2,2.8-4.1,4.2-6.2A6,6,0,0,0,1335,1759.4Z"/><path class="cls-1" d="M459.2,1359.8c-.5,9.3-1.6,18.5-1.4,27.8.6,23.1-4.6,44.4-14.9,65.2-6.6,13.3-17.6,15.1-29.6,16.3a38,38,0,0,1-21.2-4.3c-6.1-3.2-13.2-1.1-16,5.2-4.4,9.7-11.6,12-21.6,12.7-21.6,1.6-40-4.8-54.2-20.6-7.3-8.1-16.6-10.1-25.8-12-10-2.1-18-7-25.8-12.9-6.6-5-13.2-10.2-19.4-15.7-21.2-19-28.4-43.2-25.8-71,5.4-56.4,26.4-107.7,51.1-157.8,10.6-21.4,23.3-41.1,40.4-58.2,18.1-18.1,25.8-42,33.5-65.5,2.1-6.3,2.3-13.2,3.4-19.9-.9-.4-1.9-.8-2.8-1.1-5,7.4-10.6,14.4-14.9,22.2-8,14.3-15.2,29.2-23,43.6-2,3.7-5.3,6.7-8.8,10.9v-27.4c0-5.1.5-10.2-.1-15.2-2-15.1,1-29.6,4.9-43.9,9.9-36.6,18.8-73.5,33.8-108.6,4.3-10,4.9-21.6,7.5-33.6l-40.6,32.6c-.4-.4-.8-.7-1.2-1.1a38.44,38.44,0,0,1,2.1-4c14.9-22.1,30.1-43.9,44.6-66.2,7.8-12,14.4-24.9,21.5-37.4,13.6-24,27.2-48.1,40.8-72.1,1.1-1.9,2.1-3.8,3.2-5.7l-1.2-1.5c-3.9,2.6-8,4.9-11.6,7.8-15,12.1-29.9,24.5-44.8,36.7a13.38,13.38,0,0,1-4.9,2.5c25-57,69.6-99.5,108.8-146.6-13.9-6.2-25.6-14.2-32.7-27.8,32-2.2,61.4-11.8,89.7-25.9,14.6-7.3,30.4-12.3,45.8-17.8a16.28,16.28,0,0,1,17.5,4.4c5.9,6.1,10.5,12.6,11.8,21.8,4.1,28.2,1.9,56.4-.1,84.5s-4,56.3-6.5,84.4c-4.2,47.1-8,94.3-13.7,141.2-1.9,15.6-8.3,30.9-14,45.8-2.6,6.8-8.3,12.3-12.6,18.5-1.6,2.3-3,4.7-4.4,7.2-4.7,8.3-8.9,9.1-16.1,3-9.6-8.2-19-16.5-28.8-24.5-7.2-5.8-15.5-9.7-24.8-6.8-3.9,1.2-7.1,4.7-10.5,7.2-.4.3-.5,1.1-.8,1.6-17.5,22.8-12.3,48.9-10.7,74.4,1.2,19.6,2.8,39.3,4.2,58.9.3,4.2.8,8.4-.1,13.5l-22.8-32.7c-.1,0-.7.2-.7.3.2,15.6.2,31.2.8,46.9.1,2,2.3,4.1,3.9,5.7,31.9,30.7,58.5,65.3,77.8,105.3a151.13,151.13,0,0,1,13.8,48.3,45.89,45.89,0,0,0,4.8,14.8c6.8,13.6,14.7,26.7,21,40.6,8,17.6,10.6,36.2,5.6,55.3-4.8,18-24.2,35.4-41.1,37.5-10.1,1.3-18.1-2.1-23.5-10.7-8.3-13.4-14.5-27.6-14.4-44,0-4.1-1.3-8.2-2.1-12.3A19.53,19.53,0,0,0,459.2,1359.8Z"/><path class="cls-4" d="M412.7,612.2c2.8.4,6.1,1.9,8.3,1,15.7-6.4,33.2-4.9,48.8-12,17-7.7,33.8-15.8,50.8-23.5,8.6-3.9,17.7-6,26.6-8.6,7.3-2.1,13.9-.1,19.6,5.2,10,9.4,12.1,21.9,12.5,34.4,1.2,34.4-1,68.6-4.3,102.8-1.8,18-2.7,36-4.1,54-1.8,23.5-4.1,46.9-5.6,70.4-1.2,18.6-2.9,37.2-5.3,55.7-2.7,20.6-7.6,40.7-16.3,59.7-3.3,7.3-7.5,14-13.6,19.3-2.2,1.9-2.3,4.7-3.8,6.8-6.3,8.8-9.6,9.5-16.3,3.1a239.08,239.08,0,0,0-29.7-25.3c-7.1-4.9-14.4-8-23.3-6.5-5.1.9-8.7,3.1-11,7.5-.6,1.1-.8,2.4-1.6,3.3-15.8,19.9-11.5,43.1-10.3,65.5,1.2,21.5,4.8,42.8,4.8,64.4,0,5,.7,9.9,1.2,15.9-10.3-10.3-17-22.1-24.7-33.2-.9,16.6-1.6,33.1.9,49.9-37.7-6-75.1-12.6-112.7,4,12.4-25.5,26.1-48.9,26.6-77-6.2,7.3-13.3,13.7-16.7,22.8-5.8,15.7-14.9,29.8-23.4,44.1-1.7,2.9-4.3,7.4-7.3,6.6-2.6-.7-1.1-5.8-1.1-8.9,0-14,.5-28-.1-42.1-.7-17.3,5-33.7,9.5-50.1,8.6-31.3,16.6-62.8,29.7-92.7,4.1-9.2,4.5-20.1,6-30.6-13.4,10-25.6,21.2-40.9,31.2,2-6.9,5.5-10.9,8.3-15.1q21.15-31.35,42.6-62.4c7-10.1,12.4-20.9,17.6-32a587.76,587.76,0,0,1,39.4-70.1c1.5-2.3,3.3-4.5,3.9-7.8-5.7.4-9.2,4.2-12.8,7.6A463,463,0,0,1,341.5,785c-1.6,1.2-3,2.8-5.5,3-1.2-2.4.4-4.2,1.4-6,15.8-29.4,33.6-57.5,56.4-82.2,16.1-17.4,30.2-36.6,46.7-53.8,3.7-3.9,4.1-5.7-1.6-8.3-11.7-5.3-21.2-13.3-26.8-25.3A.56.56,0,0,0,412.7,612.2Z"/><path class="cls-5" d="M501.3,987.2l-.6-.6c.4-.6.8-.3,1.1.2C501.6,986.9,501.5,987.1,501.3,987.2Z"/><path class="cls-6" d="M411.8,611.6c6.7,3.6,12.3-.5,18.3-1.6,8.2-1.5,16.5-1.7,24.6-4a256.06,256.06,0,0,0,45-18.4,242.57,242.57,0,0,1,47-18.4c7.6-2.1,14.4-.6,20.2,5.1,4,3.9,6.7,8.7,9.4,13.4,2,3.5,1.2,6.7-2.1,9.6-21.5,18.6-42.9,37.3-64,56.4-5.1,4.6-8.9,10.6-13,16.1-15.3,20.5-36.6,33.8-57.9,46.8-15.4,9.4-31.6,17.6-46.8,27.4-8.1,5.2-14.8,12.6-22.4,18.7-10.2,8.3-20.7,16.4-31.1,24.5-1,.8-2.4,1.1-5,2.4,5.3-12.1,11.3-22.2,17.3-32.1,16.1-26.7,35.8-50.6,56.8-73.7,11.4-12.6,21.7-26.3,33.9-38.2,2.8-2.8,2.5-5-1.9-7A55.9,55.9,0,0,1,411.8,611.6Z"/><path class="cls-6" d="M285.5,927.5c5.1-7.7,10.2-15.3,15.3-23,16.3-24.1,33.1-47.7,48.5-72.4,5.8-9.3,14.6-16.9,22-25.2,17.9-20.2,39.5-36.2,60.6-52.8,2.5-2,4.5-4.7,7.9-5.4A99,99,0,0,1,421,804.2c-11,15.5-20.3,32.3-33.5,46.4-9,9.6-20.1,16.4-30.7,23.9a96.85,96.85,0,0,0-16.1,13.9c-4.9,5.3-10.9,8.7-17.3,12.1-7.2,3.8-12.8,10.6-19.3,15.8-5.6,4.4-10.9,9.3-17.4,12.4A6.79,6.79,0,0,0,285.5,927.5Z"/><path class="cls-3" d="M298.4,1268.3c3,6.7,5.9,13.5,9,20.1,6.1,12.8,3.4,25.7.2,38.5-2.8,11.2-5.6,22.5-9.2,33.4-4.9,14.8-3.4,29.8-1.6,44.7,2.6,21.4,6.2,42.8,9.4,64-2.8-2.8-6-6.7-9.8-9.7a39.66,39.66,0,0,0-11.3-6.4c-3.7-1.3-5.8-2.8-6.7-6.7-6.5-27.1-11.5-54.5-9.4-82.5a87.52,87.52,0,0,1,15.8-44.8c1.6-2.3,1.7-5.8,2.5-8.7.2-.8-.2-1.8.2-2.4,6.4-9.4,4.3-16.9,7.3-26.9.8-2.8.6-9.2,1.5-12A5.09,5.09,0,0,1,298.4,1268.3Z"/><path class="cls-3" d="M409.4,1467.7c-6.2,2.3-9.5-.1-12.1-4.8-9.4-16.8-13.1-35.3-16.1-54a311.24,311.24,0,0,1-.6-93.9c.4-2.5,2.6-28.8,6.4-38.8l2.4-1.8a35.18,35.18,0,0,0,1.8,4.5c4.4,7.9,10.5,15.4,12.9,23.9,2.1,7.1.2,15.5-.4,23.3a20.77,20.77,0,0,1-2.5,7.5c-6.8,12.3-7.2,25.3-5.3,39,2.6,19.1,3.9,38.3,6.4,57.4,1.5,11.2,4.3,22.3,6.4,33.5A36.63,36.63,0,0,1,409.4,1467.7Z"/><path class="cls-3" d="M224.8,1417.4c-10.9-11.1-17.9-23.1-20.5-37.5-3.5-19.3-1.4-38.4,2.4-57.4a409.41,409.41,0,0,1,21.3-71c3.4,4.9,6.6,9,9.3,13.5a7,7,0,0,1,.1,5.5c-13.2,25.7-16.9,53.2-15.7,81.6.9,20.7,2.3,41.3,3.5,61.9A21.69,21.69,0,0,1,224.8,1417.4Z"/><path d="M375.7,1471.1c-19.2-53.7-11.4-106.3,4.1-158.6h1.9c0,3.4.2,6.8,0,10.2-1.9,33.9,1.3,67.4,8.2,100.5,2.2,10.7,4,21.6,5.8,32.4.8,4.6-2.1,8.1-6.7,8.4C383.6,1464.2,379,1465.8,375.7,1471.1Z"/><path d="M291.1,1454.4c-6.9-1.8-13.8-3.3-20.4-5.6-2-.7-3.7-3.6-4.7-5.8-6.3-14.4-6.1-29.7-4.8-44.9,2.8-32.7,11.1-63.9,26.7-92.9a22.67,22.67,0,0,1,4.2-5.7C281,1350.8,280.1,1402,291.1,1454.4Z"/><path class="cls-7" d="M0,1276.1H1.5a3.44,3.44,0,0,1,0,4.8H0Z"/><path class="cls-8" d="M477.4,1099.2a3.44,3.44,0,0,0,0-4.8c1.4-10.2.5-20.4.9-30.5,1.1-.8,1.2-1.6.1-2.4,1.3-17.3,2.5-34.6,4-51.9.9-10.7,2-21.4,2.8-32,1.1-15.6,3.8-30.9,5.6-46.4,5.4-46.3,14.8-92,22.6-137.9q12.9-74.85,25.5-149.8c4.3-26,8.7-52,12.1-78.1,1.6-12.4,1.6-25.1,1.6-37.7a488.9,488.9,0,0,1,3-52.8c2.4-21.8.1-42.8-3.7-64-3.3-18.3-7.4-36.6-9.7-55-2-15.2-1.1-30.9-.2-46.3A262.33,262.33,0,0,1,559.7,231c14.9-38.5,38.4-71,71.7-95.1,31.4-22.7,60.9-48.3,94.3-67.9,48-28.1,98.1-51.7,153.2-62.5,12.3-2.4,24.8-3.7,37.3-5.5h38c11.2,1.1,22.4,2.1,34.5,6.1-4.3,2-7.8,3.5-11.1,5.2-13.8,6.9-27.7,13.8-41.5,20.6a8.81,8.81,0,0,0-4.7,4.6c-6.5,15.2-9.6,31.2-12.2,48.3,11.1-5,21.4-9.7,31.8-14.2,53-23.2,107.2-42.4,164.2-53a487.85,487.85,0,0,1,63.8-8c12.6-.7,25.1-1.2,37.7-1,31.1.4,61.2,7.1,91,15.2,54.7,15,104.8,39.4,149.7,74.2,18.4,14.3,34.7,30.6,47.2,50.5.9,1.4,2,2.6,2,4.8-7.5,0-14.5-3-21.8-3.6-20.9-1.6-41.8-2.5-61.9,5.6a44.26,44.26,0,0,0-10.5,6.1c-2.9,2.2-3.6,3.8.5,5.8,31.6,16,58.2,38.4,83.1,63.2,37.8,37.7,59.7,83.6,68,136,1.5,9.6,3.5,19.1,5.8,28.6,2.9,11.9,3.2,24,3.2,36.2,0,5.7-3.6,2.5-5.2,1.7-12.8-6.6-25.5-13.4-38.2-20.3-24.5-13.2-49.3-25.8-77.1-34.1,2.6,9,5,17.4,7.4,25.8,10.3,35.7,16.8,72.2,21.7,109,3.1,22.9,5.7,45.8,7.5,68.9,1.7,22.2,3.7,44.4,4.7,66.7,1.4,32.6,3.6,65.2,4,97.8.1,9.7,1,19.5.6,29.2-.8,17.3,3.4,33.8,6.6,50.5,10.4,52.8,21.4,105.5,30.9,158.4,6.8,38.1,12.3,76.5,11.2,115.4-.5,16.3-2.8,32.6-4.5,48.8-4,38.8-13.3,76.3-26.6,112.8-14.9,41.2-33.4,80.7-58.8,116.7-15,21.3-25.6,45.3-39.3,67.4-15.5,25.1-27.5,52.1-42.5,77.5-8.4,14.3-19.1,26.4-35.2,32.3-12.1,4.4-24.1,5.4-37.4,3.4-32.6-4.9-64.3-13.3-96.3-20.5-26.5-6-52.2-15.1-77.2-26.2-5.5-2.5-6.6-1.9-5.5,4.1,2.7,15.2,3,30.6,4.5,45.9.4,3.9-.7,7.4-6.3,7-10.7-.6-21.1-3.4-31.9-4.3-7.3-.6-14.7-1.3-21.8-.4-22.2,2.8-44.5,2.1-66.8,2.2a543.78,543.78,0,0,1-71.1-4c-22.7-3-44.7-9.9-65.9-18.9-27.2-11.6-53.3-25.2-76.3-43.9a126.71,126.71,0,0,1-10.8-9.9c-2.4-2.4-4.6-2.8-7.6-1.5a46.41,46.41,0,0,0-12.7,8.3c-17.8,16.6-30.3,37-41,58.6-4.3,8.6-5,8.6-14,6.3-26-6.6-45.3-23.3-62.8-42.2-29.5-31.9-54.8-66.9-76.8-104.3-15.9-27-28.6-55.6-41.6-84.1-10.8-23.5-20.6-47.2-26.3-72.5a534.73,534.73,0,0,1-10.6-69c-1.2-13.6-3.8-27.2-5.6-40.8a88.68,88.68,0,0,1-.4-10.3c1.5-1.2,1.4-2.4,0-3.7C477.9,1122.8,478.7,1110.9,477.4,1099.2Z"/><path class="cls-7" d="M2.4,1316.4c1.5,1.2,1.5,2.4,0,3.7C1,1318.9,1,1317.6,2.4,1316.4Z"/><path class="cls-7" d="M2.5,1243.2c1.1.9,1,1.7-.1,2.4C1.2,1244.7,1.3,1243.9,2.5,1243.2Z"/><path class="cls-9" d="M543,291.4c1.6-7.4,3.1-14.9,4.7-22.3,10.8-48.9,33.1-91.2,71-124.6,14.2-12.5,29.5-23.3,45.3-33.6,13.2-8.6,25.1-19.1,37.6-28.8,2.2-1.7,4.3-3.8,7.2-4.4l.1.1c0,2.1-1.6,3.2-3,4.4-28.6,25.3-51.2,55.8-73.6,86.4-16.1,22.1-32.9,43.8-45,68.6-4.4,9.1-8.8,18.2-13.1,27.4a110.3,110.3,0,0,1-18.6,27.7c-3.8,4.1-8.1,5.3-12.8,1.4A7.86,7.86,0,0,0,543,291.4Z"/><path class="cls-10" d="M1188.5,7.1a4.82,4.82,0,0,0,0-1.2h36.6V7C1212.9,7.1,1200.7,7.1,1188.5,7.1Z"/><path class="cls-11" d="M938.6,478.1c.4-4,.8-8.1,2.4-11.9,1.5-3.5,3.4-6.9,8.2-4.7,2,.9,3-.3,4.2-1.4,15-13.4,33.1-20.1,52.6-23.3,18.3-3.1,36.7-3.4,54.4,3.4,12.4,4.8,25.7,8.7,32,23.3,0-2.6-.1-5.2,0-7.8,0-1.3.6-2.6,2-2.7,1.7-.2,1.5,1.5,1.9,2.6,1.7,4.6,1.1,9.6,1.9,14.4,4.4,24.9,1.4,49.7-4.2,73.9-2.9,12.6-12.2,22.8-21.9,31.6-12.6,11.3-28,17.4-44.7,15.9-32-3-58.9-15.3-74-46.3A169.37,169.37,0,0,1,940.1,508a32,32,0,0,1-.3-5.4c1.2-.9,1-1.7-.2-2.4-.1-3.6-.1-7.2-.2-10.8C939.4,485.6,940.5,481.8,938.6,478.1Z"/><path class="cls-12" d="M1188.5,7.1h36.7c17.3,1.5,34.5,3.6,51.7,8.8-11.7,3.6-23.3,7.9-35.2,10.6C1182.2,40,1124.9,60.4,1068,81.9c-31,11.7-61.7,24-90.8,39.9-27.4,14.9-54.2,31.2-81.3,46.7-4.5,2.6-8.7,5.9-15.1,7a269,269,0,0,1,16.3-29.7c14.1-22.2,30.8-42.3,49.1-61.1,7.1-7.3,14.5-14.2,22.1-20.9,8.1-7.2,18.8-9.5,28.5-13.3a656.08,656.08,0,0,1,124.4-35.3c18.9-3.4,37.8-6.5,57.1-6.6C1181.7,8.3,1185.1,7.5,1188.5,7.1Z"/><path class="cls-9" d="M870.1,849.2H845.6c-18.9-1.9-37.8-3.7-56.4-7.8-14.9-3.3-27.7-11.3-40.7-18.9C734,814,719.6,805.1,707,793.8s-22-25.5-29.8-40.5c-4.2-8.2-10.6-14.8-15-22.9a129.84,129.84,0,0,1-15.6-52.6c-.4-6.1-1.5-12.1-1.2-18.2a13.76,13.76,0,0,1,.9-5.3c.8-1.6,1-3.6,3.2-4,2.5-.4,2.7,1.7,3.7,3.2,6,9.7,14.8,16.7,23.6,23.6a30.37,30.37,0,0,1,10,14.1c14.7,38.5,37.8,71.6,64.6,102.5,13,15.1,30.2,20.4,49,22.5a248.75,248.75,0,0,0,33.4,1.3c9.4-.3,18.2-1.4,26.2-7.4,9.8-7.3,22.2-8.7,33.6-11.9,13.8-3.9,27.8-7.3,41.9-10.5,19.9-4.5,32.9-18.3,45.1-33.2a62.12,62.12,0,0,0,13.5-30.8,11.28,11.28,0,0,1,4.8-8c4.1-3,7.8-6.5,12-9.3,5-3.3,8.5-7.2,9.2-13.5a6.6,6.6,0,0,1,5.9-6.1c4.1-.5,5.5,2.1,7.3,5.1,3.5,6,2.9,11.4.1,17.7-15.3,33.9-37.5,63-62.5,90.1-11.2,12.1-24.6,21.2-39.4,28.1-15.6,7.3-31,15.3-48,19.2C879.3,848,874.7,848.5,870.1,849.2Z"/><path class="cls-11" d="M705.8,486.7c-.2-5.9-.4-11.8-.5-17.7,0-1.3-.5-3,1-3.9s2.6.5,3.8,1.1c3.5,1.9,5.5,5.3,8.1,7.8,2.1-.3,1.7-1.8,1.8-2.9s.2-2.5,1.8-2.7a3.22,3.22,0,0,1,3.4,1.9c3.1,5.5,6.2,11.2,6.8,17.5,2.7,28.1-3.6,53.4-22.8,75.1-13.1,14.9-29,24.1-48.6,20.9-20.7-3.4-39.7-11.3-51.2-31.2A127.86,127.86,0,0,1,592.3,498c-1-14.2,5.6-27,18.7-34.7,6-3.5,13-5,19.7-5.7a103.49,103.49,0,0,1,35,2.3c16.6,3.9,28.7,13.3,38.4,26.7.1,1.2.5,3,1.6,2.8C707.2,489.1,706.5,487.7,705.8,486.7Z"/><path class="cls-12" d="M1242.6,382.3c-6.9-14.4-11.3-28.2-12.5-42.6-3.2-38.9,6.6-74.1,32.3-104,14.6-16.9,34.2-25.7,55.5-30.8,15.5-3.7,31.2-4.4,46.8,0a21.33,21.33,0,0,1,10.1,6.5c4.7,5.2,4.2,13-1.6,16.9-19.5,13.4-36.6,29.6-53,46.5-7.5,7.7-16.1,14.3-23.8,21.8A196.47,196.47,0,0,0,1252,360C1249,367,1246.1,374.1,1242.6,382.3Z"/><path class="cls-9" d="M708.9,77.9a2.11,2.11,0,0,1,2.5-1.1h0a2.09,2.09,0,0,1-2.3,1.3C709.1,78,708.9,77.9,708.9,77.9Z"/><path class="cls-9" d="M711.5,76.7c.2-.2.3-.4.5-.6,0,.1,0,.3-.1.3-.2.2-.3.2-.4.3Z"/><path class="cls-5" d="M652,1367.3c-5.5-20.4-11.2-40.6-16.4-61.1q-13.5-52.5-23.8-105.6c-2.6-13.1-1.3-26.4,0-39.5,2.3-23,6.1-45.8,10.5-68.6.3-1.5-.4-3.9,1.5-4.2,2.5-.5,3.4,2,4.1,3.8,5,11.6,10,23.1,15.9,34.2,42.6,78.8,91.6,152.6,161.7,210.4,48,39.6,97.7,76.3,154.4,102.7,3.9,1.8,8,3.4,12.1,5.1a9.13,9.13,0,0,0,.8-1.3c-10-9.1-20-18.3-30-27.4a417,417,0,0,0-39.4-31.7c-19.6-14.1-34.6-32.9-48-52.4-18.6-27.2-33.7-56.5-43.8-88-.1-.3.1-.8.3-1.8,8.2,6.6,16,13.2,24.1,19.5,30,23.5,61.6,44.6,97.6,58,5,1.9,9.2,5.2,13.6,8.1a342.46,342.46,0,0,0,52.2,27.6c22.9,9.6,43.6,23.7,67.2,31.6,21,7,41.5,15.6,62,23.7a5.62,5.62,0,0,0,6.1-.8,293.76,293.76,0,0,1,34-21.4,8,8,0,0,0,3.9-5.1c24.5-77.9,48.8-155.7,60.6-236.9,5.9-40.8,11.5-81.7,12.8-123a91.35,91.35,0,0,1,1.4-12.7c4.1,18.7,7.7,37.5,10.4,56.5a786.66,786.66,0,0,1,7.4,124.6,773.26,773.26,0,0,1-18.8,154.5c-.4,2-1.1,3.9-.6,6-.8,0-1,.4-.9,1.1,0,.1.2.3.4.4.1-.5.3-1,.4-1.6,5.7-6.1,9.5-13.5,13.9-20.5,14.6-23,28.6-46.3,41.8-70.1,2.6-4.6,4.8-9.4,5.3-14.8a5.47,5.47,0,0,1,.8-2.9c11.5-14.5,11.4-32.4,13.4-49.2,3.4-28,5.6-56.1,7.5-84.3q3.75-56,2.7-112.1c-.4-22,2-43.8,3.3-65.7.5-8.5.2-17.1.4-25.6,0-1.5-1-3.6,1.1-4.2,1.6-.5,3.1.6,4.4,1.7,2.6,2.2,3.9,5.1,5.4,8,6.3,12.8,10.7,26.3,15.8,39.6a11,11,0,0,0,.2,1.8c10.3,33.6,18.2,67.8,25.9,102.1,3.3,14.9,6.3,29.9,9.4,44.9a243.8,243.8,0,0,0,7.9-25.2c8-29.6,15.6-59.3,17.3-90.1,1.7-31.3,2.9-62.5,2.6-93.8-.1-7.7.1-15.5.5-23.2a277.24,277.24,0,0,0,.1-35.3c-2.4-31.6-7.2-62.9-10.6-94.4-.5-4.9-.1-10.1-2.7-15.6-4.1,36.2-9.7,71.3-15.2,106.3-6.6,42.7-14.3,85.3-26.9,126.7-.5,1.6-.4,3.7-3,4.1-.7-2.8-1.4-5.5-2.1-8.2q-6.3-55.8-7.4-111.9c-.6-31.1-1.1-62.2-2.4-93.2-1.6-40.2-3.6-80.4-3.1-120.6.4-34.5.8-69.1,2.5-103.6,1.5-29.9.8-59.7.7-89.6-.1-21.9-.9-43.9-2.4-65.8-3.4-50,23.7-75.9,62.8-92.4,44.9-18.9,86.7-9.9,124.4,20.1a17.46,17.46,0,0,1,5.3,7.3,269.86,269.86,0,0,1,19.9,73.8,65.72,65.72,0,0,0,2.9,12.4c4.4,14,4.8,28.4,4.7,42.8-.1,5.5-3.6,2.3-5.3,1.4-13.7-7.1-27.3-14.4-40.9-21.7-21.7-11.7-43.6-22.7-67-30.4-2.1-.7-4.1-1.9-6.4-1.2a.9.9,0,0,0-.1-.5,1.76,1.76,0,0,0-.5.4c.2.1.3.1.5.2,3.8,14.3,7.9,28.5,11.5,42.8,8.1,32.5,13.5,65.5,18,98.8,7.8,58.5,11.6,117.2,13.5,176.1.9,28.8,1.7,57.7,2.2,86.6.3,19.1,5.7,37.3,9.3,55.8,10.8,55.4,22.9,110.5,31.7,166.2,4.8,30.7,8.8,61.6,7.7,92.8-1.8,51.9-10.4,102.5-27.1,151.7a552,552,0,0,1-69,138c-14.3,20.8-25.6,43.9-37.9,66.1-13,23.4-25.3,47.3-38.7,70.5-10.1,17.6-24.6,30.3-45.3,34-13.6,2.4-27.3.6-40.6-2.3-49.2-10.4-98.8-19.5-145.7-38.7-6.1-2.5-12.3-5.1-19.1-8,0,9.4,1.6,17.8,2.9,26.1,1.4,9.3-.1,18.7,2,27.9.7,3.2-.5,5-4.5,5.1-8.6.2-16.9-2-25.3-3.3-10.9-1.7-21.7-2.5-32.7-1.4-37.5,3.7-75.1,2.7-112.7.2-61.2-4-114.8-27.5-163.5-63.5a74,74,0,0,1-11.9-10.5c-3.1-3.5-5.9-3.4-9.6-1.5-13.5,7-22.4,18.6-31,30.5a220,220,0,0,0-22.4,38.4c-1.9,4.1-4.1,4.9-8.5,4.4-16.2-2.1-29.5-10.2-42-19.7-24.5-18.8-43.1-43-61.7-67.1-34.1-44.3-59.7-93.3-81.9-144.4-9.5-21.8-19.2-43.4-24.9-66.6-5.9-24.1-9-48.6-11.9-73.2-3.3-28.3-6.6-56.5-6.9-85-.2-19.3.6-38.6,2.1-57.8,1.5-19.4,3.1-38.9,4.7-58.3,2.8-34.2,7.3-68.2,12.7-102.1,5.5-34.3,11.8-68.4,17.8-102.6a32.36,32.36,0,0,1,2.3-7.9c2.1,2.5,1.3,5.3,1,7.9-1.9,13.9-2.2,27.9-3.3,41.9-2.6,32.3,0,64.5,1.3,96.8.8,18.9.6,37.8,2,56.6s5.3,37.4,7.1,56.2c4.6,49.1,20.4,95.6,33.3,142.7,7.2,26.1,17.8,51.2,30.7,75.4,19.3,36.2,38.2,72.6,58.7,108.1,1,1.7,1.6,3.7,3.5,4.9.2.6,0,1.8.9,1.4A1.21,1.21,0,0,0,652,1367.3Z"/><path class="cls-13" d="M1314.4,84.8c-32.3,1.9-63.2,8.4-92.7,21.4s-52.5,33.4-71.8,58.8c-6,7.9-13,15-19.3,22.7a72.46,72.46,0,0,0-9.5,15.5c-5.2,11-15.7,13.1-25,5-9.7-8.4-11.7-19.5-10.8-31.6,1.9-24.8,13.6-44.3,32.1-60.1,28.3-24,60.9-38.3,97.7-43.6,14.2-2.1,28.1-6.4,42.4-7.9,21.6-2.3,43.7-5.2,65.1-2.6,48.9,6,97.1,16.1,140.6,41,14.8,8.5,25.3,22.1,35.4,35.7,3.1,4.2,5.8,8.7,9.3,13.8-8.8-.1-16-3.1-23.6-3.8-19.3-1.8-38.5-2.2-57.3,4.2-1.3.5-2.9.7-4,1.5-9,7.4-18.8,6.5-29.6,4.9-28.5-4.2-56.7-.3-84.6,6.2-30.7,7.1-60.7,16.5-89.5,29.7-11.7,5.4-22.4,12.4-33.2,19.1a73.51,73.51,0,0,1-30.5,11C1189.6,156.8,1247.8,116.2,1314.4,84.8Z"/><path class="cls-13" d="M922.5,84c-13,10.1-26.2,19.8-38.2,31-21.9,20.3-43.2,41.3-62.3,64.3a55.71,55.71,0,0,0-9.9,17.9c-2.6,7.4-9.9,12-15.4,17.6-1.4,1.5-2.9-.6-4.2-1.4-8.3-5.2-14.3-12.5-19.3-20.8-5.1-8.5-8.9-17.7-13-26.7-6.3-13.8-3.2-28,3-41.2,11.1-23.6,29.4-40.8,51.3-54.1,25.6-15.5,52.1-29,80.1-39.6C912,24.4,928.4,15,947,11.6c10.5-2,21-4.3,32.3-2.4-1.1,2.4-3,2.7-4.4,3.4-12.5,6.3-25,12.6-37.6,18.8a12.74,12.74,0,0,0-6.4,6.9c-5.5,13.2-8.3,27.1-10.7,41.2-.5,2-1.4,4.5,2.3,4.5Z"/><path class="cls-14" d="M1140.8,1185.2c3.2-10.7,5.9-19.7,8.7-28.7,14.6-47.1,26-95.1,36.7-143.2,6.1-27.5,15.9-54.1,27.1-80.1a71.67,71.67,0,0,1,5.3-10.3c6.7-10.2,18.5-10,24.6.6,4.7,8.1,5.7,17.2,6.4,26.4,3.1,38.5-5.7,74.5-21.8,109.2a456,456,0,0,1-83.8,123.5A21.57,21.57,0,0,1,1140.8,1185.2Z"/><path class="cls-15" d="M926.9,1001c.9,2.3-.7,3.9-1.5,5.6-14.9,29.5-40.1,45.3-71,53.7a28.47,28.47,0,0,1-23.1-2.9c-21.4-12-40.5-27.1-60-41.6-6.7-5-7.9-10.3-3.6-17.4,3.1-5.2,7.7-6.4,12.1-2.2,8.9,8.5,19.6,12.7,31.3,15.1,14.1,2.9,27.8,7.6,42.3,8.8,24.5,1.9,46.9-5.1,68.3-16.6C923.1,1002.5,924.5,1000.8,926.9,1001Z"/><path class="cls-13" d="M856.7,64.5a5.94,5.94,0,0,1,.4-.8c.8.9-.3.5-.4.8Z"/><path class="cls-16" d="M1179.9,1332.2c-.1.5-.3,1-.4,1.6-.1-.1-.4-.3-.4-.4-.1-.6.1-1.1.9-1.1Z"/><path class="cls-16" d="M1387.4,359.8c-.2-.1-.3-.1-.5-.2a1.76,1.76,0,0,0,.5-.4v.6Z"/><path class="cls-17" d="M1463.1,1368.3c2.5-8.1,5.5-16,7.3-24.2,8-36.5,16.6-72.8,23.2-109.5,10.2-56.4,12.7-113.4,10.9-170.6-2-62.9-6.8-125.7-16.2-188-1.5-9.9,0-20.3-.3-30.4-.7-25.4-1.9-50.7-2.5-76.1-.2-7.8.9-15.8,2-23.5,2.2-14.4,4.8-28.8,8.4-43.1.2,4.3.6,8.5.7,12.8.5,20.9,1.5,41.9,1.2,62.8-.3,21.6,5.6,42.2,9.5,63.1,10.5,55.6,21.6,111.1,31.8,166.8,5.4,29.1,5,58.6,3.8,88.1-.6,15.6-1.6,31.3-1.7,46.9-.2,34.1-8.7,66.8-18.7,98.9-13.4,42.8-31.4,83.6-55.3,121.7-1.1,1.7-2.2,3.3-3.4,4.9C1463.7,1368.5,1463.4,1368.4,1463.1,1368.3Z"/><path class="cls-17" d="M656.5,1282.1c60.8,101.1,136.8,187.3,221.2,267.1-1.9-.7-3.8-1.2-5.7-2-34.9-14.1-68-31-95.4-57.6-5.9-5.8-11.9-11.6-16.9-18.1-42.7-55.6-77.2-115.9-102-181.6-.6-1.5-1.1-3.1-1.6-4.6C656.1,1284.8,656.2,1284.4,656.5,1282.1Z"/><path class="cls-17" d="M1123.4,1510.2c1.8,20.1,3.6,38.9,5.3,57.7a14,14,0,0,0-1.6,1c-4.4-2.7-9-5.1-13.2-8.2-16.1-12-30.5-26-40.7-43.3-6.2-10.5-9.2-22.8-13.6-34.3-1.2-3.2-2.4-6.4-3.6-9.7-3.9-10.4,2.2-18.9,13.2-17.7,11.4,1.2,22.3,5.8,30.1,13.6,25.9,26,57.2,43.2,89.8,58.9a91.27,91.27,0,0,1,15.4,9.5A426.09,426.09,0,0,1,1123.4,1510.2Z"/><path class="cls-17" d="M1564.6,431.2c-7.5-3.9-13.5-7-19.6-10-25.7-12.6-51.3-25.3-77.1-37.7-5.2-2.5-11.2-3.5-16.7-5.4a11,11,0,0,1-3.7-2.8c-2.1-2.2-3.9-4.7-6-6.9-7.6-8.2-6.7-12.8,2.3-19.7,7.8-5.9,16.2-6.6,25.4-5.4a83.76,83.76,0,0,1,39.2,15.5c22.7,16.3,41.8,35.5,52.6,61.8C1562.2,423.5,1563,426.6,1564.6,431.2Z"/><path d="M580.9,308.6c9.1-11.2,21.8-15.2,35.2-17,23.6-3.1,46,3.1,67.8,11.3,26.3,10,47.7,26.7,65.5,48.2,3.1,3.8,5.3,8.3,7.8,12.5-.5.5-1,1.1-1.5,1.6a79.31,79.31,0,0,1-8.3-4c-26.5-16.5-54.8-29.2-83.7-40.7-24.5-9.7-49.7-13.5-75.9-8.8-2.1.4-4.7-1.3-7-2A3.75,3.75,0,0,0,580.9,308.6Z"/><path d="M1102.1,466.3c-1,19.7-1.1,35.2-7.4,49.8-9,20.9-23.6,36.8-42.9,48.4a34.57,34.57,0,0,1-14.4,4.4c-25,2.3-47.1-3.6-66.3-21C946,525.2,937.4,497,940,464.5a242.82,242.82,0,0,1,5.6-36c7-29.7,27.2-46,56.1-52.7,22-5.1,42.1-.5,59.9,12.9C1088.7,409.1,1101.8,436.7,1102.1,466.3Zm-79.3-43c.4-13.1-9.4-23.8-22.1-24.2s-23.7,10.3-24.1,23.3a23.29,23.29,0,0,0,22.6,23.8C1011.8,446.5,1022.4,436.2,1022.8,423.3Z"/><path d="M731.9,484.7c2.2,24.5-11.5,49.9-35.9,68.6-18.5,14.3-40.1,11.9-60.7,2.2-11.4-5.4-19.6-14.4-26.3-24.8-20.8-32.2-24.5-67.6-15.8-103.7,9.1-37.9,50.8-58.8,88-34.5C711.5,412.5,729.9,439.9,731.9,484.7Zm-74.1-54.3a22.65,22.65,0,1,0-22.7,23.1A23.23,23.23,0,0,0,657.8,430.4Z"/><path d="M890.2,352.1a82.21,82.21,0,0,1,5.2-6.5c22.9-23.7,48-44.7,79-56.9,31.5-12.4,64.4-17.1,98-12.8,8.1,1,15.8,5.7,23.4,9.3,2.7,1.3,4.8,4.4,6.2,7.2a7.86,7.86,0,0,1-.2,6.7c-.8,1.3-4,2-5.9,1.7-22.1-4.1-44.2-2.5-66.2.3-48,6.2-93,20.7-133.1,48.6a64.24,64.24,0,0,1-5.6,3.4A3.51,3.51,0,0,0,890.2,352.1Z"/><path class="cls-18" d="M1022.8,423.3c-.4,12.9-10.9,23.2-23.6,23a23.22,23.22,0,0,1-22.6-23.8c.4-13,11.5-23.7,24.1-23.3S1023.2,410.2,1022.8,423.3Z"/><path class="cls-18" d="M657.8,430.4a23.09,23.09,0,0,1-22.7,23.1,22.55,22.55,0,1,1,22.7-23.1Z"/><path class="cls-1" d="M844.4,829.6c-9.5-.8-19-1.2-28.4-2.6-29.5-4.5-56-16.4-79.6-34.7-9-7-17.9-14.1-26.5-21.5A150.24,150.24,0,0,1,675,727.2c-8.8-16.7-17.3-33.6-25.2-50.6A40.19,40.19,0,0,1,646,659c.2-4.6,3-9.5,5.9-13.5,2.4-3.4,5.5-.8,7.6,1.6,16.9,20.1,37.4,36.1,58.4,51.5,35.5,26.1,75.2,40.8,119.5,41.6,27.6.5,54.4-5.3,81.1-12,32.1-8,61.9-21.9,92.1-34.8a20.77,20.77,0,0,0,5.8-3.3c4.2-4,8.2-4,12.3-.3s2.5,8,.5,11.7c-3.4,6.2-7.4,12.2-11.3,18.1C997.7,750,974,777.2,943.7,798a192.21,192.21,0,0,1-76.8,30.8c-1,.2-1.9.6-2.9.8Z"/><path class="cls-1" d="M821.1,724.8c-1.8-3.5-4.2-6.8-5.4-10.5-3-9.7-6-19.4-7.9-29.3s-7.7-17.2-13.2-24.9c-10.2-14.2-20.5-28.2-29.8-42.9-4-6.3-6.4-14-8-21.4-3-14.2,5.4-26,19.9-26.6,24.5-.9,49.1-3.2,73.4,2.2a55.65,55.65,0,0,1,14.6,5.8c6.3,3.5,9.1,9.2,9.5,16.6.7,16.2-4,30.3-14.5,42.7-8.4,9.9-16.5,20.1-24.1,30.6-2.3,3.2-3,7.7-3.6,11.8-1.9,12.8-3.2,25.7-5.1,38.5-.4,2.6-2.2,5-3.3,7.4A10.44,10.44,0,0,0,821.1,724.8Z"/><path class="cls-19" d="M853,830.9c-4.8-.4-9.7-1.1-14.5-1.1-37.9-.6-71.9-12.8-101.4-36.1-15.6-12.3-30.1-26-44.4-39.8-6.1-6-10.4-13.9-15.5-20.9l1.1-1.4a55.94,55.94,0,0,1,5.7,2.2c11.1,5.4,22.2,10.9,33.4,16.4,29.9,14.6,61.8,21.5,94.8,22.4,32.5.9,65,.7,97.5-.2,21.5-.6,42.9-3.1,64.4-4.7,1.7-.1,3.5,0,7,0-8.9,8-16.3,15-24.2,21.6-14.4,12.1-30.3,21.9-48.1,28.2-7.3,2.6-14.3,6.1-21.7,8-9.6,2.4-19.5,3.7-29.2,5.4Z"/><path class="cls-18" d="M923.5,727.6l66.4-24.5c.3,1.3,1.1,3.1,1,4.9-.7,20.2-4.2,39.6-17.4,55.9a45.61,45.61,0,0,1-8.5,8.5c-4.9,3.5-10.4,1.5-13.4-3.2C943,756,934.1,743,925.3,729.9,924.7,729.1,924.1,728.4,923.5,727.6Z"/><path class="cls-18" d="M682.6,671.4c19.2,14.4,36.6,27.5,54.4,40.9a11.66,11.66,0,0,1-2.2,2.6c-11.7,8.8-23.5,17.4-35.2,26.2-3.5,2.6-6.1,2.5-9.5-.7-6.6-6.4-11-13.6-11.4-22.8-.4-10.3-.9-20.7-.4-31C678.7,681.5,681.1,676.6,682.6,671.4Z"/><path class="cls-20" d="M1184.9,695.4c-.9-1.7-2.8-1.7-4.3-1.9-12.9-1.9-21.2-10.7-28.9-20-5.3-6.4-4.9-15-5.8-22.7-3.4-28.4,11.3-48,33.6-59.3,9.2-4.7,19.9-5.7,30.1-6.8a94.81,94.81,0,0,1,39.2,3.2,44.13,44.13,0,0,1,22.3,15.3c6.5,8.3,5.9,18.3,4.9,28-1.9,18-13.7,29.9-26.4,40.9a93.46,93.46,0,0,1-44.5,21.4c-1.8.3-4.2-.1-5.5,1.9Z"/><path class="cls-21" d="M536.9,646.6c3.6-9.5,4.5-19.6,6.1-29.5,2.9-18.6,5.1-37.3,7.5-56,.4-3.3,2.3-4,5.1-3.4,11.8,2.4,22.3,7.4,30.8,16.2s10.5,20,8.8,31.7c-3.2,22.3-15.5,38.9-33.3,51.8a20.26,20.26,0,0,1-25-1Z"/><path d="M829.7,674.7c1.7-8.4,2.9-16.4,5.1-24.1,1-3.8,3.4-7.3,5.8-10.5,5.6-7.5,11.3-14.8,17.5-21.8,1.4-1.5,5.8-2.4,7.1-1.4,1.6,1.3,2.1,4.9,1.7,7.4s-2.1,4.8-3.5,7q-13.5,20.25-27.1,40.3C834.6,674,833,677.1,829.7,674.7Z"/><path d="M802.6,676.7c-2.5-3.4-4.2-5.6-5.8-7.8-5.6-7.7-11.3-15.3-16.7-23.2-6-8.9-11.7-18-17.2-27.1-.8-1.4-.8-4.5.2-5.3,1.1-1,4.1-1.2,5.5-.3a54.35,54.35,0,0,1,9.8,8c11.9,12.7,18.3,28.6,24.1,44.7C803.4,668.4,802.6,671.8,802.6,676.7Z"/><path class="cls-1" d="M1618,1046.2c-8.7,17.7-14.9,36.2-26.7,51.8l-1.7-.3c0-2.7-.1-5.5,0-8.2,1.1-45.5,1.7-90.9,10.7-135.9,2.3-11.4-1-24-2.3-36-.3-2.8-2.4-5.5-4.2-7.9-4.8-6.5-9.9-12.8-15.9-20.5,5.8,27.4,12.4,53,14.4,79.4-.5.2-1,.5-1.5.7-1.5-2.4-3.3-4.6-4.6-7.1-21.1-41.3-41.5-82.9-54.9-127.4-6.5-21.6-21.3-36.3-37.1-50.9-19.9-18.3-40-36.8-53.4-60.6-16.1-28.5-20.5-59-12.7-91.2a155.73,155.73,0,0,1,14.1-37.3c7.1-13.3,19.2-17.7,32.2-18.5,18.6-1.2,37.3-.3,56-.2a273.23,273.23,0,0,0,65.5-8.1c1.4-.3,2.7-.8,5.2-1.5-3.8,12.5-10.6,21.9-19.4,30.2,58.9,37.4,101.7,87.9,131.1,149.9-.8.8-1.6,1.6-2.4,2.5-13.4-11.2-26.8-22.3-40.1-33.5-.3.2-.5.4-.8.6,2.7,4.4,5.4,8.8,8.3,13.1,14.7,22.1,25.7,46.1,36.4,70.3,1.6,3.7,3.1,7.6,5.4,10.9,15.1,22.1,24.6,46.6,32.1,72,7.7,26.2,13.8,52.7,15.4,80a10.86,10.86,0,0,1-1.2,5.8c-1.9-2-3.8-3.9-5.6-5.9-7.6-8.9-15.1-17.9-22.8-26.8-1.3-1.4-3.1-2.3-4.7-3.5-.6.2-1.2.4-1.7.6.9,7.7,1.3,15.4,2.7,23,1.1,6,3.1,11.8,4.9,17.6,8.6,27.3,16.9,54.6,26.3,81.6,3.5,10.1,9.3,19.3,14.1,28.9,2.1,4.1,4.4,8.2,6.6,12.2-.3.6-.6,1.1-.9,1.7-9.7-3.5-20.4-5.3-28.8-10.8-13.3-8.8-25.1-20-37.5-30.1-1.2-1-2.3-2.1-4.9-4.4,1.3,11.7,2.4,21.9,3.7,32,.2,1.1,1.6,2.4,2.7,3.1,28.9,19.4,47.9,47,63.9,77.1,18.9,35.5,31.3,73.5,42.8,111.8,8.2,27.2,16.8,54.3,19.9,82.7,2.7,24.6,3.9,49.1-4.3,73-7.9,22.8-24.5,36.7-46.6,45-2.3.9-5,2.9-6,5-9.3,21.4-31.4,32.3-54.1,26.2a21.94,21.94,0,0,1-5.8-1.9c-10.3-6.4-21.3-6.5-33.1-6.1-28.5,1-51.1-11.5-67.8-34.3-18.1-24.6-29-52.5-37.5-81.5a19.11,19.11,0,0,0-3.8-7.7c-.5,6.1-1,12.3-1.3,18.4-1.1,19.6-11.3,34.4-27.7,39.9-17.2,5.8-36.6-.1-48.9-14.9-8.5-10.2-12.4-22.3-13.4-35.3-1.1-14.5.1-29,4.6-42.8,10.5-31.8,20.7-63.7,32.5-95,9.1-24.2,23.4-45.8,38.6-66.9,11.5-15.9,21.8-32.7,32.9-49,2.4-3.6,7.1-6.2,8.3-10a100.32,100.32,0,0,0,3.7-23.1c.9-16.4,1-32.9,1.5-49.4C1618.3,1048.1,1618.1,1047.2,1618,1046.2Z"/><path class="cls-22" d="M1785.1,1097c-19.6-2.2-35.5-11.6-49.6-24.8-6.5-6.1-13.4-11.6-21.5-18.6,2.1,12.8.6,24.7,6.5,35.9-37.1-4.2-71.3,6.3-104.9,23.7,1.7-20.6,1.6-41.2,1.3-63-4.1,4.8-5.3,9.7-7.1,14.2-4.2,10.9-9.8,21-15.8,30.9-.8,1.4-1.6,3.3-3.5,2.8s-1.4-2.7-1.3-4.2c.3-24.2,2-48.3,2.8-72.4.8-23.3,5.4-45.9,8.4-68.7,1.2-9.2.5-19.4-.8-29a28.56,28.56,0,0,0-7.7-16.2c-4.3-4.7-7.9-10.1-12.2-14.9,4.9,25.6,11.5,50.8,12.4,77-4.8-3.2-6.7-8.1-8.9-12.6-19.7-39.9-39.6-79.8-52.2-122.6-6.1-20.8-20.6-34.9-35.5-49.1-23.1-21.9-47.5-43-60.4-73.2-10.7-25-14-51-7.4-77.9,3.5-14.2,8-27.7,15.4-40.6,7.1-12.2,18.3-15.6,30.4-17.5,22.7-3.6,45.4-.6,68.1.2,8.8.3,17.4-2.9,26.3-3.3a101.49,101.49,0,0,0,29.8-5.7c3.3-1.2,4.2-.5,3,2.8a59.49,59.49,0,0,1-14.6,22.9c-3.2,3-3.5,4.6.8,6.8,14.6,7.6,26.3,19,38.8,29.3,33,26.9,56.5,61.5,78,97.5a101.82,101.82,0,0,1,9.9,23.2c-16.6-8.9-27.8-22.4-42.3-31.7,3.9,6.2,7.8,12.5,11.8,18.7,12.3,18.8,21.3,39.3,30.2,59.8a227.93,227.93,0,0,0,15.5,28.3c13.8,21.9,19.8,46.6,27.1,70.9,6.7,22.4,10.3,45.5,12,68.8.1,1.3,1,3.1-.8,3.7-2.1.8-3.4-1-4.5-2.4-5.5-7.3-11-14.6-16.4-22-3.5-4.9-8.9-7.3-13.9-12.6-1.2,13.7,1.7,25.2,5.1,36.6,3.2,10.7,6.8,21.3,10.9,31.7,4,10.2,4.6,21.4,8.2,31.8,7,20.4,14.4,40.6,26.4,58.7,1.3,2,2.8,4.1,2.6,6.7Z"/><path class="cls-22" d="M1817.1,1298.1c.1.2.3.5.4.7-.2-.1-.5-.3-.7-.4C1816.9,1298.4,1817.1,1298.1,1817.1,1298.1Z"/><path class="cls-13" d="M1502.1,712.5V684.4c1.7-6.2.6-13,3.5-18.5,23.7,84.7,73.3,150,146.7,197.4.7-.5,1.4-.9,2.1-1.4-2.4-3.7-4.7-7.6-7.2-11.2-18.4-26.6-36.3-53.5-50.8-82.5-5.6-11.2-11.2-22.5-15.4-34.5a4.62,4.62,0,0,0,.7-.7l29.8,25a294.38,294.38,0,0,0,31.9,23.5c6.9,4.4,10.8,11.5,16,17.4,23.5,26.7,44.6,55.4,69.3,81.1,4.1,4.3,5.9,10.1,8.9,15.2,7.8,13.3,15.2,26.9,23.6,39.9,6.5,10.2,5,21.5,6.6,32.4.4,2.5-1.4,2.5-3.1,1.6-2.2-1.3-3.3-3.5-4.8-5.4-7.1-9.3-13.1-19.6-22.8-26.8-1.4-1.1-2.6-2.6-5.2-2.8a77.78,77.78,0,0,0,2,22.6c1.5,6.1,2.9,12.3,5.2,18.2,11.8,29.8,16.3,62.1,30,91.3,2.8,5.9,5.5,11.8,9.1,17.2a82.13,82.13,0,0,1,8.3,15.6c-16.2-3.7-31.4-7.8-43.6-19.4-8.8-8.3-18.4-15.8-28.8-24.6,1.2,10.9,2.2,20.6,3.4,30.3.4,3.2,4.2,3.5,6.1,6.3-2.1.9-3.9.2-5.7-.5a45.14,45.14,0,0,0-35.5.6c-7.2,3.1-15.1,4.8-22.7,6.8a189.34,189.34,0,0,0-44.5,17.9c2.9-23.8.6-46.1,2-68.5-2.5,6-5.3,11.9-7.6,18-4.1,10.7-9.6,20.6-15.5,30.3-.9,1.5-1.7,3.9-3.9,3.1-1.7-.6-1.1-2.9-1.1-4.4-.1-24,1.8-47.9,2.5-71.9.7-23.3,5.4-45.9,8.5-68.8,1.3-9.8.6-20.5-1-30.7-1.8-11.5-11.5-17.9-16.9-27.1a2.08,2.08,0,0,0-2.1-.6c-1.7.7-.5,1.9-.2,3q7.5,30.45,12,61.5a32.49,32.49,0,0,1,.1,11.7,52.15,52.15,0,0,1-8.7-13.3c-20.7-41.5-40.5-83.3-54.2-127.8-2-6.4-4-12.8-9-17.7-2-1.9-2.4-4.7-3-7.2-5.5-24.2-10-48.5-13.1-73.1C1503.2,726.1,1502.4,719.3,1502.1,712.5ZM1731,990.4c1.2-5.7.2-9.5-.6-13.2-4.5-21.2-8.9-42.5-13.6-63.6-3-13.6-6.2-27.3-11.8-40.2-2-4.7-5.2-8.8-11-7.8-6,1.1-7.5,6-7.8,11.5a70.5,70.5,0,0,0,2.2,20.5c6.8,26.8,19,51.2,32.2,75.3C1723.6,978.4,1726.9,983.6,1731,990.4Z"/><path class="cls-23" d="M1602.1,660.9c7.1,4.6,13.2,9.9,19.4,15,10.9,9.1,21.9,18.2,33.1,26.9a86.64,86.64,0,0,1,22.7,25.9c5.3,9.4,11,18.5,16.5,27.7,2.2,3.6.8,4.9-2.9,4.4a55.75,55.75,0,0,1-16.8-5.3c-24.1-11.8-40.2-31.8-54.4-53.7-7.3-11.3-12.4-23.7-17.5-36.1C1601.7,664.5,1600.9,663.2,1602.1,660.9Z"/><path class="cls-13" d="M1581,732.5c-.4-.5-.9-1-.1-1.4.1-.1.5.5.8.7A4.62,4.62,0,0,1,1581,732.5Z"/><path class="cls-3" d="M1704.4,1353.2c12.7,38.7,27.1,77,34.6,117.3,2.1,11.6,3.7,23.2,5.5,34.8.7,4.4-1.6,5.9-5.2,4.6-8.7-3.1-17.4-6.5-25.9-10.4-1.7-.8-2.7-4.1-3-6.3-5.5-35.2-10.7-70.5-16.3-105.6a76.16,76.16,0,0,0-5.7-18.5c-6-13.7-18-27-20-42.2-.5-3.7-3.1-7.3-3.1-10.9,0-8.1,17.5-19.1,25.7-18.3,2.3.2,5.4,3.2,6,5.5,2.3,8.5,3.6,17.2,5.3,25.9C1701.2,1329.3,1701.9,1345.6,1704.4,1353.2Z"/><path class="cls-3" d="M1794.8,1476.7c-1.6-10.8,4.9-24.2,2.4-34.7-7.3-29.7-15.3-59.2-23-88.8-1.3-5.1-7.7-8.9-8.7-14.1-1-5,4.4-6.2-2.1-7.4-1.3-.2-2-7.9-1.9-9.4.8-12.6-.4-25.2.7-37.4,13.2-1.8,18,6.8,20.7,17.3,6.7,25,12.6,50.2,18.4,75.5a487.44,487.44,0,0,1,11.6,84.2C1813.4,1470.3,1804.4,1474.6,1794.8,1476.7Z"/><path class="cls-3" d="M1551.7,1437.1c-16.9,3.7-35.4-5-45.5-21.3-9.4-15-10.8-31.7-9.1-48.7,2.1-20.6,8.7-39.9,16.7-58.9,4.5-10.6,8.4-21.4,12.7-32.4-3.2,16.5-6.8,32.6-9.2,48.8-3.2,21.4-1.3,42,7.1,62.6,6.7,16.4,16.4,30.7,25.1,45.8C1550.1,1434.2,1550.8,1435.4,1551.7,1437.1Z"/><path class="cls-3" d="M1634.8,1472a125.65,125.65,0,0,1-26-42.5c-3.8-10.5-9.2-20.4-12.7-31-2.5-7.8-2.7-16.3-4.5-24.3-2.4-11.2-4.6-22.5-8.3-33.3-2.7-7.9-5.2-15.5-1.8-23.5,1-2.3,3.4-5.3,5.5-5.6s5.5,1.8,6.8,3.8c2.4,3.7,5,8,5.1,12.1.4,18.8,6.7,36.3,11.3,54.1,7.5,28.9,15.8,57.5,23.7,86.3A17,17,0,0,1,1634.8,1472Z"/><path d="M1663.1,1310.1c1.2,2,2.6,3.9,3.7,5.9,24,44,42.4,90.1,49.6,139.9,1.4,9.9.9,20.2.1,30.2-.3,3.7-3.7,7.5-6.4,10.7-1.1,1.2-4.2,1.5-6.1,1-1.2-.3-2.6-2.9-2.5-4.3,1.3-21.3-5.3-41.5-9.9-61.7-8.8-38.2-18.7-76.1-28.2-114.2-.6-2.3-1-4.6-1.5-7C1662.3,1310.4,1662.7,1310.3,1663.1,1310.1Z"/><path d="M1761.5,1318.3c6.9,14,14.5,27.6,20.5,41.9,12.4,29.5,22.5,59.8,21.7,92.3-.2,7.7-2.8,15.4-5.3,22.8-1.1,3.3-4.5,6.3-7.6,8.3-4.5,2.9-9.3-.1-8.4-5.3,4.1-24.8-.8-49-5.4-73.1-5-26.7-11.1-53.2-16.8-79.8-.4-2.1-.8-4.2-1.3-6.3A19.75,19.75,0,0,0,1761.5,1318.3Z"/></g></g></svg>