<svg xmlns="http://www.w3.org/2000/svg" xmlns:xlink="http://www.w3.org/1999/xlink" viewBox="0 0 696.04 840.47"><defs><style>.cls-1{fill:#630100;}.cls-2{fill:#fe3000;}.cls-3{fill:url(#linear-gradient);}.cls-4{fill:#9b2323;}.cls-5{fill:#891818;}.cls-6{fill:#fa8a16;}</style><linearGradient id="linear-gradient" x1="302.75" y1="287.87" x2="90.02" y2="500.6" gradientTransform="matrix(1, 0, 0, -1, 0, 794.81)" gradientUnits="userSpaceOnUse"><stop offset="0" stop-color="#ff5d0a"/><stop offset="1" stop-color="#fa8a16"/></linearGradient></defs><g id="Layer_2" data-name="Layer 2"><g id="Layer_1-2" data-name="Layer 1"><g id="Слой_3" data-name="Слой 3"><path class="cls-1" d="M7,602.41c2-6-22,44,41,90,11.76,8.59,31.54,11,40,11,14.52,0,50.61,4.28,61-21,37-90,26.57-101.65,31-101,39.77,5.8,120.1,64.56,129,101,3.49,14.27,14.7,47.56,0,58-10.86,7.71-12,29-37,35-9.37,2.25-34.82-7.65-47-11-26.55-7.3-27-7-60-7-6.37,0-40.58,5.78-45,6-36.22,1.77-44.38-6-57-11C47.44,746.29-22.06,689.71,7,602.41Z"/><path class="cls-2" d="M442,381.41c-14.83,6.29-37.58,13.07-61,6-34.15-10.32-23.79-83.47-54-101-53.87-31.25-152.72,51.69-152,69,.5,12,59.17-30.36,95,8,13.16,14.09-6.27,57,5,66,34.9,28,86.84,13.78,93,12C414.29,428.06,436.84,390.61,442,381.41Z"/><path class="cls-3" d="M366,398.41c-8.53-13-43.65,14.43-89,0-40.13-12.76-27.85-84.62-62-105-103.63-61.83-167.29,72.28-200,81-30,8,16,16.54,20,16.76,13.62.78,35-2.76,54-16.76,56-15,58.76-9.29,69,3,5,6-29-25-87,44-24.83,29.54,28,4,88,11,12.53,1.46,25.52,2.42,35.93,3,3.41.2,4.39,6.16,1,6.14C171,441.41,160.77,455,152,473.41c-19,40,3.34,14.95,14.15,8.89C207,459.41,267.89,462.2,299,479.41,342.05,503.18,375.25,412.44,366,398.41Z"/><path class="cls-4" d="M497.94,434.4c32-3.55,37.5-16.07,54-13,24.64,4.59,38.73,37.46,43,56,1.79,7.8,9.18,45-12,62a36.53,36.53,0,0,1-15,7V546c15.14-20.58-.06-27.5-1-27.62-1.45-.19-.31,21.82-12,29-8.55,5.24-20.42.37-26-2-45-19.15-83.22-92.44-67-109C467.38,430.89,473.57,437.1,497.94,434.4Z"/><path class="cls-2" d="M46,550.41c-13-19-44,5.76-36,6,34,1,9.48,22.86,4,31a76.72,76.72,0,0,0-12,36c-.27,4.25,1.79,28.79,20,47,5,5,14,25,41,3,17.71-14.43,13.24-13.35,14-15,4.29-9.29-10.64-44.27-15-42-3.58,1.87,5.23,24.31,0,28-4.46,3.15-7.58-1.88-13-12-9.94-18.56,9.36-47.42,6-47-40,5-28.85,41.35-33,34C9,596.41,68.09,582.64,46,550.41Z"/><path class="cls-2" d="M445,786.41c.32-.33,7.51-7.4,17-5,7.73,2,12,8.94,13,15,.21,1.3,1.29,8.71-3,13-4,4-13-20-29-9C437.76,804,444,788.32,445,786.41Z"/><path class="cls-2" d="M617.06,741c4-5.35,11.43-5.44,16.2-3.25,9.37,4.29,14.09,21.34,9.57,22.77-2.8.89-.53-3.6-9.8-6.11-14.54-3.95-17.4-.84-18.19-2.83C613.41,747.92,615.24,743.44,617.06,741Z"/></g><g id="Слой_2" data-name="Слой 2"><path class="cls-4" d="M410,709.41c-11.59-16-10.6-19,0-32s38-7,92,6c92.17,22.13,100.49,43.48,114,50,7.49,3.61,22.4,4.33,17,24-2.8,10.21.44,20.68-8.48,26.37a63.46,63.46,0,0,1-6.52,3.63c-26.64,12.81-43.9-11.06-110-31C450.46,739,423,727.35,410,709.41Z"/><path class="cls-5" d="M610,144.41c8.39-8.18,28.68-30.21,32-63,4.21-41.61-45.91-82.89-55-81-6.26,1.3,13.6,28,0,52-13.1,23.18-16.91,16.64-24,37-4.25,12.22-5.58,32.92,8,46C585.83,149.66,607.93,144.9,610,144.41Z"/><path class="cls-2" d="M413.81,28.75c-14.07,15.81-14,71,27,75,2.95.29,17.43,7.84,27,1,9.94-7.11,7.85-24.11,7-31-.5-4-5.39-39.4-33-47C440.58,26.41,423.3,18.1,413.81,28.75Z"/><path class="cls-4" d="M452.22,696.67a32.51,32.51,0,0,0,13.08,6.85c40.85,28.3,91.61,23,116.21-5.33,22.92-26.41,16.31-65,5.39-87.57-17.86-37-63.11-64.18-99.28-52.54C434,575.35,422.9,670.82,452.22,696.67Z"/><path class="cls-1" d="M533,521.41c-6-44-27.23-53.78-24-89,3.74-40.74,31-63.05,17-83-7.35-10.5-20.77-11.21-28-17-44.63-35.72-116.75-27.77-137-25,3.12,13.91,5.74,35.66-3,58-6.89,17.62-16.27,23.94-47,57-31.9,34.32-27.45,33.59-47,53-39.06,38.78-46.46,31.4-66,55-3.52,4.25-46,57.19-32,121,7.32,33.37,27,55.8,36,66,16.81,19.12,27.8,31.62,46,36,31.29,7.53,53,17.16,105,16,12-.27,21-7,49-6,57.23,2,70.94-4.92,94-22,4.5-3.33,25.39-20.79,29-26,2.82-4.06,9.3-5.26,14-26,5.36-23.67,6-42,0-68C529.35,579.43,538.72,563.07,533,521.41Z"/><path class="cls-6" d="M536,519.41c-6-44-30.23-51.78-27-87,1.28-13.92,5.3-25.69,9.48-35.94,3.16-7.75,12.52-23.06-1.36-23.84-14.09-.79-.08-.15-.12-.22-5.59-9.92-33.88-60.07-60-55-15.13,2.94-23.54,23.22-28,34-10.07,24.31-2.19,34.54-9,55-7.63,22.92-22.29,24.39-50,53-22.57,23.31-23.67,54.3-21,81,3.69,36.83,54.48,27.35,64,63,11,41.38-78.48,83.25-66,119,8.94,25.61,69.26,40.16,87,41,17,.8,43.59-6.78,62-22,15.76-13,21.82-18.22,25.35-21.78,1.53-1.55,3.1-3,4.74-4.49,16.8-14.75,15.7-34.8,16.91-45.73,5.26-47.19-7-52-7-93,0-1.94,1.58-15,2.51-20.62C539,553.21,537.57,530.63,536,519.41Z"/><path class="cls-2" d="M536,576.41c0-1.94,1.58-15,2.51-20.62.43-2.59-1-25.17-2.51-36.38-6-44-30.23-51.78-27-87,1.28-13.92,5.3-25.69,9.48-35.94,3.16-7.75,12.52-23.06-1.36-23.84-14.09-.79-.08-.15-.12-.22-5.59-9.92-33.88-60.07-60-55-15.13,2.94-23.54,23.22-28,34-5.15,12.43-5.6,21.18-5.73,29.5a111.19,111.19,0,0,0,29.73,9.5c30.14,5.48,43.88-4.44,52,5,8.61,10,1.94,31.38-7,44-15.58,22-43.78,25.49-56,27-32,4-59.08-21.37-61-17-2.73,6.23,39.76,53.19,74,48,26.24-4,33.11-27.44,49-24,18.73,4,31.53,41.46,25,72-.36,1.7-8.71,38-41,53-28.09,13.06-115.25-36.61-135-43,1.46,2.54,59.14,44.79,60,48,1.76,6.58-43.48-5.58-46,1,6.79,4.59,54.49,15.16,63,18,87,29,92-9,98-6,16.07,8,7.34,41,0,61-1.5,4.1-9.61,24.94-31,37-44.4,25-107.8-9.35-109-6-1.26,3.51,71.89,31.43,70,38-2,6.79-81.37-17.7-88-3a4.41,4.41,0,0,0-.29.89c21.83,11.92,52.49,18.55,64.29,19.11,17,.8,43.59-6.78,62-22,15.76-13,21.82-18.22,25.35-21.78,1.53-1.55,3.1-3,4.74-4.49,16.8-14.75,15.7-34.8,16.91-45.73C548.3,622.22,536,617.41,536,576.41Z"/><path class="cls-2" d="M439,376.41a74.72,74.72,0,0,1-4,34c-13.9,37-50.26,34.23-63,64-15.91,37.19,25.95,76.27,7,97-6.92,7.57-19.72,10.25-27,6-14-8.14-14.87-54.35-6-82,17-53,57-55,67-78,9.79-22.52,9.49-37,10-41,4.55-35.51-4-58.9,0-60,3.83-1.05,15.55,19.26,17,42A76.07,76.07,0,0,1,439,376.41Z"/><path class="cls-1" d="M352,179.41c1.11,18.17-52,136,63,182,87.74,35.1,184.72,23.52,223,5,31-15,99-97,24-149-51-35.37,47-111-124-167-49.49-16.21-136.3-14.3-162,45C363,125.41,351.3,165,352,179.41Z"/><path class="cls-5" d="M247,779.41c-11.59-16,17.4-31,28-44s5.88-57,52-26c58,39,101.59,47.68,118,65,7.75,8.18,12.95,6.37,15.81,22,1,5.4,3.71,16.77.19,21-3.8,4.55-12.89,4.06-19,7-26.64,12.81-33.9,4.94-100-15C284.46,792,260,797.35,247,779.41Z"/><path class="cls-5" d="M292,746.28c20.57,14,103.53,36.8,142.94-16,36.87-49.38,8.62-111.53,7-115-22.48-47.41-78.8-82.6-128.95-69C239.69,566.28,237.61,673,248,697.3c6,14,21,28,21,28A124.66,124.66,0,0,0,292,746.28Z"/><path class="cls-2" d="M501,5.41c-14.07,15.81-14,71,27,75,3,.29,17.43,7.84,27,1,9.94-7.11,7.85-24.11,7-31-.5-4-5.39-39.4-33-47C527.8,3.07,510.52-5.24,501,5.41Z"/><path d="M499,157.41c8.95,1.88,12.84,15.52,12,25-1,10.67-8.53,23.11-17,23-9.44-.12-18.79-15.81-16-29C480.21,166.13,490.14,155.54,499,157.41Z"/><path d="M625,166.41c6.82,2.09,8.53,15.87,7,25-1.14,6.8-5.33,18.48-12,19-7.27.56-16.35-12.21-15-24S618,164.26,625,166.41Z"/><path d="M591.63,252.63c1.68-1.3,11.38,4.78,12.59,13.47.94,6.76-3.42,13.84-5.52,13.47-2.33-.41-2.46-10.14-2.43-14.36C591.2,256,590.84,253.24,591.63,252.63Z"/><path d="M650.15,258.15c-1.35,1.39,2.7,5,2.62,11.36-.08,7.19-5.36,11.6-4.32,12.6s5.65-1.76,8.45-6.1c.33-.52,5.17-8.23,1.55-13.91C656.22,258.57,651.4,256.86,650.15,258.15Z"/><path d="M574,308.41c-1.82,1.75,4.46,14.56,16,22,14.49,9.35,30.43,5.8,34,5,13.86-3.09,24.88-12,24-14-1.11-2.54-19.19,9.57-41,5C586.87,322.18,576.19,306.35,574,308.41Z"/><path class="cls-5" d="M313,506.38c1.42,3.57,7.91,18.87,22,27,15,8.66,30.81,4.64,53-1,15-3.81,34.63-9.07,52-26,8-7.8,18.52-18.06,19-33,.57-17.68-13.21-30.56-14-31-13-7-133.42,9.29-135.95,44C308.6,492.05,310.55,500.17,313,506.38Z"/><path class="cls-5" d="M394.94,454.4c32-3.55,37.5-16.07,54-13,24.64,4.59,38.73,37.46,43,56,1.79,7.8,9.18,45-12,62a36.53,36.53,0,0,1-15,7V566c16.14-25.58-.06-27.5-1-27.62-1.45-.19-.31,21.82-12,29-8.55,5.24-20.42.37-26-2-45-19.15-83.22-92.44-67-109C364.38,450.89,370.57,457.1,394.94,454.4Z"/><path class="cls-5" d="M403.54,111.75c-17.75-22.51-34.61-45.6-76.5-70.34-28.65-16.92-73.5-19.23-102.74.48-17.69,11.92-32.78,34.82-29,42.23,2.08,4,8.46,1,18.57,2.79,20.52,3.59,34.64,23,40.35,30.88,21.29,29.3,10.44,48.84,30.23,69.45C293.84,197,303.91,200.58,319,206c23.73,8.52,35.32,4.4,50.51,18,7.61,6.83,7.2,10.11,14.74,14.84,12.26,7.7,31.15,10.19,37.4-.88,4.06-7.2,1.17-17.28.92-18.11-4.25-14.21-10-16.95-15.45-28.9-4.45-9.72-3.72-14.33-1-33.3C407.62,147.45,408.29,132.08,403.54,111.75Z"/><path class="cls-6" d="M307,135.54c24.56,11.33,47.89,29.94,72.12,41.24a2.85,2.85,0,0,1,1.67,2.85,18.59,18.59,0,0,1-2.81,8.63c-1.54,2.29-7,8.93-46.89,2.08-11.17-1.92-15.17-3.2-26.28-4.39-10.92-1.17-16.14-.9-20.52-1.26h0a2.79,2.79,0,0,1-1.85-1c-15.19-17.68-9.39-34.87-22.6-58.45a2.89,2.89,0,0,1,3.32-4.2C277.78,125.43,292.6,128.89,307,135.54Z"/><path class="cls-6" d="M198.88,86.21C205.26,64,234.66,57.43,239,55.46c55-25,85.58,7.3,110,37.95,0,0,27.08,46.24,27.24,47.5-26.39-5.14-55.43-22.89-81.81-28.21-16.61-3.35-31.69-2.53-44.6-.93-7.21-9.11-19.49-22-35.83-24.88C207.24,85.71,202.14,86.67,198.88,86.21Z"/><path class="cls-6" d="M487,165.41c-7.16,4.43-10,23,2,25,5.35.89,17.26-11.65,13-20C499.46,165.36,491.32,162.76,487,165.41Z"/><path class="cls-6" d="M612.58,176.35c-6.06,4-8.46,20.5,1.69,22.28,4.53.79,14.61-10.39,11-17.82C623.09,176.31,616.21,174,612.58,176.35Z"/><path class="cls-2" d="M576.3,521.53c-4.74,7.29-1.63,10.15-7.26,16.88-3.69,4.41-5.44,8.58-5,9.83.57,1.67,11.72,2.55,19.93-1.86,8-4.3,9.94-11.86,11.5-18,1.29-5.08,3.1-12.19-.77-14.29C590.57,511.84,580.24,515.46,576.3,521.53Z"/><path class="cls-2" d="M546,523.93A7.87,7.87,0,0,1,549.5,516c5.55-3.61,8.75-3.5,10.6-2.84,7.07,2.52,9.85,18.57,1.89,28.47-4.82,6-13.7,9.87-16.55,8.13-2.52-1.55,1.07-6.65,1.21-17.12A49.52,49.52,0,0,0,546,523.93Z"/><path class="cls-2" d="M469.62,542.55c1.84,6.57-.56,13.22-5.58,19.86-3.35,4.43-.57,8.83,0,10,.89,1.81,9.52.21,18-6.78,5.43-4.45,8.45-8.33,12-16.22,4-9-8.8-22.14-16-17C474.08,535.24,469.83,541.77,469.62,542.55Z"/><path class="cls-2" d="M440,546.43c4.61,12.1-.58,15.34-5,19-3.28,2.7,0,9-2,8-1.55-.77,9.47,1,18-2.9,12.47-5.74,13.81-16.07,14-18.22.74-8.29,1-22.88-11-18.87C447.36,535.64,440.9,544.75,440,546.43Z"/><path class="cls-2" d="M438.36,808.33c1,2.67,8.68,12.08,11.24,23.19.25,1.08,3.77,1.66,4.45,1.89,1.78.6,6.64-2.39,9-9,5-14-6.61-22.91-9-25-6-5.25-11-6-16.39,1.91C437,802.12,436.48,803.49,438.36,808.33Z"/><path class="cls-2" d="M423.71,808.44c2.69-.31,11,2,13.9,10.18,1.81,5.09,3.21,12.89,1.81,17.45-.36,1.18-1.26,3.78-3,4.36-3,1-22.36-14.72-22.36-21.09C414,810.62,421,808.74,423.71,808.44Z"/><path class="cls-2" d="M593,777.93c0-3.94,5.24-8.24,10.1-8.48,17.09-.85,19.18,14.4,17.09,25.45-.18.94-1.14,1.79-3.88,2.55-3.49,1-5.71-2-15.54-11C595.69,781.7,593.06,780.69,593,777.93Z"/><path class="cls-2" d="M616.39,767.17a7.41,7.41,0,0,1,2.76-10.93c3.27-1.49,7.34-.76,11.49.66,11.15,3.82,15.31,20.32,10.06,27.22-.12.15-2.6,3.31-6.19,3.3-4,0-6.63-3.89-15.48-16.5Z"/></g></g></g></svg>