<svg xmlns="http://www.w3.org/2000/svg" xmlns:xlink="http://www.w3.org/1999/xlink" viewBox="0 0 1677.67 2006.04"><defs><style>.cls-1{fill:none;}.cls-2{fill:url(#linear-gradient);}.cls-3{fill:url(#linear-gradient-2);}.cls-4{fill:url(#linear-gradient-3);}.cls-5{fill:url(#linear-gradient-4);}.cls-6{fill:#39f5f6;}.cls-7{fill:url(#linear-gradient-5);}.cls-8{fill:#956ef8;}.cls-9{fill:#89a4f6;}.cls-10{fill:#9f7cf7;}.cls-11{fill:#7b5bbb;}.cls-12{fill:#757cc7;}.cls-13{fill:#784cbc;}.cls-14{clip-path:url(#clip-path);}.cls-15{opacity:0.15;}.cls-16{fill:#f93ffa;}.cls-17{fill:#472963;}</style><linearGradient id="linear-gradient" x1="922.99" y1="830.57" x2="922.99" y2="60.31" gradientTransform="matrix(1, 0, 0, -1, 0, 1898.01)" gradientUnits="userSpaceOnUse"><stop offset="0" stop-color="#5c307b"/><stop offset="1" stop-color="#e55dea"/></linearGradient><linearGradient id="linear-gradient-2" x1="284.29" y1="830.57" x2="284.29" y2="60.31" xlink:href="#linear-gradient"/><linearGradient id="linear-gradient-3" x1="1171.93" y1="830.57" x2="1171.93" y2="60.31" xlink:href="#linear-gradient"/><linearGradient id="linear-gradient-4" x1="657.12" y1="830.57" x2="657.12" y2="60.31" xlink:href="#linear-gradient"/><linearGradient id="linear-gradient-5" x1="51.79" y1="1378.24" x2="1467.86" y2="1378.24" gradientTransform="matrix(1, 0, 0, -1, 0, 1898.01)" gradientUnits="userSpaceOnUse"><stop offset="0" stop-color="#39f5f6"/><stop offset="1" stop-color="#677af9"/></linearGradient><clipPath id="clip-path" transform="translate(61.75 76.94)"><path class="cls-1" d="M562.15,45c1.8,5.9,1.3,7.8,4.3,10.9,31.1,31.4,93,42.9,158.3,42.9,31.5,0,105.3-14.9,116.3-18.6,22.3-7.5,30.5-14,31.8-27.9.7-5.7,4.1-5.7,8-5.2,51.1,7.7,106.6,27.2,223.1,97.5,14,9.1,27.8,18.6,41.1,28.8,72.4,51,171,150.8,178.5,158.9,7.4,7.8,15.1,15.4,21.6,23.9,13.7,18,27.2,36.2,39.9,54.9,12,17.6,23.6,35.4,33.9,54,8.2,14.8,14.2,30.9,21.1,46.4,10.9,24.4,18.6,49.9,21.8,76.3,3.1,25.5,6.2,51.2,6,76.8a308.41,308.41,0,0,1-8.3,68.4c-8.7,36.2-20.8,71.6-39.8,104.1-12.3,20.9-25.4,41.4-37.9,62.2-4,6.6-10.4,6.5-15.6,4.3-25.8-11-51.8-22-76.8-34.6-28.1-14.1-56.9-26.5-87.3-34.1-47.7-11.9-94.9-13.1-139.6,12.3-13,7.4-27,12.9-39.7,20.8-10.7,6.6-20.5,15-30.1,23.2q-25.65,21.9-50.7,44.6c-8.2,7.4-14.5,17.2-23.5,23.4-27.6,18.9-58.1,31-91.9,33.4-11.7.8-23.6,2.7-35.2,1.6-18.7-1.8-37.3-.7-56.2-3.4-27.9-4-53.9-12.8-79.9-22-21.5-7.6-41.9-18.5-62.8-27.9-17-7.6-34.1-15-51-22.8-4.2-1.9-62.8-25.9-68.9-27.7-11.1-3.3-21.9-7.6-33.1-9.9a372.69,372.69,0,0,0-44.7-6.3c-12.8-1-26-1.7-38.6.1a146.2,146.2,0,0,0-38.4,10.7,444.28,444.28,0,0,0-52.2,27,330,330,0,0,0-45.3,32.4c-6.6,5.7-16.7,9-18.5,20.2-.7,4.5-10.6,4.1-15.7-.7-9.8-9.3-19.7-18.5-29-28.3S138.25,916,131,904.8c-24.8-37.9-50.9-75-64-119.4-8.9-30.1-14.5-60.4-15.1-91.5-.6-31.4,3.8-62.3,11.8-92.6.5-2.1,10.4-33,13-39.9,42.5-112.8,99.8-202.1,185.4-288.3,33.6-33.9,70.5-64.5,105.8-96.7,12.8-11.7,24.7-24.4,37.8-35.7,11.1-9.6,23.2-18.1,35.3-26.5,13.6-9.4,27.4-18.5,41.6-26.8C508.15,72,534.15,60.9,562.15,45Z"/></clipPath></defs><g id="Layer_2" data-name="Layer 2"><g id="Слой_1" data-name="Слой 1"><path class="cls-2" d="M850.25,1929c-.6-2.5-2.9-2.1-4.6-2.6-47.3-12.9-67.7-54.4-47.6-98.9,12.2-26.9,31.5-46.9,62.2-52.4,14.7-2.6,27.3,2.9,38.3,12.2,3.4,2.9,6,6.8,4,11.5-1.9,4.5-6.2,4.8-10.4,4.5-7.3-.5-14.6.4-21.9.7-24.6,1.1-47.9,27.1-51.6,52.7-3.6,25.3,24,47.5,50.5,40.6,13-3.4,23.7-10.8,33.2-19.9,39.6-38,62.2-85.5,73.2-138.4,18.8-90.3,2.6-175.3-41.4-255.8-28.1-51.5-57.4-102.4-80.6-156.4-30.7-71.5-52.4-145.6-63.7-222.7-5.7-39.1-8.6-78.3-6.7-117.7a117.67,117.67,0,0,1,3.5-25c9.7-35.7,15.2-72.2,22.4-108.4,10-49.9,26.5-96.8,53.9-139.7,6.2-9.6,12.7-19,20.3-27.5,9.4-10.6,20.6-19.2,35.4-15.5,16.4,4,27.2,15.5,32.4,31.6,3.7,11.4,3,23.1.5,34.7-10.2,48-20.7,96-30.6,144.1-7.5,36.2-14.9,72.4-21.2,108.8-5.1,29.4-2.2,59.1-1.1,88.7,1.1,31.5,2.1,63,3.6,94.5.9,18,6.7,35.2,10,52.8,7.6,39.5,14,79.3,35,114.7,18.1,30.6,35.7,61.6,53.8,92.2,30,50.5,50.9,104.3,59.6,162.7,8.6,57.9-3.2,111.8-30.4,162.9-8.4,15.8-16.5,31.8-25.5,47.3-21.3,36.5-49.6,67.2-81.3,94.9-15.8,13.8-33.6,24-54.7,27.1-1.2.2-2,.6-2.3,1.8C861.05,1929,855.65,1929,850.25,1929Z" transform="translate(61.75 76.94)"/><path class="cls-3" d="M514.85,496.6c7.2,5.9,8.5,14.3,11.2,22.5a468.78,468.78,0,0,1,16.2,68.9c9.2,56.3,16.2,112.8,17.8,170,.9,32.8,4.1,65.6,5.8,98.4,2.6,51,5.7,101.8-3,152.7-11.9,69.4-39.4,131.9-78.6,189.7-13.7,20.2-26.6,41.3-43.9,58.7-52,52.3-113,86.6-188.3,91-47.8,2.8-94.4-2.1-139.3-19.5a209.73,209.73,0,0,1-47-26,46,46,0,0,1-12-12.1c-9.8-14.7-19.7-29.3-29.6-44-12.6-18.8-21.4-38.3-23.4-61.9-4.3-51.8,9.6-95.3,51.7-127.4,35.8-27.2,89.3-22.9,121.3,8.6a63.63,63.63,0,0,1-3.7,94.7c-14.4,12.1-37.6,13.2-50.6,2.3-2-1.7-5.2-3.4-4.5-6.3.8-3.3,4.5-2.1,7-2.3,16.6-.9,29.1-11.5,34.2-28.8,4.3-14.8-.6-27.3-14.7-37.3-22.7-16.2-52.6-14.2-73.5,4.9-37.9,34.6-41.4,93.4-7.3,135,36.3,44.3,85.2,61.6,140.7,61.1,66.8-.6,120.3-31.1,165-78.9,15.4-16.5,27.2-36,42.2-52.8,1.9-2.1,2.8-5.2,3.8-8,20-56.6,34.6-114.5,40.7-174.2,4.6-45.1,4.5-90.5,1.8-135.9-4.2-69.3-5.3-138.5,10.6-206.8a895,895,0,0,1,28.8-97.6C499.25,521.2,506.85,508.9,514.85,496.6Z" transform="translate(61.75 76.94)"/><path class="cls-4" d="M1132.35,738c6.2,6.9,8.8,15.1,13.1,22.4,14,23.8,20.1,49,20.6,76.8.4,18-6.4,30.3-17.2,42.9-26.5,31-52.4,62.6-69.3,100.2-15.8,35.1-24,72-25.5,110.4-.5,11.9-.3,23.9-.4,35.8-.1,23.1,8.1,42.9,19.1,62.9,14.8,26.8,39.2,41,64.8,53.6,54.3,26.8,109.6,30.4,164.3,1.3,48.7-25.8,75.6-87.4,61.8-138.7-6.7-25.1-22.8-41.5-47.2-49.9-17.5-6-32.6-1.8-45.4,11.3a63.89,63.89,0,0,0-15.7,25.4c-5.7,18.7,4.7,32.5,24.4,32.2,8.6-.1,16.2-3.6,24.9-7.8-1.5,8.4-6,13.7-11,18.4-13.2,12.4-38.2,16.1-54.3,7.7-16.8-8.7-21.8-24.1-21.8-41.6,0-39.6,38.3-81.9,77.4-83.9,38.7-2,68,16.2,89.2,47.5,13.7,20.1,18.2,43.5,19.7,67.3.9,14.3,2.2,28.8.5,43.2-5.4,45.8-22.5,85-61.8,112.5-40.1,28-84.8,38.9-133,39.5-41.6.5-81.4-8.8-120.6-21.5-34.2-11.1-60.1-34.3-83.9-60.1-31.9-34.5-49.4-75.4-58.5-121.6-5.8-29.7-9.4-58.8-7.2-88.8,4.9-65.8,27.9-124.4,68.9-176.4,14.3-18.1,31-33.2,47.8-48.5,16.5-15,32.9-30,46.9-47.5C1111.55,753.2,1122.75,746,1132.35,738Z" transform="translate(61.75 76.94)"/><path class="cls-5" d="M753,1650.1c-6.5,15.3-17.3,26.5-30.8,34.9-44.1,27.7-109.5,25.5-149.1-24-30.6-38.3-42.1-82-40.1-130.1,2.3-54.8,22.1-104.4,46.7-152.3,17.9-34.8,39-67.7,59.4-101.2a157.86,157.86,0,0,0,21.7-63.5c4.9-41.3,8.3-82.8,4.9-124.4-5.5-67.4-24-130.9-54.2-191.6-20.8-41.9-34.7-86.5-38.7-133.7-1.8-21.4-3.4-42.7-2.8-64.2.4-15.7-1.7-31.4-2.7-47.2-.3-5-.4-10.1,1.4-16a131,131,0,0,1,22.7,27.6c22.7,37.8,49.8,72.5,74.3,109.1,34,50.8,60.1,105.6,80.7,163.2,12.3,34.3,24.3,68.6,30.3,104.6,10.7,63.7,2.8,125.3-14.3,187.5-16.1,58.7-47.3,106.6-87.5,150.4-16.9,18.4-34.7,36-50.8,55.2-28.3,33.6-40.3,72.7-40.2,116,0,6.5.4,13,.2,19.6-.5,19.6,6.4,37.2,14.1,54.6,1,2.2,2.3,4.4,3.1,6.7,8.9,27.9,31.6,38.9,57.2,45.1,32.6,7.8,61.6-2.6,88.1-21.5C748.65,1653.3,750.85,1651.7,753,1650.1Z" transform="translate(61.75 76.94)"/><path class="cls-6" d="M800.15,3.1c35,5.4,69.6,14.3,103.9,23.2,38.2,9.9,74.2,26.2,109.6,43.4,42.1,20.4,82.1,44.4,120.9,70.6,44.8,30.3,87.3,63.6,128.2,98.8,48.9,42.1,95.5,86.4,135,137.6,22.6,29.3,42.7,60.5,57.9,94.2,12.1,26.9,20.7,55.3,31,83.1,11.6,31.3,14.4,64.3,15.1,97,1,45.9-3.8,91.5-16.4,136.1-13.1,46.5-33,89.6-61,128.9a212.15,212.15,0,0,1-17.8,22.3c-2.2,2.4-7.3,4.1-10.4,3.4-35.7-8.3-71.5-16.2-106.8-26-22-6.1-75.6-23.9-80.8-25.2-16.6-4.1-33.2-9.1-50.4-7.2-12.3,1.4-24.8,3.3-36.8,5.7-15.2,3-29.9,10.2-44.1,16.9-8.1,3.9-14.9,10.6-22.4,15.9-9,6.5-18.8,12.2-27.1,19.5-31.6,28.1-68,48.9-103.8,70.9-14.9,9.2-30.9,15.5-47.8,20-22.8,6.1-45.5,12.9-68.3,19-4.7,1.2-16.5,1.9-21.5,1.9-3.2,0-49.2-2.5-72.2-8.1-59.5-14.5-111.4-47.1-168.1-68-4.6-1.7-8.9-4.1-13.5-5.8-6.6-2.5-47.7-20.6-50.3-22.1-11-6-77.6-23.9-89.2-24.3a156.78,156.78,0,0,0-32.1,2.4c-12.9,2.2-26,4.7-38,9.4-10.8,4.2-20.6,11.3-30.4,17.8-15.8,10.5-61.8,43-64.5,54.2-2.9,12.1-26.1,19.1-39.6,14.3-17.8-6.4-32.1-18-45.4-31.1-37.1-36.5-65.9-79.1-91.9-123.9-15.5-26.8-24.4-56.1-32.9-85.6-11.4-39.6-12-80.3-8.8-120.4,2.7-33.6,12.2-66.6,24.4-98.5,26.1-68.4,64-130.1,107.6-188.2,31.9-42.5,66.5-83.1,101.2-123.5,37.4-43.5,79.5-82.6,123.7-119,47.1-38.8,97.4-72.6,153.7-96.9C573.65,12.6,629.15-.3,687.75.7c9.5.2,19,0,28.5,0C716.45,0,772.75-1.2,800.15,3.1Z" transform="translate(61.75 76.94)"/><path class="cls-7" d="M562.15,45c1.8,5.9,1.3,7.8,4.3,10.9,31.1,31.4,93,42.9,158.3,42.9,31.5,0,105.3-14.9,116.3-18.6,22.3-7.5,30.5-14,31.8-27.9.7-5.7,4.1-5.7,8-5.2,51.1,7.7,106.6,27.2,223.1,97.5,14,9.1,27.8,18.6,41.1,28.8,72.4,51,171,150.8,178.5,158.9,7.4,7.8,15.1,15.4,21.6,23.9,13.7,18,27.2,36.2,39.9,54.9,12,17.6,23.6,35.4,33.9,54,8.2,14.8,14.2,30.9,21.1,46.4,10.9,24.4,18.6,49.9,21.8,76.3,3.1,25.5,6.2,51.2,6,76.8a308.41,308.41,0,0,1-8.3,68.4c-8.7,36.2-20.8,71.6-39.8,104.1-12.3,20.9-25.4,41.4-37.9,62.2-4,6.6-10.4,6.5-15.6,4.3-25.8-11-51.8-22-76.8-34.6-28.1-14.1-56.9-26.5-87.3-34.1-47.7-11.9-94.9-13.1-139.6,12.3-13,7.4-27,12.9-39.7,20.8-10.7,6.6-20.5,15-30.1,23.2q-25.65,21.9-50.7,44.6c-8.2,7.4-14.5,17.2-23.5,23.4-27.6,18.9-58.1,31-91.9,33.4-11.7.8-23.6,2.7-35.2,1.6-18.7-1.8-37.3-.7-56.2-3.4-27.9-4-53.9-12.8-79.9-22-21.5-7.6-41.9-18.5-62.8-27.9-17-7.6-34.1-15-51-22.8-4.2-1.9-62.8-25.9-68.9-27.7-11.1-3.3-21.9-7.6-33.1-9.9a372.69,372.69,0,0,0-44.7-6.3c-12.8-1-26-1.7-38.6.1a146.2,146.2,0,0,0-38.4,10.7,444.28,444.28,0,0,0-52.2,27,330,330,0,0,0-45.3,32.4c-6.6,5.7-16.7,9-18.5,20.2-.7,4.5-10.6,4.1-15.7-.7-9.8-9.3-19.7-18.5-29-28.3S138.25,916,131,904.8c-24.8-37.9-50.9-75-64-119.4-8.9-30.1-14.5-60.4-15.1-91.5-.6-31.4,3.8-62.3,11.8-92.6.5-2.1,10.4-33,13-39.9,42.5-112.8,99.8-202.1,185.4-288.3,33.6-33.9,70.5-64.5,105.8-96.7,12.8-11.7,24.7-24.4,37.8-35.7,11.1-9.6,23.2-18.1,35.3-26.5,13.6-9.4,27.4-18.5,41.6-26.8C508.15,72,534.15,60.9,562.15,45Z" transform="translate(61.75 76.94)"/><path class="cls-8" d="M989.35,267.3c12.6-5.8,26.3-11.1,39-18.2,22.3-12.4,44-25.7,65.7-39.1,4.4-2.7,6.7-2.6,11.2.2,41.8,27,77.9,60.8,114.1,94.3,28.5,26.3,57.2,52.4,80.4,83.8,30.6,41.6,54.3,86.8,69.2,136.4,2.7,8.8,5.6,17.6,7.5,26.5.5,2.1-1.7,6.3-3.7,7.3-57.2,28.2-117.5,47.8-179.9,63.6C1148.05,490.7,1070.85,377.7,989.35,267.3Z" transform="translate(61.75 76.94)"/><path class="cls-9" d="M293.35,648.8c-14.2-4.4-27.5-8-40.5-12.6-37.9-13.5-75.8-26.9-113.3-41.3-18.7-7.1-18.6-8-15.5-27.7a378.82,378.82,0,0,1,26-90.4c15.7-36.7,30.4-74,53-107.1,15.1-22.2,31.1-44.1,49.2-63.8,27.8-30.3,57.7-58.7,86.9-87.7,3-3,6.7-5.5,10.5-8.5,28.9,25.1,63,41.2,97.8,57.1C376.15,385.7,320.65,510.5,293.35,648.8Z" transform="translate(61.75 76.94)"/><path class="cls-10" d="M676,309.2h66.5c18.3,124.7,47.4,245.6,99.9,361.4-80.2,5.6-159.9,9.8-241.8,5.8,22.5-59.6,36.7-120.2,47.1-181.6S666.55,371.6,676,309.2Z" transform="translate(61.75 76.94)"/><path class="cls-11" d="M419.85,874.4c21.3-15.6,42.1-30.2,62.2-45.8a368.45,368.45,0,0,0,84.8-92.6c10.6-16.6,19.5-34.3,29-51.6,2.7-4.9,5-8.7,12.1-8.4,74.8,3.5,149.4-.2,224-5.4,7.6-.5,12.2.3,15.5,8.3,16.4,39.6,45.5,70.5,72.5,102.5,26.6,31.6,56.7,60,88.9,86a22.17,22.17,0,0,1,1.7,1.8c-24.4,29.3-52.3,54.4-81.8,77.9-27.1,21.7-57.2,36.2-91.3,41.3-46,6.9-92.2,7.4-137-6.7-29-9.1-57.2-20.8-85.3-32.6-40.9-17.1-80.9-36.1-122-52.5-20.2-8.1-41.9-12.3-63-18.4C426.75,877.2,423.55,875.8,419.85,874.4Z" transform="translate(61.75 76.94)"/><path class="cls-12" d="M122.55,588.8c45.4,16.3,89.5,32.3,133.7,48,10.5,3.7,21.3,6.5,32,9.4,3.8,1,5.3,2.4,5,6.7-1.9,22.2-4.2,44.3-4.9,66.6q-1.5,49.95-.8,100.1a156.51,156.51,0,0,0,5.7,38.5c2.4,8.8,8.6,16.7,14,26.7-7.3,3.7-15.6,6.8-22.7,11.7-19.8,13.8-39.3,27.9-58.5,42.6-9.2,7.1-17.3,15.7-25.9,23.5-5,4.6-10.5,3.4-14.7-.5-16.3-14.8-33.1-29.1-47.8-45.3-7.1-7.8-11.2-19.2-14.2-29.7-14.7-51.1-18.1-103.7-17.2-156.5.6-39.9,1.7-79.8,9.9-119.1C117.85,603.3,120.65,595.5,122.55,588.8Z" transform="translate(61.75 76.94)"/><path class="cls-13" d="M1192.65,621.8c63.7-16.7,125.5-36.2,185-66.3,2.7,7.2,5.7,13.5,7.5,20,10.6,39.4,18,79.4,19.7,120.3a552.85,552.85,0,0,1-12.3,144c-4.2,18.7-9.7,37.1-14.6,55.7-1.9,7.2-7.5,7.8-12.6,5.6-27.9-12.4-55.4-25.8-83.5-37.8-23.4-10-47.2-19.1-71.1-27.8-10.7-3.9-12.5-5.5-9.3-16.9a288.2,288.2,0,0,0,10.3-95.1c-1.5-25.8-4.8-51.3-12.7-76.1C1196.55,639.5,1195,631.2,1192.65,621.8Z" transform="translate(61.75 76.94)"/><path class="cls-13" d="M1070.25,181.1c-30.7-22.4-60.8-45.6-92.8-65.9-33.5-21.3-69-39.7-103.7-59.1l-1.2,1.8a10,10,0,0,1-1.7,3.2A70.47,70.47,0,0,1,845,80.5a74.57,74.57,0,0,1-10.6,6.4c1.7,1.9,2.8,3.3,4,4.6,25.6,28,51.8,55.5,76.5,84.3,23.6,27.6,45.6,56.6,68.1,85.1,3.4,4.3,6,5.3,11.5,3.2a470.94,470.94,0,0,0,99.8-54.4c1.7-1.2,3.2-2.7,5.1-4.3C1089.35,196.8,1080.25,188.4,1070.25,181.1Z" transform="translate(61.75 76.94)"/><path class="cls-12" d="M592.85,78.7c-9.4,10.4-19.6,21.9-29.9,33.1-35.3,38.5-66.6,80-94.8,123.8-5.6,8.6-11.4,17.2-17.5,25.4-1.3,1.8-5.3,3.7-6.9,2.9-33.1-14.7-65.8-29.9-93-54.6a19.23,19.23,0,0,1-1.4-2.6c11.5-10.4,22.8-22,35.4-32,35.1-27.8,70.1-55.7,106.3-82,19.3-13.9,41-24.5,61.6-36.5,4.1-2.4,7.9-3.6,12.5.3C574.65,64.8,584.75,72.3,592.85,78.7Z" transform="translate(61.75 76.94)"/><path class="cls-11" d="M726.85,98.3a149.26,149.26,0,0,1-15-.6,44.58,44.58,0,0,1-16.3-.6,62.13,62.13,0,0,0-.7,6.4c-3.9,44.3-7.7,88.7-11.7,133-2.1,23.4-4.6,46.8-7,71.1h68.3c-5.3-70-10.5-139.3-15.7-209.5A13.66,13.66,0,0,1,726.85,98.3Z" transform="translate(61.75 76.94)"/><g class="cls-14"><g class="cls-15"><path d="M-61.75,635.1c2.2-19.4,3.8-38.9,6.8-58.1,1.8-11.5,8.4-21,17.5-28.7a24.54,24.54,0,0,0,5.6-6.8c14.7-26.7,43.7-32.5,67.5-13.3,7.8,6.3,15.4,13,22.8,19.8,15.1,13.9,34.4,21.1,51.6,31.7,35.5,21.9,76.3,31.1,114.4,46.7,55.1,22.6,113.2,30.2,171.7,35.2,60.3,5.2,120.7,10.2,181.2,13.8,74.1,4.5,148.3,2.5,222.4-2.1,90.9-5.7,181.7-11.6,271.9-25,63.9-9.5,126-26.3,187.6-45.1,62.7-19.1,121.9-46.1,178.7-78.5,15-8.6,28.6-19.6,42.3-30.2,11-8.5,22.3-10.5,34.9-4.6,1.5.7,2.9,1.7,4.4,2,30.6,4.8,48.8,26.1,64.4,49.8,17.7,26.9,29.1,56.4,31.7,88.9a83.65,83.65,0,0,1-.6,18.7c-2.9,20.3-4.6,40.9-10.1,60.5s-14.2,38.1-22.7,56.6c-16.4,35.8-32.9,71.5-50.8,106.6-13.1,25.8-31.9,47.9-52.8,68-44.1,42.4-96.9,50.3-151.2,22.2-22.2-11.4-43.3-25.1-68-30.9a420.37,420.37,0,0,0-129.4-10c-4.5.3-7.6,1.3-8.1,6.8-1.8,18.2-11.2,32.2-25.3,43-10.8,8.2-21.9,16.2-33.6,22.9-60.6,34.8-124.5,61.4-192.6,77.9-56.9,13.8-111.6,7.4-164.4-17.2-15.8-7.3-31.2-15.3-46.9-22.8-2.8-1.4-6.2-2.8-9.2-2.5-13.7,1.3-26.5-1.8-39-6.5-16.8-6.3-34-11.7-50.2-19.1-30.4-14-62.6-16.9-95.2-18.8a891.89,891.89,0,0,0-128.7,1.6c-20.3,1.8-40.6,3.5-60.8,5.6-3.7.4-7.3,1.9-10.8,3.5-21.3,9.7-42.1,20.2-63.7,29.1-53.4,21.9-99.6,10.9-137.1-33.1-45.8-53.8-76.1-115.9-95.1-183.8-13.2-47.2-24.5-94.6-28.5-143.6-.8-10-.1-20.1-.1-30.1A21.75,21.75,0,0,1-61.75,635.1Z" transform="translate(61.75 76.94)"/><path d="M719.45,310c-36.1-1.5-84.7-1-132.7-6.2-80.6-8.8-155-36.9-222.4-82.5-7.8-5.3-16.3-11.1-21.3-18.7-6.7-10.1-17.4-15.3-24.7-24.1-6.7-8-12.4-16.9-18.5-25.4a41.12,41.12,0,0,0-5.7-6.8c-25-23.6-17.9-61.4,14.1-74.5,2.7-1.1,5.7-2.4,7.5-4.5,25.3-29.6,58.4-46.4,94.6-58,51.4-16.4,104.4-25.7,157.9-31.2,89.7-9.3,179.8-14,270-16.6,24.2-.7,48.4-1.5,72.5-3.1,10.2-.7,20.3-3.5,30.3-5.6,1.8-.4,3.7-2.3,4.8-3.9,15.3-22.1,37-30,62-23.8,54.8,13.7,106.1,35.4,149.6,72.6,12,10.2,23.7,20.9,34.7,32.1,16,16.4,24.6,36.7,16.5,58.8-6.8,18.4-18,35.3-28.3,52.3-3,4.9-9.7,7.6-14.7,11.3-7,5.1-15.4,8.9-20.7,15.3-27.5,33.3-65.2,52.7-101.4,73.6-36.8,21.3-77.1,34.4-118.1,45.8C862,304.5,796.65,305.4,719.45,310Z" transform="translate(61.75 76.94)"/></g></g><path class="cls-16" d="M318.85,1055.7c.7,21-13.6,34.5-32.3,43.2s-36.4,2.6-51-10.8c-26.3-24-33.7-52.9-19.9-80.4,4.7-9.3,12.4-17.9,20.6-24.5,13.1-10.7,35.2-8.2,50.8,3.6C307.45,1002.3,319.25,1027.1,318.85,1055.7Z" transform="translate(61.75 76.94)"/><path class="cls-16" d="M491.05,985.3c.7,16.7-2.5,32.4-12.4,46.3-16.5,23.1-45.4,28.2-68,11.1-21.8-16.5-28.7-39.9-25.3-65.9,3-22.5,17.6-36.9,38.2-44.9,33.9-13,67,9.8,67.6,46.1C491.15,980.5,491.05,982.9,491.05,985.3Z" transform="translate(61.75 76.94)"/><path class="cls-16" d="M1292.35,982.5c.2-14.6,4.6-28.4,15.2-40,13.3-14.5,29.4-20.3,48.5-14.9,19.8,5.6,31.7,19.4,35.9,39.3,4.8,22.6-1.8,42.6-16.6,59.7-19.7,22.8-52.6,20.7-69.9-4C1294.85,1007.6,1291.65,997.9,1292.35,982.5Z" transform="translate(61.75 76.94)"/><path class="cls-16" d="M1201.05,939c-1,19-10.2,38-32.1,49.1-24.1,12.2-51.4,3.5-63-20.8-10.2-21.2-8.8-43.3,3-63.2,12.2-20.5,35.3-28.5,55.5-22.2C1186.35,888.8,1201.35,910.2,1201.05,939Z" transform="translate(61.75 76.94)"/><path class="cls-16" d="M555.65,1060.6c.5-26.4,14.7-46.8,36.9-52.9,29.1-8,60.7,14.1,64.9,46a70.19,70.19,0,0,1-.7,24.2c-5.8,25.7-25.3,38.7-53.7,38.8-23.9.1-42.4-25.3-45.8-43.2A92.79,92.79,0,0,1,555.65,1060.6Z" transform="translate(61.75 76.94)"/><path class="cls-16" d="M805.45,1046.3c18.4-.3,32.3,8.5,42.2,23.2,10.4,15.3,12.7,32.8,8.8,50.8-3.5,16-13.3,27.3-29.3,32-16.5,4.8-31.7.9-43.5-11.3-15.5-16.1-22.1-36.1-19-58.4C767.85,1059.4,781.75,1047.7,805.45,1046.3Z" transform="translate(61.75 76.94)"/><path class="cls-16" d="M934.65,1026.3c.4-25.2,22.1-47.4,45.9-47,29.2.5,51.5,22.4,49.5,51.8-1.7,25.1-14.4,44.3-41.4,44C957,1074.8,934.25,1054.4,934.65,1026.3Z" transform="translate(61.75 76.94)"/><path class="cls-17" d="M823.55,822.4c5.5-1.2,15.1-2.7,24.5-5.2,13.9-3.7,23.3-14.4,34-23.1,7.4-6,14.5-12.3,22.2-17.9,7.5-5.6,12.1-3.3,12.6,6.2a45.59,45.59,0,0,1-9.4,30.5c-14.2,18.7-34.5,27.3-55.6,34.7-31.1,10.9-60.3,6-87.8-11.1-12.4-7.7-21.6-18.7-29.2-31.1-4.6-7.5-6.5-7.4-11.7,0-20.1,28.1-47.7,44.5-81.8,46.8-30.2,2-58.8-6-83.2-24.7a72,72,0,0,1-17-19.4c-2.7-4.4-3-11-2.2-16.3.5-3.4,4.5-7.6,7.8-8.9,2.3-.9,7.6,1.7,9.4,4.2,10.1,14.1,23.7,23.2,38.3,32.2,19.2,11.8,39.5,14.3,60.2,9.8,33.3-7.2,55.4-27.8,62.4-61.9,1.5-7.5-.9-15.9-2.3-23.7-2-11.9-3.6-23.6.5-35.3,2.4-6.9,6.1-12.6,14.8-10,3,.9,6.5,2.5,8.4,4.9,9.1,11.3,11.7,24.4,8.1,38.3-5.8,22.5.3,41.2,15.4,58.3C777.45,817.2,797,822.9,823.55,822.4Z" transform="translate(61.75 76.94)"/><path class="cls-17" d="M873.05,517.5c-8.5-8.3-13.3-17.5-11.8-28.6,1.1-7.9,3-16.4,6.9-23.2,35.2-61.4,89.8-82.9,155.2-56a139.86,139.86,0,0,1,50.5,35.1c12.1,13.4,14.7,29.1,7.3,41.9a8.22,8.22,0,0,1-1.4,1.8c-24.9-9.3-48.6-19.6-73.3-26.7-15.9-4.6-33.1-6.2-49.8-6.1-35.9.3-59.1,22.6-78.6,49.7C875.75,508.6,875,512.7,873.05,517.5Z" transform="translate(61.75 76.94)"/><path class="cls-17" d="M397.85,517.7c-5.2-26.8,13.6-55.7,48.5-80.1,32.6-22.8,83-22.1,108.5.7,33.6,30.1,51.9,67.8,41.6,91-26.3-28.4-56.6-49.8-96.5-51.4C460.45,476.4,428,494.4,397.85,517.7Z" transform="translate(61.75 76.94)"/><path class="cls-6" d="M125,790c-1.8-30.7,8-57.8,30.3-78.4,15.2-14,34.7-20.6,56.4-16.2,27,5.5,43,22.8,53.1,47.3,10.3,24.9,11.8,50.6,7.8,76.7a86.16,86.16,0,0,1-20.2,43.4c-15.3,17.9-34.4,24.5-58,23.4-21.7-1-37-11.2-49-27.1-13.6-18-20.3-38.9-20.1-61.8C125.25,794.9,125.05,792.5,125,790Z" transform="translate(61.75 76.94)"/><path class="cls-6" d="M1251.15,738.3c.4-18,4-40.3,17-60.7,16.2-25.4,52.9-31.5,76.5-16.6,27,17.1,40.5,42.3,44.6,73,2,15.1,4,30.7,2.5,45.7-2.2,23.2-9.8,45.4-30.9,58.4-20.6,12.6-42.1,13.4-63.9.5-17.3-10.2-26.5-25.8-34.3-43.2C1255.25,779,1252.25,761.6,1251.15,738.3Z" transform="translate(61.75 76.94)"/><path class="cls-6" d="M782.05,646.5c4.4,24.7-18.3,44.1-38.2,42.9-7.2-.4-14.6.4-21.8-.2-31.3-2.6-43.1-29.1-41.4-53.5.7-10.1,4.7-18.6,11.5-26,13-14.2,33.1-18,51.7-12.4,13.2,4,24.1,10,30.5,21.8C778.85,627.2,782.75,646.2,782.05,646.5Z" transform="translate(61.75 76.94)"/><path class="cls-6" d="M202.65,639.8c-14.9,1.5-29.3-17.4-28.7-55,6.3-23.5,24.5-38.7,50.8-35.3,14.5,1.9,21,13.6,23,26.8,2.4,16.2,1.6,32.1-8.5,46.5-7.5,10.6-16.7,17.3-30.1,17.1C207,639.7,204.75,639.8,202.65,639.8Z" transform="translate(61.75 76.94)"/><path class="cls-6" d="M1245.05,549.5c-.2-3.3,6.5-29.9,30.1-31.1,9.8-.5,16.6-.1,23.4,4.6,10.3,7.1,15.9,17.8,16.7,30.3.7,11.1,4.4,22.6-2.3,33.4-9.2,14.9-20.4,16.7-35.6,13.5-18.2-3.9-31.2-21.5-31.8-40.9-.1-3.3-.4-6.5-.6-9.8Z" transform="translate(61.75 76.94)"/><path class="cls-6" d="M228.15,457c.4-24.5,10.5-40.7,29.8-51.1,9.4-5.1,19.5-6.1,28.4.9s10.5,16.6,8.6,27.2q-7.05,39-45.6,48.1c-11.1,2.7-16.5-.3-19.1-11.4A113.42,113.42,0,0,1,228.15,457Z" transform="translate(61.75 76.94)"/><path class="cls-6" d="M1230.35,419.3c-.2,21-11.9,33.8-29.2,31.8-9.6-1.1-29.5,1.6-37.9-46.8-3.1-15.2,11.7-38.4,27.4-35C1211.85,374.1,1230.55,397.5,1230.35,419.3Z" transform="translate(61.75 76.94)"/><path class="cls-6" d="M718.45,455.8c17.3-3.8,33,14.8,32.5,35.8-.4,14.8-11.5,27-27.1,27.4-18.5.5-33.7-14.2-33.7-33.7C690.25,471,697.35,454,718.45,455.8Z" transform="translate(61.75 76.94)"/><path class="cls-6" d="M334.75,308.5c.6-11.4,4.8-22.5,14.1-31.2,7.6-7.1,19-10.2,27.5-6,7.4,3.7,8.1,27.4,5.8,37.9-2.9,13.3-21,25.7-34.1,24.2-8.4-1-10.3-6.8-12.1-13.1C335.05,317,335.25,313.3,334.75,308.5Z" transform="translate(61.75 76.94)"/><path class="cls-6" d="M1111.55,287.3c1.5,16.8-8.5,19.2-21,17-13.7-2.4-23.8-15.2-25.4-29.3-.4-3.8,1.2-20,4.7-23.1,5.4-4.7,12.8-7.6,19.9-4.2C1106.65,255.8,1110.15,270.9,1111.55,287.3Z" transform="translate(61.75 76.94)"/><path class="cls-6" d="M731.25,344.2c.7,12.6-3.5,18-14.5,18.6-14,.8-19.8-5.2-21.5-19-1.4-10.6,6.1-19.8,16.1-19.9C722.25,323.7,731.75,328.8,731.25,344.2Z" transform="translate(61.75 76.94)"/><path class="cls-6" d="M419.65,202.7c-.5-15.3,8-24.9,19.6-26,8-.8,11.8,3.9,13.2,10.3,2.2,9.9-.2,18.9-6.9,27-5.3,6.4-12.3,6.9-18.2,4.7C424.15,217.6,419.65,203.8,419.65,202.7Z" transform="translate(61.75 76.94)"/><path class="cls-6" d="M1016.45,189.6c-1.4,3.6-1.8,8.7-4.5,10.6-5.1,3.8-11.1,4.3-17.3.1-9.6-6.4-15.6-19.6-12.9-30.2,1.7-6.7,10-11,16.9-8.1C1010.45,167,1016,176.2,1016.45,189.6Z" transform="translate(61.75 76.94)"/><path class="cls-6" d="M506.15,121.3c.8-12.9,10.8-21.6,20.3-17.2,4.8,2.3,7.1,16.1,3.6,22.7-3.1,6-14.3,10.3-18.5,6.3C508.75,130.2,507.85,125.3,506.15,121.3Z" transform="translate(61.75 76.94)"/><path class="cls-6" d="M893.65,107.2c-.4-10.7,5.4-14.5,14-10.4,7.4,3.6,16.3,14,14.3,21.8-1.6,6-10,7.5-14.4,7.4C901.75,125.8,894,109.8,893.65,107.2Z" transform="translate(61.75 76.94)"/><path class="cls-6" d="M698.85,224c-.3-8.1,3.3-12.5,10.2-12.7,9.4-.3,13.9,4.5,14.2,15.3.2,7.4-3,10.2-12,10.4C702.65,237.3,699.15,233.6,698.85,224Z" transform="translate(61.75 76.94)"/><path class="cls-6" d="M701.75,143c-.2-9.6,2.4-12,12.7-12.2,8.3-.1,11.6,4,11.8,14.5.1,6.9-3.5,9.8-12.5,9.8C704.65,155.3,702,152.5,701.75,143Z" transform="translate(61.75 76.94)"/></g></g></svg>