<svg id="Capa_1" enable-background="new 0 0 512 512" height="512" viewBox="0 0 512 512" width="512" xmlns="http://www.w3.org/2000/svg"><g><g fill="#eed076"><ellipse cx="158.038" cy="450.056" rx="33.803" ry="33.803" transform="matrix(.707 -.707 .707 .707 -271.95 243.568)"/><ellipse cx="49.069" cy="400.386" rx="33.803" ry="33.803" transform="matrix(.707 -.707 .707 .707 -268.744 151.968)"/><ellipse cx="353.962" cy="450.056" rx="33.803" ry="33.803" transform="matrix(.707 -.707 .707 .707 -214.565 382.107)"/><ellipse cx="462.931" cy="400.386" rx="33.803" ry="33.803" transform="matrix(.707 -.707 .707 .707 -147.527 444.612)"/></g><path d="m227.589 348.063c19.844-11.315 26.757-36.572 15.444-56.416-11.316-19.845-36.573-26.756-56.415-15.444-45.363 25.867-79.921 54.047-134.57 39.446-22.072-5.902-44.737 7.211-50.634 29.279-5.898 22.068 7.211 44.737 29.279 50.634 89.781 23.996 149.228-20.318 196.896-47.499z" fill="#e16e7e"/><path d="m108.943 461.794c98.231-12.743 131.793-73.844 158.76-122.939 10.997-20.021 3.681-45.167-16.339-56.164-20.023-10.998-45.165-3.681-56.164 16.339-26.489 48.226-42.83 73.719-96.898 80.732-22.652 2.939-38.633 23.685-35.695 46.337 2.95 22.745 23.777 38.622 46.336 35.695z" fill="#e7889d"/><path d="m284.411 348.063c-19.844-11.315-26.757-36.572-15.444-56.416 11.316-19.845 36.573-26.756 56.415-15.444 45.363 25.867 79.921 54.047 134.57 39.446 22.072-5.902 44.737 7.211 50.634 29.279 5.898 22.068-7.211 44.737-29.279 50.634-89.781 23.996-149.228-20.318-196.896-47.499z" fill="#e16e7e"/><path d="m403.057 461.794c-98.231-12.743-131.793-73.844-158.76-122.939-10.997-20.021-3.681-45.167 16.339-56.164 20.023-10.998 45.166-3.681 56.164 16.339 26.489 48.226 42.83 73.719 96.898 80.732 22.652 2.939 38.633 23.685 35.695 46.337-2.95 22.745-23.777 38.622-46.336 35.695z" fill="#e7889d"/><path d="m366.11 363.747c-20.225-13.425-32.797-34.652-49.31-64.716-10.998-20.02-36.141-27.337-56.164-16.339-20.02 10.997-27.336 36.142-16.339 56.164 11.006 20.037 23.112 42.073 40.263 62.006 28.525-5.653 56.559-18.397 81.55-37.115z" fill="#e16e7e"/><path d="m145.89 363.747c20.225-13.425 32.797-34.652 49.311-64.716 10.998-20.02 36.141-27.337 56.164-16.339 20.02 10.997 27.336 36.142 16.339 56.164-11.006 20.037-23.113 42.073-40.263 62.006-28.526-5.653-56.56-18.397-81.551-37.115z" fill="#e16e7e"/><path d="m423.3 193.48c0-101.67-58.697-165.34-167.3-165.34s-176.456 63.67-176.456 165.34c0 101.669 89.117 180.37 171.878 180.37s171.878-78.701 171.878-180.37z" fill="#e7889d"/><path d="m251.422 373.849c17.833 0 35.959-3.662 53.428-10.413-203.808-33.288-204.28-243.506-136.192-318.191-56.377 25.354-89.114 77.625-89.114 148.235 0 101.669 89.117 180.369 171.878 180.369z" fill="#e16e7e"/><g><g fill="#fff"><ellipse cx="156.326" cy="248.374" rx="35.515" ry="28.283"/><ellipse cx="348.832" cy="248.374" rx="35.515" ry="28.283"/></g><g fill="#4e5660"><path d="m193.93 225.098c-4.143 0-7.5-3.357-7.5-7.5 0-5.187-4.219-9.405-9.405-9.405s-9.404 4.219-9.404 9.405c0 4.143-3.357 7.5-7.5 7.5s-7.5-3.357-7.5-7.5c0-13.457 10.947-24.405 24.404-24.405s24.405 10.948 24.405 24.405c0 4.142-3.358 7.5-7.5 7.5z"/><path d="m345.038 225.098c-4.143 0-7.5-3.357-7.5-7.5 0-5.187-4.219-9.405-9.405-9.405-5.185 0-9.404 4.219-9.404 9.405 0 4.143-3.357 7.5-7.5 7.5s-7.5-3.357-7.5-7.5c0-13.457 10.947-24.405 24.404-24.405s24.405 10.948 24.405 24.405c0 4.142-3.357 7.5-7.5 7.5z"/><path d="m252.579 253.024c-9.04 0-17.636-3.915-23.586-10.741-2.721-3.123-2.396-7.86.727-10.582 3.121-2.721 7.859-2.395 10.582.727 3.1 3.557 7.574 5.597 12.277 5.597s9.178-2.04 12.277-5.597c2.723-3.123 7.46-3.448 10.582-.727 3.123 2.722 3.447 7.459.726 10.582-5.949 6.826-14.545 10.741-23.585 10.741z"/></g></g></g></svg>