<svg xmlns="http://www.w3.org/2000/svg" viewBox="0 0 512 468" width="512" height="468">
	<style>
		tspan { white-space:pre }
		.shp0 { fill: #494970 } 
		.shp1 { fill: #ab3829 } 
		.shp2 { fill: #9a2423 } 
		.shp3 { fill: #bc4c2e } 
		.shp4 { fill: #3a3a60 } 
		.shp5 { fill: #5d5d84 } 
	</style>
	<path id="Layer" class="shp0" d="M288.99 303.94L274.28 303.94C272.37 303.94 270.59 303.39 269.04 302.45L268.61 302.59C268.61 302.59 275.53 317.66 232.28 332.2C189.04 346.74 248.46 355.54 275.35 346.5C293.09 340.54 299.61 329.45 292.54 303.44C291.39 303.76 290.2 303.94 288.99 303.94Z" />
	<path id="Layer" class="shp0" d="M476.29 303.94C474.39 303.94 472.6 303.39 471.05 302.45L470.63 302.59C470.63 302.59 477.55 317.66 434.3 332.2C398.27 344.32 433.48 352.44 461.79 349.59C472.56 335.5 481.83 320.2 489.37 303.94L476.29 303.94Z" />
	<path id="Layer" class="shp1" d="M164.43 68.54C203.83 88.65 231.06 131.66 231.06 181.49C231.06 202.66 218.92 223.17 205.84 241C210.77 243.48 218.61 247.08 229.2 250.89C235.89 253.29 241.52 257.99 245.11 264.13C249.11 270.98 254.19 278.13 260.61 285.45C262.54 287.66 263.63 290.59 263.63 293.63C263.63 299.97 268.4 305.11 274.28 305.11L288.99 305.11C292.74 305.11 296.35 303.52 299.02 300.67C304.16 295.18 312.55 284.56 318.58 268.61C353.38 270.83 395.31 268.7 443.69 257.86C448.12 266.57 454.22 275.87 462.62 285.45C464.55 287.66 465.64 290.59 465.64 293.63C465.64 299.97 470.41 305.11 476.29 305.11L488.82 305.11C503.68 273.51 512 238.23 512 201C512 123.44 475.95 54.3 419.7 9.41C352.15 -9.93 265.98 -3.54 164.43 68.54L164.43 68.54Z" />
	<path id="Layer" class="shp2" d="M164.42 68.54C203.83 88.65 231.06 131.66 231.06 181.49C231.06 202.66 218.92 223.17 205.84 241C210.77 243.48 218.61 247.08 229.2 250.89C235.89 253.29 241.51 257.98 245.11 264.13C249.11 270.98 254.19 278.13 260.61 285.45C262.54 287.66 263.63 290.59 263.63 293.63C263.63 299.97 268.4 305.11 274.28 305.11L288.99 305.11C292.74 305.11 296.34 303.52 299.02 300.67C300.16 299.45 301.46 297.97 302.86 296.24C290.76 268.36 264.29 260.45 284.98 227.38C329.98 155.42 304.98 94.34 262.92 80.34C234.32 70.82 230.79 44.73 231.46 29.01C209.94 39.09 187.59 52.11 164.42 68.54L164.42 68.54Z" />
	<path id="Layer" class="shp3" d="M323.92 243.75L318.58 268.61C353.38 270.83 395.31 268.7 443.69 257.86L436.01 226.62C434.32 219.77 427.04 215.93 420.45 218.43C388.98 230.39 351.62 233.61 334.82 234.48C329.5 234.75 325.04 238.55 323.92 243.75L323.92 243.75Z" />
	<path id="Layer" class="shp3" d="M46.01 259.16C71.12 200.98 150.01 184.3 190.9 260.36C191.31 261.12 191.5 261.95 191.71 262.76C208.63 241.07 233.77 211.95 233.77 181.49C233.77 112.42 181.43 56.42 116.88 56.42C52.33 56.42 0 112.42 0 181.49C0 211.96 28.29 239.87 45.2 261.56C45.41 260.75 45.67 259.95 46.01 259.16Z" />
	<path id="Layer" class="shp1" d="M114.9 175.17C101.98 133.87 114.59 90.32 144.07 59.83C135.34 57.61 126.24 56.42 116.88 56.42C52.33 56.42 0 112.42 0 181.49C0 211.96 28.29 239.87 45.2 261.56C45.41 260.75 45.67 259.95 46.01 259.16C61.77 222.65 98.71 202.49 134.14 211.33C125.72 200.81 119.12 188.67 114.9 175.17L114.9 175.17Z" />
	<path id="Layer" class="shp0" d="M196.22 401.13C193.3 406.98 188.57 411.98 182.35 415.21C164.52 424.49 140.43 434.04 116.88 434.04C93.33 434.04 69.25 424.49 51.41 415.21C45.2 411.98 40.46 406.98 37.54 401.13C37.48 401.28 37.42 401.43 37.35 401.57C29.81 418.47 36.12 438.81 51.41 447.48C69.24 457.59 93.33 468 116.88 468C140.43 468 164.52 457.59 182.35 447.48C197.64 438.81 203.95 418.47 196.41 401.57C196.35 401.43 196.29 401.28 196.22 401.13L196.22 401.13Z" />
	<path id="Layer" class="shp4" d="M147.56 429.37C137.61 432.21 127.2 434.04 116.88 434.04C93.33 434.04 69.25 424.49 51.41 415.21C45.2 411.98 40.46 406.98 37.54 401.13C37.48 401.28 37.42 401.43 37.35 401.57C29.81 418.47 36.12 438.81 51.41 447.48C69.24 457.59 93.33 468 116.88 468C130.64 468 144.58 464.44 157.35 459.47C142.76 457.71 136.64 439.55 147.56 429.37L147.56 429.37Z" />
	<path id="Layer" class="shp0" d="M84.38 177.09C79.01 177.09 74.65 172.73 74.65 167.35C74.65 162.73 70.89 158.97 66.27 158.97C61.65 158.97 57.89 162.73 57.89 167.35C57.89 172.73 53.54 177.09 48.16 177.09C42.78 177.09 38.42 172.73 38.42 167.35C38.42 151.99 50.91 139.5 66.27 139.5C81.63 139.5 94.12 151.99 94.12 167.35C94.12 172.73 89.76 177.09 84.38 177.09Z" />
	<path id="Layer" class="shp5" d="M196.41 375.8C169.61 320.69 172.86 273.29 172.86 273.29L174.15 271.48C172.23 270.18 170.64 268.36 169.64 266.08C146.93 214.48 86.84 214.48 64.12 266.08C63.12 268.36 61.53 270.18 59.61 271.48L60.9 273.29C60.9 273.29 64.16 320.69 37.35 375.8C29.81 391.31 36.12 409.97 51.41 417.92C69.25 427.19 93.33 436.75 116.88 436.75C140.43 436.75 164.52 427.19 182.35 417.92C197.64 409.96 203.95 391.31 196.41 375.8Z" />
	<path id="Layer" class="shp0" d="M126.44 420.84C117.37 413.69 112.22 395.43 114.91 379.61C122.37 335.8 120.3 297.57 119.03 282.82C118.63 278.21 118.78 273.58 119.46 269C122.3 249.58 128.57 236.94 136.21 231.25C110.19 220.52 79.07 232.13 64.12 266.08C63.12 268.35 61.53 270.18 59.61 271.48L60.9 273.29C60.9 273.29 64.16 320.69 37.35 375.8C29.81 391.31 36.12 409.97 51.41 417.92C69.24 427.19 93.33 436.75 116.88 436.75C126.47 436.75 136.14 435.14 145.45 432.64C138.61 429.65 132.04 425.26 126.44 420.84Z" />
	<path id="Layer" class="shp4" d="M143.03 397.8C137.65 397.8 133.29 393.44 133.29 388.06L133.29 378.59C133.29 373.22 137.65 368.86 143.03 368.86C148.4 368.86 152.76 373.22 152.76 378.59L152.76 388.06C152.76 393.44 148.4 397.8 143.03 397.8Z" />
	<path id="Layer" class="shp4" d="M90.73 397.8C85.36 397.8 81 393.44 81 388.06L81 378.59C81 373.22 85.36 368.86 90.73 368.86C96.11 368.86 100.47 373.22 100.47 378.59L100.47 388.06C100.47 393.44 96.11 397.8 90.73 397.8Z" />
	<path id="Layer" class="shp0" d="M169.64 268.79C146.93 217.18 86.83 217.19 64.12 268.79C61.29 275.23 53.76 278.15 47.32 275.31C40.88 272.48 37.95 264.96 40.79 258.52C72.44 186.61 161.32 186.61 192.97 258.52C195.8 264.96 192.88 272.48 186.44 275.31C180 278.15 172.48 275.23 169.64 268.79Z" />
	<g id="Layer">
		<path id="Layer" class="shp4" d="M144.89 209.93C107.14 195.05 61.6 211.24 40.79 258.52C37.96 264.96 40.88 272.48 47.32 275.31C53.77 278.15 61.29 275.23 64.12 268.78C78.65 235.79 108.47 223.89 134.02 233.1C126.93 223.87 133.18 210.38 144.89 209.93Z" />
		<path id="Layer" class="shp4" d="M260.65 318.29C255.25 322.61 246.46 327.44 232.29 332.2C189.04 346.74 248.46 355.54 275.35 346.5C284.63 343.37 290.84 338.84 293.64 331.51C282.53 346.86 258.07 337.22 260.65 318.29L260.65 318.29Z" />
		<path id="Layer" class="shp4" d="M462.65 318.3C457.24 322.62 448.46 327.44 434.3 332.2C398.27 344.32 433.48 352.44 461.8 349.59C465.07 345.3 468.2 340.88 471.19 336.38C465.26 332.71 461.62 325.86 462.65 318.3Z" />
		<path id="Layer" class="shp4" d="M62.36 150.09C62.36 145.42 65.17 141.41 69.2 139.66C68.23 139.56 67.26 139.5 66.27 139.5C50.91 139.5 38.43 152 38.43 167.35C38.43 172.73 42.78 177.08 48.16 177.08C53.54 177.08 57.89 172.73 57.89 167.35C57.89 162.73 61.65 158.97 66.27 158.97C66.4 158.97 66.53 158.98 66.66 158.99C64.04 156.91 62.36 153.7 62.36 150.09Z" />
	</g>
	<path id="Layer" class="shp0" d="M179.92 177.09C174.54 177.09 170.18 172.73 170.18 167.35C170.18 162.73 166.43 158.97 161.81 158.97C157.19 158.97 153.43 162.73 153.43 167.35C153.43 172.73 149.07 177.09 143.7 177.09C138.32 177.09 133.96 172.73 133.96 167.35C133.96 151.99 146.45 139.5 161.81 139.5C177.16 139.5 189.66 151.99 189.66 167.35C189.65 172.73 185.3 177.09 179.92 177.09Z" />
	<path id="Layer" class="shp4" d="M157.89 150.09C157.89 145.42 160.71 141.41 164.73 139.66C163.77 139.56 162.8 139.5 161.81 139.5C146.45 139.5 133.96 152 133.96 167.35C133.96 172.73 138.32 177.08 143.7 177.08C149.07 177.08 153.43 172.73 153.43 167.35C153.43 162.73 157.19 158.97 161.81 158.97C161.94 158.97 162.07 158.98 162.2 158.99C159.58 156.91 157.89 153.7 157.89 150.09Z" />
</svg>