<svg height="512" viewBox="0 0 58 58" width="512" xmlns="http://www.w3.org/2000/svg"><g id="Page-1" fill="none" fill-rule="evenodd"><g id="026---Sloth" fill-rule="nonzero"><path id="Shape" d="m21 21v-8h-6v5.665z" fill="#7f6e5d"/><path id="Shape" d="m50 14h6c1.1032019-.0032948 1.9967052-.8967981 2-2v-2c-.0032948-1.10320187-.8967981-1.9967052-2-2h-54c-1.10320187.0032948-1.9967052.89679813-2 2v2c.0032948 1.1032019.89679813 1.9967052 2 2z" fill="#cb8252"/><path id="Shape" d="m4.66 6.66c-.49853613.51058586-1.05574419.96038032-1.66 1.34 0 0-3-1.79-3-4 0-1.574 1.522-2.935 2.4-3.588.35785175-.26866687.85014825-.26866687 1.208 0 .61185136.44794572 1.15492742.98293628 1.612 1.588z" fill="#24ae5f"/><path id="Shape" d="m9.768 5.57c-.9 2.017-4.368 2.43-4.368 2.43s-2.012-2.858-1.111-4.875c.641-1.437 2.584-2.06 3.651-2.3.43516893-.10031347.88410245.10007412 1.1.491.535.955 1.369 2.818.728 4.254z" fill="#4fba6f"/><path id="Shape" d="m17 12c-.5522847 0-1-.4477153-1-1v-2c0-.55228475.4477153-1 1-1s1 .44771525 1 1v2c0 .5522847-.4477153 1-1 1z" fill="#95a5a5"/><path id="Shape" d="m14 12c-.5522847 0-1-.4477153-1-1v-3s.841-.872 1.394-.872.606.32.606.872v3c0 .5522847-.4477153 1-1 1z" fill="#95a5a5"/><path id="Shape" d="m20 12c-.5522847 0-1-.4477153-1-1v-3c0-.552-.117-.883.436-.883s1.564.883 1.564.883v3c0 .5522847-.4477153 1-1 1z" fill="#95a5a5"/><path id="Shape" d="m21 8-.544-1.632c-.2721439-.81708551-1.0367852-1.36820738-1.898-1.368h-3.116c-.8619508-.0010693-1.627624.55021537-1.9 1.368l-.542 1.632s1 1 4 1 4-1 4-1z" fill="#a59078"/><path id="Shape" d="m58 34c0 10-5 24-26 24-29 0-32-22-32-30s8-10 13-10 13 2 13 10c-.0083146 1.2319622.2943614 2.4461055.88 3.53.3190374.5964689.7158359 1.1479515 1.18 1.64l.01.01c.06-.07.12-.13.18-.2 1.48-1.61 2.75-3.91 2.75-8.98.1001462-4.8680135-.4309425-9.7284832-1.58-14.46-.2168643-.90173903-1.0225522-1.53802584-1.95-1.54h-1.47l.54-1.63c.2740405-.81684042 1.0384186-1.36799731 1.9-1.37h3.97c.9316837-.00059739 1.7403713.6422056 1.95 1.55.97 4.32 3.62 16.07 4.42 26.18h.01c.6744168-.2676051 1.3047892-.6350414 1.87-1.09 4.06-3.26 3.34-10.25 3.34-13.64v-11c.0032948-1.10320187.8967981-1.9967052 2-2h2c1.1032019.0032948 1.9967052.89679813 2 2v17c0 5 3 6 3 6 0-3 1-5 2-5s3 3 3 9z" fill="#a59078"/><path id="Shape" d="m22 28c0 .33-.01.67-.02 1-.2 3.64-1.65 7-8.98 7s-8.78-3.36-8.98-7c-.01-.33-.02-.67-.02-1 0-.38.01-.73.03-1.05.18-3.13 1.25-3.95 3.97-3.95 3 0 4 2 5 2s2-2 5-2c2.72 0 3.79.82 3.97 3.95.02.32.03.67.03 1.05z" fill="#cbb292"/><g fill="#7f6e5d"><path id="Shape" d="m28.06 33.17c-.32.33-.65.63-.97.92-1.28 1.17-2.29 2.09-2.64 4.18-.0813504.4837593-.4994506.838511-.99.84-.0538352-.0017278-.1073959-.0084229-.16-.02-.2630942-.0400034-.4987677-.1848633-.6532674-.4015397-.1544998-.2166765-.2146504-.4866918-.1667326-.7484603.3675434-2.1272577 1.5336616-4.0338252 3.26-5.33.36-.32.72-.65 1.07-1.02.021142-.0224232.0446071-.0425361.07-.06.3190374.5964689.7158359 1.1479515 1.18 1.64z"/><path id="Shape" d="m40.96 37.29c0 13.7-13.71 15.97-13.85 15.99-.0495443.0083021-.0997921.011652-.15.01-.5055801-.0223364-.9147767-.4188571-.953006-.9234844-.0382294-.5046272.306561-.9582682.803006-1.0565156.49-.08 12.15-2.05 12.15-14.02 0-1.39-.06-2.91-.17-4.56.6744168-.2676051 1.3047892-.6350414 1.87-1.09.0475718.0967803.0747989.2022853.08.31.14 1.93.22 3.73.22 5.34z"/><path id="Shape" d="m9.89 28.45c-.11848067.2368736-.3266797.4166003-.57831371.4992264-.25163402.0826261-.52584911.061304-.76168629-.0592264-1.33-.66-3.51-.18-4.23.06-.09722332.0303898-.19817586.0472152-.3.05-.01-.33-.02-.67-.02-1 0-.38.01-.73.03-1.05.93-.25 3.49-.81 5.42.16.23687355.1184807.41660032.3266797.49922642.5783137.08262608.251634.06130398.5258491-.05922642.7616863z"/><path id="Shape" d="m22 28c0 .33-.01.67-.02 1-.0986294-.0020056-.1963935-.0188615-.29-.05-.73-.24-2.92-.72-4.24-.06-.1383827.0738739-.2931427.1117042-.45.11-.3778306.0033632-.7240094-.2105675-.89-.55-.1205304-.2358372-.1418525-.5100523-.0592264-.7616863s.2623528-.459833.4992264-.5783137c1.93-.97 4.49-.42 5.42-.16.02.32.03.67.03 1.05z"/></g><path id="Shape" d="m14 31h-2c-.5522847 0-1-.4477153-1-1s.4477153-1 1-1h2c.5522847 0 1 .4477153 1 1s-.4477153 1-1 1z" fill="#3f5c6c"/></g></g></svg>