<svg xmlns="http://www.w3.org/2000/svg" viewBox="0 0 497 497" width="497" height="497">
	<style>
		tspan { white-space:pre }
		.shp0 { fill: #c86d3a } 
		.shp1 { fill: #d98353 } 
		.shp2 { fill: #b66233 } 
		.shp3 { fill: #e33c3c } 
		.shp4 { fill: #423e4f } 
		.shp5 { fill: #ae6651 } 
		.shp6 { fill: #ca3d3d } 
	</style>
	<g id="Layer">
		<g id="Layer">
			<path id="Layer" class="shp0" d="M219.33 424.96C131.55 433.43 77.6 378.94 77.71 379.03C66.79 369.53 55.34 355.06 52.93 352.31C47.8 346.22 48.58 337.13 54.67 332C60.18 327.37 68.13 327.56 73.4 332.13L81.39 339.06C119.81 371.96 167.52 381.65 210.26 370.4L219.33 424.96Z" />
			<path id="Layer" class="shp0" d="M402.99 356.83C402.99 419.18 352.44 469.73 290.09 469.73C227.74 469.73 177.19 419.18 177.19 356.83C177.19 294.47 227.73 183.47 290.09 183.47C352.44 183.47 402.99 294.47 402.99 356.83Z" />
			<path id="Layer" class="shp0" d="M232.32 26.1C214.15 7.92 190.08 -0.75 166.27 0.05C153.78 0.47 143.65 10.61 143.22 23.09C142.42 46.91 151.09 70.97 169.27 89.15C192.6 112.49 225.65 120.16 255.39 112.22C263.33 82.48 255.66 49.43 232.32 26.1L232.32 26.1Z" />
			<path id="Layer" class="shp0" d="M347.85 26.1C366.03 7.92 390.1 -0.75 413.91 0.05C426.39 0.47 436.53 10.61 436.95 23.09C437.76 46.91 429.08 70.97 410.9 89.15C387.57 112.49 354.52 120.16 324.78 112.22C316.84 82.48 324.52 49.43 347.85 26.1L347.85 26.1Z" />
		</g>
		<path id="Layer" class="shp1" d="M391.96 135.06L391.42 123.72C388.81 69.65 344.22 27.15 290.09 27.15C235.95 27.15 191.36 69.65 188.76 123.72L188.21 135.06C185.41 193.25 231.83 241.96 290.09 241.96C348.34 241.96 394.76 193.25 391.96 135.06Z" />
		<path id="Layer" class="shp2" d="M196.57 274.35C184.33 303.06 177.19 333.38 177.19 356.82C177.19 417.05 224.35 466.26 283.76 469.54C238.62 422.44 206.65 353.45 196.57 274.35L196.57 274.35Z" />
		<path id="Layer" class="shp1" d="M201.32 245.96C187.87 238.65 171.05 243.63 163.74 257.08L136.08 307.99C128.77 321.43 133.75 338.26 147.2 345.56C160.6 352.85 177.44 347.93 184.77 334.44L212.44 283.53C219.74 270.09 214.76 253.26 201.32 245.96L201.32 245.96Z" />
		<path id="Layer" class="shp1" d="M378.85 245.96C392.3 238.65 409.12 243.63 416.43 257.08L444.09 307.99C451.4 321.43 446.42 338.26 432.97 345.56C419.57 352.85 402.73 347.93 395.4 334.44L367.74 283.53C360.43 270.09 365.41 253.26 378.85 245.96Z" />
		<path id="Layer" class="shp3" d="M194.56 303.42C160.87 303.42 133.64 276.19 133.64 242.5C133.64 208.81 160.87 181.58 194.56 181.58C228.25 181.58 255.48 208.81 255.48 242.5C255.48 276.19 228.25 303.42 194.56 303.42Z" />
		<path id="Layer" class="shp3" d="M385.62 303.42C351.93 303.42 324.7 276.19 324.7 242.5C324.7 208.81 351.93 181.58 385.62 181.58C419.3 181.58 446.53 208.81 446.53 242.5C446.53 276.19 419.3 303.42 385.62 303.42Z" />
		<path id="Layer" class="shp0" d="M229.8 444.73C210.89 444.73 195.56 460.05 195.56 478.96C195.56 488.92 203.64 497 213.6 497L246 497C255.96 497 264.04 488.92 264.04 478.96C264.04 460.05 248.71 444.73 229.8 444.73Z" />
		<path id="Layer" class="shp1" d="M350.37 444.73C369.28 444.73 384.61 460.05 384.61 478.96C384.61 488.92 376.53 497 366.57 497L334.18 497C324.21 497 316.14 488.92 316.14 478.96C316.14 460.05 331.46 444.73 350.37 444.73Z" />
		<g id="Layer">
			<path id="Layer" class="shp4" d="M233.06 113.49C228.92 113.49 225.56 116.84 225.56 120.99L225.56 131.93C225.56 136.07 228.92 139.43 233.06 139.43C237.2 139.43 240.56 136.07 240.56 131.93L240.56 120.99C240.56 116.84 237.2 113.49 233.06 113.49Z" />
			<path id="Layer" class="shp4" d="M346.96 113.49C342.81 113.49 339.46 116.84 339.46 120.99L339.46 131.93C339.46 136.07 342.81 139.43 346.96 139.43C351.1 139.43 354.46 136.07 354.46 131.93L354.46 120.99C354.46 116.84 351.1 113.49 346.96 113.49Z" />
			<path id="Layer" class="shp4" d="M277.49 154.72C280.81 156.81 285.23 158.09 290.09 158.09C294.94 158.09 299.36 156.81 302.68 154.72C307.05 151.98 305.05 145.21 299.89 145.21L280.28 145.21C275.12 145.21 273.12 151.98 277.49 154.72L277.49 154.72Z" />
			<path id="Layer copy" class="shp5" d="M235.03 369.1C250.32 372.2 270.67 374.09 293 374.09C315.33 374.09 335.68 372.2 350.97 369.1C371.06 365.03 361.88 355 338.14 355L247.86 355C224.12 355 214.94 365.03 235.03 369.1L235.03 369.1Z" />
		</g>
		<path id="Layer" class="shp6" d="M193.17 220.65C193.17 207.42 193.78 194.39 194.96 181.59C194.82 181.59 194.69 181.58 194.56 181.58C160.91 181.58 133.64 208.86 133.64 242.5C133.64 276.15 160.91 303.42 194.56 303.42C196.83 303.42 199.06 303.29 201.27 303.05C196 276.79 193.17 249.17 193.17 220.65L193.17 220.65Z" />
	</g>
</svg>