<svg xmlns="http://www.w3.org/2000/svg" width="94.87mm" height="148.72mm" viewBox="0 0 268.92 421.56"><defs><style>.cls-1{fill:#c6c6c6;}.cls-1,.cls-10,.cls-2,.cls-3,.cls-4,.cls-5,.cls-6,.cls-7,.cls-8,.cls-9{fill-rule:evenodd;}.cls-2{fill:#9d9c9c;}.cls-3{fill:#b2b2b2;}.cls-4{fill:#ececec;}.cls-5{fill:#f6f6f6;}.cls-6{fill:#fff;}.cls-7{fill:#dadada;}.cls-8{fill:#3c3c3b;}.cls-9{fill:#575756;}.cls-10{fill:#1d1d1b;}</style></defs><g id="Layer_2" data-name="Layer 2"><g id="Ñëîé_1" data-name="Ñëîé 1"><path class="cls-1" d="M0,406.27C19.15,347.51,70,366,117.3,363.84,76,432.46,46.58,382.62,0,406.27Z"/><path class="cls-2" d="M0,406.27C19.15,347.51,70,366,117.3,363.84c-46,47.8-74.48,2-117.3,42.43Z"/><path class="cls-2" d="M151.41,297.39C59.31,256.11,32.59,395,129.46,402.63c13.81,1.08,38.2,1.22,51.42-.89,87.86-14,60.15-144.52-29.47-104.35Z"/><path class="cls-3" d="M141.57,405.32C138.05,425.24,102,427,96.48,409.69c-4.65-14.48,12.55-36.12,10.82-75.05,2.3-26.51,35-16.68,37.55,7.32,1.76,16.65,0,47.22-3.28,63.36Z"/><path class="cls-1" d="M105.5,384.51c5.48-8.6,19.88-25.2,25.17-5.24,2.19,8.24,5.76,32.65-5.6,32.65-9.61,0-6.48-1.45-17.23-2.59-12.15-1.28-7.59-16.59-2.34-24.82Z"/><path class="cls-3" d="M161.24,405.32c3.52,19.92,39.54,21.67,45.09,4.37,4.65-14.48-12.54-36.12-10.81-75.05C193.21,308.13,160.5,318,158,342c-1.77,16.65,0,47.22,3.27,63.36Z"/><path class="cls-1" d="M197.31,384.51c-5.48-8.6-19.87-25.2-25.17-5.24-2.18,8.24-5.76,32.65,5.6,32.65,9.61,0,6.48-1.45,17.23-2.59,12.15-1.28,7.59-16.59,2.34-24.82Z"/><path class="cls-4" d="M151.41,238.3H98.29c-18,52.06-9.24,87.8,28.23,114.55,25,17.83,28.67,16.4,53.57-2.82,34.25-26.43,41.83-61.47,24.43-111.73Z"/><path class="cls-5" d="M98.79,238.3q-.45.55-.87,1.11c-17.52,51.46-8.6,86.88,28.6,113.44,8.61,6.15,14.69,10,20,11.63,8.76-5.78,17.87-15.76,27.21-31.44,16.31-27.36,16.43-64.75,7.43-93.61-.29-.38-.59-.76-.89-1.13Z"/><path class="cls-5" d="M151.41,296.06c-7.49,0-8.32,13.24-19.9,8.74-5.11-2-5.9-14.4-8.07-23.2-4.09-16.59-10.55-17.59-16.11-2.76-8.48,22.61,6.73,45.92,27.21,60.54,7.7,5.5,12.42,8.48,16.87,8.48s9.16-3,16.86-8.48c20.48-14.62,35.69-37.93,27.21-60.54-5.56-14.83-12-13.83-16.11,2.76-2.17,8.8-3,21.21-8.07,23.2-11.58,4.5-12.41-8.74-19.89-8.74Z"/><path class="cls-6" d="M151.41,296.06c-7.49,0-8.32,13.24-19.9,8.74-5.11-2-5.9-14.4-8.07-23.2-4.09-16.59-10.55-17.59-16.11-2.76-8.48,22.61,6.73,45.92,27.21,60.54,7.7,5.5,12.42,8.48,16.87,8.48s9.16-3,16.86-8.48c1-.69,1.92-1.4,2.86-2.12.86-1.36,1.73-2.76,2.59-4.22,11.21-18.8,14.77-42.33,13-64.57-2.75.62-5.33,5-7.33,13.13-2.17,8.8-3,21.21-8.07,23.2-11.58,4.5-12.41-8.74-19.89-8.74Z"/><path class="cls-7" d="M151.41,42.7c83.77-1.22,117.51,64.35,117.51,122.86s-52.61,89-117.51,89-117.52-30.52-117.52-89S67.63,43.92,151.41,42.7Z"/><path class="cls-3" d="M151.41,42.7c83.77-1.22,117.51,64.35,117.51,122.86a84.36,84.36,0,0,1-4.26,27.06c-36.47-2-35.17-76.33-76.4-74.12-10,.54-21.31,11.5-20.61,58L151.41,179l-16.25-2.48c.7-46.49-10.64-57.45-20.61-58-41.23-2.21-39.93,72.14-76.4,74.11a84.25,84.25,0,0,1-4.26-27.05c0-58.51,33.74-121.64,117.52-122.86Z"/><path class="cls-4" d="M151.41,42.7a133.71,133.71,0,0,1,35,3.87c35.27,18.79,50.3,58.11,50.3,94.29,0,50.25-45.19,76.46-100.92,76.46-53.48,0-97.23-24.12-100.7-70.45C41.61,94.36,76.51,43.79,151.41,42.7Z"/><path class="cls-1" d="M151.41,42.7a134.14,134.14,0,0,1,35,3.87c35.27,18.79,50.3,58.11,50.3,94.29a72.65,72.65,0,0,1-3.51,22.79C222,142.3,212.47,117.2,188.26,118.5c-10,.54-21.31,11.5-20.61,58L151.41,179l-16.25-2.48c.7-46.49-10.64-57.45-20.61-58-35-1.88-39.37,51.56-62.29,68.84a65.81,65.81,0,0,1-17.21-40.47C41.61,94.36,76.51,43.79,151.41,42.7Z"/><path class="cls-4" d="M151.41,173.29c29-.45,40.64,23.9,40.64,45.62S173.85,252,151.41,252s-40.65-11.33-40.65-33.06,11.67-45.16,40.65-45.62Z"/><path class="cls-6" d="M151.41,173.29c13.45-.21,23.18,4.93,29.73,12.67a52.52,52.52,0,0,1,3.1,18c0,19.72-16.52,30-36.89,30-17.73,0-32.54-7.79-36.09-22.81,2.51-19.2,14.6-37.46,40.15-37.86Z"/><path class="cls-8" d="M151.41,200.62c8.27-.4,17.58-8,17.58-17.78S161.12,168,151.41,168s-17.59,5.1-17.59,14.88,9.31,18.19,17.59,17.78Z"/><path class="cls-9" d="M150.23,192c5.62-.27,12-5.43,12-12.08s-5.35-10.12-12-10.12-12,3.47-12,10.12,6.33,12.36,12,12.08Z"/><path class="cls-6" d="M146.23,181a5.18,5.18,0,0,0,4.79-4.84c0-2.67-2.14-4.06-4.79-4.06s-4.79,1.39-4.79,4.06a5,5,0,0,0,4.79,4.84Z"/><path class="cls-10" d="M138.66,215.55c2,3.6,7.42,8.84,13.54,8.84,9,0,7.27-1.38,14.31-6.21,4.29-3,1.81,6.64-9.75,9.42-5.57,1.35-15.06,1-19.22-3-6.26-6-2-14.61,1.12-9Z"/><path class="cls-10" d="M78.92,182.36c-3.73-1.59,4-8,6.69-9,6.53-2.33,11.41-7.34,19.15-.18,2.76,2.55,5.34,5.12,5.19,9.39-.07,2.21-6.16-2.65-6.49-3-4.57-4.75-9-5.41-14.89-2.74-.42.19-8.06,6.19-9.65,5.51Z"/><path class="cls-10" d="M223.89,182.36c3.73-1.59-4-8-6.69-9-6.53-2.33-11.41-7.34-19.15-.18-2.76,2.55-5.34,5.12-5.19,9.39.08,2.21,6.16-2.65,6.49-3,4.57-4.75,9-5.41,14.89-2.74.43.19,8.06,6.19,9.65,5.51Z"/><path class="cls-3" d="M101.76,59c5-.63,12.7,5.58,18.47,6.06,13.65,1.12,25.75-3.41,6.64-32.72-8.53-13.1-26-34-36.53-32.21-20.69,3.48-24,56.24-22,73.25,2,16.67,15.07,8.35,23.48-1.13,5.38-6.07,6-12.76,10-13.25Z"/><path class="cls-2" d="M96.71,34.82c12.36-2.54,10.4,13.79,17.31,19.93,6,5.35,16.75,1.43,11-11.77-3.36-7.69-18-33.51-34-30.67-16.91,3-14.33,18.86-12.67,32.78,1.37,11.45,7.55,9.15,10.22,1.79C91.44,39,91.15,36,96.71,34.82Z"/><path class="cls-3" d="M201.05,59c-5.05-.63-12.7,5.58-18.46,6.06-13.65,1.12-25.76-3.41-6.65-32.72,8.53-13.1,26-34,36.53-32.21,20.69,3.48,24.05,56.24,22,73.25-2,16.67-15.07,8.35-23.48-1.13-5.38-6.07-6-12.76-9.95-13.25Z"/><path class="cls-2" d="M206.1,34.82c-12.36-2.54-10.4,13.79-17.31,19.93-6,5.35-16.75,1.43-11-11.77,3.36-7.69,18-33.51,34-30.67,16.9,3,14.33,18.86,12.66,32.78-1.37,11.45-7.55,9.15-10.22,1.79C211.38,39,211.66,36,206.1,34.82Z"/></g></g></svg>