<svg xmlns="http://www.w3.org/2000/svg" xmlns:xlink="http://www.w3.org/1999/xlink" viewBox="0 0 652.02 890.55"><defs><style>.cls-1{fill:#1d1d1d;}.cls-2{fill:#353535;}.cls-3{fill:#444;}.cls-4{fill:#4b4b4b;}.cls-5{fill:#b52d2c;}.cls-6{fill:url(#linear-gradient);}.cls-7{fill:#660002;}.cls-8{fill:#b52d2d;}.cls-9{fill:#91131b;}.cls-10{fill:url(#linear-gradient-2);}.cls-11{fill:#727272;}.cls-12{fill:#edb533;}</style><linearGradient id="linear-gradient" x1="307.91" y1="604.46" x2="307.91" y2="51.7" gradientTransform="matrix(1, 0, 0, -1, 0, 869.09)" gradientUnits="userSpaceOnUse"><stop offset="0.01" stop-color="#5f5f5f"/><stop offset="0.24" stop-color="#595959"/><stop offset="1" stop-color="#4a4a4a"/></linearGradient><linearGradient id="linear-gradient-2" x1="220.41" y1="829.92" x2="220.41" y2="475.62" gradientTransform="matrix(1, 0, 0, -1, 0, 869.09)" gradientUnits="userSpaceOnUse"><stop offset="0.01" stop-color="#828282"/><stop offset="0.51" stop-color="#6d6d6d"/><stop offset="1" stop-color="#5e5e5e"/></linearGradient></defs><g id="Layer_2" data-name="Layer 2"><g id="Layer_1-2" data-name="Layer 1"><g id="ногп"><path class="cls-1" d="M222.51,735.3c14.14,53.14-1.59,93.93-19.65,110.51-16.62,15.25-80.09,9.48-107,3-2.1-.51-6.62-1.2-7.74-4.14a25.53,25.53,0,0,1-.62-13.51c1-4.58,3.21-11.77,7.52-13.6,3.27-1.39,9.28-6.48,11-11,1-2.67,3.29-5.43,3.42-15.21a58.64,58.64,0,0,0-9.58-32.53c-15-23-45.21-33.21-25-110,10-38,30.83-37,34-37C142.52,611.8,184.86,593.8,222.51,735.3Z"/></g><g id="Слой_9" data-name="Слой 9"><path d="M247.14,88.72c.11-5,1.14-31.16,21.55-48.31,17.5-14.7,48.52-22.18,64-6.67,9.6,9.65,12.06,27.06,6.31,39.09C328.92,93.84,291.49,103.36,247.14,88.72Z"/><path class="cls-2" d="M83.43,194.88C76.2,192.62,65.93,165.3,61.59,149c-11.13-41.84-4.4-53.65-.57-66.43,3-10,8-25,25-35,15.21-8.95,12,1.61,12,7,0,7,9.59,25.3,10,30,4.22,48.92-9,18-7.89,21.67C117.39,163.31,93,197.87,83.43,194.88Z"/><path class="cls-3" d="M219.31,153.5c.11-5,1.14-31.16,21.55-48.31,17.5-14.7,48.52-22.18,64-6.67,9.6,9.65,12.06,27.06,6.31,39.09C301.08,158.62,263.65,168.15,219.31,153.5Z"/><path d="M302.14,137.72c.11-5,1.14-31.16,21.55-48.31,17.5-14.7,48.52-22.18,64-6.67,9.6,9.65,12.06,27.06,6.31,39.09C383.92,142.84,346.49,152.36,302.14,137.72Z"/></g><g id="Слой_6" data-name="Слой 6"><path class="cls-4" d="M330.5,390.76c18.22,12.86,54.75,24.58,81.77,18,37.85-9.25,43.3-25.18,74.52-77.91,12.42-21,85.55-23.36,120.06-22,11.65.47,42.46,8.66,44.51,18,1.43,6.5-12.5,6.17-23.81,14-38.1,26.34-64.26,70-71.42,104.88-7.77,37.85,2,62.77-5.18,67.92-4.14,3-37.12.81-75.56,15-32.13,11.85-30.55,27.29-58,38-33.35,13-77.49,6.4-108.68-16-41-29.39-67.82-91.94-40.37-129.85C286.15,396.2,319.53,391.78,330.5,390.76Z"/><path class="cls-5" d="M510.59,462.68c-55.89-52.94-107.07-35.85-125.24-6C376,472,384.13,549.07,392,568.15a102.32,102.32,0,0,0,35.77-6.58c27.42-10.67,27.9-23.11,60-35,20.08-7.41,54.84-11,67.28-11C547.47,508.62,521.7,473.2,510.59,462.68Z"/><path class="cls-5" d="M503.35,346.81C480.89,373.9,508,445.4,528.19,474.66l.19.27c7.71,10.88,27.76,62.66,26.24-7.09-.19-8.92,1.46-17.83,2.55-23.15,4.94-24.08,18-44.92,25.48-55.51A62.12,62.12,0,0,1,594.06,377l54.19-44.18c1.59-.7,7.61-6.23,0-9C618.88,313.2,553,286.88,503.35,346.81Z"/><path class="cls-4" d="M494,331.82c8.71-25.42,59.57-29.45,67.28-30,49.14-3.27,91.38,20.34,90.05,25-1.11,3.85-30.81-10.73-75.56-4-43.31,6.52-74.22,29-81.77,20C491.37,339.61,493.18,334.33,494,331.82Z"/><path class="cls-4" d="M471.31,396.43c.73.24,1.44.51,2.14.81C507,411.87,514.73,430.7,524,444.69c14.19,21.3,41.4,60.64,41.4,81.91,0,5-39.33-36-53.82-48.94-25.35-22.71-44.4-28.07-68.31-43-11.29-7-9.25-31.72,0-39.95C449.79,389,466.46,394.82,471.31,396.43Z"/></g><g id="Слой_12" data-name="Слой 12"><path class="cls-2" d="M177,409.55c-18.82-9.74-32.86-7.54-37-5-10.71,6.58-25,16-44,47-9.32,15.2-24,32-31,43-3.32,5.22-44.34,39-48,44-11,15-16,35.05-4,51,6.39,8.48,38-21,38-21s-48.84,36-1,32c24-2,55-24.54,62-31,14.84-13.74,23-18.25,33-40.41,27.84-61.7,38.39-69.27,27-90.59C168.39,431.76,179.74,411,177,409.55Z"/></g><g id="Слой_2" data-name="Слой 2"><path class="cls-6" d="M371,427.55c29,76,26.33,82.68,20,146-3,30-24.76,83-8,112,15,26,36.68,63.48,66,75,28,11,44.17,14,52,14,11,0,48.51-14.15,51-11,12,15.22-40.68,51-64,52-23,1-23,1-61,0-36.94-1-115.21,16.23-183-38-45-36-73-49-93-58-52-23.39-89-50-89-122,0-76,51-119.14,93-183,23-35-25-69,24-88,9.72-3.77,208-127,178-15C350.47,336,353.8,382.42,371,427.55Z"/><path class="cls-7" d="M500.36,782.36l2.85-20.2c13.31.8,31.75-.41,44.35-12.57,9.5-9.17,11.24-20.28,12.89-19.77,2.61.8,5.3,30.84-15.33,47C525.89,791.8,501.63,782.85,500.36,782.36Z"/></g><g id="Слой_14" data-name="Слой 14"><path class="cls-8" d="M236,650.55c-5-13.82-7-76,14-114,21.66-39.19,32.17-63.67,46-110,4.78-16,29.05-68.84,7-93-10.17-11.14-36.35-10.36-55.17-9.93-44,9.32-98.48,32.28-101.83,28.93-17-17,31.09,39.79,15,59-67,80-103,123-99,204a95.72,95.72,0,0,0,3.34,21.13c11.32,40.68,54,72.1,63.66,77.87,37,22,156.82,90.11,164,91,18.73,2.32-19.3-22.8-7-36C298,756.67,251,691.74,236,650.55Z"/><g id="Слой_17" data-name="Слой 17"><path class="cls-9" d="M296,426.55c4.78-16,29.05-68.84,7-93a17.77,17.77,0,0,0-1.39-1.35c-3-1.27-5.64-1.59-7.61-.65-9.8,4.67-1.76,39.78-1,43a276.07,276.07,0,0,1-10,54c-4.59,15.78-11.36,33.72-48,104-20,38.42-22.41,41.49-25,53-8.83,39.2,3.42,71.43,8,83,5.58,14.12,23.51,41.08,33,49,4.06-13,3-38-15-67-7.75-12.49-7-76,14-114C271.68,497.36,282.19,472.88,296,426.55Z"/></g><path class="cls-9" d="M181,375.55c-.46-.15-3.53,3.91-5.85,9.27a6.7,6.7,0,0,0,2.85-1.27C181.17,381.07,181.49,375.71,181,375.55Z"/><path class="cls-9" d="M77,583.55c.7-2.56,10.11,4.14,12,6,9.07,9,31,21.13,63,22,33,.9,55.5-16.86,62-22,11.59-9.17,21.41-21.34,20-23s-14.52,10.7-31,18c-42.53,18.85-106,2.19-114-27-1.31-4.79-2-13.18,4.89-25.81.07-.13,7-14.07,7.11-14.19l11.73-21.66a7.25,7.25,0,0,1,9.78-3c14.66,8,24.21,25.52,57.49,23.65,10.74-.6,57.57-5.11,77-20,9.51-7.29,19-18.19,17-21-2.44-3.47-29.78,11-52,17-38.34,10.32-73.06-1.06-90-18-3-3,18-44,36-53,6-3,17,16.37,48,18,4,.21,38.92-1.75,61-19,9.54-7.45,17.66-17.92,16-20-2-2.47-15.58,9.58-35,16-36.13,11.94-81.25.69-86-17a16.61,16.61,0,0,1-.26-6.61,8.09,8.09,0,0,0-5.51-8.94,55.55,55.55,0,0,1-6.23-2.45s-1.78-3.61-3-4a49.37,49.37,0,0,1,3.8,16.47,32.07,32.07,0,0,1-7.54,22.19C89.42,492.67,56,547.55,61,615.55c1.71,23.25,9.76,48.18,40,76.63.75.71,13.3,11.64,14,12.37,2,2,13.84,9.87,14,10,19,15.08,156.69,102.64,174,88,13-11,11.56-10.41,1-16-8.89-4.71-35-6-45-8-19.31-3.86-43.57-20.36-44.09-21-.89-1-13.21-8.6-13-9,0,0,0,0,.05,0,1.23,0,32.06-2.77,36-4,16.57-5.15,29.4-19.14,29.09-19.94,0,0,0-.11-.09-.06-6,6-58.4,16.82-73,14-5.33-1-52-26-56.54-31.56-.64-.78.17-2.25.78-2.22,26.65,1.38,67.56,2.86,85.76-13.22,9.28-8.21,15.94-20,14-22-2.12-2.19-13.61,8.2-25,14-38.48,19.61-103.92,5.14-128-37-4-7-6-4-9-24-1-6.77-1.13-15.6-1-26"/><path class="cls-9" d="M160,381.55c-.07,6.86,5.3,12.61,8,14,31,16,133.79-25.44,138-28,1.32-6.08,2.66-16.52-3-24C280.35,313.6,160.36,350.53,160,381.55Z"/></g><g id="Слой_1" data-name="Слой 1"><path class="cls-10" d="M409.91,215.9c-7.61,107.81-52.09,137.25-157.85,159.69-119.1,25.27-180,38-216-62-6-16.56-15-52,19-81,8.51-7.26-6-7,11-103,8.34-47.1,106.71-99.58,180-89C343,54.55,418.07,100.33,409.91,215.9Z"/><path class="cls-1" d="M400.51,751.3c14.14,53.14-1.59,93.93-19.65,110.51-16.62,15.25-80.09,9.48-107,3-2.1-.51-6.62-1.2-7.74-4.14a25.53,25.53,0,0,1-.62-13.51c1-4.58,3.21-11.77,7.52-13.6,3.27-1.39,9.28-6.48,11-11,1-2.67,3.29-5.43,3.42-15.21a58.64,58.64,0,0,0-9.58-32.53c-15-23-45.21-33.21-25-110,10-38,30.83-37,34-37C320.52,627.8,362.86,609.8,400.51,751.3Z"/><path class="cls-11" d="M35,604.55c-2.89.48-12.19-16.19-6-27,.55-1,3.69-6.19,8-6s8,5.44,8,10-3.78,5.36-7,13C35.33,600.94,36.3,604.34,35,604.55Z"/><path class="cls-11" d="M12,602.55C9.91,601,.91,594,0,582.55c-.54-7,7.82-18,13-19,4.68-.9,10,1.6,10,8,0,15-6.79,6.88-9,17C13.29,591.89,12.08,600.71,12,602.55Z"/><path class="cls-11" d="M464,598.55c-3.57,8.47-2.62,12.7-1,15,2.63,3.74,7.57,3.18,9,7,1.61,4.31-3.26,8.82-2,10s6.69-1.46,10-6,6.08-13,1-20A16.45,16.45,0,0,0,464,598.55Z"/><path class="cls-11" d="M99,824.55c-2.94-.79-9.11-1.95-15,1-12.37,6.19-15,26.23-10,30,2.39,1.81,6.8.08,7,0,3.62-1.46,3.76-4.21,7-7,5.19-4.47,10-1.9,13-5C103.07,841.4,104.15,836.58,99,824.55Z"/><path class="cls-11" d="M124,819.55c-10.15,6.5-11.81,18.42-12,20-1.55,12.65,5.34,27.29,13,28a9.41,9.41,0,0,0,8-4c2.94-4.23-.62-7.89,1-14,1.94-7.34,8.31-6.7,11-14,2.34-6.36.8-15.8-5-19C133.94,813.2,126,818.26,124,819.55Z"/><path class="cls-11" d="M165,829.55c-1.13,1-7.92,7.11-8,17a22.17,22.17,0,0,0,9,18c1.72,1.23,6.37,4.53,11,3,3-1,4.61-3.62,6-6,1.48-2.54,6.13-10.51,3-19C183.13,834.69,174.66,829.33,165,829.55Z"/><path class="cls-11" d="M258,864.55c-4.32-3.53-3.74-13.69,3-25,5.32-6.44,13.28-8,18-5,6.06,3.91,4.22,13.8,4,15-1.51,8.14-4.42,8.58-12,10C268.74,860,260.69,866.73,258,864.55Z"/><path class="cls-11" d="M310,834.55c-6.16.66-12.88,10.3-14,12-7.71,11.71-3.45,30.18,3,32,3,.86,6.55-2,9-4,4.27-3.48,4-5.93,9-12,4.74-5.75,5.74-5.66,7-8C331,841.55,319.14,833.58,310,834.55Z"/><path class="cls-11" d="M352,851.55c-3.48,2.46-8.29,10-9,16-2,17,2,15,6,23,2.25-.18,3-6,9-8,9.46-3.15,11.33-13.74,12-16a25.48,25.48,0,0,0,.68-3.47c1.44-10.23-10-17.49-18.54-11.62Z"/></g><g id="Слой_11" data-name="Слой 11"><path class="cls-1" d="M417,664.55c17,5,20-33,20-33s7.73,23.72,10,23c18.14-5.8,26.61-37.54,22.41-64.7-9.9-64-27.41-95.3-45.18-114C371.42,420.32,396,393.55,359,393.55c-7.35,0-29.65,15.94-32,18-16.24,14.28-3,52-2,61,1.33,12,23.8,10.55,34,28,2,3.49,9.53,18.58,14,29,6,14,7,20.6,7,40,0,54,8,79,28,94"/><path class="cls-1" d="M313,192.55c13.9-19.26,39.78-48.43,81-65,17.58-7.07,48.38-19.46,78-7,17.91,7.53,34.7,23.86,32,30-1.46,3.33-7.78,1.63-17,4-18.72,4.82-29.6,21.33-34,28-16.4,24.89-4,39-20,57-7.57,8.48-16.54,12.29-30,18-21.14,9-32.44,6.9-45,19-6.29,6.06-5.52,8.58-12,13-10.54,7.19-27.87,11-35,3-4.64-5.2-3.13-13.33-3-14,2.29-11.47,7.31-14.17,11-24,3-8,1.78-11.51-3-26C313.44,220.72,311,208.83,313,192.55Z"/><path class="cls-8" d="M406,202.55c-22.11,11.51-42.11,28.84-64,40a14.47,14.47,0,0,0,4,8c1.71,1.63,7.6,6.25,44-3,10.2-2.59,13.78-4,24-6,10.05-2,15-2.29,19-3,.35-.06.69-.15,1-.22,14-16.94,3.54-30.72,17.76-53.87C436.64,190.48,420.82,194.85,406,202.55Z"/><path class="cls-8" d="M501.09,152.52c-8.58-16.68-36.66-19.3-41.07-20-28.84-4.38-58.8,9.75-78,36,0,0-40,43-40,44,24-6.6,49-23.27,73-30,15.1-4.24,29.27-5.09,41.51-5.12,5.65-7.79,15.58-19.05,30.49-22.88C493.23,153,498.11,153.2,501.09,152.52Z"/><path class="cls-11" d="M420,636.55a33.22,33.22,0,0,0-6,16c-.73,8.23,1.58,19.8,7,21,3.2.71,6.4-2.43,8-4,9.71-9.51,11.67-29.17,4-34C431.79,634.77,428.09,633,420,636.55Z"/><path class="cls-11" d="M448.41,630.22c-4.27,5.24-5.48,6.44-5.39,9.33.23,7.23,7,9,4,23.38-1,5-3.62,8.43.55,6.39,1.91-.93,10.69-4.57,15.22-13.7,5.4-10.88,7.49-23.51.92-26.4C462.69,628.77,456,624.07,448.41,630.22Z"/></g><g id="Слой_7" data-name="Слой 7"><path d="M112.08,313.38c4.18,3,25.09-19.42,22.59-23.9-1.5-2.68-12.42-.83-18.55,7.46C111.8,302.78,109.87,311.81,112.08,313.38Z"/><path d="M61.86,300.58c.93,2.67,7.46-20.13,7-24.36-.25-2.53-8.13,1.69-10.13,10C57.36,292.16,61.37,299.17,61.86,300.58Z"/><path d="M64.43,328.06c1,1.59,1.73,3.33,2.57,5a38,38,0,0,0,3.8,6.21c4.78,6.22,11.55,10.17,18.87,12.74,6.5,2.28,13.78,3.4,20.51,1.45A26.11,26.11,0,0,0,122,345.92a59.41,59.41,0,0,0,3.9-4.9l.67-.9c.32-.44.14,0-.13.16.11-.06.2-.26.29-.36l.53-.6c.59-.68-.47.27-.05,0,2.82-1.79,1-6.42-2.31-5.48-3.17.88-5.53,3.4-8,5.42l-.43.35-.29.23.24-.18c-.36.27-.72.54-1.09.79a22.9,22.9,0,0,1-2.33,1.41l-.66.33c-.17.08-.89.36-.17.09-.49.19-1,.37-1.47.52s-1,.28-1.47.38l-.84.16c-.49.1.38,0-.33,0a22,22,0,0,1-7.85-.62,68.52,68.52,0,0,1-10.76-3.92c-4.87-2.09-9.88-4.27-14.19-7.4-.28-.21-.67-.52-.15-.1l-.56-.45c-.33-.27-.64-.55-1-.84A21,21,0,0,1,72,328.33l-.33-.4c-.08-.09-.51-.67-.17-.22s-.09-.13-.16-.22l-.3-.42c-.47-.66-.92-1.34-1.37-2a3.07,3.07,0,0,0-4.1-1.08,3,3,0,0,0-1.11,4.09,31.47,31.47,0,0,0,6,7.17c4,3.28,8.7,5.55,13.39,7.65,6.84,3.06,14,6.45,21.64,6.6a22,22,0,0,0,13.28-4.13c1.71-1.23,3.28-2.63,4.9-4l.44-.36c.53-.43,0,0,0,0,.33-.22.64-.47,1-.69s.64-.38,1-.55c.53-.28,0,0-.1,0a3,3,0,0,0,.56-.18l-2.31-5.48a11,11,0,0,0-2.79,3c-.39.52-.77,1-1.15,1.57l-.66.88c-.41.55.36-.44,0-.05l-.45.57a30.11,30.11,0,0,1-3.79,3.95c-.2.17-.41.33-.6.5-.4.34.45-.32-.1.08s-.89.63-1.35.93a23.13,23.13,0,0,1-3,1.57c.56-.25,0,0-.23.08s-.51.19-.77.27c-.61.2-1.23.38-1.85.52s-1.24.26-1.86.36c-.46.07.49-.05,0,0l-.53.05-1.09.08a27.93,27.93,0,0,1-9.41-1.15c-7-1.89-13.51-5.14-18.13-10.43l-.68-.81c-.07-.09-.36-.45,0,0-.13-.17-.25-.34-.38-.5-.4-.55-.79-1.12-1.16-1.7-.67-1.05-1.27-2.15-1.84-3.26-.94-1.85-1.74-3.79-2.84-5.55C67.56,321.77,62.37,324.78,64.43,328.06Z"/><path d="M82.6,206.17,97,200.55c.24,1.94.75,4,1,6,1.85,14.38-6,26-14,26-12,0-20-10.28-20-25s5.42-29.79,17-30c5-.09,16,1,16,23Z"/><path d="M220.88,222.59l19.48-4.45a48.7,48.7,0,0,1-.4,6.91c-2.17,16.83-15.67,27.83-26.14,26.48s-17.33-12.35-15.16-29.18,6.8-29.66,23.36-29.79c11-.09,21,13,18,26Z"/><path class="cls-12" d="M99,198.55c0,5.52,2.52,17-3,17s-12-3-15-14c-1.45-5.33,3.48-20,9-20S99,193,99,198.55Z"/><path class="cls-12" d="M240,209.55c0,6.08,2.08,25-4,25s-15-5-18-17c-3.43-13.72,2.92-23,9-23S240,203.47,240,209.55Z"/><path d="M180,116.05c-3.6,13-11,24.5-24.5,24.5a24.5,24.5,0,0,1-24.5-24.5c0-13.53,15.47-27.5,29-27.5S184,101.55,180,116.05Z"/><path d="M160.28,70.32c.13-5.53,1.34-34.42,23.15-53.39C202.13.66,235.2-7.65,251.58,9.46c10.19,10.64,12.74,29.87,6.56,43.16C247.37,75.84,207.46,86.42,160.28,70.32Z"/></g></g></g></svg>