<svg xmlns="http://www.w3.org/2000/svg" xmlns:xlink="http://www.w3.org/1999/xlink" viewBox="0 0 1468.33 2277.6"><defs><style>.cls-1{fill:#b8f0f2;}.cls-2{fill:#4a9da5;}.cls-3{fill:url(#linear-gradient);}.cls-4{fill:#bdf3f9;}.cls-5{fill:#267a7d;}.cls-6{fill:#0b5c5f;}.cls-7{fill:url(#linear-gradient-2);}.cls-8{fill:#0c5b5f;}</style><linearGradient id="linear-gradient" x1="277.36" y1="2021.5" x2="1179.72" y2="2021.5" gradientTransform="matrix(1, 0, 0, -1, 0, 2337.8)" gradientUnits="userSpaceOnUse"><stop offset="0" stop-color="#308488"/><stop offset="0.85" stop-color="#65b9c2"/></linearGradient><linearGradient id="linear-gradient-2" x1="64.51" y1="1043.53" x2="951.26" y2="1043.53" gradientTransform="matrix(1, 0, 0, -1, 0, 2337.8)" gradientUnits="userSpaceOnUse"><stop offset="0.8" stop-color="#399" stop-opacity="0"/><stop offset="1" stop-color="#65b9c2" stop-opacity="0.3"/></linearGradient></defs><g id="Layer_2" data-name="Layer 2"><g id="Слой_1" data-name="Слой 1"><path class="cls-1" d="M314.16,1787.6c9-16.1,24.7-23.4,41.2-24.1,22.2-1,42.6-8,63.6-12.9,61.1-14.2,122.3-28.1,182.1-47.2,11.1-3.5,18.9-6.9,20.3-20.7,1.2-12.6,9.4-22.4,19.4-31,7.6-6.5,12.6-16,18.8-24.1,18.6-24.5,37.5-48.7,55.6-73.5,24.8-34,38.5-72.3,42.8-114.2,5-48.4-1.2-95.4-17.5-140.9-17-47.5-45.5-87.9-81-123.4-53.8-53.7-113.9-99-181.8-133.8-13.7-7.1-26.9-15.2-40.3-23a38.92,38.92,0,0,1-7.7-5.6c-6.2-6.4-4.9-15.5,3.2-19.3a44.33,44.33,0,0,1,14.4-3.7c38.2-4.6,75.1,1.4,111.6,12.8,33.4,10.4,61.9,29.3,90,49.3,32.2,22.9,61.2,49.5,88.9,77.5q37.8,38.4,74.1,78.3c25.5,28.1,42.6,61.4,59.2,95.3,11.8,24.2,26.7,47,40.8,70,17.3,28.3,35.2,56.3,52.9,84.4a44.08,44.08,0,0,0,5,6.4c49.8,55.3,99.3,110.9,141.1,172.7,12.6,18.6,21,40.2,30,61a831.32,831.32,0,0,1,53,168.1c.3,1.5.5,3,.8,5.3-8.7-3.3-14.2-9.3-18.6-16.1-13.9-21.3-27.6-42.8-41.4-64.2q-48.15-74.4-96.5-148.8c-1-1.6-2.3-3.1-4.3-5.7,6.6,26.3,13.6,51,19,76.1,15.2,70.5,28.8,141.3,44.7,211.6,17.1,75.8,36.3,151.2,54.2,226.9,8.1,34.3,16.9,68.5,19.3,103.8.5,6.9.1,13.9.1,22.7-7.3-1.7-13.4-2-18.4-4.4-8.6-4-17.6-8.1-24.7-14.2-14.5-12.7-28.2-26.4-41.4-40.4-4.7-4.9-7.8-11.7-10.3-18.2-35.3-91.5-81-177.4-138.5-256.9-40.8-56.4-85.3-109.4-139.1-154.1-20.7-17.2-43.6-29.3-70-35-13-2.8-18.3,2-24.3,13-15.9,28.9-18.6,60.6-13.8,92.1,6.8,44,9.9,88.1,11.4,132.5.6,16.6-3.5,32.2-20.2,40.8-2.2,1.1-5.8,1.4-7.8.3a25.8,25.8,0,0,0-13.4-3.2,35.53,35.53,0,0,1-15.6-3.8,83.28,83.28,0,0,1-33.1-29.8c-19-29.2-31.8-61.4-44.2-93.6-8-20.9-19.9-38.7-34.5-55.1-16-18-34.9-32.3-55.4-45-11.2-7-23.5-10.6-35.6-14.4a203,203,0,0,0-39.3-8,245.19,245.19,0,0,0-40.2-.4c-10.7.6-20,5.7-28.1,12.9s-13.9,6.6-20.6-2C314.16,1789.4,314.16,1788.5,314.16,1787.6Z"/><path class="cls-1" d="M521.76,224.1c16.4,5.7,32.9,11,49.2,17.2a62.58,62.58,0,0,1,32.3,28.1c11.1,19.3,3.8,41.5-17,49.5a80.24,80.24,0,0,1-27.9,5.2c-15.6.1-31.2-2-46.9-2.8-3.6-.2-7.8.2-11,1.9-17.1,9.2-32.8,20.3-45.2,35.7-1.2,1.4-4.8,2.3-6.6,1.6-9.8-4-15.7-11.8-19.9-21.3a26.26,26.26,0,0,0-6.5-8.9c-12.7-10.4-15.7-24.2-11.8-38.8,7-26.2,23.9-43.8,50.3-51.6,1.5-.5,3.3-.4,4.6-1.3,12.4-8.7,26.7-12.1,41.3-14.5Z"/><path class="cls-1" d="M1233.86,1374.2c-9.1-15.5-17.9-31.1-27.4-46.4-17.6-28.6-37.6-55.4-63.2-77.4-8.5-7.4-19-12.4-27.7-19.7-16.9-14.2-32.8-29.5-49.5-43.8-20.2-17.3-42.5-31.3-68.2-38.9a92.22,92.22,0,0,0-18.7-3.6c-20.3-1.4-31.9,3.6-45.6,19.4-2.9-1.7-6.2-3.2-9-5.4-1.5-1.2-3-3.7-2.7-5.4,6.9-53.3-8.1-102.8-26.8-151.4-10.3-26.7-21.4-53.1-34-78.8-5.7-11.7-15.6-21.5-24.2-31.7-7.8-9.2-16.8-17.3-24.2-26.8-2.8-3.6-4.5-9.9-3.5-14.2,1.4-6,8.4-7.1,13.7-6.4,12.3,1.7,24.5,4.4,36.7,6.8,2.2.4,4.4,1.7,6.6,1.6,14.5-.4,24.1,7.5,32.8,17.9,7.7,9.2,16.1,17.8,24.5,26.4,34.9,35.5,70.2,70.7,95.8,114.1a34.63,34.63,0,0,0,4.9,6.5c62.1,65.8,111,140.5,149.5,222.1,20,42.4,39,85.2,58.4,127.8,1,2.2,1.8,4.6,2.6,6.9A1.23,1.23,0,0,0,1233.86,1374.2Z"/><path class="cls-1" d="M900.06,599.6c6.7-12.5,20.3-17.8,36.7-14.4a147.86,147.86,0,0,1,52.7,21.7c15.3,10.3,29.3,22.4,45,32.1,45.6,28.1,63.3,74.2,80.3,121.1,7.3,20.1,7.2,40.7,4.9,61.3-3.1,28.2-25.9,46.2-54.3,44a81.43,81.43,0,0,1-38.9-13.5c-44.5-29.6-73.9-70.3-86.5-122.2-8-33.1-14.3-66.7-21.7-99.9C915.56,617.7,910.56,606.8,900.06,599.6Z"/><path class="cls-1" d="M1269.86,1458.2c6.9,17.3,14,34.4,20.7,51.8,10.1,26.3,19.7,52.8,29.7,79.2a49.5,49.5,0,0,0,6.3,11.2c32.6,47.2,60.4,96.8,77.9,151.7,3.3,10.3,6,21.2,6.4,31.9,1.3,29.3-24.6,45.6-50,31-13.7-7.8-25.5-18.9-38-28.8a11.09,11.09,0,0,1-3.2-5.8c-7.9-28.5-15.7-56.9-23.2-85.5-.9-3.4-.3-7.2-.5-10.9-2.2-45.7-2.7-91.5-7.2-136.9-2.7-27.3-11.8-54.1-18-81-.6-2.5-1.4-5-2.1-7.6A10.34,10.34,0,0,0,1269.86,1458.2Z"/><path class="cls-1" d="M829,537.3c23-6.9,45.8-14.5,69-20.6,33-8.7,66.6-8.4,100.3-4,16,2.1,32.1,3.3,48.2,5,3.4.4,6.9.6,10,2,26.5,11.9,49.1,28.5,63.9,54.2,6.6,11.5,10.4,23.7,9.6,37.1-1.5,27-26.6,44-51.9,34.4-7.9-3-15.9-7.5-21.9-13.4-18.3-18-36.9-35.9-53-55.8-15.4-19.1-33.6-30-57.9-31.1l-96.1-4.2c-6.6-.3-13.1-.7-19.7-1.1A18.43,18.43,0,0,0,829,537.3Z"/><path class="cls-1" d="M1366.06,1162c11.6,5.4,23.2,10.4,34.6,16,18.1,8.9,36.2,17.9,54,27.4,3.4,1.8,6.4,5.7,8,9.4,4.8,11,7.2,22.6,4.6,34.6-5.1,23-27.3,34.5-48.3,23.7-10.3-5.3-19.2-13.6-28.2-21.1a62,62,0,0,1-21-32.6,154.44,154.44,0,0,0-8.5-25.1C1356.06,1182.5,1360,1172.6,1366.06,1162Z"/><path class="cls-2" d="M68.36,838.7c-45.6-14.1-71.5-52.4-66.9-100.5.7-7.3,4-15,8-21.3,6.1-9.6,14.1-9.1,19.4.9,4,7.6,6.8,15.8,9.4,23.9s4.3,16.7,7,24.9a64.26,64.26,0,0,0,7.1,14.7c7.1,11,16.6,16.9,30.5,14.2,8.3-1.7,12.8,1.5,15.6,9.3,5,14-3.7,29.1-18.6,32.4-2,.4-3.9,1-5.9,1.4C72,838.7,70.16,838.7,68.36,838.7Z"/><path class="cls-3" d="M295.06,632.4c-11.1-2.9-13.6-11.7-15.4-21.4-5.5-29.9-.6-58.4,9-87C311,457.1,357,409.2,410.26,366.5c59.1-47.4,125.5-81.7,195-111.1,41.6-17.6,85.3-28.6,127.7-43.4,58.6-20.5,116.5-42.9,171.2-72.6,14.4-7.8,28.1-16.7,43-25.7a32.64,32.64,0,0,1-2.6,3.9c-29,33.5-60.6,64.4-96.5,90.2-21.3,15.2-45.5,26.5-69,38.4-20.5,10.3-42,18.6-62.6,28.6-11.6,5.6-22.4,12.6-33,20.1,26.2-5.3,52.5-10.7,78.7-15.9,45.9-9.2,91.9-17.6,137.7-27.5,47.5-10.3,92-28.1,132-56.5,46.7-33.2,79.2-77.9,104.3-128.4,9.1-18.3,17-37.2,25.6-55.8a39.23,39.23,0,0,1,6.9-10.8c1.9,9.8,3.9,19.6,5.7,29.4,12.4,70,3.7,136.6-30.4,199.6-24.7,45.7-55,87.5-89,126.4-17.2,19.6-39.6,33.5-62.1,46.3C932,436.4,866,453,796.26,456.2c-47.5,2.2-94.5-2.9-141.5-8.6-33.2-4-66.4-7.6-99.8-9.3-37-1.9-71.9,7-104.8,25-36.4,20-70.6,42.6-96.9,75.2-17.4,21.6-27.7,46.9-32.3,74.2-1.5,8.6-7.4,12.5-13.5,16.7-2,1.4-4.5,2.1-6.7,3.2C298.66,632.4,296.86,632.4,295.06,632.4Z"/><path class="cls-4" d="M60.16,810.2c-20.6-.9-36-10.1-46.3-26.9-15.4-25.1-17.3-52.1-9-80.1,1.5-5,6.2-19.8,7.7-24.7,1.4-4.7,10-21.2,20.3-31,5.1-4.8,23.1-16.4,30-19.1,9.5-3.7,35.9-6.3,46.4-4.1,5.2,1.1,26.3,9.9,28.7,12.3,13.7,13.7,15.3,33.7,16.4,49.2.5,7.2-19.3,5.4-17.6,12.4,3.1,12.9.2,24.8-4.3,36.6-4,10.4-7.6,21-12.6,30.9-10.9,21.8-26,39-51.5,43.6C65.46,809.8,62.46,809.9,60.16,810.2Z"/><path class="cls-5" d="M951.26,1215.7c-1.1,71.4-14.7,140-43.3,205.5-4.7,10.8-8.8,21.9-12.8,33-20.2,56.6-51.1,106.9-89.2,153-4.1,4.9-7.9,10-12.1,14.8-18.1,20.4-28.9,43.7-33,71.2-5.6,37.2-14.7,74-20.5,111.2-9,58.5-33.3,110.6-63.7,160.4a98.89,98.89,0,0,1-15.5,19.8c-4.5,4.4-10.6,8.4-16.6,9.9-15.9,3.9-28.9-7.6-29.7-25.1-.6-14.3-.1-28.7-1.5-42.9-3.9-38.6-10.7-76.6-36.8-107.3-26.6-31.2-58.5-55.2-100.8-59.8-51.8-5.6-100,4.7-141.4,38.4-9.4,7.6-21.2,8.4-29.3,1.4-8.3-7.1-9.8-18.9-3-29.1,11.5-17.1,26.4-31.2,42.6-44,31.4-24.8,66.1-44.5,102.1-61.4,16.8-7.9,35.8-11.5,54.1-15.9,49.2-11.7,98.7-22.6,147.9-34.3a453.33,453.33,0,0,0,48.4-14c24.9-9,41.1-26.8,48.9-52.2,8.1-26.2,17.6-52.1,24.4-78.6,10.4-40.5,13.8-82,12-123.8-1.7-38.4-8.8-75.8-23.6-111.5-24.2-58.2-67.3-97.9-123.4-124.5-41.3-19.7-85.4-30.7-130-39.6-59.7-11.9-119.6-22.6-178.9-35.8-51.1-11.4-100.7-27.8-146.8-53.4-31.8-17.6-60.3-39.1-82.2-68.5-44.3-59.5-44-137.6.5-200.4,30.8-43.5,73-71.5,122.2-90.1,34.4-13,70.3-20.3,106.6-24.6,23.4-2.7,47.2-5.1,70.7-3.9,50.5,2.5,101.2,5.2,150.4,19,58.3,16.4,108.3,47.5,153.9,86.5a569,569,0,0,1,96,104.8c40.1,56.7,75.8,115.6,102,180a721.45,721.45,0,0,1,47.3,181.5C949.56,1182.1,950,1198.9,951.26,1215.7Z"/><path class="cls-2" d="M200.66,926.8c-33.4.3-68.2-5.1-97.4-20.2-24.9-12.9-33.1-34.1-37.5-58.6-11.1-62.2,8.7-114.9,51.1-159.9,34.8-37,78.3-59.8,126.6-73.4,58.2-16.3,117.4-24.9,178.1-19.3,39.1,3.6,78.5,5.6,116.8,15.6,57.3,14.8,107.5,42.8,152.6,80.5,5.4,4.5,10.8,9.1,16.2,13.6a26.92,26.92,0,0,1,2.6,3.1c-3.3-1.7-5-2.4-6.5-3.4-22.1-13.5-43.8-27.9-66.4-40.5-41.5-23.1-86.3-35.4-133.6-38.9-61.4-4.5-122.2-.2-182.6,10.9a209.5,209.5,0,0,0-34.5,10.1c-42,15.7-83.5,32.7-118.2,62.3-33.8,28.9-59,63.6-70.6,107.1-4.3,16-3.5,32.5-.7,48.8,2.4,14.3,12.5,21.9,25,26.2,10.5,3.7,21.5,5.8,32.1,9.2,20,6.4,40.6,3.1,60.9,4.7,17.4,1.3,72.8-8.8,76.7-8.6C291.26,897,262.26,920.6,200.66,926.8Z"/><path class="cls-2" d="M731.86,1575.8c6.1,22.9-9.7,55.7-32.2,67.2-14.5,7.4-30.2,9.7-46.1,10.9-52.5,3.7-103.9,12.9-151.9,35.5C438.76,1719,379,1754,326,1799.6c-5.7,4.9-10.6,9.1-18.5,4.6-7.5-4.3-13.1-12.3-11.4-20.8a45.46,45.46,0,0,1,8-17.6c13.1-17.3,29.1-31.9,46.6-44.8,29.4-21.7,61.3-39.1,93.8-55.5,7.4-3.7,16-5.1,24-7.5,60.3-18.1,121.8-31.4,183.5-43.9,14-2.8,27.6-7.5,41.2-11.8a75.41,75.41,0,0,0,35.7-24.1,17.28,17.28,0,0,1,2.4-2.3C731.36,1575.7,731.66,1575.8,731.86,1575.8Z"/><path class="cls-2" d="M444.76,739.9c10.4,8.3,14.3,19.6,17.3,31.3,9.9,38.4-15.3,81.5-53.6,91.9a65.61,65.61,0,0,1-69.9-24.2c-13.8-18.4-23.1-39.1-26.6-62-1.5-9.7-.3-19.1,5.7-27.3,6.8-9.1,16.7-9.5,23.2-.2,4.6,6.7,7.6,14.4,11.2,21.7,5.9,11.8,11.4,23.8,17.7,35.3a31.49,31.49,0,0,0,9.7,10.2c7,4.7,14.8,5,21.6-.5a78,78,0,0,0,14.1-14.6c11.6-16.3,21.6-33.6,25.6-53.7a39.74,39.74,0,0,1,2-5.8A22.36,22.36,0,0,0,444.76,739.9Z"/><path class="cls-6" d="M764.56,1250.4c22.1,15.5,44.9,24.6,69.3,30.2a129,129,0,0,0,66.7-2.1c2.2-.7,5.3-3.5,5.4-5.5,2.2-25.6,3.7-51.2-.7-77.5-1.9.7-3.6,1.2-5.1,1.9-39.9,20-82.4,26.2-126.5,23.9a13,13,0,0,0-3.4-.2c-14,3.1-20-4.4-26.5-15.9-27.2-48.2-69-80.2-119.1-102-43.4-18.9-89.2-29.6-135.6-38.1-65.5-12-131.3-22.6-195.4-41.1-44-12.7-87.2-27.5-126.4-51.9-15-9.3-29-20.1-43.5-30.2.6-.9,1.2-1.8,1.7-2.7,2.3,1.3,4.7,2.4,6.9,3.9,3.2,2.4,6,5.7,9.5,7.5a129.43,129.43,0,0,0,18.8,8c77.5,25.2,155.5,48.4,236.5,59.8,22.2,3.1,44.9,2.6,67.3,4.8,67.3,6.6,134.3,14.9,196.7,43.7,17.5,8.1,34.1,18.1,51.2,27,2.5,1.3,6.2,2.5,8.6,1.6,34.1-12.2,66.1-28.2,92.7-53.5,25.2-23.9,42.6-52,46.4-87.2a99.53,99.53,0,0,0,.6-10.9c0-11,2.2-13.9,13.7-17.2,2.5,5.1,5.2,10.3,7.7,15.6,34.2,71.1,55.1,146.2,65.1,224.3,4.6,36.2,2.8,72.6-1.5,108.9-6.1,52.1-21.1,101.6-41.4,149.9-13.8,32.9-24.7,67-43,97.9-11.6,19.5-24.2,38.4-36.5,57.9-2.8-1.2-4.4-1.8-5.9-2.6-23.7-13.5-44-31.5-63.4-50.3-1.5-1.5-2.1-5.4-1.3-7.6,19.1-55.6,28.8-112.7,27-171.5-.9-31-5.1-61.6-14.5-91.3C766,1256.1,765.56,1254.1,764.56,1250.4Z"/><path class="cls-7" d="M951.26,1215.7c-1.1,71.4-14.7,140-43.3,205.5-4.7,10.8-8.8,21.9-12.8,33-20.2,56.6-51.1,106.9-89.2,153-4.1,4.9-7.9,10-12.1,14.8-18.1,20.4-28.9,43.7-33,71.2-5.6,37.2-14.7,74-20.5,111.2-9,58.5-33.3,110.6-63.7,160.4a98.89,98.89,0,0,1-15.5,19.8c-4.5,4.4-10.6,8.4-16.6,9.9-15.9,3.9-28.9-7.6-29.7-25.1-.6-14.3-.1-28.7-1.5-42.9-3.9-38.6-10.7-76.6-36.8-107.3-26.6-31.2-58.5-55.2-100.8-59.8-51.8-5.6-100,4.7-141.4,38.4-9.4,7.6-21.2,8.4-29.3,1.4-8.3-7.1-9.8-18.9-3-29.1,11.5-17.1,26.4-31.2,42.6-44,31.4-24.8,66.1-44.5,102.1-61.4,16.8-7.9,35.8-11.5,54.1-15.9,49.2-11.7,98.7-22.6,147.9-34.3a453.33,453.33,0,0,0,48.4-14c24.9-9,41.1-26.8,48.9-52.2,8.1-26.2,17.6-52.1,24.4-78.6,10.4-40.5,13.8-82,12-123.8-1.7-38.4-8.8-75.8-23.6-111.5-24.2-58.2-67.3-97.9-123.4-124.5-41.3-19.7-85.4-30.7-130-39.6-59.7-11.9-119.6-22.6-178.9-35.8-51.1-11.4-100.7-27.8-146.8-53.4-31.8-17.6-60.3-39.1-82.2-68.5-44.3-59.5-44-137.6.5-200.4,30.8-43.5,73-71.5,122.2-90.1,34.4-13,70.3-20.3,106.6-24.6,23.4-2.7,47.2-5.1,70.7-3.9,50.5,2.5,101.2,5.2,150.4,19,58.3,16.4,108.3,47.5,153.9,86.5a569,569,0,0,1,96,104.8c40.1,56.7,75.8,115.6,102,180a721.45,721.45,0,0,1,47.3,181.5C949.56,1182.1,950,1198.9,951.26,1215.7Z"/><path class="cls-4" d="M469.16,754.4A97.65,97.65,0,0,1,458,799.7c-22,42.2-73.7,54-111.6,25.2-6.8-5.2-13.5-11.2-18.2-18.2-19-28.3-30.1-59.1-20.7-93.3,8.5-30.9,23.6-54.5,53.8-65.7,11.5-4.3,28.4-4.7,41.1-3.8,26.1,1.9,43.5,24.6,54.5,46.3C463.66,703.9,468.26,745.1,469.16,754.4Z"/><path class="cls-8" d="M64.26,637.9c3.1,1.3,6.4,2.3,9.4,3.9,20,11.1,23.8,35.3,8.2,52.4-10.7,11.8-28.3,12.3-42.6,1.3-11.5-8.9-13.6-24.1-5.9-37.3,6.5-11.1,15.5-18.1,28.2-20.3Z"/><path class="cls-8" d="M759.26,825.2c.2-2.5.4-6.7.7-10.8.2-2,.9-4,.8-6-.3-9.5,2.6-13.9,11.9-15.9,14.4-3.1,28.5-1,42.3,3.4,33.2,10.6,63.3,27.7,92,47.1,81.4,55.3,146,126,192.8,212.7a18.21,18.21,0,0,1,1.8,14.2c-5.5,22.3-10.8,44.6-22.3,64.9-8.8,15.5-12.2,16.3-26.7,5.5-18.9-14.2-32.6-32.2-39.3-55.1-3.6-12.4-7.4-24.8-11.5-37.1-10.3-31-26-59.1-48.3-83.1-35.1-37.8-70.5-75.5-114.6-103.5-14.2-9-28.5-18-43.6-25.2C784.66,831.2,772.36,829.1,759.26,825.2Z"/><path class="cls-8" d="M358.66,1033.1c-22.8,28.5-27.1,62.6-26.7,97.6.6,50.6,17.4,96.1,46.3,137.4,5.7,8.1,5.6,9.5-2.9,14.8-6.7,4.2-14.1,7.3-21.3,10.7-9.3,4.3-18.8,8.1-28.1,12.3-19.5,8.9-43.8,1.4-55-17.1-8-13.2-10.8-27.8-12.6-42.8-4.2-35.7-2.1-71.3,2.4-106.7,2.7-21.1,5.8-42.3,10.1-63.2,3.8-18.4,11.6-35.4,24.6-49.5,3.2-3.5,6.1-4.5,11.2-3.4C323.76,1027,341.16,1029.8,358.66,1033.1Z"/><path class="cls-8" d="M292.36,894.2c-2.7,1.4-4.9,3.1-7.3,3.7-12.7,3.3-25.4,6.9-38.3,9.4-12,2.3-24.3,3.2-36.5,4.8-29.4,3.9-57.3-3.6-85.2-10.9-10-2.6-19.8-6.6-29.3-10.8-4.3-2-8.1-5.8-11.3-9.5-3.6-4.2-3.5-9.5.2-13.7,1.2-1.4,5.1-2.3,6.5-1.5,24.7,14.5,52,19.4,80,22.5,32.1,3.6,63.9,2.1,95.8-2.2C276.46,884.6,285.66,884.3,292.36,894.2Z"/><path class="cls-8" d="M423.36,706.3c-.2,21.7-16.8,39.1-36.2,38.1-24.3-1.3-39.2-27.7-27.7-49,1.4-2.6,3.1-5.1,4.5-7.6,12.1-21.4,29.5-21.3,48-7.3C420.26,686.7,423.86,695.8,423.36,706.3Z"/><path class="cls-2" d="M797.56,790.9c93.3,26.4,164,85.8,227.1,156.1a536.89,536.89,0,0,1,72.6,102.9c4.6,8.4,6.5,16.2,3.7,25.8-5.7,19.9-10.1,40.1-20.5,58.3a79.11,79.11,0,0,1-7.5,11.3c-1.4,1.7-4.7,3.2-6.5,2.8s-4-3.4-4.4-5.6c-3.6-19.4-7.2-38.9-10.2-58.4-10.2-66.7-42.9-120.6-91.4-166.5-45.5-43-97.9-74.3-155.5-97.8-10.9-4.5-21.8-9.1-32.6-13.9-3.6-1.6-6.8-4.2-12.1-7.5,5.8-3.1,10-5.3,14.1-7.5Z"/><path class="cls-2" d="M282.46,1302.7c-8.5-5.6-12.7-12.8-16.1-20.5-7-16.1-8.5-33.4-9.9-50.6-2.4-30.6-.2-61,3.8-91.2,3.2-24.5,7.7-48.9,13-73a71.7,71.7,0,0,1,24.1-39.7c-1,7.6-1.3,15.4-3.1,22.9-6,25.2-13.5,50.1-18.7,75.4-10.5,51.5-14,103.2.2,154.8C277.86,1287.7,280.06,1294.5,282.46,1302.7Z"/></g></g></svg>