<svg xmlns="http://www.w3.org/2000/svg" viewBox="0 0 726.59 780.25"><defs><style>.cls-1{fill:#d4d2ce;}.cls-2{fill:#f09ba1;}.cls-3{fill:#f4505d;}.cls-4{fill:#fdd8bf;}.cls-5{fill:#f998a0;}.cls-6{fill:#4cd7e5;}.cls-7{fill:#25c9d6;}.cls-8{fill:#020202;}.cls-9{fill:#0b3642;}.cls-10{fill:#fff;}.cls-11{fill:#20a2a5;}</style></defs><g id="Layer_2" data-name="Layer 2"><g id="Слой_1" data-name="Слой 1"><g id="Слой_4" data-name="Слой 4"><path class="cls-1" d="M33.23,212.25c-3,20-3.8,70.5,26,85,18.1,8.9,22.1-3.9,43-5,58.6-3.1,141.9,37.6,153,83,5.7,23.2-15.2-5.4-41-1-23.4,4-18,29-66,60-23.5,15.2-85.5-8.9-85-9,36-6,63,9,78-16,6-10-49.5,12.9-85-15C-55.77,306.25,34.33,204.85,33.23,212.25Z"/><path class="cls-1" d="M390.23,416.25c-3.9,4,95,5.7,91,58-4,52,38,61,38,61-28-31-20-46-18-61,.8-6.3,7.6,28.5,42,33,46,6,97.8-3.7,132-42,59-66,51-121,51-121-8,18-16.7,57.1-62,53-22-2-35.9-14.2-64-12-53,4.2-58.1,47.1-103,44C476.93,427.85,396.53,409.75,390.23,416.25Z"/><path class="cls-2" d="M189.23,146.25c-10.6-12.5-5.9-37.1,6-51,11.5-13.5,22.6-8.4,39-21,26.7-20.5,24-54.4,32-54,8.4.4,17.3,38.6,10,75-2.9,14.3-5.9,29.7-19,42C238.33,155.05,202.73,162.25,189.23,146.25Z"/></g><g id="Слой_3" data-name="Слой 3"><path class="cls-3" d="M119.23,780.25c-62-23-101-128-88-178,.2-.9,19.9,49.4,32,33-2.4,28.1,43.2-19.1,43-16C99.13,754.35,119.23,780.25,119.23,780.25Z"/><path class="cls-4" d="M433.23,359.25c32.5,5.9,37.3,61.2,54,60,15.8-1.1,2.9-76,44-144,32-53,89-67.4,85-64-20,17-36.2,58.6-42,87-7,34,16.3-37.7,50-47,69-19,40-121,38-139-1.8-15.9,84,124,22,237-7.8,14.2-32.4,24.8-56,70-23,44-81.5,59.5-114,54-23.7-4-21-20.4-59-37-45.1-19.7-74.4-7.9-80-22C368.13,396.45,405.23,354.15,433.23,359.25Z"/><path class="cls-4" d="M338.23,334.25c-146,43-102-22.5-117-39-39.4-43.1-7.6-62-49-147-13.4-27.4-66.8-115.3-60-92,22,75-40.5,140.1-39,195,1,36,128.2,152,210,142C348.23,385.35,335.63,340.85,338.23,334.25Z"/><path class="cls-5" d="M316.23,340.25c-.9-5-34,20-73,15-50.9-6.5-60-3.2-81-22-19-17-37.3-70.7-40-71-3.3-.3,3.1,63.3-27,77-22,10-59-26-59-26,3,31,7.9,48.7,46,70,35.8,20,156.9-35.6,169-4,27.1,70.7-41.3,74.2-31,69C230.93,443,319.43,358.65,316.23,340.25Z"/><path class="cls-5" d="M425.23,380.25c-.8.1-11.1,17.5-11.8,19-1.8,3.9-17.1,12.6-11.2,14,52,12,89.5,55.8,105,61,54.6,18.3,111.8-10.8,112.2-9.2a43.66,43.66,0,0,0,.8-4.8c-10.3,6.8-69.7-5-70-12-.4-7.9,64-35,110-29l-45-21a15.57,15.57,0,0,1-7.7-11.8c-3.4-33.9,53.1-90.6,46.6-89.2-120,27-128.4,143.1-158,138C461.23,429.25,438.23,378.25,425.23,380.25Z"/></g><g id="Слой_2" data-name="Слой 2"><path class="cls-6" d="M423.23,502.25c-35.9-41.4-90-70.3-156-68-65.8,2.3-141.8,35.9-182,90-32.4,43.5-28.8,99.6-28,112,2.1,33.7,13.5,62.6,17,62,5.1-.9-19-62.2,8-115,27.7-54.2,94.3-70.4,109-74,18.4-4.5,50.5-12.3,86,1,41.2,15.5,66.1,41.7,58,63-5.6,14.6-17.5,26-19,36-2.9,19,74.8,66.2,113,42C465.13,628.55,461.23,546.15,423.23,502.25Z"/><path class="cls-7" d="M282.23,117.25c30.5-29.7,89.3-19.7,124-3,60.7,29.2,80.6,93.4,81,145,.5,59.5-26.5,107.3-34,117-25.7,33.5-53.1,44.1-130,116-12,11.3-27.8,26.4-26,45,2,20.8,25.2,40.1,38,36,13.2-4.3,5.6-30.3,23-44,18.9-14.9,53.3-5.2,73,10,10,7.7,32,70,17,98-18.8,35.2-51.4,56.9-95,66-63.9,13.3-153-10.6-191-86-33.4-66.3-14.5-147,27-188,43.1-42.6,49-44,79-75,18-18.6,50-42,7-86C252.23,244.75,244.23,154.25,282.23,117.25Z"/><path class="cls-6" d="M93.23,241.25c2.7-14.7,12.4-19.4,36-45,34.6-37.5,28.4-46.1,54-62,22.4-13.9,37.3-8.8,57-27,14.4-13.3,10.3-19.5,23-31,22-19.9,42-8.1,72-22,39.1-18.1,47.5-57.8,57-54,8.5,3.4,10.3,38.7-7,65-19.3,29.3-46.8,23.7-57,49-8.3,20.5-13.6,67,6,68,38,2,48.5,2.3,48,15-.3,6.5-22.1,26-28,29-26.9,13.8-22.3,0-35,11s2.4,32.2-10,53c-9.2,15.5-47.7,23.8-70,25-36,2-70,2-111-5C124.53,309.65,87.73,271.55,93.23,241.25Z"/><path class="cls-6" d="M444.23,297.25c-8.9-5.3.2-25.8-8-31-17.8-11.4-73.9,77.5-124,66-7.9-1.8-13.4-5.6-18.7-8.7-5.5,12.3-16.9,22-25.3,30.7-9.2,9.5-16.2,16.3-22.6,22.3,14.3,22.2,53.9,38.3,82.6,43.8,28.3,5.3,59.2,2.7,87.5-7.1,15.3-12.5,26.6-22.6,37.5-36.9,6.9-9,30.5-50.6,33.7-103.9C471.63,284.15,453.73,302.85,444.23,297.25Z"/><path class="cls-6" d="M330.83,573.75c-8.8-.4-20.2-8.4-27.2-19.2-2.6,9.2-2,23.7-3.4,24.7-3.9,2.8-29-33-29.9-6.8-.6,18.3.1,45,8.9,54.8,2,2.3-33,5.4-72,3-25.4-1.5-41.7-21.7-53.3-32.7a152.63,152.63,0,0,0,8.3,19.7c30.4,60.2,93.3,87.6,150,89.4a75.38,75.38,0,0,0,20-22.4c14.2-24.5,9.8-50.4,5-79C335.73,596.35,334,584.55,330.83,573.75Z"/></g><path class="cls-8" d="M231.23,154.25c0,12.4-6,18-15,21-7.1,2.4-20,3.8-20-7s9-23,18-23C221.73,145.25,231.23,145.25,231.23,154.25Z"/><path class="cls-9" d="M133.23,237.25c-1.4-.4-8-8,1-16,6.8-6.1,19.7-5.3,20-4,.2,1-5.9,1.5-12,7C135.43,230.45,134.53,237.55,133.23,237.25Z"/><path class="cls-2" d="M392.23.25c-2.2-.9-3.5,42.9-18,57-12.7,12.3-24.1,4.3-54,21-12.4,6.9-34.8,19.4-33,33,1.4,10.5,17.1,19.9,30,19a19.38,19.38,0,0,0,6.7-1.6,95.83,95.83,0,0,1,4.3-14.4c10.2-25.3,37.7-19.7,57-49C402.53,39,400.73,3.65,392.23.25Z"/><path class="cls-10" d="M201,162.15c.4,1.4,5.2,3.2,9.1,0,4.1-3.3,1.3-9.1,0-9.5C205,150.75,199.13,155.75,201,162.15Z"/><path class="cls-11" d="M108.83,287.85a20.59,20.59,0,0,1,10.6-6.7,108.92,108.92,0,0,1,11.4-2.1,94.9,94.9,0,0,0,10.6-2.2,37.46,37.46,0,0,0,9.7-4c3.5-2.4,6.1-3.7,8.7-7,1.2-1.5-.9-3.6-2.1-2.1-2.3,2.9-4.6,3.9-7.5,6.1a31.61,31.61,0,0,1-9.4,4.1c-7.1,2.1-14.7,2.3-21.8,4.2a23,23,0,0,0-12.3,7.6c-1.3,1.4.9,3.6,2.1,2.1Z"/><path class="cls-2" d="M334.23,182.25a10.34,10.34,0,0,1-6.6-2.7,45.33,45.33,0,0,0-5.4,2.7c-5.4,3-22.6,18.6-22,34,.4,9.2,9.8,15.3,22.1,18.5,9-6.2,7.5,3.9,31.9-8.5,5.9-3,27.7-22.5,28-29C382.73,184.55,372.23,184.25,334.23,182.25Z"/></g></g></svg>