<svg xmlns="http://www.w3.org/2000/svg" viewBox="0 0 2018.5 2090.3"><defs><style>.cls-1{fill:#14a085;}.cls-2{fill:#46b29d;}.cls-3{fill:#42806d;}.cls-4{fill:#7ecf9d;}.cls-5{fill:#72c285;}.cls-6{fill:#72c286;}.cls-7{fill:#4c8056;}.cls-8{fill:#ecf0f1;}.cls-9{fill:#fff;}</style></defs><g id="Layer_2" data-name="Layer 2"><g id="Слой_1" data-name="Слой 1"><path class="cls-1" d="M689.9,1081.49c-3.7-1.9-5.5-3.1-7.4-3.8-17-6.8-34.2-13.2-51-20.3-61.6-26.3-125.6-45.3-190.8-59.6-52.5-11.5-105.6-13.2-159-2.9-57.7,11.2-112.9,29.6-166.9,52.3-22.5,9.4-45.3,18.2-68.1,26.7-11.3,4.2-22.8,5-33.7-1.9-9.9-6.2-12.9-12-9-22.9a61.73,61.73,0,0,1,11.4-19.5c7.5-8.6,16.7-15.7,24.4-24.1,17.5-19.1,34.3-38.9,51.9-57.9,34.2-36.8,74.2-66.4,117.2-92.2,36.1-21.6,73.3-41.1,113.9-52.6,31.4-8.9,63.5-13.6,96.1-15.5,40.1-2.4,79.7.6,119.4,5.4,1.2.1,2.5.3,3.8.3.4,0,.7-.6,2-1.7-3.2-2.8-6.3-5.6-9.4-8.4-31.6-28.4-60.1-59.6-79.8-97.6-20.6-39.7-28.5-81.5-13.7-125.2,9-26.6,26.4-47.4,48.2-64.5,29.6-23.2,62.8-38.7,100.1-43.8,46.4-6.4,87.3,8.2,122.4,37.6,37.3,31.1,67.8,68.4,86.6,113.7,13.7,32.8,27.1,65.9,37.1,99.9,18.3,61.8,34.4,124.3,50.3,186.8,4,15.6,4.3,32.1,5.6,48.3.5,6.5,2.1,11.5,7.1,16,21.1,18.7,41.2,38.6,66.3,52.3,23.6,12.9,49,19.2,75.7,21.4,81.7,6.7,158-15.2,233.3-43.2,21.2-7.9,37.9-20.1,53.1-36.6,31.6-34.3,57.4-72.5,81.3-112.2,28.2-46.8,62.7-87.4,109.7-116.7,55.8-34.9,114.2-63.1,178.5-78.6,23.2-5.6,46.2-11.3,70.3-11.5,3.5,0,7.2-.4,10.5.4a273.6,273.6,0,0,1,101.1,46.5c24.5,18.2,35,44.1,33.1,74.8-2.1,34.8-16.8,62.3-48.2,78.5-9.2,4.7-21,4.6-31.7,6.5-4,.7-5.4-1.7-6.5-5.5-6.8-24.9-19.1-31.5-43.8-23.3-24.9,8.2-45.4,24.2-64.8,40.8-60.1,51.4-113.7,109.2-163.5,170.5-16.4,20.2-36.6,35.9-56.2,52.5-10.8,9.2-22.2,17.8-33.9,25.9-11.9,8.2-25.2,12.1-39.8,7.9-4.5-1.3-6.5,1-7.7,5-3.8,11.9-.2,23.9,9.5,32.4,11.6,10.2,26.3,11.3,40.5,13.9,7.7,1.4,15.3,3.7,23.1,4.4,16.1,1.4,32.6,4.2,48.5,2.6,41.9-4.3,84-8.4,125.2-16.8,34.4-7,67.8-19.6,101.4-30.3,23.5-7.5,44.5-20.1,64.5-34.2,43-30.4,74.5-71,100.7-116.1.3-.4.4-.9.7-1.4,7.4-10.6,10.8-21.9,9-35.1-.8-5.9.3-12.2,1.5-18.1,3.6-17.1,18.1-25.2,34.7-19.3,15.7,5.6,26.1,17.2,33.4,31.8,8.5,17.1,9.8,35.7,10.2,54.3a292.92,292.92,0,0,1-25.4,126.7c-14.6,33-25.6,67.6-42,99.6-26.8,52.5-63.6,97.3-112.8,131.1-16.4,11.3-35.3,15.8-53.9,20.5-31.7,8.1-63.6,16.7-96,20.6-33.1,4-66.9,3.2-100.4,3.3-43.9.1-86.9-8.6-130-15.4a45.78,45.78,0,0,0-5.3-.3c-21.6-1.3-27,10.6-21.4,31.4,6,22.4,20.3,39.7,35.8,56,48.9,51.6,103.8,95.5,169.1,124.6,18.6,8.3,40,11,60.4,14.8,38.8,7.3,77.7,6.6,116.7-.5,19.3-3.5,37.4-.2,51.9,15,10.4,10.9,9.8,24.2,7.7,37.2-.7,4.5-6.3,8.3-9.8,12.4-30,34.6-67.7,58-109.7,75.2-33.4,13.7-67.9,23.5-103.4,28.3-19,2.6-38.6,1.3-57.9.6-18-.6-36-2.5-53.9-4.1-40.5-3.7-80.9-7.1-119.8-20.7-21.7-7.6-44.4-12.6-66.1-20.5-14-5.1-27.4-12.3-40.2-20.1-33.7-20.7-68.8-39.7-95.3-70.4-37.3-43.1-71.2-88.5-90.1-143-5.1-14.7-6.1-30.8-9.3-46.1-4.8-23.1-9.9-46.1-14.9-69.2-.2-.9-1-1.6-4.4-4.9-.9,2.1-1.3,4.5-2.6,6.4-7.5,10.9-14.7,22-16.4,35.6a7.54,7.54,0,0,1-.9,2.9c-14.2,29.4-8.8,59.2-3.1,89.5,5.5,29.4,11,59.1,13,88.9,2.1,30.6-.1,61.4-.2,92.2a360.69,360.69,0,0,1-9.7,80.8c-14.5,61.4-42.4,116.4-80.5,166.2-38.3,50-83.5,93-134,130.5-22,16.3-46.8,26.4-72.3,35.3-1.9.7-6.3-1.1-7.3-2.9-6.9-12.7-13.4-25.7-19.5-38.8-1.2-2.6-.3-6.4.5-9.5,9.3-34.1,19.5-67.9,27.9-102.1,11.8-48.3,18.1-97.3,17.9-147.2-.2-41.2-6.1-81.6-16.1-121.3-12.5-50-27.2-99.5-39.1-149.6-6.2-26-10.5-52.9-11.5-79.6-.8-21,4.1-42.3,7.5-63.3,1.1-6.5,5.7-12.4,8.2-18.8,3-7.5,4-15.1-.5-22.7-5.4-9-11.7-10.9-20.1-4.7-7.9,5.9-15.8,12-22.7,19.1-14.5,14.9-28.3,30.5-42.4,45.8-25.1,27.2-40.3,59.4-49.3,95.1-4.2,16.7-9.9,33.1-15.7,49.4-7.2,20.2-8.9,41.1-9.1,62.3-.1,6.7,4.6,9.2,9.7,9.8a251.45,251.45,0,0,0,28.8,1.6c6.9.1,11.5-3.1,13.9-10.4,3.8-11.9,6.4-12.4,15.1-3.9,16.5,16.2,28.1,35.9,25.4,59-4.1,34.9-22.3,66.2-61.6,72.4-39.1,6.2-75-2-108.4-20.7-80.7-45.1-130-114.6-152.1-203.4-9-36.3-3.8-72.7,6-108.4,15.1-55,43.7-102.6,79.2-146.5,12.1-15,22.6-31.3,34.5-46.5,23.2-29.6,53.4-50.6,85.8-68.8A709.73,709.73,0,0,1,681,1086C683.3,1084.79,685.6,1083.49,689.9,1081.49Z"/><path class="cls-2" d="M1041.9,1391.69c-5.1,7.2-9.7,13.3-13.8,19.6-15.4,23.6-19.1,49.8-17.2,77.3,2.1,30.4,11.2,59.2,19.3,88.3,2.6,9.2,2.6,19.1,3.4,28.6,4.2,50.3,5,100.6-4,150.5-5.7,31.6-17.3,61.3-31.4,90.3a1228.16,1228.16,0,0,1-72.2,128c-6.1,9.5-9.2,21.1-13.4,31.8-3.9,9.8-10.7,16.9-18.9,23.3-21.5,16.6-42.1,34.6-67.3,45.8-11.6,5.2-23.6,9.3-35.3,14.1-4.7,1.9-7.8,1.4-10.3-3.8-6.3-13-13.4-25.7-19.4-38.8-1.4-3.1-.3-7.8.8-11.5,8-28.9,17.1-57.5,24.4-86.5,16.7-66.5,25.6-133.8,19-202.5-4.5-47-16.1-92.5-28.1-138-9.6-36.6-20.1-73-29.2-109.7-9.8-39.8-10.7-80-.9-120.1,1.7-7.1,5.1-13.7,8-20.5,5-11.9,5.9-23.2-5-32.6a158,158,0,0,1,54.5-59.7C866.8,1339.59,944.5,1383.59,1041.9,1391.69Z"/><path class="cls-2" d="M1138.7,1390.39c21.3-5.5,42.5-10.4,63.3-16.7,26.8-8.1,50.3-22.5,72.6-39.4,21.3-16.1,43.4-31.1,65-46.6,4.5-3.2,8.7-6.9,14.4-11.5,10.2,10.3,21.6,19.5,30.2,30.9,13.5,17.7,25.1,36.9,37.5,55.5,6.4,9.6,6.9,20.9,9.4,31.7,5.1,22.5,19.7,39.4,34.9,55.5,47.7,50.6,101.5,93.5,164.9,122.7,19.2,8.9,41.3,11.9,62.4,16.1,39.1,7.8,78.2,7.2,117.5-.1,18.9-3.5,37.1-.5,51.8,13.6,9.1,8.7,11.7,19.2,11.5,31.8s-7.5,17.8-17,22c-40,17.9-82,28.1-125.3,33.8a673.8,673.8,0,0,1-135.4,4.3c-82-5.6-160.3-24.6-233.4-63.5-17.8-9.5-37.9-14.6-56.2-23.3-20.2-9.5-39.8-20.3-59.1-31.5-50.5-29.1-79-75.4-98.6-128.4-4.8-12.9-8.8-25.9-8.4-39.9C1140.8,1401.59,1139.4,1395.79,1138.7,1390.39Z"/><path class="cls-2" d="M633.7,1728.09c-24.7,5.6-48.1,3.7-71.3-2.8-42.3-12-77.2-36.2-108.1-66.4-41.7-40.7-69.6-90.1-84.8-146.1-13.6-50.3-4.3-99.4,13.5-147.3,13.2-35.6,32.2-68,54.8-98.3,13.5-18.1,27.7-35.8,40.7-54.3,23.9-34.2,55.5-59.6,91.8-78.8,32.1-16.9,65.6-31.2,98.7-46.1,5.9-2.6,13.2-2.4,19.9-3.1,5.7-.6,11.5-.8,16.8-1.1-2,52.1,27.2,91.2,54.9,131,4,5.8,8.7,11.2,13.3,17.1-12.4,8.9-24.4,17.7-36.5,26.4q-89.55,64.35-137.8,163.3c-16.9,34.6-29.4,70.7-35.6,108.9-2.2,13.4-7.6,26.3-11.1,39.5a135,135,0,0,0,.1,69.4c10.3,39.2,36.8,64.6,71.4,83,2.7,1.4,5.5,2.7,8.2,4.1C632.7,1726.59,632.8,1726.89,633.7,1728.09Z"/><path class="cls-2" d="M741.5,1056c-7.7,0-16,.3-24.3-.1-15.9-.7-32.1-.2-47.6-3.3-11.6-2.3-22.8-8.5-33.4-14.4-48-26.6-97.2-50.7-149-69.1-44-15.7-89.5-20.2-135.8-18.5-61.1,2.3-120,17-178.6,32.9q-39.6,10.8-79.1,22.3a27.1,27.1,0,0,0-10.3,6.1c-15.8,14.7-31.3,29.8-47,44.6a194.63,194.63,0,0,1-16.2,13.9c-7.6,5.7-17.4,1.8-19.4-7.8-2.7-12.5,1.6-23.3,10.1-32.1,11.6-12.1,23.8-23.6,35.7-35.4a88.23,88.23,0,0,0,7.9-8.3c50.9-67,117-115,190.5-154.3,68.4-36.5,141.4-49.9,218-47.5,22.6.7,45.1,4.1,67.6,5.3,31.7,1.6,60,14.2,88,26.9,42.5,19.3,84.4,40.2,126.3,60.8,14.2,7,27.3,15.6,37.5,28.2,3.3,4.1,3.4,7.5,1.6,12.5-12.6,34-25.3,68-36.9,102.3C743.6,1031,743.5,1042.29,741.5,1056Z"/><path class="cls-2" d="M870.3,829.29c-16.7,0-33.5.8-50.1-.2-42.6-2.4-83.7-12.1-123.9-26.3-8.6-3-18.6-1.6-27.8-3.1-70.9-11.4-136.2-35.9-193.1-81-11.2-8.9-17.5-21.1-23.7-33.2-17.1-33.1-24.8-68.1-18.7-105.5,4.3-26.5,16.7-49,35.1-68.1,32.7-34,72.8-54.6,119.1-61.6,44.4-6.7,84.8,6.3,119.1,34,31.5,25.4,58.8,55.3,78.5,91.5a582.36,582.36,0,0,1,48,116.8c12.8,44.4,24.6,89.1,36.9,133.7A18,18,0,0,1,870.3,829.29Z"/><path class="cls-2" d="M1369.9,1261.79c22.7-26.5,40.2-54.2,56.5-82.6,4.5-7.9,9.4-15.7,13.7-23.7,2.4-4.4,5.1-5,9.8-4.1,19.9,3.7,40,9.8,60,9.7,30.6-.2,61.3-4.1,91.8-7.6,22.9-2.6,46.3-4.8,68.4-10.9,47.2-13,95-25,137.7-50.5,51.5-30.8,87.9-75.6,117.8-126.4,1.5-2.6,2.7-5.5,4.4-8,4.8-7.3,6.3-14.8,5.4-23.8-.9-8.2.2-16.8,2-24.9,3.8-17.8,21.2-25.8,38.9-17.9,19.1,8.5,31.3,23.9,36.3,43.7a214.46,214.46,0,0,1,5.8,45.9c1.3,49-11.1,95-31.9,139.2a132,132,0,0,1-23.2,34.3c-83.2,88.8-185.2,141.6-305.4,159.5-47.9,7.1-95.4,5.5-143.3-3.2-37.9-6.9-75.1-15.1-110.2-31.1C1392.7,1274,1381.6,1267.79,1369.9,1261.79Z"/><path class="cls-2" d="M1331.2,940.09c9-11,17.8-20.3,24.9-30.7q25.35-36.75,49.3-74.3c25.3-40,53-77.8,92.7-105.1,11.1-7.6,22.6-14.7,34-21.9a534.14,534.14,0,0,1,140.5-63.4c30.8-8.8,61.8-16.8,94-17.5,7.5-.2,15.1,1.7,22.4,3.6,28.8,7.6,55.2,21.2,80,36.9,40,25.4,53.6,71.9,35.6,115.8a74.07,74.07,0,0,1-3.4,7c-7.5-6.4-14.6-12.1-21.4-18.2-15.3-13.9-33-15.8-52.5-12-39,7.5-72.6,26.7-106.3,46.3-25.5,14.8-47.8,33.5-70.3,52.3-6.6,5.5-14.4,9.5-21.7,14-10.3,6.3-21.2,11.9-31.1,18.9-38,27.2-79.3,46.2-125.7,53.4-30.8,4.8-61.8,4.6-92.8,1.4C1363.8,945.19,1348.1,942.49,1331.2,940.09Z"/><path class="cls-2" d="M600.4,1605.19c14,3.7,27.5,5.3,41.1,2.8,2.3-.4,4.8-3.2,6.1-5.6,2.8-4.7,4.9-9.8,7.5-15.3,12,5.4,19.1,14.7,24.8,24.2s8.7,20.4,12.2,31c.9,2.6,0,7.5-1.9,8.9-15,10.9-29.8,22.2-50.2,20.1C608.2,1668.09,586.9,1632.89,600.4,1605.19Z"/><path class="cls-3" d="M1027.4,1683.29c-3.7,11.5-6,23.6-11.3,34.2-14.6,29.1-35.5,53.8-62.7,71.5-22.4,14.6-46.7,27.1-74.9,26.7-28-.4-52.1-22.9-52.8-50.9-.3-10.9.7-23,5.2-32.6,14.4-31,32.5-59.8,59.8-81.7,14.2-11.4,29.8-19.1,48.2-20.8,6.2-.6,12.3-3.2,18.5-4.5,37.2-7.4,69,19.5,67.9,57.2A6.35,6.35,0,0,0,1027.4,1683.29Z"/><path class="cls-3" d="M740,1435.69c3-19.6,4.7-41.3,9.7-62.2,9.1-37.8,53.7-49.4,82.1-22.5,16.1,15.3,31.3,31.3,39.4,52.6,10.2,26.7,14.6,53.7,3.6,81.6-19,48.2-70.3,52.2-101,32.1-8.5-5.6-15.5-13.7-22.8-21a15,15,0,0,1-3.6-8.1C744.8,1471.39,742.6,1454.59,740,1435.69Z"/><path class="cls-3" d="M1251.4,1423.09c0-41.7,35.6-67.4,79.4-55.9,40.3,10.6,80,54.5,83.8,95.9,5,54.1-40.9,81.8-81.6,70.7-31.5-8.6-51.4-30.8-66.6-57.9C1257.4,1460,1250.9,1443.19,1251.4,1423.09Z"/><path class="cls-3" d="M452.2,1253.19c32.7-58.2,79.2-100.5,138.4-129,2.8-1.3,6.7-2.7,9.3-1.7,25.5,9.4,46,24.6,53.7,52,6.7,23.7.2,44.7-16.7,62.5-18.3,19.3-42,28.2-67,34.1-26.7,6.3-53.7,8.4-80.8,2.6C474.5,1270.49,461.1,1264.69,452.2,1253.19Z"/><path class="cls-3" d="M1573.7,1278.39c-19.1-.4-39.4-5.3-56.2-20.5-8.6-7.7-18.4-14.2-26.5-22.4-12.5-12.7-16.1-54.2-4.5-70,1.5-2.1,5.2-4.1,7.6-3.9,39.1,3.9,77.5-1.8,115.8-8.5,16-2.8,32.1-4.6,48.3-6.4,2-.2,5,2.1,6.4,4,7.6,10.4,10.9,22.3,10.5,35.1a249.15,249.15,0,0,1-2.1,25.8c-3,21.7-15.4,37.1-33.6,48.4C1620.4,1271.79,1599.3,1277.79,1573.7,1278.39Z"/><path class="cls-3" d="M345.8,841.79c-.7,7.8-.7,15.8-2.3,23.5a51.77,51.77,0,0,1-22.9,33.9c-18.1,12.1-36.6,23.4-58.7,27.6s-43.9,11-66.8,9.4c-21.5-1.5-40.9-7.3-55.6-24.3-3.6-4.2-4.4-7.1.7-11,53.9-41.1,111.3-75.8,176-97.2,16.3-5.4,19.5-3.8,25.7,12.6a47.23,47.23,0,0,1,3,11c.5,4.8.1,9.6.1,14.5Z"/><path class="cls-3" d="M431.8,1477.39a91,91,0,0,1,24.4-64.7c16.2-17.3,37-25.6,60.8-24.9,14,.4,25.5,10.8,28.5,24.4,2.8,12.5,1.1,24.6-2.5,36.8-6.1,20.7-12.1,41.4-17.3,62.4-7.9,32.4-43.1,45.1-69.2,24.5C439.2,1522.09,431.6,1505.79,431.8,1477.39Z"/><path class="cls-3" d="M1901.7,1006.09c19.3,9.8,29.1,31.3,23.5,53.1-9.3,36.3-29.4,65.9-59,88.4-26,19.8-60.9,11.2-73.5-16.9a43.86,43.86,0,0,1-2.7-8.7c-3.4-15.5-2.8-17.2,10.9-24.8,37.4-20.7,67.7-49.2,93.4-83,1.8-2.4,3.8-4.8,5.7-7.2C1900.3,1006.79,1900.9,1006.59,1901.7,1006.09Z"/><path class="cls-3" d="M814,2079.49c-4.8-15.3-4.1-30-3-44.7.9-11.1,2.2-22.3,4-33.3a130.19,130.19,0,0,1,5.7-20.3c7.4-21.7,25.1-27.9,45.5-29,31.1-1.8,52.2,19.9,50.2,51.4-.2,2.8-1.3,6.3-3.3,8-27.4,23.1-54.1,47.2-86.8,62.9C822.4,2076.19,818.4,2077.69,814,2079.49Z"/><path class="cls-3" d="M1778.2,1597.49c-8.4,5.1-16.3,11.5-25.3,14.9-22.2,8.5-44,18.6-68.2,20.8-6.1.6-12.1.8-18.2,1-17.2.6-34.5,2.3-51.6,1.4-18.7-1-31.4-12.3-38.1-29.6s-2.3-32.8,8.9-46.9c3.7-4.6,7.4-5.9,12.8-2.2,36.7,25,79.1,31.8,121.9,36.5,17.3,1.9,35,1,52.5,1.4,1.4,0,2.9.2,4.3.3C1777.6,1596,1777.9,1596.79,1778.2,1597.49Z"/><path class="cls-3" d="M472.7,570.49c-8.2-2.4-16.6-4.2-24.4-7.5-9.2-3.8-9.2-4.8-4.9-13.6,11.1-23.2,27.2-42.6,48.2-57,15.6-10.7,32.9-19,49.5-28.3,4.6-2.6,8.5-1.3,12.7,1.5,28.8,19.5,26.4,64.1-5,82.5C525.5,561.69,500.1,568.29,472.7,570.49Z"/><path class="cls-3" d="M562,941.19c-7.7-2.4-16.1-3.4-22.8-7.5-13.4-8.1-26.7-16.8-38.5-27-16.6-14.4-18.9-33.6-12.6-53.7,1.2-3.9,5.8-7.8,9.9-9.6,14.9-6.8,29.9-9,46.3-2.3,21,8.5,39.8,18.9,51.7,39.1,13.3,22.6,3,51.1-21.4,58.2-3.8,1.1-8,1.3-12,1.9A2.36,2.36,0,0,0,562,941.19Z"/><path class="cls-3" d="M1903.5,710.29c-19.5,15.1-40.4,19.1-63.6,12.3-15.1-4.4-29.9-9.1-44.1-16.5-8.6-4.5-17.9-6.8-22.5-16.3-5.3-10.9-6.8-21.7,1.2-32.2,5.1-6.6,9.7-13.7,15.2-20,1.7-1.9,6.2-3.4,8.5-2.6,29.3,10.5,57.6,23.1,82.1,42.6C1892,686.89,1900.1,699.39,1903.5,710.29Z"/><path class="cls-4" d="M1666.7,616.89c.8,100.8-24,193.4-65.1,282-40,86.2-92.6,164.2-155.8,235.1-54.8,61.5-115.4,116-186.3,158.6-42.6,25.6-87.4,45.7-136.5,55-86.3,16.4-164.4-2.9-235-54.3-48.7-35.4-87.6-80.3-123.2-128.2-94.4-127-159.3-267.9-196.5-421.6-11.1-45.7-17.8-92.2-21.2-139.2a716.51,716.51,0,0,1,.8-117.2c5.5-63.3,23-123.6,49.3-181.5,29.1-64,70.6-118.6,122.4-165.8,34.4-31.4,73.4-56.3,114-78.8,48.6-27,100.1-46,154.9-56.2,15.8-2.9,31.8-2.8,47.8-4.3,22.4-2,44.6,2.9,66.9,1.6,17-.9,34-1.4,50.9-1.2,49.9.6,97.9,11.5,143.6,30.9,69.2,29.5,127.3,74.3,178.2,129.5,38.3,41.5,72,86.2,100.5,134.9,43.7,74.5,73.1,154.2,85.1,239.9C1665.2,563.69,1667.7,591.39,1666.7,616.89Z"/><path class="cls-5" d="M1067.1,1356.59c-79.2-.6-144.5-28.3-201.8-76.7-46.9-39.5-85.3-86.6-120.2-136.5A1156,1156,0,0,1,567,747.89,829.18,829.18,0,0,1,544.1,579c-2.4-72.5,5.2-143.5,28.5-212.6,29.5-87.4,76.6-163.5,146.5-224C798.8,73.49,889.2,25,994.1,6.89c14.5-2.5,29.4-1.8,44.1-3,22.7-1.8,45,2.6,67.7,1.2,57.3-3.7,113.6,1.8,168.1,21.3a455.84,455.84,0,0,1,150.5,89.8c97.5,86.8,168.7,191.7,210.4,315.7a594,594,0,0,1,28.7,142.4c8.6,105.8-11.2,206.5-52.6,303.5-40.5,94.9-96.4,180.1-164.7,257.2-53.4,60.3-112.5,114-181.3,156.5-44.9,27.8-92.2,49.7-144.4,59.6A335,335,0,0,1,1067.1,1356.59Zm416.1-487.3c-4-.7-5.4-3.3-7.2-5.3-12.9-14.2-27.2-26.8-43.7-36.6-26.5-15.8-55.4-20.3-85.8-17.6-52.3,4.7-92.5,28.9-119.8,73.7-25.1,41.1-35.1,86.4-33.6,134.2.7,21.2,4.3,42.1,16,60.5,7.9,12.4,16.4,24.5,25,36.4a108,108,0,0,0,52.7,38.8c43.5,15.1,81.4,1.9,116-25,11.2-8.7,17.6-21.8,27.2-31.7,21.5-22.3,37.5-47.9,50.4-75.8,4.4-9.5,6.1-19.9,11.6-29,35.1-58.6,67.4-118.6,89.6-183.3,17.4-50.7,37.4-100.5,41.7-155.2,3.4-43.5,2.7-86.4-6.6-128.8-12.3-56.5-32.1-110.8-54.7-163.9-19.7-46.3-46.4-88.3-81.8-124.2a565.6,565.6,0,0,0-170.4-119.1c-38-17.2-77.4-29.2-118.9-34.5-13.1-1.7-26.6-.9-39.3-4.6-34.7-10-70.1-11.2-105.8-10.3-9.4.2-18.6,2.6-28.1,1.6a118.22,118.22,0,0,0-43.1,3.8q-169.8,44.85-282.4,179.7c-28.4,34.1-52.5,71.1-68.7,113-4.7,12.2-5.4,25.3-9.9,37.5A485.44,485.44,0,0,0,589.8,498c-2,13.5.3,27.1-1.8,40.3-5.4,34-8.4,68-5.5,102.4s6.5,68.8,14.5,102.5a591.51,591.51,0,0,0,39.1,112.9c19.1,41,36.1,83,58.6,122.4,11.4,19.9,25.7,37.9,37.4,57.5a423.15,423.15,0,0,0,69.7,87.5,90.15,90.15,0,0,0,42.9,23.6c13.5,3.1,26.1,3.2,40.3-1.7,27.3-9.3,49.5-23.9,65.2-47.5,33.9-51,43.1-107.1,28.9-166.2-9.8-40.9-31.5-74.8-68.1-97.5-13.6-8.5-29-13.3-43.2-20.8-24.8-13.3-50.7-16.2-77.9-5.6-26.1,10.2-52.5,19.4-74.5,37.7-2,1.7-4.7,4.2-7.4,2.8-3.2-1.8-1.4-5.5-1.4-8.4a8.73,8.73,0,0,1,.5-2.2c6.9-27.7,23.1-48.7,47.8-62.2,31-16.9,64.5-21.4,99.7-18.5,46,3.8,86,20.2,118.4,53,50.7,51.4,69.5,114.5,65.3,185.4-.3,5.4.5,6.5,5.7,6.1,21.6-1.9,43.2-.2,64.8.1,3.1,0,6.1-.1,9.2.2,4.5.3,6.1-1.5,6.3-6.1,1.4-32.5,8.6-63.9,20.1-94.2,27.3-71.6,75.3-122.1,149.8-145.2,67.8-21,130.1,5.3,166.7,54.6C1473.8,827.59,1482.4,846.69,1483.2,869.29ZM1099.1,1312c30.4,1.8,54-10.2,76-26,7.3-5.3,11.3-12.9,12-22.1.3-4.3-.9-6.5-5.7-6.7a207.7,207.7,0,0,1-25-2.7c-13.9-2.5-26.4-.5-39.4,6.1-32.4,16.4-65.8,16.1-99.6,3.5-12.6-4.7-24.9-10.3-38.1-13.2-8.2-1.8-15.7-.4-22.4,4.5-3.9,2.8-4.8,6.4-1.3,10.4,2.9,3.3,5.8,6.3,9.9,8.2,8,3.8,16.1,7.6,23.8,12.1C1023.8,1306.49,1061.8,1312.59,1099.1,1312Z"/><path class="cls-5" d="M869.5,659.09c-8.2,0-16.3.1-24.5.1-32.8-1.1-65.6-2.2-98.3-3.1-13.7-.4-27.4-2.2-41.1-1.5-3.6.2-7-1.2-10.3-2.5-24.7-9.9-49.6-19.6-74.1-30a170.5,170.5,0,0,1-35.3-21c-5.3-4-10.2-8.5-12.4-15.1-1.2-3.4-4.1-5.1-6.8-6.9-14.4-9.5-21.3-20.7-20.1-40,2.3-38.6,4.8-77.1,13.2-114.9,9.7-44.1,25.1-86.3,44.4-127.1,2.9-6.2,6.3-7.4,12.5-5.5,9.8,3,17.3,9.4,25.1,15.6,2.8,2.2,5.3,4.7,8.2,6.8,5.3,3.9,7.9,8.4,7.5,15.5-.8,11.8,5.3,21.2,11.9,30.6,26,37,63.6,58.5,102.9,77.6a1373,1373,0,0,0,137.6,58.2c22.2,8,44.9,10.8,67.9,11.8,28.9,1.3,58,2.3,86.9,1.6,93.7-2.3,186.6-10.8,277.5-35.4,17.1-4.6,34.2-9.2,52.6-11-1.2,4.7-4.7,6.4-7.6,8.5-33.5,24.6-71,41.5-109.6,56.2-48.1,18.4-97.4,32.3-148.4,39.4a434.87,434.87,0,0,1-57,4.4c-25.1.1-49.3,6.2-74,9-50.3,5.7-100.7,8.8-151.2,1.6-61.6-8.8-123.2-17.9-184.3-29.6-7.4-1.4-14.8-3.3-22.7-4,8.5,9.3,16.7,18.4,27.7,24.8,29.4,16.8,62.7,21.9,94.6,30.8,61,16.9,123.4,27.4,186.3,34,17.9,1.9,35.9,3.2,53.9,4.8.1.9.2,1.7.3,2.6-11.9-1.5-23.1,2.4-34.5,4.8C935.6,656.49,902.5,657.79,869.5,659.09Z"/><path class="cls-6" d="M1243.8,577.19c18.8-7.3,37.4-14.6,56-21.8,60.2-23.1,117.2-52.6,173.4-84,33.7-18.8,68.5-35.8,100.5-57.7,13.2-9.1,26.1-18.5,37.7-29.7,6.2-6,6.3-5.8,9.7,2.4,11,26.8,20.6,54.1,27.6,82.3,1.2,4.7.8,8-2.7,11.7-27.9,29.7-61.2,51.9-97.8,69.2-12.1,5.7-26,4.2-39.1,5.2-53.4,4.2-106.9,6.9-160.2,12.7-31.5,3.4-63,7.1-94.6,10.3C1251.1,578.19,1247.3,582.09,1243.8,577.19Z"/><path class="cls-7" d="M1322.7,1126.29c-37,.8-66.5-13.1-85.5-45-13.2-22.2-17-47.8-14.2-73,6.1-53.2,31.3-96.6,73.5-129.8,11.5-9.1,24.9-14.8,39.3-17.7,15.9-3.2,31.7-7.8,47.7-8.9,49.9-3.6,91.7,32.1,97.9,81.9,5.2,42.4-8.2,79.7-31.4,114.2a207.52,207.52,0,0,1-43.2,47C1382.1,1114.49,1353.8,1124.09,1322.7,1126.29Z"/><path class="cls-7" d="M715,931.49c.9-8.8,2-18.6,3-28.5,2.2-20.2,12.9-35.7,28.2-48,22.9-18.3,49.3-28.9,78.9-27.4,66.5,3.4,116.2,56.1,126.1,108.9,5.9,31.2,11.2,62.8,1.6,94.2-10.3,33.8-29.5,60.2-63.9,72.7-21,7.6-42.5,7-62.3-2.7-59.2-28.7-98.2-73.7-108.9-140.2C716.2,951.49,716,942,715,931.49Z"/><path class="cls-7" d="M1197.3,1246.69c-18.8,20.6-41.3,32.6-67.7,35.2-17.3,1.8-35,1.5-52.5.9-24.9-.9-49.6-4-73.4-12.1a148.52,148.52,0,0,1-28.8-13.6c-5.3-3.1-9.1-8.8-12.8-14.5C1040.8,1247.79,1118.7,1252.19,1197.3,1246.69Z"/><path class="cls-8" d="M1143.8,59.19c9.6,1.5,18.7,6.3,27.8,10.1,1.4.6,3,4.8,2.4,5.7-12.5,17.6-21.5,38.5-42.5,48.8-2.6,1.3-5.9,2.4-8.6,2.1-49.5-6.6-98-1.2-145.2,14.2a606.48,606.48,0,0,0-59.6,23.1c-8.9,3.9-16.5,4.4-25.5,1.6-20-6.4-19.9-6.1-18.5-26.8.6-9.6,3.2-17.1,12.1-22.8,9.6-6.1,17.9-14.2,26.9-21.2a46.76,46.76,0,0,1,9.2-5.3c51.2-21.5,104.4-33.6,160.2-33.7C1082.6,54.09,1123.6,56,1143.8,59.19Z"/><path class="cls-8" d="M1257.6,87.49c5.9,2,12,3.4,17.6,5.9a163.4,163.4,0,0,1,54.5,40.8c8.1,9.3,7.7,9.6,0,18.8-14.4,17.2-40.2,22.5-59.9,11.7-15.8-8.7-30.9-18.5-46.7-27.2-11.1-6.1-10.5-5.5-8.5-17.9,2.3-14.3,9.2-23.3,23.5-26.6C1244.3,91.59,1250.5,89.49,1257.6,87.49Z"/><path d="M920.1,966.39c-.7,30.7-6.7,52.3-19.5,71.7-31.8,48-98.4,42.8-126.2-9.4-11.5-21.7-21.3-43.7-21.2-68.8a76.41,76.41,0,0,1,13.9-44.1c3.9-5.6,8.7-10.6,13.4-15.6,16.7-17.6,36.6-29.9,61.3-25.8,33.1,5.6,57.4,24.4,69.1,56.6C916,944.69,918.3,959.29,920.1,966.39ZM850,918.29c.1-10.4-8.5-18.5-19.3-18.2-12.6.3-29.7,15.8-31.2,28.3A18.11,18.11,0,0,0,813.8,948C833.3,951.69,849.9,938,850,918.29Z"/><path d="M1438.5,975.59c-1.1,50.9-17.6,81.7-48.4,104.7-22.2,16.5-47,20.6-72.7,9.4-26.1-11.4-39.6-33-42.9-60.5-3.1-25.7-3.6-51.6,7.2-76.1a77.51,77.51,0,0,1,29.7-34.6c6.1-3.9,13-6.9,19.8-9.7,22.1-9.2,45.2-12.5,65.9,1.1C1424.3,927.79,1439.4,953.89,1438.5,975.59Zm-70-47.9c-10.9-.3-20.4,3-28.3,10.7-8.8,8.5-7.3,22.6,3.2,28.6,15.5,8.9,31,5.5,41-9,4.4-6.3,6-12.9,2.2-20S1376.5,927.59,1368.5,927.69Z"/><path class="cls-9" d="M850,918.29c-.1,19.7-16.7,33.4-36.1,29.7a18,18,0,0,1-14.3-19.6c1.5-12.5,18.6-27.9,31.2-28.3C841.5,899.79,850,907.79,850,918.29Z"/><path class="cls-9" d="M1368.5,927.69c8-.1,14.3,3.2,18.1,10.3s2.2,13.7-2.2,20c-10.1,14.5-25.6,18-41,9-10.5-6-11.9-20.2-3.2-28.6C1348.1,930.69,1357.6,927.39,1368.5,927.69Z"/></g></g></svg>