<svg xmlns="http://www.w3.org/2000/svg" viewBox="0 0 818.97 873.32"><defs><style>.cls-1{fill:#af634b;}.cls-2{fill:#7c2a1d;}.cls-3{fill:#c9805d;}.cls-4{fill:#c6813c;}.cls-5{fill:#d8a35b;}.cls-6{fill:#fff;}</style></defs><g id="Layer_2" data-name="Layer 2"><g id="Layer_1-2" data-name="Layer 1"><g id="Слой_6" data-name="Слой 6"><path class="cls-1" d="M95.46,700c-12-3.26-32-6-54,7-3.18,1.88-17.53,9.13-21,38-2.76,23,9,36.15,14,42,23,26.78,61,33.32,84,35,19.51,1.42,86.83,6.32,100-26,8.43-20.7-8-74.69-26-79-10-2.38-12,21-48,39-19.12,9.56-41.14,9.24-45,9-15.75-1-33-11-38-19-4.33-6.92-2.79-16.56,3-24,7-9,14-12,47-6C117.69,717.12,106.46,703,95.46,700Z"/><path class="cls-2" d="M226.46,64c-11.38,12.78,6.21,31.38,8,38,1.36,5,18,45,27,44,18.05-2,38-8.49,45-27,10.25-27.21-15.73-49.93-17-51C271.45,52.75,240.22,48.53,226.46,64Z"/><path class="cls-2" d="M111.46,264c-3.47-14.69,7.29-32.52,20-34,14.16-1.65,26.62,17.47,28,33,.27,3.05,1.38,15.6-6,21C142.66,291.89,115.91,282.83,111.46,264Z"/></g><g id="Слой_5" data-name="Слой 5"><path class="cls-3" d="M152.46,747c-20.39-52.31,1.92-100,8-113,4.59-9.81,33.58-67.92,97-84,39.31-10,58.1-2.74,68,6,34.48,30.46-17,98.73,18,191,8.08,21.26,32.94,8,25,18-12.72,16-86.89,12-92,21,0,0,25,12,16,26-6.11,9.51-35.4,13.54-57,10C196.79,815.65,165.82,781.26,152.46,747Z"/></g><g id="Слой_4" data-name="Слой 4"><path class="cls-1" d="M398.46,544c10.6-1.07,41.85-5.62,69-31,3.31-3.1,37.05-35.66,37-86s-33.76-83.16-50-99c-39.89-38.91-117.87-79.73-172-47-28,16.93-37.52,46.22-39,51-25.17,81.34,78.09,165.88,87,173A259.34,259.34,0,0,0,398.46,544Z"/><path class="cls-1" d="M452.46,688c6.94,57.28,4,85,8,115,.52,3.87,3.38,19.28,5,29,5,30,99,17.86,101,7,6-32-23-29-24-63-1.05-35.69,18.77-50.51,34-93,17.28-48.23,21.2-121.47-9-139-26.33-15.29-78.67,11.75-103,51C439.61,635.08,449.91,678.34,452.46,688Z"/><path class="cls-3" d="M267.46,361c22-10,173.2,57,226,24,8.59-5.36-13,29.52-7,32,12.65,5.21,14.2,48.88-5,79-17.49,27.44-51.76,43-84,40-60.71-5.6-83.47-74-86-82C306,436.72,258.66,365,267.46,361Z"/><path class="cls-4" d="M521.64,448.12c12.5,11.57,28.5,18.46,44.18,24.58a340.59,340.59,0,0,0,51.72,15.58c10,2.16,20,3.85,30.16,5.13,1.91.24,1.89-2.76,0-3a338.17,338.17,0,0,1-52.05-10.76,297,297,0,0,1-48.84-18.43c-8.28-4.09-16.24-8.93-23-15.22-1.42-1.31-3.55.8-2.13,2.12Z"/><path class="cls-4" d="M520.88,448a100.66,100.66,0,0,0,44.74,33.8A97.41,97.41,0,0,0,581,486.21c1.89.38,2.69-2.51.8-2.89a97.39,97.39,0,0,1-48-25.14,94.85,94.85,0,0,1-10.38-11.74c-1.14-1.53-3.74,0-2.59,1.51Z"/></g><g id="Слой_3" data-name="Слой 3"><path class="cls-3" d="M176.46,535c2.43,5.48,23.83,5.91,54,34,29,27,33.85,25.1,66,41,23.91,11.83,65.77,32.53,78,71,9.58,30.14-5.32,51.38,12,69,10,10.18,24.17,12.43,34,14,4.67.74,30.06,4.79,50-7,24.85-14.69,32-48.5,45-110,6.5-30.76,6.94-44.21,20-56,13.49-12.18,5.63-33.48,32-47,8.5-4.36,26.77-9.86,45-34,7.6-10.06,34.64-18,37-36,7.27-55.41-71.39-117.64-129-100-15,4.59-30.38,15.92-38,37-8.13,22.49-8,43-10,58-2.29,17.21-11.88,25.05-33,34-20.17,8.55-40,10-67,0-10.42-3.86-18.84-15.51-27-33-17.23-36.95-21.83-48.07-37-81-10.68-23.18-16.72-36.31-29-40-36.19-10.88-101.83,67.7-109,139C167.89,513.59,173.78,529,176.46,535Z"/><path class="cls-5" d="M276.46,438c15.61,5.39,11.84,25.93,39,55,20.46,21.9,54.36,39.06,58,33,3-5-6.23-26.85-18-67-9.44-32.2-20.86-70.51,0-99,26.77-36.57,125-5.66,128,20,1,8.13-6-10.14-16,7-20.53,35.25,13,53,0,126-1,5.62,14,3,19-5,22.54-36.06,26.28-60.73,57-78,35.49-19.95,98.85,5.37,106,44,6.29,34-81.58,78.26-111,119-13,18,5,36-13,91-22,67.32-61.59,82.89-75,88-21.87,8.33-65,11-92-1-36.56-16.25,15.89-73.08-12-117-14.13-22.25-35.42-35.83-78-63-57.55-36.72-76.28-35-82-54C174,495.71,244.24,426.87,276.46,438Z"/><path class="cls-5" d="M347.6,377c12.95,6.41,27,9.73,41.18,12.37,15.13,2.84,30.3,5.43,45.46,8.11,8.67,1.53,17.41,3,26.25,2.67,1.93-.06,1.93-3.06,0-3-7.74.26-15.41-.82-23-2.14s-15.23-2.7-22.85-4.06c-14.31-2.54-28.78-4.69-42.85-8.36a118.22,118.22,0,0,1-22.64-8.19c-1.73-.85-3.25,1.74-1.52,2.6Z"/><path class="cls-4" d="M348.45,377.35a1.5,1.5,0,0,0,0-3,1.5,1.5,0,0,0,0,3Z"/><path class="cls-4" d="M349,378.58c3.87,2.71,8.62,4.36,13,6,6.8,2.48,13.76,4.53,20.76,6.39a300.14,300.14,0,0,0,51.58,9.37c4.41.37,8.83.6,13.26.58,2.43,0,4.82-.07,7.24.1,3.25.24,6.44.17,9.36-1.45,3.38-1.88.35-7.06-3-5.18-2,1.13-4.52.76-6.76.6s-4.34-.09-6.52-.07c-3.75,0-7.51-.13-11.25-.4a234.39,234.39,0,0,1-24.79-3.23,301.79,301.79,0,0,1-46-11.69q-2.37-.82-4.71-1.72l-2.05-.82-.49-.2c-.26-.11.59.26,0,0l-.91-.39a32.93,32.93,0,0,1-5.65-3,3,3,0,0,0-3,5.18Z"/><path class="cls-4" d="M523.46,442a90.07,90.07,0,0,0,17,20c6,5.24,17.56,13.91,51,23,20.58,5.6,62,7,62,7C654.46,488.61,629.57,479.51,523.46,442Z"/></g><g id="Слой_8" data-name="Слой 8"><path class="cls-4" d="M387.46,585c8.39-21.76-4-64.37-16-72,0,0,3.74,10.74,2,13-.88,1.15-4,1-4,1,7,13-1.22,66.32-33,89-7.17,5.11-.09,15.42-9.12,15.94,7.79,6.92-.06-5.09,5.12,3.06C335.37,639.58,373.77,620.48,387.46,585Z"/><path class="cls-4" d="M184.46,535c3.29,10.92,10,15.87,26.79,24.39a4.84,4.84,0,0,0,2.56.51c14.65-1.2,34.56-4.49,50.16-18.39,22.46-20,32.23-50.57,31.5-76.5-8-61-10.2-25.28-21-29a20.79,20.79,0,0,0-4-.93C262,451.19,251.83,484.36,222,509.5c-16,13.5-26.79,15.47-38.4,21.69A32.28,32.28,0,0,0,184.46,535Z"/><path class="cls-4" d="M280.46,593c55-3,67.71-52.09,64-77-8-4-14.32-11.05-26-20,23,52-34,85-61.95,84.67C268,588,271.83,592.2,280.46,598,283.27,596.84,277,593.18,280.46,593Z"/><path class="cls-4" d="M448.46,517c9-1,14.23-5.88,20-9,.67-8.59,4.45-19,4-26-13.86,3.83-15,6-36,6-31.58,0-62-7.09-79-17,.83,3.44-.83-3.34,0,0,3.86,15.63,6.71,19.9,10,30C393.18,512.71,425.19,519.58,448.46,517Z"/><path class="cls-4" d="M344.46,388c-.51,2.79-2,19,.24,28.08,3.47,14.06,34.92,26.29,59.76,29.92,49,7,53-8,60-8,2,0-4-30-4-30C454.46,438,367.46,418,344.46,388Z"/><path class="cls-4" d="M519.46,451c-.26-2-10,14-15,23,9.65,18.07,56,72,114,47a129.27,129.27,0,0,0,22-22C602.46,520,523.46,482,519.46,451Z"/><path class="cls-4" d="M492.46,496c-6,9-4,16-18,20,2,47,32.39,52.2,70,71,0,0,11-11,19-20C566.87,568.65,497.5,546.63,492.46,496Z"/><path class="cls-4" d="M489.46,662c-45,12-97,5-131-11-11-5.19,2.35-52.54,12-49,30,11,83,23,110,11,21.25-9.45,38-24,43-39,1.61-4.84-21.56-12.62-22-12-14,20-45,38-115,18-11.78-3.37-36.95,25.35-53.51,57.22A97.82,97.82,0,0,1,346.46,654c27.89,43.92-23.18,47.65,4,77,25,27,79.6,27,103,27,44,0,53-32.86,53.08-32.9C463.46,738,387.46,741,360.46,705c-8.3-11.07-9.49-19.28,4-16,37,9,131,20,167-20,2.21-5.21,5-27,3-39C536.34,641.26,504.37,658,489.46,662Z"/></g><g id="Слой_2" data-name="Слой 2"><path class="cls-1" d="M504.46,287c.08-.49,9.57-2.47,0-5-13.24-3.5,41.32-76.85,119-77,83.34-.17,158.75,58,162,97,.33,4,.3,30.05,1,42,1,17,21,21,30,53,9.54,33.92-9.36,63.49-36,89-5.43,5.2-17.33,19.7-39,25-45,11-233-58.55-239-83C489.46,375,488.72,380.22,504.46,287Z"/><path class="cls-1" d="M98.46,261c-8.71,4.15-80.36,39.7-94,113-3.61,19.4-11.87,63.76,11,87,7.36,7.48,20.86,15.74,27,34,3.65,10.87,1.33,15.28,3,23,6.31,29.17,57.2,48.08,97,49,36.29.84,64.12-13.27,78-22,34.21-21.51,49.3-51.63,59-71,7.48-14.93,17.88-36.22,20-66,.86-12,3-49.84-20-88-38.23-63.36-110.89-69.71-115-70A146.34,146.34,0,0,0,98.46,261Z"/><path class="cls-2" d="M48.46,219c-16.28,7.81-21.9,47.18-21,59,1.21,15.89,3.53,46.47,23,53,12.6,4.22,27.84-3.15,36-13,11.06-13.34,7.2-26.09,5-39-1.66-9.76-13-25-23-47C66.88,228.51,59.47,213.71,48.46,219Z"/><path class="cls-2" d="M309.46,7c-5.2,9.69,14.11,36,19,47,8,18,16.21,29.59,27,33,18.26,5.77,57.82,8.4,65.94-5.6s-1.09-26.88-3.64-33c-1.71-4.12-15.32-23.26-39.48-37C363.46,3,317-7,309.46,7Z"/><path class="cls-1" d="M477.46,491c-2-.47-1.84-71.47,23-106,1.76-2.45,13.93,12.42,17,14s-8.56,1.17-17,17c-8,15-6,11-11,28C483.42,464.52,478.58,491.25,477.46,491Z"/><path class="cls-1" d="M289.13,375.05c6.29,1.6,2.62,30.19,10.64,49.19,21.28,50.41,38.3,69.31,58.69,87.76,3.79,3.43-18-10-26-17C302.55,468.83,282,396,284.7,391,288,385,285.41,374.1,289.13,375.05Z"/><path class="cls-2" d="M554.44,165.05c-4.39,5.94,2.81,17.76,6.2,26.45,6.86,17.56,16.58,35.21,22.65,37.56,15.85,6.15,42.26,8.89,54.09-2.48,8.6-8.26,6-21.74,0-33.24C620.85,161.38,564.4,151.55,554.44,165.05Z"/><path class="cls-3" d="M269.46,77c-45.57,34-57.28,88.41-59,97-2.78,13.87-10.3,60.65,15,108,19,35.65,46.76,53,78,72,28.19,17.14,68,31.87,138,42,9.16,1.33,43,9,71-7,15.55-8.89,37.83-49.53,47-79,14-45-10-59-11-82-2.61-60-1.38-70.33-11-91C503,62.85,354.7,13.44,269.46,77Z"/><path class="cls-1" d="M280.46,588c-16.36-4.53-41-21-35,19,2.93,19.55,1.39,23.59,3,37,7,57.86,10.6,88.2,34,112,12.56,12.77,28,20.85,34,42,4.52,16,4.67,32.75,12,41,24,27,103.48,14.89,103,5-2-41-19.2-24.36-30-61,0,0-4.88-16.55-14-58-12.75-57.93-.65-66.82-8-87C371.51,616.17,345.65,606,280.46,588Z"/></g><g id="Слой_7" data-name="Слой 7"><path d="M61.25,445.46c5.89,8.72,6.27,19.63.5,21.71-8.8,3.18-14.24-.12-20.13-8.83s-6-18.57-1.19-22.73C47.68,429.4,55.36,436.75,61.25,445.46Z"/><path d="M166.8,384.42c4,7.52,4.74,22.57-6.65,22.57s-12-5-18.62-15.05c-4.23-6.38-2.32-18.08,4-20.06C153.5,369.37,160.41,372.38,166.8,384.42Z"/><path d="M96.46,497c.33-1.82,6.28,3.86,12,6,8,3,10.86,3.43,10,5-.72,1.3-8.33,1-12,0C101.61,506.64,96.05,499.23,96.46,497Z"/><path d="M142.46,495c-2,.2-5.14-6.55-5-13,.13-6,3.06-12.2,5-12s2.86,7.5,3,11C145.69,486.66,144.63,494.78,142.46,495Z"/><path d="M137.46,534c-1.26-.9,1.74-10.33,8-16,14.7-13.32,45.11-3.78,45-2,0,.71-4.85-.14-17,2-10.63,1.88-18.92,3.42-27,9C140.84,530.87,138.33,534.61,137.46,534Z"/><path class="cls-2" d="M125.56,380.65c-3.6-2.47,17.13-39.1,21.28-37.62,2.36.84.83,14.42-6.65,25.08C135.5,374.81,127.36,381.89,125.56,380.65Z"/><path class="cls-2" d="M14.48,421.43c1-4.51,39.2-2.22,39.71,2.45.26,2.39-9.28,5.86-17.37,6.12C25.06,430.36,13.9,424,14.48,421.43Z"/><path d="M475.46,288c2.48-2.16,16.77,1.48,21,15,1.71,5.46-3,18.44-4,16C488.46,309,471.57,291.39,475.46,288Z"/><path d="M538.46,291c-1.28.2-.45,6.56-7,16-4.06,5.86-4.57,10.3-4,12,.74,2.18,5.88,0,11-5C546.94,305.69,540.18,290.72,538.46,291Z"/><path d="M474.46,357c-1-2.86,26-17,39-13,10.5,3.23,13.23,11.33,12,14s-.49-3.86-19-4C491.49,353.88,475.05,358.65,474.46,357Z"/><path d="M729.46,467c-.75-2.52,15.6-20.42,33-18,8.88,1.24,20.43,10.86,20,13-.38,1.88-10.59-4-30-3C734.07,459.91,729.82,468.22,729.46,467Z"/><path d="M728.46,401c-1,1.37,4.52,6.55,8,14.57,3.74,8.64.71,12.37,2.15,12.43,2.58.11,8.3-11.6,3.58-19C738.62,403.39,730,398.92,728.46,401Z"/><path d="M782.46,397c-.73.54,4.19,5,4,12-.24,8.69-3.13,13.6-2,15s10-1.64,10-10C794.46,399,783.55,396.18,782.46,397Z"/><path d="M658.46,313.49c-9,0-15.34,8.69-15.14,24.17.14,11.54,11.14,17.33,14.14,17.33,9,0,14.2-5.81,16-17.37C676.45,318.32,666.47,313.49,658.46,313.49Z"/><path d="M763.46,317c-8,0-11.23,8.61-11.15,18.06.08,9.69,6.25,21,12.26,21,5.82,0,11.89-10.27,11.89-19.07C776.46,320,769.58,317,763.46,317Z"/><path class="cls-2" d="M628.92,284.52c4.85-6.79,52.19,10.71,51.54,18.35-.39,4.59-18.43,5.76-33.63.11C635.33,298.71,626.29,288.2,628.92,284.52Z"/><path class="cls-2" d="M744.46,304c1.24,4.86,16.22,6.51,26-3,5.64-5.49,8.41-14.79,4-14C763.92,288.89,742.69,297,744.46,304Z"/><path d="M412.09,187.87c-9.09,0-16.83,12.6-13.95,25.2,1.23,5.37,6.09,20.17,18.32,18.92,9.22-.94,11.92-8.43,11.92-20.52C428.38,194.17,420.24,187.87,412.09,187.87Z"/><path d="M527.6,192c-6.71,0-13.09,11.06-13,20.61.13,9.8,2.81,21.36,14,21.3,6.6,0,12.58-10.6,12.86-19.49C541.78,204.12,541.46,192,527.6,192Z"/><path class="cls-2" d="M377.41,151.14c34,15.3,54,6.42,52.29,14.16-1.62,7.44-18.65,10.77-34.1,4.92C383.93,165.81,373.15,149.23,377.41,151.14Z"/><path class="cls-2" d="M513.5,171.42c.5,4.54,10,12.72,20.65,5.66,6.15-4.08,10.85-18,7.36-15.66C524.13,173.09,512.79,164.92,513.5,171.42Z"/><path class="cls-5" d="M395.84,836.63c.82-4.29,7.16-8.16,12.38-7.47,10.16,1.34,18.46,20.27,13.63,34.1-1.34,3.84-4.53,9.71-7.61,9.45-4.28-.36,2.3-15.47-12.92-21.76C396.56,849,395.17,840.1,395.84,836.63Z"/><path class="cls-5" d="M372,837c2.54-2.85,8.62-1.92,12.87,2.11,9.82,9.32,1.08,34.22-3.2,34.22-.62,0-.78-.53-6.14-12.82-2.27-5.22-6.11-5.93-7.34-12.09C366.89,841.8,371.69,837.38,372,837Z"/><path class="cls-5" d="M422.67,827.41c5.27-6.8,12.61.55,15.79,5.63,6.22,10-3,23.94-4.95,23.82-1.25-.08,0-6.05-4.52-12.19-2.82-3.83-4.94-3.71-6.72-7.27C420.15,833.16,420.8,829.81,422.67,827.41Z"/><path class="cls-5" d="M511.62,846.1c7.22,18,5.41,22.27,6.32,22.93,1.77,1.28,12.09-4.8,13.53-16.38,1.2-9.58-6.46-19.91-12.63-19.65C515.81,833.12,510.46,843.19,511.62,846.1Z"/><path class="cls-5" d="M543,823.16c7.08-1.4,13.16,6,14.07,7.14C567,842.35,558.34,863.89,556,865c-4.33,2-1.53-8.44-10.82-17.34-5.92-5.67-9.55-13.27-9.74-17.34C535.31,827.16,539.25,823.91,543,823.16Z"/><path class="cls-5" d="M557.92,818.23c1.27-3.48,7.12-4,13.34-.11,10,6.18,10.21,28.77,6.25,30.38-1.46.59-7.29-8.71-17-19.57C554.73,822.51,557.34,819.81,557.92,818.23Z"/><path class="cls-5" d="M281.46,796c1-2.88,6.24-5.23,12-2,8.41,4.71,9.83,18.32,7,20-1.46.87-5-2.09-12-8S280.79,798,281.46,796Z"/><path class="cls-5" d="M267.46,805c1-5,11-8,17,6,2.62,6.11,3.48,12.36,1,14-2.67,1.77-7-6-14-10C267.79,812.89,266.65,809,267.46,805Z"/><path class="cls-5" d="M251.46,812c-3,17,15.93,18,16,18,.52-.13.91-10.09-5-16C254.46,806,251.76,810.29,251.46,812Z"/><path class="cls-6" d="M46.28,435.67c-2.61,2-2.24,7.92,0,11.54,3.45,5.57,12.09,6.83,14.25,3.85S59,439.86,53.4,436.64C52.57,436.14,48.67,433.88,46.28,435.67Z"/><path class="cls-6" d="M146.3,374.71c-1.75,2.87-.27,6.85,0,7.55,2.36,6,10.21,9.6,13.36,6.71,2.92-2.68,2.37-11.47-2.23-15.1C154.05,371.21,148.4,371.27,146.3,374.71Z"/><path class="cls-6" d="M400.46,205.38c0,2.05,2.77,6,5.37,7.25,4,1.9,11.8-4.13,11.63-12.7-.1-5.23-2.46-9.12-6.26-10C403.14,188.15,400.37,198.19,400.46,205.38Z"/><path class="cls-6" d="M526.45,194c-5.19.19-10,8.43-8,15,1,3.23,3.87,7.07,7.15,7,5.25,0,11.14-10,8-16.72C532.41,196.66,529.56,193.88,526.45,194Z"/><path class="cls-6" d="M652.21,317.68c-5,2.3-4.77,9.08-4.75,9.66.16,3.69,2.25,9,6.33,9.66,4.42.77,8.64-4.27,9.49-8.86.1-.53,1.13-6.58-3.16-9.66A8,8,0,0,0,652.21,317.68Z"/><path class="cls-6" d="M761.9,319.06c-2.75-.6-5.55,2.68-5.79,3.34-2.48,6.68-2.37,14.2,1.65,16.69,2.93,1.81,8.86-1.43,9.93-5C770.18,325.74,766.19,320,761.9,319.06Z"/></g></g></g></svg>