<svg xmlns="http://www.w3.org/2000/svg" xmlns:xlink="http://www.w3.org/1999/xlink" viewBox="0 0 1916 1471.11"><defs><style>.cls-1{fill:#90deff;}.cls-2{fill:#00b1fe;}.cls-3{fill:#007de7;}.cls-4{fill:url(#linear-gradient);}.cls-5{fill:#56ccff;}.cls-6{fill:#fff;}.cls-7{fill:#9b9b9b;}.cls-8{fill:#0045cc;}.cls-9{fill:#02b2fe;}.cls-10{fill:#03b2fe;}</style><linearGradient id="linear-gradient" x1="954.4" y1="66.12" x2="954.4" y2="669.79" gradientTransform="matrix(1, 0, 0, -1, 0, 1476)" gradientUnits="userSpaceOnUse"><stop offset="0" stop-color="#007ee7"/><stop offset="0.8" stop-color="#00a3f8"/></linearGradient></defs><g id="Layer_2" data-name="Layer 2"><g id="Слой_1" data-name="Слой 1"><path class="cls-1" d="M922.8,0h71.8a95.58,95.58,0,0,0,10.5,1.7c131.2,9.5,250.3,53.7,358.6,127.5,124.9,85.1,220.1,197.1,293.9,328,65.4,116,108.9,240,134.8,370.4a1322.93,1322.93,0,0,1,24.4,202.1c1.6,38.2-.5,76.6.4,114.9.7,29.2-8.6,54.7-24.1,78.4-21.7,33.1-51,58.5-83.5,80.4-58.3,39.4-122.4,66.4-189,88-150.6,48.8-305.9,69.8-463.4,77.3a2066.45,2066.45,0,0,1-247.6-2.9c-112.4-8-223.7-23.3-333-51.4-78.7-20.2-155.4-46.3-226.9-85.8-40-22.1-77.4-47.8-107.5-82.9-22.9-26.6-40.8-56.3-41.6-92.3-1.7-73.3-.3-146.6,8.5-219.6,18-150.2,58-293.9,126.2-429.2,75.9-150.5,178.3-279,318.5-374.9C651.5,62.9,758.6,20,876.5,5.4,892,3.5,907.4,1.8,922.8,0Z"/><path class="cls-2" d="M869.1,1418.6c-23.9-1.7-47.8-3.1-71.6-5-106.4-8.3-211.5-24.4-314.4-53.2-71.1-19.9-140-45.2-203.5-83.6-33.7-20.4-64.8-44.2-89-75.8-21.8-28.4-33.8-60.2-32.7-96.5.6-17.9-.1-35.9-.2-53.8,1.3-20.6,2.5-41.2,3.8-61.8,6.9-112.6,28-222.4,65-329,55.1-158.4,138.3-299.4,262.3-414.1C602.8,140.3,735.3,72.9,891.1,54.9c2.4-.3,129-.6,131.8-.3a651.73,651.73,0,0,1,188.7,49c133,57,239.4,147.3,325.1,262.4,132.8,178.4,198.7,381.3,217.9,601.2,4.1,46.3,1.9,92.6,3.4,139,.4,11.9.5,23.9-2.3,35.7-7.5,32-25.2,57.9-47.9,80.8-34.8,35.1-76.5,60.2-120.7,81.4-89.5,42.8-184.5,67.8-281.5,85.8-85.2,15.8-171.2,24-257.6,28.7C1045.2,1418.8,871,1418.7,869.1,1418.6Z"/><path class="cls-3" d="M1011,1417H897.9c-3.2-.5-6.4-1.2-9.7-1.4-83.1-3.4-165.9-10.2-248.1-23.8-101.2-16.7-200.4-40.7-294.6-82.5-47.2-20.9-92.1-45.9-130.4-81.2-28.5-26.2-50.7-56.5-58.5-95.5-.3-1.7-1.4-3.2-2.2-4.8v-28.7c.9-2.5,2.2-4.9,2.7-7.5,5.6-28.1,19.5-51.8,38.1-73.1,29.3-33.7,65.6-58.2,104.5-79.2,65.4-35.3,135.2-58.9,206.9-77.2,107.5-27.5,217-42.2,327.7-48.6,18.8-1.1,37.5-2.3,56.3-3.4h129.3a53.85,53.85,0,0,0,7,1.2c45.9,3.1,92,5.1,137.8,9.6,108.9,10.6,216,30.5,320,65.2,60.6,20.2,119.1,45.2,171.9,81.7,33.5,23.2,63.8,49.8,82.7,86.8,6.6,12.9,10.1,27.3,15.1,41v35.9a55.94,55.94,0,0,0-2.2,5.7c-5.3,23.9-16.6,44.7-31.7,63.7-20.6,25.7-45.8,46.3-73.3,64.1-63.9,41.4-134.2,68.1-206.8,89.1-122.5,35.3-247.9,52.4-374.8,59.4C1047.3,1414.5,1029.2,1415.9,1011,1417Z"/><path class="cls-4" d="M1011,1417H897.9c-3.2-.5-6.4-1.2-9.7-1.4-83.1-3.4-165.9-10.2-248.1-23.8-101.2-16.7-200.4-40.7-294.6-82.5-47.2-20.9-92.1-45.9-130.4-81.2-28.5-26.2-50.7-56.5-58.5-95.5-.3-1.7-1.4-3.2-2.2-4.8v-28.7c.9-2.5,2.2-4.9,2.7-7.5,5.6-28.1,19.5-51.8,38.1-73.1,29.3-33.7,65.6-58.2,104.5-79.2,65.4-35.3,135.2-58.9,206.9-77.2,107.5-27.5,217-42.2,327.7-48.6,18.8-1.1,37.5-2.3,56.3-3.4h129.3a53.85,53.85,0,0,0,7,1.2c45.9,3.1,92,5.1,137.8,9.6,108.9,10.6,216,30.5,320,65.2,60.6,20.2,119.1,45.2,171.9,81.7,33.5,23.2,63.8,49.8,82.7,86.8,6.6,12.9,10.1,27.3,15.1,41v35.9a55.94,55.94,0,0,0-2.2,5.7c-5.3,23.9-16.6,44.7-31.7,63.7-20.6,25.7-45.8,46.3-73.3,64.1-63.9,41.4-134.2,68.1-206.8,89.1-122.5,35.3-247.9,52.4-374.8,59.4C1047.3,1414.5,1029.2,1415.9,1011,1417Z"/><path class="cls-5" d="M910.5,50.5h97c2.9.6,5.8,1.4,8.7,1.7,50,4.6,98.6,15.4,146.4,30.7,8.9,2.9,11.7,7.6,11.4,16-.9,24.1-11.2,43.8-28.8,59.7-19.2,17.4-41.7,29-66.1,37-69.7,23-140.8,22.8-212.7,10.5-40.9-7-74.1-24.5-100.3-56.3-13.1-15.9-20.5-34.3-20.2-55.3.1-6.1,2.3-9.9,8.7-11.5,31.3-7.7,62.4-16.6,93.9-23.5C868.9,55.2,889.8,53.5,910.5,50.5Z"/><path class="cls-1" d="M610.7,857.6c-85.2-.4-151.2-66.5-150.8-151,.3-83.8,67.7-151.5,150.3-151.2,84.7.3,153.4,68.6,153,152.1S694.6,858,610.7,857.6Z"/><path class="cls-1" d="M1299.4,857.6c-85-.4-151.1-66.7-150.6-151.2.5-84,67.8-151.5,150.4-151.1,84.3.5,153.1,68.6,152.8,151.4C1451.8,790.7,1383.7,858,1299.4,857.6Z"/><path d="M608.3,832.4c-77.1-.7-137.6-61.6-137.1-137.8.6-77,62.3-138.6,138.3-137.9,76.9.7,139.8,63.8,138.7,139.1A138.46,138.46,0,0,1,608.3,832.4Z"/><path d="M1297.3,832.4c-77.5-.7-137.8-61.6-137.2-138.6.6-76.3,62.4-137.7,138.1-137.1,77.4.6,139.6,63.3,138.7,139.9C1436,772.1,1373.3,833,1297.3,832.4Z"/><path class="cls-6" d="M1273.2,677.2a33.89,33.89,0,0,0-3.9-1.8c-19-6-30.7-20.3-31.6-38.9-1-19,9.4-35.4,27.4-43.1,1.6-.7,3.1-1.6,4.6-2.4h19.8c18.1,6.4,30,18.6,34.1,37.7v10.8c-5.1,20.1-17.3,32.9-37.7,37.7Z"/><path class="cls-6" d="M599.9,591.1c3,1.3,6.1,2.4,9,3.8,17,7.9,26,23.4,24.9,42.7-.9,16.6-12.5,31.4-29.2,37.1-2.2.8-4.4,1.7-6.5,2.5H585.5c-2.2-.8-4.5-1.5-6.7-2.3-19.6-6.3-31.6-24.1-29.7-44.6S563.4,597.7,582,591C587.9,591.1,593.9,591.1,599.9,591.1Z"/><path class="cls-7" d="M660.9,707.8c8.6,5.3,17,10.7,18.1,22.3,1.3,13.7-3.8,21.4-19.9,29.8H646.5c-9.5-4.5-16.4-11.4-19.8-21.5v-9c3.7-9.8,9.6-17.7,19.8-21.5C651.4,707.8,656.2,707.8,660.9,707.8Z"/><path class="cls-7" d="M1330.7,759.9c-16.8-10.2-21.9-19.8-18.1-33.5,2.7-9.6,9.8-14.6,18.1-18.6h14.4c8.6,5.3,17,10.7,18.1,22.3,1.3,13.7-3.8,21.4-19.9,29.8Z"/><path d="M772.6,936.8c-12.5,8.8-23.9,17.3-39.3,16.6-.2-1.6-.5-2.4-.2-2.7,13.2-18.1,26.1-36.4,39.8-54,2.2-2.8,10.2-4.9,12-3.4,3.1,2.7,5.7,9.6,4.3,12.9-3.9,8.8,1.2,11.7,7,15.2,30.3,18.3,63.8,27,98.3,32,64.5,9.4,127.6,3.4,188.9-19.2a202.21,202.21,0,0,0,19.6-8.8c5.9-2.9,10.9-6,11.5-14.2.6-7.5,8.6-11.6,13.8-7.4,19.2,15.4,34,34.7,47.2,55.8-12.2,3.8-27.4-2.1-45.3-16.8-41,27.5-88,37.7-136,43.1-54.7,6.1-108.7,1.5-161.3-16C810.8,962.8,789.8,953.9,772.6,936.8Z"/><path d="M964.3,1074.3c-32.2-.9-59.2-4.4-84.6-14.9-8.3-3.4-16-9.1-22.9-15-2.5-2.1-1.8-7.9-2.6-12.1,4-.6,8.5-2.6,12-1.5,26.4,9,52.9,18.2,81,17.7,24.7-.5,49.3-3.6,73.9-5.9,9.5-.9,18.9-2.9,28.4-3.9,2.8-.3,5.9,1.5,8.8,2.4-1.3,2.9-1.9,6.4-3.9,8.4-13.1,13.2-29.9,18.2-47.7,20.4C991.1,1072,975.3,1073.2,964.3,1074.3Z"/><path class="cls-8" d="M28.8,445.6c49,23.5,84.5,62.1,116,104.9,12,16.3,23.9,32.8,34.5,50a231.78,231.78,0,0,1,30.3,78.9c2.9,14.9,7.2,29.5,9.6,44.4,3.9,23.5.6,47-3.1,70.3-3,19.5-7.2,38.7-17.8,55.8-14.5,23.3-32.8,41.8-61.4,46.7-.8.1-1.4,1-2.2,1.5H122.1c-11.1-5.4-22.4-10.5-33.4-16.2-16.2-8.4-19.9-24.8-9.3-39.3,4.2-5.8,9.2-11.1,12.8-17.3,3.1-5.3,6.2-11.2,6.7-17.2a153.77,153.77,0,0,0-7.7-65.2Q58.35,646.45,25.5,550c-8.3-24.1-17-48.1-25.5-72.2V461.6l12.6-16.2C18.1,445.6,23.4,445.6,28.8,445.6Z"/><path class="cls-8" d="M1779.5,898.1c-6.9-2.5-14.2-4.3-20.6-7.7-24.5-13.1-41.7-33-50.4-59.2-11.9-35.7-18.4-73-12.1-110,8.5-49.9,21.2-99.1,52.2-141,16.5-22.2,32.6-44.9,50.9-65.6,20.5-23.2,43.3-44.4,70-60.7,5.5-3.4,11.7-5.6,17.6-8.3h14.4l14.4,16.2V478c-10.4,28.4-21,56.7-31,85.3-16.9,48.3-34,96.6-49.7,145.4-9.6,29.8-21.9,59.2-19.1,92,.9,9.9,2,18.8,8.2,26.6,3.9,4.9,7,10.5,11.4,14.9,13.6,13.5,4.7,33.3-9.5,40.1-10.8,5.3-21.6,10.6-32.4,15.8Z"/><path class="cls-9" d="M95.9,766.7c-5.7-29.9-16.5-58.2-26.2-86.8Q47.8,615.4,25.1,551.2c-7.4-20.9-15.3-41.7-23-62.5-.2-2,.5-4.2-2-5.3V454.7c3.8-2.1,6.6-1.7,9.9,1.7C53.1,500.2,94.1,545.7,126.7,598c23.5,37.7,35.8,78.2,37.5,123.5,2.3,63.7-22.6,113.9-65.1,158.1-5.2,5.4-9.2,5.1-14.5,1.1-13.9-10.6-16-24.5-5.8-38.5,3.3-4.6,6.6-9.2,10.3-13.6,14.3-17.1,9.8-36.8,7.9-56.1C96.9,770.4,97.9,768.3,95.9,766.7Z"/><path class="cls-10" d="M1916,483.3c-6.8,9.3-8.1,20.8-12,31.3-24.3,64-45.5,129-67.7,193.7-7.1,20.8-14.7,41.7-17.9,63.4-3.4,23.4-4,46.4,14.7,66.1,13.6,14.3,13.4,22.4,6,34.2-3.6,5.7-7.4,7.8-13.9,4.1-8.7-5-16.2-11-22.2-19.2-21.8-30.1-38.4-62.5-44.6-99.6-1.8-11.1-1-22-.7-33.1,1.7-62.5,21.1-119.1,57.6-169.8,24-33.3,48.6-66,80.2-92.8,2.3-1.9,4.9-3.5,7-5.6,5.6-5.4,10-4.9,13.5,2.1Z"/><path class="cls-6" d="M483.2,519.2c-13.7-.6-27.4-1.3-42.4-2,2.4-4.7,4.1-9,6.6-12.8,14.4-21.5,31.3-40.9,51.8-56.8,5.7-4.4,13-7.3,19.9-9.5,30.5-9.5,62.2-7.5,93.4-7.9,59.5-.8,119.1-.4,178.6-.5H821c-21.8,43-46.3,80.2-97.3,89.4Q603.55,519.25,483.2,519.2Z"/><path class="cls-6" d="M1208.6,519.2c-4.8-1.5-9.6-3.2-14.4-4.6-42-11.7-61.6-45.4-79.8-80.6a7.6,7.6,0,0,1-.6-2.6,9.92,9.92,0,0,1,.4-1.8,55.82,55.82,0,0,1,6.2-.7c45.2.3,90.3.5,135.5,1,42.2.5,84.4-.2,126.5,2.3,22.6,1.4,46,5.6,62.5,24.7,12.5,14.5,25.4,28.6,37.6,43.3,3.9,4.7,6.3,10.5,10.4,17.6h-11.5c-38.3.2-76.6.3-114.9.5-3.6,0-7.1.6-10.7.9Z"/></g></g></svg>