<svg xmlns="http://www.w3.org/2000/svg" viewBox="0 0 1552.93 2108.91"><defs><style>.cls-1{fill:#343434;}.cls-2{fill:#5c5c5c;}.cls-3{fill:#e0c668;}.cls-4{fill:#fff;}.cls-5{fill:#424242;}.cls-6{fill:#727272;}.cls-7{fill:#dbb242;}</style></defs><g id="Layer_2" data-name="Layer 2"><g id="Слой_1" data-name="Слой 1"><path class="cls-1" d="M539.73,2108.91c-110.7-4.3-205.4-23.7-294.9-65.1-33.3-15.4-66.9-30.5-99.1-47.9-38.4-20.7-69.1-51.5-97.1-84.3-26.4-30.9-37.5-69.4-43.9-108.9a354.26,354.26,0,0,1-.3-113.5c4.3-26.3,16.7-48.8,33.4-69.3,33.8-41.6,76.6-72.6,119.5-103.6,57.5-41.6,110-88.6,151.2-147,6.2-8.8,13.9-17.1,17.7-26.9a201.69,201.69,0,0,0,11.1-42.7c3.4-22.5,16.7-34.6,38.7-38.1,21.4-3.4,39.6,2.9,57,12.7,77.5,43.6,122.1,110.1,134.8,197.8,4.7,32.1-1.3,62.2-21.6,89-15.3,20.2-35.4,29.6-60.3,30.9-74.3,4.1-146.7,18.7-217.4,41.7-38.5,12.5-68.8,37.1-96.1,65.9-2.6,2.8-4.1,7.1-4.9,11-5.3,27.4.4,52.9,14.5,76.6,23.8,40,57.4,68.5,100.5,86.3,76.4,31.6,155.7,48.2,238.4,49,46.8.4,88.7,14.6,121.9,49,19.9,20.6,32.4,44.6,26.8,74.7-4.8,25.6-22.8,45.3-48.5,50C590.13,2101.81,558.83,2106,539.73,2108.91Z"/><path class="cls-2" d="M288,1392.21c10.2,6,12.6,13.6,8.1,25.4-8.6,22-22.5,40.5-40.2,55.8-27.6,23.8-55.5,47.3-83.8,70.2-30,24.2-56.3,51.8-73.9,85.9-27.2,52.6-21.3,103.4,14.1,150.7,23.6,31.6,55.4,52.9,90.7,68.7,85.4,38.3,174.9,61.3,268.1,69.8,28,2.6,56.5,2.3,84.2,6.7,39.9,6.3,73.1,25.9,97.2,59.2,1.3,1.8,2.3,3.8,3.4,5.6-10.9,11.7-25.3,8.5-36.6,1.7a297.65,297.65,0,0,0-118.3-41.5c-27.6-3.5-55.5-5-83.3-6.1-50.6-2-101.4-1.9-151.9-5-32.1-2-62.6-12.8-91.4-27-36.4-17.8-68.6-42.1-98.5-69a106.08,106.08,0,0,1-22.6-29c-22.7-42.8-37.8-87.9-33.1-137.4,1.4-14.8,4.3-29.4,7.4-43.9,1-4.6,4.4-9,7.6-12.8,26.6-32.2,57.7-59.3,91.3-84.2,36.9-27.3,72.9-55.9,108-85.4,16.3-13.8,29.6-31.1,44.2-47C281.83,1399.91,284.93,1395.91,288,1392.21Z"/><path d="M819.73,1658.91c-40.7-24.3-83.1-35.1-128.7-17-35.6,14.2-66.3,36-82.7,71.7-6.6,14.3-6.4,31.9-8.7,48-1,6.8,0,13.9-.7,20.9-.2,2.1-2.8,5.7-4.2,5.6-40.9-1.6-82.6,2.2-121.1-17.3-35.7-18-68.2-40.3-95.7-69.4-14.1-14.9-27-31.1-40.3-46.8-26.8-31.6-34.7-69.9-41.1-109.5-15.8-98.3-9.8-195.3,14.8-291.2,12.5-48.9,32-95.5,54.2-140.8,10-20.5,20.3-40.8,31.1-60.9,23.8-44.6,56.9-80.8,97.7-110.9,45.1-33.2,90.3-66.8,132.7-103.3,61.7-53.2,110.5-116.8,141-193.2,17.3-43.3,23.4-89.3,30.9-134.9,3.4-20.5,4.3-41.4,6.4-62.5h13.2c51.3.3,102.7.8,154,.8q213.3,0,426.7-.7c6.7,0,10.1,2.5,13.7,7.7,29.7,43,34.1,90.8,25.2,140.2-5.5,30.8-14.6,60.9-22.1,91.3-10.4,42-17.7,84.4-14.4,127.8,1.4,17.9,5.7,35.6,8.7,53.3a12.06,12.06,0,0,0,1.8,4.4c21.5,32.1,26.8,69.4,33.2,106.2,9.3,53.4,13.8,107.4,15,161.6.7,29.6-6.5,57.8-13.4,86.1-16.6,68.3-33.3,136.6-51.2,204.6-7.3,27.8-18.4,54.6-20.1,83.8-1.5,25-2.6,49.9,2.7,74.7,1.6,7.3-.5,15.8,2.3,22.4,7.3,17,14.1,35,25.4,49.3,18.3,23.2,27.6,48,26,77.2-.1,1.3.2,2.7-.3,3.7-6.5,13.7-12.6,27.6-19.7,40.9-12.9,24.1-36,32.7-60.8,37.4-20.8,3.9-41.9,6.1-62.8,9.5-29.8,4.9-52.3-8.2-71.4-28.9-15.7-17.1-21.3-38.5-24.2-60.8-.4-3.4-.7-6.8-1.2-11.6-51.3,10.5-102.2,15.3-154.4,5.5,0,4.7-.1,8.1,0,11.4,1.5,37.5-7.5,71.5-33.1,100.2-6.7,7.6-14.2,11.8-24.9,10.6-43.7-4.9-87.5-9.4-131.3-14.1-1.6-.2-3.6-.1-4.6-1-23.4-21.6-52.6-38.5-56.8-75a96.38,96.38,0,0,1,7.6-50.1C802.43,1697,810.93,1678.41,819.73,1658.91Z"/><path class="cls-1" d="M753.23,1714.71c4.6,27.9-13.1,45.2-34,58.8-39,25.5-82.2,41.3-129,44-26.6,1.5-53.1-3.2-78.3-12.4-32.2-11.8-47.2-39.2-39.6-72.5,5.8-25,10.8-50.4,25.5-72.1,5-7.4,11.8-13.9,18.8-19.6,23.1-18.8,47.9-34.6,78.5-37.8,30.8-3.2,60.1.9,85.7,20.1,16.7,12.5,32.9,25.8,49.6,38.3C748.13,1674.61,755.23,1692.11,753.23,1714.71Z"/><path class="cls-1" d="M333.43,1191c1.5-5.8,2.1-12,4.7-17.3,16.9-35.8,34.3-71.3,51.5-107,26.2-54.4,65.7-97.6,114.3-132.4a1126,1126,0,0,0,119.2-98.6c16.1-15.3,32.8-29.9,49.2-44.7,4-3.6,9.3-7.8,11.6.4,7.1,26,23,46.9,39.7,69.1-8.9,9.1-16.8,18.6-26.2,26.4-40.8,33.9-83.9,64-133.4,84.7-69.7,29-124.4,77.1-167.6,138.6-14.9,21.2-29.1,43-43.9,64.3-4.5,6.5-10,12.3-15,18.5C336.13,1192.31,334.83,1191.61,333.43,1191Z"/><path class="cls-1" d="M792.83,868.31c12.6,29,23.2,56.8,36.6,83.3,31,61.1,64.2,121,111.6,171.5a530.06,530.06,0,0,0,100.1,82.8c16.3,10.5,34.2,15.9,53.4,18.5,28.1,3.8,56.2,6.4,84.1.4,33.2-7.1,62.5-22.7,87.4-45.7,42.3-39.1,74.3-85.1,93.9-139.7,17-47.3,29.7-95.5,33.3-145.8,1.9-26.5,2.2-53.1,3.3-79.7a15.76,15.76,0,0,1,2.9-8.9c1.1,2.1,2.6,4.1,3.2,6.3,3,10,5.1,20.3,8.8,30,35.1,92,48.4,187.7,52,285.5,1.5,41.7-8.9,80.9-17.6,120.8-16.5,75.2-35,149.8-58.4,223.3-12.8,40-11.9,81.6-6.6,123.3,3.4,27.3,15.1,50.1,32.4,70.4,35.9,42.2,23.9,99-4.3,132.9-13.5,16.2-35,22.4-55.7,26.2-21.4,3.9-43.2,6-64.7,9.8-20.4,3.6-38.4-2.1-54.9-13.1-32.3-21.5-43.8-53.6-44.7-90.7-.8-31,9.6-59.9,18.7-88.8,11.8-37.5,25.3-74.4,35.6-112.3,6.2-22.7,8.5-46.6,11-70.2,4.4-42.8,3.2-85.5-5.9-127.6-1.2-5.4-5.4-11.4-10-14.7-28-20.4-60.6-26.6-94.3-27.5-50.2-1.3-97.9,9.8-144.2,28.9-32.7,13.5-46.7,37.7-49.4,71.7-3.8,46.6,7.1,90.6,19.9,134.5,13.3,45.6,25.8,91.4,40.1,136.7,6.7,21,16.9,40.9,25.4,61.3,1.3,3.2,3.1,6.4,3.5,9.8,4.1,37.3-.9,72.5-22.5,104.5-11.3,16.7-26.9,24.7-46,23-43.8-3.9-87.5-9.4-131.2-14.5a20.63,20.63,0,0,1-10.1-4.8c-24.2-20.6-43.2-44.5-46.7-77.6a91,91,0,0,1,7.5-46.4c7.5-17.5,14.9-35,23.8-51.8,19.4-36.7,23.5-75.2,14.7-115.3-8.3-38.1-16.7-76.1-25.6-114-2.5-10.7-6.8-21.1-10.6-31.5-29-80.4-37.4-163.6-29.8-248.1,6.6-73.1,16.7-146,24.9-219,2.1-18.8,2.8-37.9,4.1-56.8C792.23,876,792.43,873,792.83,868.31Z"/><path d="M874.43,1716.41c-4.3,15.1-9.1,29.1-12.4,43.5-5.4,24.1-4.3,48.3,1.3,72.5.9,3.9-.6,8.5-1,12.7-5.8-1.4-13.5-1-17.2-4.7-10.5-10.3-13.4-24.3-12-38.6,3-31.1,14.2-58.8,36.3-81.6C870.83,1718.91,872.43,1718,874.43,1716.41Z"/><path d="M1282.83,1698.81c-1.1,13.6-3.2,27.3-3.1,40.9.2,27.1,1.2,54.1,2.6,81.2.3,5.9-.3,10-5.9,12.2-5.4,2.1-9.4,1.6-11.4-5.3-9.1-31.3-11.4-63-3.1-94.4,3.3-12.5,11.6-23.6,17.7-35.4A16.65,16.65,0,0,0,1282.83,1698.81Z"/><path d="M955.93,1721.61c1.4,15.3,3.1,30.6,4.1,45.9,1.5,22.7,2.5,45.4,3.6,68.2a21.79,21.79,0,0,1-.2,5.7c-1.1,6.7-3.9,12.8-11.3,13.2-7.6.4-11.4-5.4-12.3-12-1.3-9.3-3-19-1.9-28.2,3.7-28.8,8.6-57.5,13.1-86.2.4-2.4,1.6-4.6,2.4-7C954.33,1721.41,955.13,1721.51,955.93,1721.61Z"/><path d="M555.93,1701.11c9,7.6,19.6,14,26.6,23.1,10.5,13.6,19.1,28.9,27.4,44.1,6,10.9,6.1,23.3,2.7,35.1-1.5,5.3-6.2,9.7-11.3,14-6.5-42.8-24.8-79.3-49.2-113.2C553.43,1703.11,554.73,1702.11,555.93,1701.11Z"/><path d="M652.93,1664c23.8,13.2,38.9,31.4,51.8,51.9,9.4,14.9,14.7,30.9,13.4,48.5-.4,5.2-3.8,10.3-8,15.4C702.63,1735.81,673.83,1703.41,652.93,1664Z"/><path d="M1376.43,1817.11c2.9-45.5-5.4-85.5-26.1-123,13.2,8.1,21.9,19.7,28.1,32.5,6,12.5,10.4,25.8,14.5,39,4.9,15.8-1.1,30.6-6.6,45.1C1385.43,1812.91,1381.53,1814,1376.43,1817.11Z"/><path class="cls-1" d="M884.73,285.21c8.4,31.9-9.7,48.5-34,61.8-8.3,4.5-16.2,9.9-24.5,14.6-31.2,17.4-57,40.4-77.3,70.1-15.3,22.5-32.8,43.5-49.5,65a98.4,98.4,0,0,1-11.4,12.7c-9.2,8.4-20.6,6.5-25.8-4.9-9.9-21.5-19.7-43.2-28.4-65.2-12.3-31.2-22.8-63-35.5-94-27.2-66-21.6-130.6,6.3-194.6,12.2-28,27.2-54.3,46.2-78.3a113.35,113.35,0,0,1,53.6-37.8c15.8-5.3,29.4.4,39.4,11.9A461.46,461.46,0,0,1,779,93.61c34.3,52.1,68.5,104.2,101.4,157.2,5.8,9.4,5,23,7.2,34.6C886.63,285.31,885.63,285.21,884.73,285.21Z"/><path class="cls-1" d="M1528.73,207.81c-.6,50-14.7,97-30,143.7a326.38,326.38,0,0,1-22.4,51.9c-4.2,8-12.6,14-20,19.9s-16.1,6.1-23.7.1c-8.1-6.5-16.3-13.2-23.3-20.8-43.1-46.8-85.5-94.3-128.9-140.8-16.6-17.8-21.3-38.1-15.8-60.5a182.72,182.72,0,0,1,17.4-43.9c24.9-44.5,51.2-88.1,76.5-132.4,11-19.3,28.3-25.3,48.6-25,28.7.4,48.7,17.4,67,37.1,32.4,34.8,44.9,77.8,50.5,123.5C1526.63,176.21,1527.43,192.11,1528.73,207.81Z"/><path d="M671.73,116.31c4.5,9.7,7.5,17.8,11.8,25.1,25.6,42.5,51.6,84.9,77.4,127.3,3.5,5.7,7,11.3,10.1,17.2,4.4,8.4,3.4,16.8.5,25.7-11.1,34.5-35.2,57.7-65,76.2-24.8,15.3-33.9,13.9-49.4-10.8-28.9-46.2-46.7-95.9-40.2-151.2,2.1-17.8,8.7-35.6,16.2-52.1,7.6-16.8,18.7-32.1,28.6-47.9C663.93,122.51,667.53,120.31,671.73,116.31Z"/><path d="M1421.93,64c5.4,2.8,10.4,4.1,13.5,7.2,32.4,32.9,54.7,70.3,58.4,118,3.8,48.3-1.8,94.7-19.6,139.7a57.85,57.85,0,0,1-6.3,12.7c-7.5,10.9-21.2,12.2-30.2,2.6-18.9-20-37.5-40.3-56.3-60.5-9-9.7-11.6-20.7-7.9-33.4,9.2-30.9,19-61.7,27.3-92.8,7-26.3,12.2-53,18.1-79.5C1419.93,74,1420.73,70,1421.93,64Z"/><path class="cls-3" d="M871.13,871.11c4,1.2,10.7,2.9,17.3,5.1,31.8,10.8,63.4,22.6,97.2,24.6,30.6,1.8,61.4,3.9,92,3.1,61.4-1.6,122.7-5.1,184-8.1,15.2-.7,30.2-3.1,45.4-3.8,24.5-1.2,30.7,5.4,26.5,29.3-8.7,49.8-24.7,96.8-57.1,136.7a272.42,272.42,0,0,1-21.2,23c-15.3,14.9-29.7,13.9-46.1.1a303.32,303.32,0,0,0-42.3-29.7c-13.7-8-27.2-3-38.7,6.3-9.8,8-19.7,16.2-27.9,25.7-15.8,18.5-35.4,19.6-56.2,13.4s-38.4-19.3-54.7-33.5c-44.4-38.7-82.7-82.8-113.3-133.3-7.5-12.4-13.4-25.8-19.2-39.1C851.83,879.31,857.13,870.91,871.13,871.11Z"/><path class="cls-3" d="M1383.13,910.31c-2.4,33.6-10.4,65.8-21.4,97.3q-33,93.6-112.7,152.9c-3.6,2.6-7,5.8-11,7.4-16.8,6.4-24.7,19.9-31.1,35.7a187.22,187.22,0,0,1-19.1,35.9c-14.1,20.6-35.4,22.2-52.1,3.8-11-12.1-20.1-26-30.3-38.9-2.2-2.8-5-6.1-8.2-7-53.3-15.3-98.4-44.3-138.7-81.5-30.5-28.1-55.1-61.1-77.8-95.6-17.6-26.7-34.9-53.6-50.4-81.5-7.8-14.1-11.9-30.5-16.6-46.2-2-6.5-2.1-14.3,5.3-18.6,4.8-2.8,15.8,2.6,19.8,9.8,9.2,16.6,18,33.4,27,50.1,32.4,59.6,70.1,115.2,120,161.8,24.5,22.9,52.7,40.4,82.8,54.9a3.55,3.55,0,0,1,.9.4c18.7,8.2,20.4,6.6,26.3-12.5,8.2-26.6,20.3-51.2,43-68.8,10.8-8.4,23.4-8.6,33,.8,16.6,16.2,31.8,33.6,39.8,56,4.6,12.8,6.4,13.6,17.9,5.3a272.13,272.13,0,0,0,62.3-63.5c30.3-43.1,46.3-91.7,55.2-143.2,2.4-13.7,9-26.8,15.2-39.4,2-4,8.9-5.6,13.6-8.4,1.8,4.4,4.4,8.6,5.4,13.2C1382.43,897.11,1382.53,903.91,1383.13,910.31Zm-191.8,247.8c-3.1-11.1-5.3-19.9-8.2-28.5-3.5-10.8-10.6-18-22.5-18.9-12.8-.9-22.1,5.6-28.1,16-12.5,21.8-8,57,9,75.6,11.5,12.6,30,11.1,36.9-4.4C1184.33,1185,1190.73,1173.91,1191.33,1158.11Z"/><path class="cls-3" d="M1140,1281.41c15.5-10.3,21-9.6,31.6,3.4,2.9-2.1,6-4,8.7-6.4,19.2-17.3,36.2-36.4,49.2-58.7,3.1-5.4,3.9-12,6.9-17.5,3.8-7,7.7-14.7,13.6-19.8,7-6.2,17.8-3.3,20.9,4.6,5.2,13.2,9.6,26.7,14,40.2.9,2.9.6,6.1,1,11.4-10.3-4.6-19-8.4-27.4-12.2-13.8,15.6-26.8,31.5-41.1,46.2-10.7,11-23.3,20.3-34.7,30.7a29.32,29.32,0,0,0-6.9,10.1c-6.2,14.7-12,29.5-19.3,44.1-10.6-14.7-17.9-29.8-21.5-46.6-.6-3.1-2.1-6.9-4.5-8.5-25.3-17.1-48-36.9-67.2-61.5-5.6,1.9-11.7,4-20.6,7.1,2.8-14.6,4.7-27,7.7-39,1.8-7.3,7.9-13.4,15.2-11.4,6.8,1.9,14.5,7,18.1,13,5.4,8.9,5.2,21.9,11.7,29.4C1108.93,1255.11,1125,1267.71,1140,1281.41Z"/><path class="cls-4" d="M1172.43,1191.91c-9.8,11.2-21,10.5-26.9-3.1-7.6-17.2-11.4-34.7-5.2-53.4,2.5-7.6,6.7-13,14.5-14.7s12.4,3.8,17.5,8.6C1181.23,1137.81,1183.13,1179.61,1172.43,1191.91Z"/><path class="cls-5" d="M1120.43,52.61c68.6-1.1,135.1,10.3,198.3,37.2a104.66,104.66,0,0,1,44.1,34.8c21.1,29,35.5,61.2,48.1,94.5,16,42.3,32.7,84.4,48.3,126.9,10.4,28.5,19.5,57.5,28.8,86.4,16,49.7,32.4,99.4,47.3,149.4,12,40.1,8.4,80.1-6.8,119-21.5,54.7-51.7,104.4-89.4,149.4a386.59,386.59,0,0,1-49.6,49.5c-45.5,37.9-93.2,73.1-143.7,104.3-34.5,21.4-70.1,29.1-109.6,17-64.1-19.7-129.6-35.5-190.8-63.5-73.8-33.8-141.8-76.8-202.9-130.9-29.7-26.3-60.5-51.2-84.6-83-22.5-29.8-41.7-61.4-37.1-100.8,2.7-22.9,8.5-45.4,12.7-68.1,9.9-54.2,19-108.5,29.7-162.6,12.5-63.1,27.8-125.4,51.8-185.4,9.7-24.1,20.7-47.1,38.4-66,7.8-8.3,18-15.1,28.2-20.4,93.5-48.5,192-80.6,297.7-87.8C1093.13,51.81,1106.73,52.61,1120.43,52.61Z"/><path class="cls-6" d="M805.13,128.21c87-39.3,176.1-68.2,271.7-74.2,82-5.1,161.5,5.2,238,35.8-5.3,20.6-16.1,26.8-34.8,20.8-48.4-15.6-97.8-25.3-148.9-26.5-49.9-1.1-98.3,8.3-146,21.3-43.3,11.8-86.2,25.2-129.3,37.8-5.8,1.7-11.5,3.6-17.3,5C818.73,152.91,812.93,149.61,805.13,128.21Z"/><path d="M1164,903.91c-7.8-3.9-15.9-7.3-23.3-11.8a22.15,22.15,0,0,1-7.9-9.2c-2.5-5.3-.4-9.5,5.9-7.6,39.5,11.8,73.1-2,105.1-23.2a33,33,0,0,1,4.1-2.3c.4-.2,1.1.1,2.6.3-6.8,17.4-19.2,29.8-34.3,39-10.3,6.3-22.2,9.9-33.4,14.7C1176.73,903.91,1170.43,903.91,1164,903.91Z"/><path d="M1180.23,770.11a73.06,73.06,0,0,0-6.8,8.1c-32.3,49.3-98.9,71-159.2,54.1-26.7-7.5-45-24.8-61.2-46.7-12.7-17.1-11.6-32.4-2.2-48.7,17.2-29.9,33.2-60.9,58.5-84.7,9.1-8.5,23.1-13.3,35.7-16.2a834.64,834.64,0,0,1,164.4-21.3c18.3-.6,36.7-1.5,55-1.1,19,.4,35.4,10.2,51,19.3,17.4,10.2,33.1,23.3,49.1,35.7,15.3,11.8,25.9,27.4,34.9,44.5,5.9,11.1,4.9,21.1-1.7,31-25.7,38.3-60.2,64.2-106.5,71.3-26,4-52.6,3.4-75.2-12.2C1202.93,794,1192.23,781.31,1180.23,770.11Zm-.7-19.8c6.8,6,12.6,10.3,17.4,15.6,42.6,47.5,105.5,40.7,144.2,13,19.1-13.7,35-31.8,52.4-47.9,4.9-4.5,4.9-9.4.7-14.1-7.7-8.8-15.1-18-23.5-26.1-20.3-19.7-42.3-37.1-68.4-49-5.7-2.6-8.9-1.5-12.6,3.3-12,15.6-24.4,30.8-36.7,46C1233.53,715.41,1214.53,740.51,1179.53,750.31Zm-11.2,4.5c-14.2-3.5-29.2-4.6-41.7-10.8-18-8.8-34.8-20.6-51.2-32.4-18.5-13.2-36.1-27.6-53.8-41.8-5.8-4.6-9.6-3.9-14.2,1.7a457,457,0,0,0-53.7,79.1,8.5,8.5,0,0,0-.3,6.1c11,32.9,45.7,59.2,80.4,62.2,39.5,3.5,74.3-8.4,105.9-31.1C1152.43,778.71,1163.43,768,1168.33,754.81Z"/><path d="M1221,459c1.7-1.2,4.7-3.4,8.8-6.4.7,4.8,1.1,7.8,1.4,10.6,11,1.9,21.7,4.9,32.5,5.4a334.94,334.94,0,0,0,49.1-.9c7.8-.8,16-4.6,22.5-9.2,23.5-16.6,42.7-36.1,47.8-66.7,1.8-10.9,9.7-21.1,15.9-30.8,4.4-7,11.8-9.1,20.1-6.5,13.7,4.3,18.5,9.3,19.1,20.4,1.2,25.8-5.8,49.9-19.6,71.2-16.1,25-36.4,46.6-64.6,58.3a116,116,0,0,1-34.7,8.9c-24.4,2.2-48.7,0-71.9-8.8-12.7-4.8-22.2-11.6-21.5-27.4C1226.33,471.91,1223.13,466.31,1221,459Z"/><path d="M943.13,557.51c-35.9-1.5-71.2-21.5-101.5-51.8-14.9-14.9-27.7-31.7-31.7-53.1a46.26,46.26,0,0,1,2-23c3.9-11,16-12.4,23.6-3.6a47.84,47.84,0,0,1,6.8,11.3c17,37.7,45.9,62.6,84.4,75.9,23.4,8.1,47.2,3.8,69.9-4.2,11.1-3.9,21-11.2,31.4-17.1,2.7-1.6,5.1-3.8,7.8-5.4,9.8-5.5,19.3-4.7,25.2,2,6.5,7.3,7.4,19.4-.2,26.9-8.9,8.8-18.9,17.2-29.8,23C1006.33,551.81,979.23,556.81,943.13,557.51Z"/><path class="cls-7" d="M970.13,529c-60.5-.4-105.8-28.5-139.2-77.1-5.7-8.3-9-19.1-10.5-29.2-.7-5,3.8-9.8,8.4-12.3,17.1-9.3,34.8-17.9,53.1-24.5,23.7-8.4,48.6-12.7,73.8-8.9,32.7,4.9,57.4,23.4,78.4,47.9,11,12.9,20.4,26.4,25.3,43,5.3,18.3,1.5,26.5-13.2,38.9-16.9,14.3-37.7,17.1-58.2,20.8C982.23,528.81,976.13,528.61,970.13,529Z"/><path class="cls-7" d="M1340.43,331.91c22.4,3.2,42.4,2.2,62.4,5.3,4.3.7,8.4,2.7,12.4,4.6,8.4,4,12.6,4.1,12.4,14.4-.6,40.8-21.1,71.6-48.7,98.6-39.1,38.4-86.3,41.4-136.3,28.6-13.7-3.5-22.9-18-23-32.5-.5-52.8,21.7-87.1,69.5-110C1305.13,333.21,1324.23,335.71,1340.43,331.91Z"/><path d="M1286.13,415.51c-22.1,14-47.2,26.7-61.4,55.7-2.1-5.8-4.6-9.7-4.8-13.7-2.8-51.9,16.9-95.8,67.2-121.9,22.6-11.7,47.6-12.3,72.4-10.6a261.64,261.64,0,0,1,44,6.9c7.4,1.7,14.4,6.4,20.5,11.1,2.5,1.9,3.2,7.5,2.7,11.1-.2,1.8-5,3.4-7.9,4.3-22.5,7.2-45.1,14.2-67.2,21.1,3.1,34.3-4.5,65.1-12.8,95.9-1.8,6.7-7.7,8.6-11,3.6C1313.83,458.41,1300.43,437.51,1286.13,415.51Z"/><path d="M916,432c-29.2-1.4-57.9-2.7-86.5-4.2-2.9-.1-7.7-.4-8.1-1.7-1.1-3.6-1.3-8.1,0-11.5s4.3-6.5,7.4-8.4c39.7-25.1,82.8-38.4,129.8-32.2,33.1,4.3,57,25.2,78.1,50,13.1,15.4,21.9,32.1,25.4,51.5-11.9-6.9-23.2-14.8-35.5-20.2s-25.6-8.4-39.4-12.8c-8.6,28.7-8.5,58.6-25.7,82.8C939.63,516.91,918.83,474.81,916,432Z"/><path class="cls-4" d="M979.83,438.41c10.9-.3,21.2,10.3,21.6,22.2.4,11.5-10.5,23.8-21.1,24s-20.9-10.8-21.1-22.7C959,450.91,969.73,438.71,979.83,438.41Z"/><path class="cls-4" d="M1369,406.41c-.2,12.4-7.2,20.9-17.3,20.8-12.8,0-22.3-10.5-22.1-24.4.2-10.2,8.5-19.6,17.6-19.8C1358,382.91,1369.13,394.81,1369,406.41Z"/><path class="cls-6" d="M1014.33,637.91c7.3-3.7,14.2-9.4,21.8-10.7,33.5-5.8,67.1-11.8,101-15.1,37.1-3.6,74.4-4.8,111.6-5.7,12.8-.3,25.7,3.8,38.6,5.9v3c-.9.7-1.6,1.9-2.6,2.1-26.8,2.9-49,17.9-73.1,28.1a34.37,34.37,0,0,0-5.1,2.5c-23.9,15.9-49.5,9.6-75.2,6.3-36.9-4.7-74.1-7.9-111.1-11.8-1.5-.2-3-.6-4.5-.9C1015.33,640.31,1014.83,639.11,1014.33,637.91Z"/><path d="M1040.63,345.31c-14.5-4.2-29-8-43.4-12.7-35.7-11.6-71.1-24.1-107-35.2-16.5-5.1-33.8-7.8-50.7-11.6-3.1-.7-6.1-1.5-9.2-2.4-16.6-4.9-21-9-19.3-17.6,3.2-16.3,16.3-27.9,30.5-24.4a696.51,696.51,0,0,1,68,19.9c46.4,16.5,87.1,42.9,124.8,74.1,2.7,2.2,5.6,4,8.5,6C1042.23,342.61,1041.43,344,1040.63,345.31Z"/><path class="cls-6" d="M711.73,673.81c27.7-4.2,55.4-9.7,83.2-12.3,56.2-5.3,111.8-.5,166.6,13,26.5,6.6,52.1,15.7,74.5,32.1,4.6,3.4,9.3,6.9,12.7,11.3,2.1,2.8,3.7,9.1,2.1,10.8-2.3,2.5-7.5,2.8-11.5,3.1-2.3.1-4.7-1.7-7-2.7-56.6-24.4-115.4-41.5-176.4-50-44.6-6.2-89.5-6.6-134.4-2.6-3.1.3-6.3,0-9.5,0Q711.88,675.31,711.73,673.81Z"/><path d="M1207,325.31c8.1-10.4,15.5-21.5,24.5-31.1,32.7-35.4,70.3-64.6,111.9-88.9a84.41,84.41,0,0,1,8.4-4.5c10.5-4.4,16.3-1.9,21.3,8.7,5.4,11.5,3.8,15.2-6.4,21.6-36.2,22.7-72.1,46-108.3,68.7-16,10-32.5,19.1-48.8,28.7C1208.73,327.41,1207.83,326.31,1207,325.31Z"/><path class="cls-6" d="M1552.93,602.31c-41.3,12.5-83.5,23.6-124.5,38-44.1,15.5-87,34.3-130.5,51.4-3.2,1.3-7.3.3-11,.4,1.4-3.6,1.9-8.2,4.5-10.6,19.9-18.7,44-31,69.1-40.8,59.7-23.2,121.9-34.8,185.7-38.5C1548.73,602.21,1551.23,602.31,1552.93,602.31Z"/><path class="cls-6" d="M1527.73,803.11c-18.4-6.6-34.6-13.9-51.5-18.3-47.6-12.5-95.4-23.8-143.2-35.5-3.4-.8-7.2-.8-10-2.5-3.4-2.1-8.5-6.1-8.1-8.4.6-3.5,4.9-8.2,8.4-9.1a59.9,59.9,0,0,1,21.5-1.2c65.9,8.6,124.7,35.4,179.8,71.4C1525.43,800,1525.83,800.81,1527.73,803.11Z"/><path class="cls-6" d="M865.93,820.11c2.9-4,4.1-5.9,5.6-7.5,24.3-25.6,52.6-45.3,85.7-57.8,13.5-5.1,27.6-8.7,41.5-12.8a16.34,16.34,0,0,1,6.6-.6c6.2.9,13.8,1,15,8.9,1.2,8.2-6.2,9.6-12.1,12q-64.2,25.35-128.3,51.1C875.93,814.81,872.33,816.91,865.93,820.11Z"/></g></g></svg>