<svg xmlns="http://www.w3.org/2000/svg" width="739.91" height="700.5" viewBox="0 0 739.91 700.5"><defs><style>.cls-1{fill:#f7b0bb;}.cls-2{fill:#f49faf;}.cls-3{fill:#e57f9a;}.cls-4{fill:#6b6662;}.cls-5{fill:#827c75;}.cls-6{fill:#9b948a;}.cls-7{fill:#918b83;}.cls-8{fill:#b5ada3;}.cls-9{fill:#302e2c;}.cls-10,.cls-11{fill:#fff;}.cls-11{opacity:0.32;}</style></defs><g id="Layer_2" data-name="Layer 2"><g id="Layer_2-2" data-name="Layer 2"><path class="cls-1" d="M531.31,480.07c8.73,13,11.13,29.72,7.63,45s-12.6,28.91-24.47,39.08C487,587.67,441.1,594.73,410.09,614.25,388.28,628,392.72,639.53,396.46,651c4.88,15,37.83,22,53.43,24.51,91.32,14.54,184.71.51,277,6,4.65.27,9.75.79,13,4.13,0,8.85-18.54,7.32-28.61,7.62-99.17,2.94-179.56,15.48-297.88-1.47-26.09-3.73-44.25-24.39-47.11-49.51-2.74-24.14,19.95-44.08,42-56.51s49.44-18.88,73.52-34.24c22.51-14.35,43.16-40.95,1.68-62.92-9.4-5-25.42,3.2-35.34-.64s-19.14-13.94-16-24.11c2.66-8.73,12.61-12.59,21.34-15.28C478.79,440.81,516.54,457.93,531.31,480.07Z"/><path class="cls-2" d="M445,575.52c26.77-8.7,57.86-16.79,70.45-42a47.13,47.13,0,0,0-.7-42.78,49.38,49.38,0,0,0-26-22.12c-16-5.91-31,7.07-41.75,18.82l1.2.51c9.92,3.84,25.94-4.33,35.34.64,41.48,22,20.83,48.57-1.68,62.92-24.08,15.36-51.37,21.77-73.52,34.24a130.56,130.56,0,0,0-20.2,13.84A356,356,0,0,1,445,575.52Z"/><path class="cls-2" d="M711.3,693.28c10.07-.3,28.61,1.23,28.61-7.62a10.57,10.57,0,0,0-2.63-1.95c-4.51,0-9,.39-13.53.76-102.38,8.35-205.25,7.71-308,7.07l-4.2,0c.61.11,1.22.21,1.84.3C531.74,708.76,612.13,696.22,711.3,693.28Z"/><path class="cls-3" d="M501.09,501.7a36.46,36.46,0,0,1,5.42-28.16c2.66-3.9,6.59-7.49,11.32-7.64-6.7-4.63-11.79-11.44-18.94-15.32a13,13,0,0,0-7-1.9,12.57,12.57,0,0,0-5.58,2c-6,3.66-10.07,9.83-12.33,16.44-2.19,6.41-3,15.06,1.9,20.5,1.67,1.85,3.34,2.23,5.67,2.73a31.29,31.29,0,0,1,9.25,4c1.83,1.09,3.6,2.3,5.33,3.55C497,498.59,500.86,500.67,501.09,501.7Z"/><path class="cls-4" d="M226.27,599.45c-5.15,7.35-9.44,8-19.51,9.27-3.22.41-6.94,0-9.25-2-2.8-2.49-19.59-9.73-17.56-12.32,15.27-19.48,21.8-35.13,24.88-54.1,1.24-7.59,2.54-15.36,6.8-22,10.75-16.78,59.12-26.2,66.54-.11,3.33,11.72-9.68,26.62-16.07,35.75C252.41,567.75,237.2,583.88,226.27,599.45Z"/><path class="cls-4" d="M224.06,610.59c-2.22,5.33-5.71,10.29-10.63,13.29a7.07,7.07,0,0,1-3.93,1.3,3.16,3.16,0,0,1-3.06-2.39c-2.73,2.67-6.12,5-9.93,5.17s-7.93-2.48-8.22-6.28c-1.21,3.29-5.12,5.13-8.57,4.49a10.59,10.59,0,0,1-7.55-6.67c0,1.68-2.37,2.49-3.83,1.65s-2.12-2.59-2.57-4.22a45.13,45.13,0,0,1-1.14-18.68,20.89,20.89,0,0,1,2.71-8.17c2.25-3.54,6-5.84,9.89-7.42a42.14,42.14,0,0,1,28.83-.7c6.74,2.16,16.43,5.64,19.2,12.72C227.27,599.8,226.11,605.68,224.06,610.59Z"/><path class="cls-4" d="M87.39,579c4.84,7.56,10.52,15.75,20.28,18.57,3.11.9,6.85,1.09,9.45-.58,3.14-2,12.45-1.51,11.57-4.69a247.6,247.6,0,0,1-8.55-62.07c0-7.69-.13-15.56-3.31-22.78-8-18.24-54.37-35-65.72-10.39-5.11,11.06,5.44,27.79,10.35,37.81C68.89,550,78.14,564.52,87.39,579Z"/><path class="cls-5" d="M11.31,349.81c-4.14,38.35-2.37,78.07,11.65,114S64.39,531.58,100.55,545c7.64,2.85,16.22,4.84,23.84,1.94,10.46-4,19.8-16.69,29.85-11.76,4.47,2.19,6.64,7.2,9.38,11.35,13,19.66,40.77,21.8,64.23,19.7a381.24,381.24,0,0,0,199.24-78.63c25.39-19.8,49-44.13,58.66-74.85,6.22-19.81,6.2-41.1,3.63-61.71-9.21-74-52.23-143.16-114.56-184.13S232,113.87,160.36,134.75c-27,7.87-53,20.41-73.68,39.46-24.58,22.64-40.09,53.12-50.54,84.47C26.3,288.18,14.65,318.84,11.31,349.81Z"/><path class="cls-4" d="M26.26,416.31a56.53,56.53,0,0,1,3.21-18,39.05,39.05,0,0,0,5.42,20.08,9.6,9.6,0,0,0,.7-5.86,290.77,290.77,0,0,0,26.79,69.28Q85,450.08,105.21,416.69q1.67,31.07,3.35,62.14,15.41-16.65,32.38-31.77a55.33,55.33,0,0,0-2.28,21.09,32.89,32.89,0,0,1,13-18.18q.36,5,.73,10c1.37-3.82,2.86-7.81,5.89-10.52s8.12-3.56,11.06-.75,2.46,7.21,1.76,11a170.34,170.34,0,0,1-5.72,22.6l77-79.48a139.86,139.86,0,0,1-20.67,65.93A225.51,225.51,0,0,0,271,404.51a100.17,100.17,0,0,1-5.88,34.37,499.54,499.54,0,0,0,35.33-59.19c17.37-34.3,30.82-74.87,16.53-110.56C308.15,247,289.69,230,269.89,216.71c-28-18.81-60.23-32-93.84-34.55S107.48,188.21,80.91,209C53.09,230.66,28,269.66,19.92,304c-4.34,18.4-9.14,36.44-8.52,55.6a133.45,133.45,0,0,0,4.21,29.21C17.55,396.25,26.35,409.31,26.26,416.31Z"/><path class="cls-5" d="M343.08,38.17c-11.21-14.71-30.25-24.62-48.31-20.64-12.9,2.85-23.66,12.36-30.26,23.8S255,66,253.75,79.16c-.81,8.21-1.17,16.84-5.42,23.9s-14.08,11.6-21,7.07c2.14,22.61,15.86,42.81,32.93,57.79C266.2,173.1,273,178,280.86,178.59c9.54.75,18.36-5,25.64-11.18A135.45,135.45,0,0,0,337.55,129c5-9.25,8.54-19.1,12.95-28.62,2.59-5.6,6.5-11.07,7.8-17.18C361.4,68.59,351.62,49.38,343.08,38.17Z"/><path class="cls-1" d="M335.09,169.9c11.45-14.49,18.38-32.13,22.4-50.15C361.67,101,362.77,81,356.24,63s-21.85-33.67-40.8-36.63A33.48,33.48,0,0,0,297,28.31c-7.89,3.43-13.64,10.37-18.7,17.32-7.17,9.83-9,22.61-12.77,34.17-5.55,16.88-9.73,33.05-5.67,50.35s11.55,34.2,9.8,51.78c-.69,6.89-2.64,14.5,1.19,20.27,8.22,12.39,22.1-3.36,30.27-6.87C314.55,189.57,326,181.43,335.09,169.9Z"/><path class="cls-2" d="M265.54,79.8c3.8-11.56,5.6-24.34,12.77-34.17,5.06-7,10.81-13.89,18.7-17.32a33.48,33.48,0,0,1,18.43-1.93c18.95,3,34.27,18.6,40.8,36.63,5.42,15,5.58,31.29,3.09,47.11A67.57,67.57,0,0,0,355,101c-4.47-8-10.17-15.44-17.69-20.64-11.21-7.74-25.59-9.75-39.14-8.35a41.42,41.42,0,0,0-14.59,3.79c-8.29,4.2-13.86,12.37-17.84,20.78a95.81,95.81,0,0,0-7.42,22.76C257.63,106,261.15,93.13,265.54,79.8Z"/><path class="cls-3" d="M265.23,79.72C269,68.16,270.84,55.38,278,45.55c5.07-6.95,10.82-13.89,18.71-17.31a33.47,33.47,0,0,1,18.43-1.94c18.95,3,34.61,18.48,41.14,36.51.78,2.15,1.46,4.85,2,7a58,58,0,0,0-13-15.27,62.22,62.22,0,0,0-32.07-13.37c-7.47-.89-15.27-.48-22.14,2.6-7.91,3.54-14,10.37-18.18,18s-6.72,16-9.21,24.27l0-1.68Q264.46,82,265.23,79.72Z"/><path class="cls-5" d="M48.62,12.31C63.09.79,84-4.16,100.51,4.12,112.32,10,120.42,21.89,124,34.6s3.13,26.25,1.18,39.31c-1.23,8.16-3,16.62-.6,24.5s10.82,14.69,18.61,12c-7.61,21.4-25.85,37.64-46.07,48-7,3.58-14.8,6.63-22.55,5.31-9.44-1.6-16.6-9.29-22.13-17.1a135.36,135.36,0,0,1-20.71-44.86c-2.58-10.2-3.61-20.62-5.55-30.93-1.14-6.06-3.6-12.32-3.36-18.56C23.41,37.33,37.59,21.09,48.62,12.31Z"/><path class="cls-1" d="M24.13,142c-7.55-16.85-9.95-35.64-9.44-54.1C15.21,68.72,19,49.06,29.78,33.18S59.2,5.87,78.3,7.64A33.4,33.4,0,0,1,95.7,14c6.81,5.25,10.68,13.38,13.89,21.36,4.55,11.28,3.17,24.12,4,36.25,1.25,17.73,1.35,34.43-6.83,50.22s-19.55,30.33-22.16,47.8c-1,6.85-1,14.71-6.12,19.37-11,10-20.6-8.67-27.67-14.07C39.24,166.1,30.15,155.4,24.13,142Z"/><path class="cls-6" d="M72.56,143.32C44,170.81,26.71,207.86,12,244.71c-6,15.09-11.8,30.7-12,47s6.25,33.48,20,42.16c8,5,17.85,7,24.65,13.46,5.45,5.22,8.11,12.65,12.25,19C69,384.74,92.68,392,114.73,393.68c10.16.78,21.11.46,29.45-5.38,5.41-3.8,9.35-9.69,15.4-12.37,4-1.79,8.62-1.93,13-1.8,27.19.79,54.27,10.51,81.08,5.9,24.29-4.18,45.86-20.42,58.1-41.82s15.41-47.46,10.39-71.6c-2.45-11.8-6.75-23.12-11.25-34.3-13.48-33.49-29-66.37-49.9-95.82-6.81-9.61-14.57-19.16-25.29-24-15-6.84-31.55-2.84-47.39-3.15-11-.23-21.77-2.13-32.8-1.88C124.34,108.15,95,121.8,72.56,143.32Z"/><path class="cls-7" d="M322.19,266.61C320,256.1,316.35,246,312.4,236c1.38,12.79,2.09,25.62,1,38.42-1.66,19.81-8,39.79-21.16,54.66-22.2,25-63.4,30.35-91.23,11.78-6.26-4.18-12.13-9.85-13.76-17.2-1.14-5.1-1.57-12.27-6.77-12.83-2.58-.28-4.86,1.55-6.81,3.27-12.43,11-25.22,22.6-41.18,27.16-26.45,7.57-56.18-7.68-69.65-31.66-1.89-3.35-3.69-7.05-7-8.92-6.13-3.44-13.65,1-18.8,5.73s-10.77,10.54-17.78,10.09c-6.83-.44-11.76-6.73-14.57-13A55.3,55.3,0,0,1,.29,287.91c0-.25-.06-.52-.07-.79-.12,1.51-.2,3-.22,4.54-.19,16.25,6.25,33.48,20,42.16,8,5,17.85,7,24.65,13.46,5.45,5.22,8.11,12.65,12.25,19C69,384.74,92.68,392,114.73,393.68c10.16.78,21.11.46,29.45-5.38,5.41-3.8,9.35-9.69,15.4-12.37,4-1.79,8.62-1.93,13-1.8,27.19.79,54.28,10.51,81.08,5.9,24.29-4.18,45.86-20.42,58.1-41.82S327.21,290.75,322.19,266.61Z"/><path class="cls-1" d="M64.24,310.75c-5.64,6.62-6.54,17.69-.19,23.64,5.56,5.21,15,5.57,19.1,12,1.71,2.72,2.11,6,3.19,9.05a20.85,20.85,0,0,0,12.28,12.39c3.44,1.26,7.51,1.51,10.6-.47,5.2-3.31,5.42-11.08,9.83-15.39,4.6-4.5,12.09-3.84,17.92-6.56,7-3.25,16.87-14.64,14.59-22-3.91-12.51-13.14-15.24-22.51-18.18C111.48,299.74,78.62,293.87,64.24,310.75Z"/><path class="cls-8" d="M191.7,206.83a46.22,46.22,0,0,1,5.48-12.13c4.1-6.43,10-11.95,17.23-14.38,9.33-3.15,20-.75,28.07,4.84s13.9,14,17.88,23c2.89,6.56,4.93,13.72,4.23,20.86-.52,5.22-2.48,10.18-4.67,14.95a32.72,32.72,0,0,1-5.7,9.19c-6,6.28-15.65,7.5-24.33,6.79s-17.32-2.94-26-2.05c-2.29.24-4.65.68-6.86.06-3.94-1.11-5.41-5.1-5.05-8.78a40.18,40.18,0,0,0-.81-11.94C189.41,227.22,188.85,216.74,191.7,206.83Z"/><path class="cls-9" d="M230.38,185.4c-10.36,4.12-18.56,12.65-23.84,22.46s-7.85,20.88-9.26,31.93c-.42,3.32-.46,7.3,2.25,9.25a10.55,10.55,0,0,0,4.61,1.42c9.69,1.58,19,5.91,28.82,5.58A33,33,0,0,0,259.56,240,36.61,36.61,0,0,0,262,208.75C258.09,198.54,243.18,180.3,230.38,185.4Z"/><path class="cls-8" d="M43.11,229.27c1,2.37,2.45,4.75,4.79,5.84,1.67.78,3.58.79,5.4,1.1a16.68,16.68,0,0,1,10.55,6.52c.63.86,1.12,2.49,2.18,2.32,9-1.49,14.94-11.34,17-14.71C93.91,212.48,97.66,199,98.56,182.83c.33-6-9.58-11.62-15.08-14a11.31,11.31,0,0,0-7.14-.3C70.4,170,65.58,174.39,62,179.33s-6.29,10.49-9.66,15.6c-3.08,4.64-8.42,8.49-10.3,13.67C39.66,215.05,40.48,223.06,43.11,229.27Z"/><path class="cls-9" d="M76.16,228.83a154.47,154.47,0,0,0,11.58-49c.33-4.76-.72-6.94-4.72-9.55-2.44-1.59-16.26-2.85-33,17.44-4.6,5.57-7.22,12.64-8.42,19.76-.89,5.25-.82,10.83,1.4,15.67s6.9,8.77,12.21,9c1.83.08,3.69-.25,5.46.17a13.3,13.3,0,0,1,4.61,2.57c3,2.28,3.62,3.49,6.7,1C74,234.3,75.22,231.16,76.16,228.83Z"/><path class="cls-10" d="M209.33,231.12c-.08,3.88.35,8,2.66,11.13s7,4.72,10.22,2.49c2.64-1.83,3.32-5.51,2.84-8.69s-1.87-6.14-2.51-9.29a23.61,23.61,0,0,1,.1-9.25c.52-2.69,2.8-6,2.82-8.65,0-3.39-1.86-3.46-4.9-2.43C211.13,209.62,209.48,222.67,209.33,231.12Z"/><path class="cls-10" d="M47,214.43a10.47,10.47,0,0,0,1.65,4,4.73,4.73,0,0,0,3.7,2,6.37,6.37,0,0,0,3.54-1.5,5.8,5.8,0,0,0,1.87-1.95c1.15-2.24-.47-4.81-1.58-7.06a18.78,18.78,0,0,1,.63-17.51c1.41-2.4.8-6.11-2.61-4.49-2.19,1.05-4.08,5.55-5.06,7.63A29.3,29.3,0,0,0,47,214.43Z"/><path class="cls-10" d="M61.71,180.4a5.24,5.24,0,0,0-2.26,2.35,2.76,2.76,0,0,0-.32,1.51c.17,1.53,2.06,2.24,3.6,2.15a5.53,5.53,0,0,0,4.13-2,3.51,3.51,0,0,0,0-4.35c-1.25-1.38-3.58-1.2-5.09-.13Z"/><path class="cls-10" d="M226.25,195.19a2.75,2.75,0,0,0-3.13,2,3.74,3.74,0,0,0,1.37,3.68,5.9,5.9,0,0,0,3.89,1.16c2.16-.06,4.61-1.47,4.56-3.63a3.76,3.76,0,0,0-2.58-3.17,10.84,10.84,0,0,0-4.29-.43Z"/><path class="cls-2" d="M113.62,71.64c-.86-12.13.52-25-4-36.25-3.22-8-7.09-16.11-13.9-21.36A33.4,33.4,0,0,0,78.3,7.64C59.2,5.87,40.53,17.29,29.78,33.18c-8.92,13.18-13.06,29-14.52,44.92a67.31,67.31,0,0,1,6.41-7.77C28,63.69,35.3,57.84,43.86,54.65c12.77-4.76,27.2-3.19,40,1.48a41.64,41.64,0,0,1,13.22,7.23c7,6.11,10.41,15.39,12.21,24.52a95.63,95.63,0,0,1,1.63,23.88C114.87,99,114.61,85.64,113.62,71.64Z"/><path class="cls-3" d="M113.93,71.64c-.85-12.13.52-25-4-36.25-3.21-8-7.09-16.11-13.9-21.36a33.37,33.37,0,0,0-17.4-6.39C59.51,5.87,40.53,17.09,29.79,33c-1.28,1.9-2.61,4.35-3.7,6.35A57.86,57.86,0,0,1,42.43,27.68,62.32,62.32,0,0,1,76.8,22.57c7.46,1,14.93,3.27,20.83,7.93,6.81,5.37,11,13.48,13.24,21.86s2.61,17.12,3,25.78c.13-.54.25-1.09.38-1.63C114.15,74.9,114.05,73.27,113.93,71.64Z"/><path class="cls-11" d="M70.22,324.41c3.23,2.38,7.83,1.72,11.45,0s6.78-4.36,10.49-5.87c3.42-1.39,7.14-1.77,10.81-2.13,3.85-.37,7.77-.74,11.57,0,2.21.43,4.42,1.24,6.66.94s4.47-2.32,4-4.51-3.09-3-5.28-3.39a189.39,189.39,0,0,0-37.81-3.11C74.54,306.48,59.13,316.2,70.22,324.41Z"/><path class="cls-5" d="M335.75,279.74c-10.7,18.37-13.74,40.19-14.26,61.44a297.85,297.85,0,0,0,62.7,189.27c7.08,9,15.26,18,26.22,21.47,10.42,3.26,22,.83,31.51-4.6S459,533.69,465.64,525C509.86,467.33,515,386.17,492,317.24c-7.75-23.21-18.9-46.09-37.3-62.22-17-14.94-45.39-25.66-67.41-15.92C368.19,247.55,346.38,261.47,335.75,279.74Z"/><path class="cls-4" d="M265.1,569a287,287,0,0,0,105-37.93,6.4,6.4,0,0,1,3.36-1.24,6.5,6.5,0,0,1,3.63,1.82c9.39,7.5,20.67,18.7,32.31,21.7,19.41,5,36.75-7.33,41.23-12.19-19.93-6.25-37-20.07-42.73-40.16-11.13-39.07-8.1-80.59-4.79-121.07.6-7.4.15-16.71-6.65-19.69-8.89,14-11.64,30.94-15.18,47.16a416.8,416.8,0,0,1-17.8,59.75c-5,13.24-10.9,26.44-20.08,37.24-11.61,13.68-27.81,22.64-44.3,29.7a281.27,281.27,0,0,1-105,22.61,88.23,88.23,0,0,1-21.87-2c10.3,10,29.79,13.78,43.52,15.53C232.14,572.38,248.82,571.51,265.1,569Z"/><path class="cls-4" d="M124.58,539.43c2.92-14.66-4.53-30-1.32-44.56.67-3.08,2-6.31,4.85-7.77,2.64-1.37,5.92-.8,8.57.56,5.3,2.73,8.65,8.1,11.6,13.28,4.8,8.45,9.26,17.16,12.17,26.44a76.92,76.92,0,0,0,8.19,17.6c8.22,12.47,10.57,14.36,15.71,17.57-7-1.61-16.37-9.76-19.73-13.89s-7.73-8.3-13.06-8.21c-3.12,0-6,1.57-8.83,2.87A67.32,67.32,0,0,1,122.05,549c-6.16.66-12.75.37-18-2.92C108.58,548.93,123.08,546.92,124.58,539.43Z"/><path class="cls-4" d="M71.35,597.7c1.36,5.6,4.05,11,8.44,14.77a7.2,7.2,0,0,0,3.69,1.89,3.18,3.18,0,0,0,3.4-1.89c2.28,3.06,5.27,5.87,9,6.64s8.22-1.22,9.09-4.93c.7,3.43,4.27,5.86,7.78,5.76a10.58,10.58,0,0,0,8.48-5.43c-.26,1.67,2,2.83,3.54,2.22s2.49-2.22,3.19-3.76a45,45,0,0,0,4-18.28,20.77,20.77,0,0,0-1.42-8.5c-1.67-3.84-5-6.69-8.62-8.85a42.13,42.13,0,0,0-28.37-5.15c-7,1.1-17.11,3-20.94,9.6C69.84,586.54,70.08,592.53,71.35,597.7Z"/><path class="cls-6" d="M151.47,105c-.91-3.8-3.39-7-5.81-10.06a164.47,164.47,0,0,1,17.56,9.29c-.52-1.86.95-3.65,2.36-5A57.81,57.81,0,0,1,183.12,88a18.6,18.6,0,0,0-6.44,12.07,54.06,54.06,0,0,1,30.59-12.27,32.63,32.63,0,0,0-12.41,15A37.93,37.93,0,0,1,229.52,98c-4.55,1-6.2,6.78-5.75,11.42s2.13,9.38.82,13.86c-1.57,5.34-6.89,8.59-12,10.85-16.94,7.52-37.61,9.33-53.48-.25-4.91-3-10.33-8.15-10.75-14.27C148,114.28,152.82,110.67,151.47,105Z"/><path class="cls-5" d="M434.41,207.78C444.7,214.91,454,223.89,459.8,235a41.15,41.15,0,0,0-11.11-5.15c20.11,11.83,31.56,33.84,42,54.72L478.57,274C491,289.4,498,308.66,500.83,328.2s1.89,39.45-.23,59.09c-6.57-19.85-13.23-39.88-24-57.79-13.37-22.21-32.51-40.26-49.23-60.08-11.57-13.73-22.19-28.77-28.41-45.74-2.93-8-5.81-17.55-5.17-26.15.73-9.65,6.46-8.75,13.35-5.17C416.41,197.17,425.8,201.81,434.41,207.78Z"/><path class="cls-4" d="M329.78,549.7c-6.14,4-12.32,8-17.39,13.33-2.85,3-5.4,6.5-6,10.57a7.17,7.17,0,0,0,1.41,5.82c1.7,1.85,4.51,2.14,7,1.92a25.47,25.47,0,0,0,11.69-4,10.87,10.87,0,0,0-1.85,3.79,3.75,3.75,0,0,0,1.25,3.81,5.11,5.11,0,0,0,3.28.59A29.26,29.26,0,0,0,343,581a9,9,0,0,0-1.4,3.83,3.07,3.07,0,0,0,2,3.21,4.2,4.2,0,0,0,2.26-.27,27.3,27.3,0,0,0,9.92-5.84c-1.07,2-2,4.86-.19,6.25a4.3,4.3,0,0,0,2.64.67c6.12,0,11.81-3.37,16.13-7.7s7.57-9.59,11.24-14.49c6.92-9.26,15.37-17.26,22.63-26.26,2.69-3.34,5.27-6.9,6.48-11s.87-8.91-1.86-12.22c-2.26-2.75-5.77-4.11-9.22-5a49.22,49.22,0,0,0-13.24-1.51c-5.43.12-9.42,2-12.44,6.38-3.32,4.88-8.35,7.29-13.31,10.4Q347.16,538.42,329.78,549.7Z"/><path class="cls-8" d="M112.89,142.22l13.63-11-6.35,9.42,6.65-5.31a253.19,253.19,0,0,0-16.38,96.91c-1.27-9.58.64-19.32,3.63-28.51,8.08-24.84,23.78-46.38,39.24-67.44-6.24,3.5-10.35,9.76-14.22,15.78q3.87-7.77,7.72-15.54a18.87,18.87,0,0,0-5.38,4.48,43.58,43.58,0,0,0,4.76-11.2A38.62,38.62,0,0,0,135.56,140q7.89-13.71,15.76-27.43a95.92,95.92,0,0,0-19.59,18.85q2.25-5.2,4.51-10.4l-2.68,2.81a8.07,8.07,0,0,0,.82-7.47l-7.41,7a53.06,53.06,0,0,0,3.38-7.77c-1.39,4-7.91,8.09-10.56,11.29A35.93,35.93,0,0,0,112.89,142.22Z"/></g></g></svg>