<svg height="512pt" viewBox="0 -12 512 512" width="512pt" xmlns="http://www.w3.org/2000/svg" xmlns:xlink="http://www.w3.org/1999/xlink"><linearGradient id="a"><stop offset="0" stop-color="#d3e843"/><stop offset=".6244" stop-color="#a9c93c"/><stop offset="1" stop-color="#8db437"/></linearGradient><linearGradient id="b" gradientUnits="userSpaceOnUse" x1="67.5897513954" x2="54.7003968374" xlink:href="#a" y1="61.5948299248" y2="127.8831972316"/><linearGradient id="c" gradientUnits="userSpaceOnUse" x1="113.3169930046" x2="100.4276384466" xlink:href="#a" y1="70.4862659022" y2="136.774633209"/><linearGradient id="d" gradientUnits="userSpaceOnUse" x1="98.8330087418" x2="78.5783804308" xlink:href="#a" y1="93.3992796692" y2="164.2905289538"/><linearGradient id="e" gradientTransform="matrix(-1.003922 0 0 1.003922 239.425456 -11.790262)" gradientUnits="userSpaceOnUse" x1="-204.1839" x2="-217.0229" xlink:href="#a" y1="73.0985" y2="139.1279"/><linearGradient id="f" gradientTransform="matrix(-1.003922 0 0 1.003922 239.425456 -11.790262)" gradientUnits="userSpaceOnUse" x1="-158.6351" x2="-171.4741" xlink:href="#a" y1="81.9552" y2="147.9846"/><linearGradient id="g" gradientUnits="userSpaceOnUse" x1="424.4745855286" x2="387.0381333642" y1="104.7918869174" y2="67.355434753"><stop offset=".0029" stop-color="#8db437" stop-opacity="0"/><stop offset=".4813" stop-color="#698927" stop-opacity=".478431"/><stop offset="1" stop-color="#455f18"/></linearGradient><linearGradient id="h" gradientTransform="matrix(-1.003922 0 0 1.003922 239.425456 -11.790262)" gradientUnits="userSpaceOnUse" x1="-173.0628" x2="-193.2383" xlink:href="#a" y1="104.7787" y2="175.3929"/><linearGradient id="i"><stop offset="0" stop-color="#f1ce98"/><stop offset=".7333" stop-color="#dbaf6e"/><stop offset="1" stop-color="#d2a35d"/></linearGradient><linearGradient id="j" gradientUnits="userSpaceOnUse" x1="33.730775278" x2="194.050593185" xlink:href="#i" y1="186.4333337624" y2="186.4333337624"/><linearGradient id="k"><stop offset=".0029" stop-color="#d2a35d" stop-opacity="0"/><stop offset="1" stop-color="#c5874e"/></linearGradient><linearGradient id="l" gradientUnits="userSpaceOnUse" x1="124.8473383512" x2="124.8473383512" xlink:href="#k" y1="212.2741856502" y2="147.4497374038"/><linearGradient id="m" gradientUnits="userSpaceOnUse" x1="317.9540440718" x2="478.2698462908" xlink:href="#i" y1="186.4333337624" y2="186.4333337624"/><linearGradient id="n" gradientUnits="userSpaceOnUse" x1="387.1458541948" x2="387.1458541948" xlink:href="#k" y1="212.2741856502" y2="147.4497374038"/><linearGradient id="o" gradientUnits="userSpaceOnUse" x1="137.7937156788" x2="352.2011364344" xlink:href="#i" y1="231.6465673076" y2="362.5296855072"/><linearGradient id="p" gradientUnits="userSpaceOnUse" x1="317.1703825586" x2="279.2098831102" xlink:href="#k" y1="273.6956394932" y2="85.8402489702"/><linearGradient id="q" gradientUnits="userSpaceOnUse" x1="178.1880232318" x2="331.145177583" xlink:href="#k" y1="324.6222935326" y2="477.5794478838"/><linearGradient id="r"><stop offset="0" stop-color="#45425a"/><stop offset="1" stop-color="#2d3251"/></linearGradient><linearGradient id="s" gradientUnits="userSpaceOnUse" x1="178.4189252918" x2="201.6054074116" xlink:href="#r" y1="256.5125105412" y2="279.698992661"/><linearGradient id="t" gradientUnits="userSpaceOnUse" x1="309.9904328068" x2="333.1769149266" xlink:href="#r" y1="256.5125105412" y2="279.698992661"/><linearGradient id="u" gradientUnits="userSpaceOnUse" x1="328.8167812884" x2="266.0655323642" xlink:href="#k" y1="435.1183661094" y2="372.3671171852"/><linearGradient id="v"><stop offset="0" stop-color="#ff706a"/><stop offset=".8111" stop-color="#f64640"/><stop offset="1" stop-color="#f43b36"/></linearGradient><linearGradient id="w" gradientUnits="userSpaceOnUse" x1="214.6613126294" x2="295.9217710754" xlink:href="#v" y1="320.9720331406" y2="402.2324915866"/><linearGradient id="x" gradientUnits="userSpaceOnUse" x1="198.113465519" x2="343.9580332846" xlink:href="#v" y1="31.840690081" y2="177.6852578466"/><linearGradient id="y" gradientUnits="userSpaceOnUse" x1="278.3063533102" x2="200.0380843852" y1="111.0293546956" y2="-7.0289611306"><stop offset="0" stop-color="#ff706a" stop-opacity="0"/><stop offset=".4151" stop-color="#ff726c" stop-opacity=".415686"/><stop offset=".5646" stop-color="#ff7873" stop-opacity=".564706"/><stop offset=".6712" stop-color="#ff847e" stop-opacity=".670588"/><stop offset=".7574" stop-color="#ff948f" stop-opacity=".756863"/><stop offset=".8313" stop-color="#ffa9a5" stop-opacity=".831373"/><stop offset=".8966" stop-color="#ffc3c1" stop-opacity=".898039"/><stop offset=".9543" stop-color="#ffe1e0" stop-opacity=".952941"/><stop offset="1" stop-color="#fff"/></linearGradient><linearGradient id="z"><stop offset="0" stop-color="#f43b36" stop-opacity="0"/><stop offset=".436" stop-color="#d02021" stop-opacity=".435294"/><stop offset="1" stop-color="#a60108"/></linearGradient><linearGradient id="A" gradientUnits="userSpaceOnUse" x1="258.769428837" x2="258.769428837" xlink:href="#z" y1="110.1464052966" y2="146.5404852484"/><linearGradient id="B" gradientUnits="userSpaceOnUse" x1="371.3304685756" x2="337.093415433" xlink:href="#z" y1="57.7756094602" y2="70.5712980956"/><linearGradient id="C" gradientUnits="userSpaceOnUse" x1="255.970996262" x2="269.8419857516" y1="134.1996736712" y2="183.6855992484"><stop offset="0" stop-color="#ecf7ff"/><stop offset="1" stop-color="#c2e0ff"/></linearGradient><linearGradient id="D" gradientUnits="userSpaceOnUse" x1="258.8481363218" x2="258.8481363218" y1="152.7119953512" y2="181.7743325448"><stop offset=".0029" stop-color="#c2e0ff" stop-opacity="0"/><stop offset=".0763" stop-color="#bfdcfd" stop-opacity=".07451"/><stop offset="1" stop-color="#9eb2e7"/></linearGradient><radialGradient id="E" cx="376.445149989" cy="43.5269445142" gradientUnits="userSpaceOnUse" r="49.8819728062"><stop offset="0" stop-color="#ecf7ff"/><stop offset=".5353" stop-color="#eaf6ff"/><stop offset=".7282" stop-color="#e3f2ff"/><stop offset=".8651" stop-color="#d8ecff"/><stop offset=".9756" stop-color="#c7e3ff"/><stop offset="1" stop-color="#c2e0ff"/></radialGradient><path d="m61.964844 138.753906c-7.585938 0-13.734375-6.148437-13.734375-13.734375v-68.976562c0-7.582031 6.148437-13.734375 13.734375-13.734375 7.582031 0 13.730468 6.152344 13.730468 13.734375v68.976562c0 7.585938-6.148437 13.734375-13.730468 13.734375zm0 0" fill="url(#b)"/><path d="m107.152344 138.753906c-7.585938 0-13.734375-6.148437-13.734375-13.734375v-45.675781c0-7.585938 6.148437-13.734375 13.734375-13.734375 7.585937 0 13.734375 6.148437 13.734375 13.734375v45.675781c0 7.585938-6.148438 13.734375-13.734375 13.734375zm0 0" fill="url(#c)"/><path d="m173.472656 199.242188c-3.515625 0-7.03125-1.339844-9.710937-4.023438l-36.039063-36.039062c-11.109375-11.109376-25.878906-17.226563-41.589844-17.226563h-16.261718c-38.527344 0-69.871094-31.34375-69.871094-69.871094v-34.179687c0-7.585938 6.148438-13.734375 13.734375-13.734375 7.582031 0 13.734375 6.148437 13.734375 13.734375v34.179687c0 23.382813 19.019531 42.402344 42.398438 42.402344h16.261718c23.046875 0 44.714844 8.976563 61.011719 25.273437l36.042969 36.039063c5.363281 5.363281 5.363281 14.058594 0 19.421875-2.679688 2.683594-6.195313 4.023438-9.710938 4.023438zm0 0" fill="url(#d)"/><path d="m450.035156 138.753906c7.585938 0 13.734375-6.148437 13.734375-13.734375v-68.976562c0-7.582031-6.148437-13.734375-13.734375-13.734375-7.582031 0-13.734375 6.152344-13.734375 13.734375v68.976562c.003907 7.585938 6.152344 13.734375 13.734375 13.734375zm0 0" fill="url(#e)"/><path d="m404.847656 138.753906c7.585938 0 13.734375-6.148437 13.734375-13.734375v-45.675781c0-7.585938-6.148437-13.734375-13.734375-13.734375-7.585937 0-13.734375 6.148437-13.734375 13.734375v45.675781c0 7.585938 6.148438 13.734375 13.734375 13.734375zm0 0" fill="url(#f)"/><path d="m404.847656 65.609375c-7.585937 0-13.734375 6.148437-13.734375 13.734375v17.328125l27.464844 27.46875v-44.796875c0-7.585938-6.148437-13.734375-13.730469-13.734375zm0 0" fill="url(#g)"/><path d="m338.527344 199.242188c3.515625 0 7.03125-1.339844 9.710937-4.023438l36.039063-36.039062c11.109375-11.109376 25.878906-17.226563 41.589844-17.226563h16.261718c38.527344 0 69.871094-31.34375 69.871094-69.871094v-34.179687c0-7.585938-6.148438-13.734375-13.734375-13.734375s-13.734375 6.148437-13.734375 13.734375v34.179687c0 23.382813-19.019531 42.402344-42.402344 42.402344h-16.261718c-23.046876 0-44.714844 8.976563-61.011719 25.273437l-36.039063 36.039063c-5.363281 5.363281-5.363281 14.058594 0 19.421875 2.679688 2.683594 6.195313 4.023438 9.710938 4.023438zm0 0" fill="url(#h)"/><path d="m194.050781 147.996094-6.902343 14.328125-12.238282 25.421875c-10.9375 22.699218-33.898437 37.121094-59.089844 37.121094h-58.628906c-17.265625 0-28.609375-18.042969-21.109375-33.597657l2.960938-6.152343c10.925781-22.695313 33.886719-37.121094 59.082031-37.121094zm0 0" fill="url(#j)"/><path d="m187.148438 162.324219-12.238282 25.421875c-10.9375 22.699218-33.898437 37.121094-59.089844 37.121094h-38.496093c-11.546875-2.710938-18.328125-15.6875-12.847657-27.054688l2.421876-5.039062c8.96875-18.617188 27.808593-30.449219 48.46875-30.449219zm0 0" fill="url(#l)"/><path d="m454.800781 224.867188h-58.628906c-25.191406 0-48.152344-14.421876-59.089844-37.121094l-12.238281-25.421875-6.890625-14.328125h95.917969c25.191406 0 48.152344 14.425781 59.089844 37.125l2.960937 6.148437c7.488281 15.558594-3.84375 33.597657-21.121094 33.597657zm0 0" fill="url(#m)"/><path d="m434.667969 224.867188h-38.496094c-25.191406 0-48.152344-14.421876-59.089844-37.121094l-12.238281-25.421875h71.785156c20.667969 0 39.496094 11.832031 48.464844 30.449219l2.421875 5.039062c5.480469 11.367188-1.300781 24.34375-12.847656 27.054688zm0 0" fill="url(#n)"/><path d="m256 488.417969c-78.191406 0-141.578125-63.386719-141.578125-141.574219v-122.941406c0-41.917969 33.984375-75.902344 75.90625-75.902344h131.34375c41.921875 0 75.90625 33.984375 75.90625 75.902344v122.941406c0 78.1875-63.386719 141.574219-141.578125 141.574219zm0 0" fill="url(#o)"/><path d="m384.722656 147.996094h-194.394531c-18.515625 0-35.476563 6.636718-48.648437 17.652344.351562.28125.714843.558593 1.085937.816406l241.140625 241.136718c8.761719-18.410156 13.671875-39.011718 13.671875-60.761718v-121.972656h57.222656c2.101563 0 4.101563-.292969 6-.785157zm0 0" fill="url(#p)"/><path d="m256 317.542969c-19.5625 0-38.285156 3.578125-55.558594 10.113281-64.269531 24.328125-70.226562 113.714844-9.125 145.15625 19.390625 9.976562 41.378906 15.605469 64.683594 15.605469s45.292969-5.628907 64.683594-15.605469c61.105468-31.441406 55.144531-120.828125-9.125-145.15625-17.273438-6.535156-36-10.113281-55.558594-10.113281zm0 0" fill="url(#q)"/><path d="m202.746094 268.308594c0-9.519532-5.609375-17.234375-12.53125-17.234375s-12.535156 7.714843-12.535156 17.234375c0 9.515625 5.613281 17.234375 12.535156 17.234375s12.53125-7.71875 12.53125-17.234375zm0 0" fill="url(#s)"/><path d="m334.320312 268.308594c0-9.519532-5.613281-17.234375-12.535156-17.234375s-12.53125 7.714843-12.53125 17.234375c0 9.515625 5.609375 17.234375 12.53125 17.234375s12.535156-7.71875 12.535156-17.234375zm0 0" fill="url(#t)"/><path d="m381.230469 412.921875-75.464844-75.464844c-10.796875-11.785156-29.054687-19.535156-49.765625-19.535156-33.167969 0-60.058594 19.875-60.058594 44.390625 0 10.425781 4.878906 20.003906 13.019532 27.582031l91.421874 91.417969c34.957032-11.53125 63.882813-36.304688 80.847657-68.390625zm0 0" fill="url(#u)"/><path d="m316.058594 362.3125c0-24.515625-26.890625-44.390625-60.058594-44.390625s-60.058594 19.875-60.058594 44.390625 26.890625 44.390625 60.058594 44.390625 60.058594-19.875 60.058594-44.390625zm0 0" fill="url(#w)"/><path d="m396.5 70.269531c-12.21875-30.1875-41.117188-53.019531-76.355469-64.261719-2.492187-.800781-8.914062-2.710937-16.25-4.042968-19.101562-3.464844-39.109375-2.363282-57.328125 3.402344-.121094.039062-.230468.074218-.351562.113281-35.242188 11.253906-63.476563 34.601562-75.691406 64.789062l-5.777344 14.273438c-9.203125 22.742187-13.890625 46.503906-13.890625 70.417969h215.828125c0-23.910157-4.6875-47.675782-13.894532-70.417969l-5.773437-14.273438zm0 0" fill="url(#x)"/><path d="m352.789062 84.542969-5.773437-14.273438h47.652344c-12.503907-26.636719-38.90625-46.769531-70.769531-56.9375-2.367188-.761719-8.476563-2.578125-15.449219-3.84375-18.167969-3.292969-37.1875-2.246093-54.511719 3.234375-.113281.039063-.21875.070313-.332031.105469-33.507813 10.703125-60.359375 32.898437-71.972657 61.605469l-5.488281 13.570312c-8.753906 21.625-13.210937 44.21875-13.210937 66.957032h203.75c0-23.914063-4.6875-47.675782-13.894532-70.417969zm0 0" fill="url(#y)"/><path d="m164.75 84.542969c-9.207031 22.742187-13.894531 46.503906-13.894531 70.417969h215.828125c0-23.910157-4.6875-47.675782-13.894532-70.417969l-1.199218-2.96875h-185.640625zm0 0" fill="url(#A)"/><path d="m347.015625 70.269531-3.464844-8.394531c-4.210937-10.40625 5.457031-21.078125 19.09375-21.078125h4.160157c6.882812 0 13.332031 2.804687 16.964843 7.496094.019531.023437.039063.050781.0625.078125 5.214844 6.753906 9.503907 14.078125 12.667969 21.898437zm0 0" fill="url(#B)"/><path d="m362.695312 170.332031h-207.691406c-11.800781 0-21.371094-9.566406-21.371094-21.371093v-8.996094c0-11.800782 9.566407-21.367188 21.371094-21.367188h207.691406c11.800782 0 21.367188 9.566406 21.367188 21.367188v8.996094c0 11.804687-9.566406 21.371093-21.367188 21.371093zm0 0" fill="url(#C)"/><path d="m133.632812 148.589844v.371094c0 11.804687 9.566407 21.371093 21.371094 21.371093h207.691406c11.800782 0 21.367188-9.566406 21.367188-21.371093v-.371094zm0 0" fill="url(#D)"/><path d="m424.054688 69.582031c0 15.21875-12.335938 27.554688-27.554688 27.554688-15.214844 0-27.554688-12.335938-27.554688-27.554688s12.339844-27.554687 27.554688-27.554687c15.21875 0 27.554688 12.335937 27.554688 27.554687zm0 0" fill="url(#E)"/></svg>