<svg xmlns="http://www.w3.org/2000/svg" viewBox="0 0 2363.72 1807.63"><defs><style>.cls-1{fill:#577782;}.cls-2{fill:#2c3e50;}.cls-3{fill:#c03b2c;}.cls-4{fill:#bf3a2b;}.cls-5{fill:#3f5c6c;}.cls-6{fill:#e54e3e;}.cls-7{fill:#fefcfc;}.cls-8{fill:#2e4052;}.cls-9{fill:#2e4051;}.cls-10{fill:#567681;}</style></defs><g id="Layer_2" data-name="Layer 2"><g id="Слой_1" data-name="Слой 1"><path class="cls-1" d="M190.32,1557.53c3.2-31.9,13.4-61.8,24.1-91.6a1143.11,1143.11,0,0,1,78.2-172c38.5-68.6,86.5-130.1,142.9-184.8,23.5-22.8,49.6-41.9,81-52.6a68.15,68.15,0,0,1,23.7-3.9c5.6.1,10.1,2.4,12.8,7.4s.1,9.2-2.6,13c-7.8,10.8-18.3,19.1-27.6,28.5-69,69.5-129.6,145.8-186.2,225.5-44.1,62.1-83.7,126.9-121.9,192.7C207.32,1532.63,200.22,1545.93,190.32,1557.53Z"/><path class="cls-1" d="M53.72,1296.43c.9-14.3,2.9-25.7,10.5-36.8,50-72.8,106.7-140.1,168.6-202.8s133-113.5,213.7-150.1a170.23,170.23,0,0,1,39.3-12.1c7.2-1.3,14.4-1.4,21.4,1.6,11.2,4.7,13.8,14.4,5.9,23.6-7.3,8.6-16.7,14.8-25.5,21.7-23.6,18.5-49.6,33.3-74.8,49.2-45.8,28.9-87.6,63.1-128.9,97.9-35.9,30.3-72.7,59.6-107.5,91.2-40.2,36.5-79.1,74.4-118.1,112.2A41.35,41.35,0,0,1,53.72,1296.43Z"/><path class="cls-2" d="M1114.32,1287.43a523.9,523.9,0,0,1-125.2-23.3c-11.8-3.8-62.8-15.3-75.6-20.4-66.3-26.2-125.8-64.8-181.5-107.9-84.3-65.3-142.3-152-182.8-249.9-29-70.2-43.7-143.8-42.6-220.1.9-16.6.2-31.3.9-49.8,1-26,0-51.4,6.6-76.4,14.9-56.6,40.1-108.9,67.7-160.1,50.5-93.5,116.7-173.9,200.6-239.6,111.3-87.2,237.7-133,378.6-139.1,86.3-3.8,171,7.5,254.1,30.7,152.9,42.7,287,117.6,396.7,233.8,52.9,56.1,98.3,117.5,128.3,189.1,26.7,63.7,42.9,129.9,46.6,199v39c-1.3,14-2,28-3.8,41.8-12.1,92.8-49.2,174.6-109.7,245.7a310.56,310.56,0,0,0-20.3,26.9c-29,42.1-67.4,75.6-105.1,109.1-66.9,59.6-144.7,101-230,128.2-48,15.3-97.5,23.4-147.4,30.2-43.2,5.9-146.5,13.9-148.8,14.1C1208.42,1289.13,1116.62,1287.63,1114.32,1287.43Z"/><path class="cls-3" d="M641,311.83c3.6-6.6,2.3-13.9,2.6-20.9a20.1,20.1,0,0,1,4.6-12.8c7.1-8.6,13.9-17.4,21.6-27,3.2,13,3.9,25.3,5.2,37.5,3.7,35.4,9.5,70.5,16.2,105.4,6.1,31.7,36.1,48.3,65.2,34.4,80.3-38.3,165.9-59.1,252.1-78.2,51.5-11.4,104-16.4,156.7-19.5,42.6-2.5,85.1-2.7,127.6,1.3,24.4,2.3,48.1,8,71.8,13.4,27.6,6.3,48.4-5.3,54.8-32.9,10.7-46.2,37.6-82.8,67.7-117.4a271.37,271.37,0,0,1,76.4-60.8c15-8.1,32.4-11.5,45.9-22.7,1.9-1.6,3.8-.8,5.7.3q19.8,11.55,39.6,22.9c-.6,3.5-3.3,3.9-5.1,5-38.7,23.6-72,53.3-101.2,88-21.8,26-32.7,57-43.3,88.2-9.8,28.7-12.6,58.8-13,89-.2,15.3.1,30.7-3,45.8-2.6,12.6-7.6,24.2-16.8,33.6-4.4,4.5-8,5.3-14.2,2.5a672.92,672.92,0,0,0-161.4-50.7c-60.6-10.8-121.8-12.3-183.2-8.6-44.3,2.7-88.6,5.9-132.4,13.6-72.8,12.8-143.7,31.1-205.6,74a332.74,332.74,0,0,1-49,28.5c-12.7,5.9-24.9,13-35.5,22.3a8.65,8.65,0,0,1-9.3,1.8,53.69,53.69,0,0,1-14.7-7c-7.1-5.1-10.6-11-10.7-20.7-.2-47.8-4.5-95.5-8.2-143.1-1.5-19.2-3.5-38.3-5.3-57.4-.2-1.6.6-3.8-1.9-4.5C641,327.33,641,319.53,641,311.83Z"/><path class="cls-4" d="M1527.92,69.63c-18.8,11.1-35.9,22.2-51.7,35.3-51.1,42.2-90.6,93.3-117.3,154.1-1.3,3.1-2.1,5.5-6.5,4.5-54.2-12.4-109.2-12.9-164.3-11.2a1203.29,1203.29,0,0,0-284.1,43c-46.3,12.7-92.4,25.9-137,43.7-5.6,2.2-6.6,1-7.6-4.6-6.7-39.6-10.3-79.8-19.8-119-2-8.1-4.3-16.1-7.9-23.6-1.9-4-1.1-6.4,2-9.3,97.7-90.8,210.9-151,343.2-173,69.6-11.6,139.5-12.3,209.6-3.8a907.79,907.79,0,0,1,234.3,60.8C1522.72,67.33,1524.62,68.13,1527.92,69.63Z"/><path class="cls-5" d="M546.72,583c129.5-.9,253.3,27.8,367.4,93.7,64.2,37.1,119.7,84.2,162.5,145.3,37.2,53.1,60.4,111.3,62.5,176.6,2.3,72.7-21.3,136.8-67.1,192.8-52.8,64.5-121.8,105.1-199.5,131.9-70.7,24.4-143.7,34.4-218.3,33.2-100.5-1.6-196.8-22.3-288.4-63.9-71.5-32.5-135.4-75.9-187.8-134.9-46.3-52-79.6-110.9-90.6-180.6-13-82.8,7.9-157.1,58.9-223,41.8-54,96.3-91.8,158.2-119.5,70.8-31.7,145.3-47.4,222.6-50.6C533.12,583.83,539.12,583.43,546.72,583Z"/><path class="cls-6" d="M906.22,1025.83c-.1,36.7-9.2,71.2-25.3,104.1-29.4,60-93.8,100.3-156.7,96.7-40.5-2.3-77-16.9-109.8-40.2-42.4-30.1-70.6-70.5-83.6-121.1-9.3-36.1-5.6-71.5,6.1-106.5,17.8-53.3,50.9-93.7,101.9-117.9,53.8-25.5,107.6-23.7,160.3,3.8,21.7,11.3,41.8,25,57.9,43.9,30.9,36.4,45.8,79,49.1,126.2A101.15,101.15,0,0,1,906.22,1025.83ZM609.42,935c-.6,45.3,39.2,84.1,86.3,82.2,43.9-1.8,81.1-40.4,80.5-85.9-.7-47.2-36.8-84.1-81.8-83.5A85.73,85.73,0,0,0,609.42,935Zm127.9,257.6c22.4-.2,40.5-17.9,40.4-39.6-.1-22.7-18.2-41-40.3-40.7-22.6.3-40.3,17.8-40.3,39.8C697.12,1175,714.82,1192.83,737.32,1192.63Z"/><path class="cls-6" d="M222.72,1076.43c-49.5-2-90.4-17.9-125.7-46-55.2-44-86.8-101.1-80.6-173.2,7.7-89.6,67.7-166.8,163.1-182.5,45.6-7.5,87.3,4.7,126.1,28.9,55.2,34.5,82,86.1,89,148.8,6.8,61.1-9.6,116.8-48.9,164C313.32,1055.33,270.22,1075.43,222.72,1076.43ZM96.62,783.53c-.8,42.6,36.5,84.3,87.1,82.3,43.8-1.7,80.5-41,79.7-87.5-.7-45-37.3-82.5-80.2-82.3C134.82,696.13,95.92,735.43,96.62,783.53Zm128,257.8c22.8-.2,40.4-17.9,40.3-40.5-.1-21.6-18.3-39.9-39.5-39.9-23,0-41.1,17.6-41.1,39.8C184.32,1023.43,202.22,1041.43,224.62,1041.33Z"/><path class="cls-7" d="M609.42,935a85.94,85.94,0,0,1,85-87.3c45-.5,81.1,36.4,81.8,83.5.6,45.5-36.6,84.1-80.5,85.9C648.62,1019,608.82,980.33,609.42,935Z"/><path class="cls-7" d="M737.32,1192.63c-22.5.2-40.2-17.6-40.2-40.5,0-22,17.7-39.4,40.3-39.8,22.1-.3,40.2,18,40.3,40.7C777.82,1174.73,759.72,1192.43,737.32,1192.63Z"/><path class="cls-7" d="M96.62,783.53c-.7-48.1,38.1-87.4,86.6-87.5,42.9-.1,79.4,37.4,80.2,82.3.8,46.5-35.9,85.8-79.7,87.5C133.12,867.83,95.82,826.23,96.62,783.53Z"/><path class="cls-7" d="M224.62,1041.33c-22.4.2-40.3-17.8-40.3-40.6,0-22.3,18.1-39.8,41.1-39.8,21.2,0,39.4,18.3,39.5,39.9C265,1023.33,247.42,1041.13,224.62,1041.33Z"/><path class="cls-8" d="M209.22,1311.23c1.8-6.7,3.8-13.3,5.5-20,10.3-40.1,47.4-66.4,86.5-61.2,9.2,1.2,17.7,4.3,24.4,11,5.9,5.8,6.6,12.9.6,18.6-26.3,25.2-29.2,58.4-29.7,91.3-.4,21.2,13.8,36.7,31,48.6,2.7,1.9,6.2,2.5,8.9,6.1-16.5,6.4-33.1,8.5-49.5,3.9-41.9-11.7-66.9-39.6-75.6-82.2-.4-1.8.8-4.4-2.1-5.2Z"/><path class="cls-9" d="M488.92,1453.53c-19.5.2-37.5-4.9-53.6-16.1a45.87,45.87,0,0,1-4.4-3.3c-5.2-4.4-12-9.7-11.3-15.8.6-4.6,9.8-3.5,15.2-4.5,30-5.4,49.7-24.5,65.6-48.6,6.6-10,6.6-21,2.4-32.1-4.1-10.9-8.5-21.6-9.5-33.5-2.3-27.9,16.6-42.7,43-33.4a56.14,56.14,0,0,1,26.6,19.4c36.1,46.8,28.8,112.3-16.6,149.5C529.52,1449,509.92,1453.43,488.92,1453.53Z"/><path class="cls-10" d="M1066.72,1294c4.7-7,8.7-14.1,17.8-17.3s15.6.1,22.3,4.9c13.7,9.9,13.6,9.9,20.5-4.8,34.7-74.4,66.3-150.1,99-225.4,9.9-22.6,23.2-43.5,35-65.2,2.8-5.2,8-5.5,12.9-5.1,10.8.9,19.1,6.3,24.5,15.8,25.7,45.1,54,88.7,78.1,134.7,1.6,3,2.1,8.2,6.1,8.1,3.1-.1,3.9-5,5.4-7.9,21.4-40.7,42.1-81.7,65.5-121.4,13.4-22.7,29.7-43.2,46.6-63.3,10.4-12.2,21.3-15,37-9.8,19.5,6.4,34.6,19.7,50.2,32.2a485.08,485.08,0,0,1,43.6,40c4.7,4.8,8.4,4.5,12.1,0,13.1-16.1,30.2-27.6,45.3-41.4,12.7-11.5,26.2-12,41.1-5.9,23.4,9.6,42.9,25.1,62,41.3,5.5,4.7,11.1,9.5,16.2,14.7,3.2,3.3,5.9,3.4,9.5,1,8.8-5.8,18.5-10,26.3-17.7,9.8-9.6,23.3-10.8,36.4-11.2,30.5-.8,60.4,4.5,90.3,9.6,89.2,15.3,170.5,50.2,245.1,100.8,41.4,28,79.8,59.9,116.2,94.1,12.6,11.8,19.2,28.3,28.9,42.3a41.36,41.36,0,0,1,3.1,5.9c-2.6,2.3-4.2.1-5.7-.9-65.6-43.9-132.1-86.4-203.4-120.7-62.8-30.2-128.4-51.9-196.5-66.2-24.6-5.2-49.2-10.3-73.8-15.7-4.7-1-8.2-.9-11.6,3.3-3.2,4-7.4,7.2-11.5,10.4s-5.3,5.2-.1,9.1c43.6,32.9,83.4,70.2,122.2,108.6,55,54.4,106.1,112.2,148.2,177.2,37,57,66.6,117.8,85.8,183.2.8,2.6,2.3,5.2.4,9-9.8-12.9-18.8-25.9-29-37.9-30-35.4-52.7-76-81.3-112.3-42.4-53.9-84.7-107.9-137.3-152.7-30.5-26-62.2-50.3-92.7-76.2-23.7-20.2-48-39.8-72.5-59-6-4.7-10.7-4.2-16.6.1-8.4,6-17.5,11.1-26.3,16.7a109.26,109.26,0,0,0-9.7,6.5c-6.5,5.3-6.7,8.2-1.4,14.7a2019.38,2019.38,0,0,1,125.4,169.8c40.3,60.8,73.8,125,103.6,191.5,18,40.3,35.7,80.6,47.4,123.2a125.82,125.82,0,0,1,4.6,26.3l-22.8-36.3c-56.6-90.8-112.4-182.1-173.4-270.1-39-56.2-82-109.2-126.3-161.2-12.9-15.1-12.5-14.3-29.5-3.4-38.9,24.9-74.8,54.3-114.4,78.2a85.76,85.76,0,0,1-45,12.6c-10.6,0-17.6-5.7-24.5-11.8-4.4-3.9-4.2-9.3.3-13.8s9.6-8.3,16.2-8.4c18-.3,32.2-9.5,45.2-20.3,11.8-9.8,23.8-19.3,36.3-28.1,21.3-15.1,39.4-33.8,58.6-51.2,3-2.7,2.3-4.4-.2-6.8-8.1-8.1-16.2-16.1-23.9-24.6-5-5.5-7.7.3-10.1,2.2-20.3,15.8-39.7,32.6-59.2,49.4-37.1,32-73,65.4-112.5,94.6-5.8,4.3-7.3,8.5-4.1,15.7,20.9,47,41.1,94.3,57,143.2,11.1,34.3,16.8,70.1,23.9,105.4a1648.81,1648.81,0,0,1,25.6,185c1.6,18.4,1.9,36.8,3.4,55.2,1.5,17.7-5.3,33.6-9.6,51.1-3.5-7.2-3.8-14.5-5.2-21.3-10-48.8-21.6-97.2-32.3-145.9-13.7-62.5-29.5-124.3-50.9-184.5-21.7-60.9-46.7-120.5-73.3-179.5-.8-1.8-1.1-4.7-3.5-4.6-2.2.1-2.8,2.8-3.8,4.6-9.3,15.4-19.1,30.3-32.5,42.6-9.9,9.1-21.2,14.9-35.3,12.7a28.69,28.69,0,0,1-20.7-13.9,100.2,100.2,0,0,1-9-19c-4.3-12.3,2.6-20.4,15.5-19,7,.8,12.9-.7,17.8-6.9,15.1-18.8,26-40,36.9-61.3a8.33,8.33,0,0,0-.1-8.1c-20.7-42.8-43.7-84.4-65.8-126.4-.3-.6-1.1-.9-1.7-1.3-2.2.4-2.1,2.3-2.6,3.6-27.5,73-59.5,144-93.4,214.1a230.13,230.13,0,0,1-32.1,49.6,69.34,69.34,0,0,1-15.7,13.9c-15.9,10-26.9,8.7-39-5.7-11.3-13.5-22.4-27.2-28.5-44.1-.1-.4-.8-.5-1.2-.8C1066.72,1302.33,1066.72,1298.23,1066.72,1294Zm524-240.1a14.74,14.74,0,0,0-2-2.8c-19.2-20.1-38.5-40.1-57.6-60.2-3.7-3.9-4.7-.9-5.6,2-3.7,11.5-9.8,21.8-16.2,31.9-34.9,55.5-63.1,114.6-93.9,172.3-2.3,4.2.2,16,3.8,19.3,2.2,2,3.1.1,4.4-1.1,17.9-16.9,35.6-34.1,53.8-50.8,37-33.9,74.1-67.5,108.6-104C1587.82,1058.63,1590.22,1057.23,1590.72,1053.93Zm108-24.5c-2.4,0-3.3,1.8-4.6,3-5.3,5.4-10.3,11-15.9,16-3.7,3.4-3.8,5.7-.3,9.4,9.7,10.1,19.1,20.5,28.3,31,3.2,3.6,5.4,3.5,9,.7,10-7.9,20.1-15.6,30.4-23,4.6-3.3,3.5-5.1-.6-7.6-14.5-9.1-28.8-18.4-43.3-27.6A21,21,0,0,0,1698.72,1029.43Z"/><path d="M1028.32,703.23c5.8,66.2-23.1,117.3-72.9,161.4,48-3.7,92.2-16.1,137.2-26.1-4.2,5.9-5.4,14.3-14.9,15.1-1.7.1-3.3,2.2-4.7,3.6a208.23,208.23,0,0,1-103.1,58.2c-37.2,8.7-75.2,9.9-111.4-4.3-28.7-11.3-51.2-31.5-68-57.6a18.33,18.33,0,0,1,1.3-21.8c5-5.9,12.9-7.9,19.7-4.8,33.7,15.2,67,11.9,98.8-4.7,36.9-19.2,67.2-46.7,93.6-78.6,2.5-3,4-6.9,5.7-10.5,5.1-10.4,10.1-20.9,15.1-31.4A38.79,38.79,0,0,1,1028.32,703.23Z"/><path d="M7.62,500c10,63.8,50.2,104,102.8,137.5-22.4-50.8-21.2-97.5,15.3-142.4.3,3.9.6,5.7.6,7.4-1.2,42.4,12.8,78.2,45.3,106.5,14,12.2,28.7,22.7,45.9,29.7a88.43,88.43,0,0,1,16.6,8.9c9.3,6.4,9.5,14.8.3,21.5-18.7,13.7-105.3,23.3-123.7,19.8C39,675.53,6.22,615.63.72,559.83A147.71,147.71,0,0,1,5.32,506,61.89,61.89,0,0,1,7.62,500Z"/></g></g></svg>