<svg xmlns="http://www.w3.org/2000/svg" viewBox="0 0 161.85 125.35"><defs><style>.cls-1{fill:#514239;}.cls-2{fill:#c12022;}.cls-3{fill:#3a312a;}.cls-4{fill:#b5a390;}.cls-5{fill:#a59281;}.cls-6{fill:#ece1db;}.cls-7{fill:#a59b97;}.cls-8{fill:#837670;}</style></defs><g id="Layer_2" data-name="Layer 2"><g id="Layer_1-2" data-name="Layer 1"><polygon class="cls-1" points="68.22 36.81 61.37 41.05 66.92 42.03 64.96 47.25 74.1 45.62 68.22 36.81"/><polygon class="cls-1" points="150.48 38.77 157.34 43.01 151.79 43.99 153.75 49.21 144.61 47.58 150.48 38.77"/><path class="cls-1" d="M66.46,0c-2.76,10.33-4.5,20.57,0,30.27L90.74,18C84.5,7.15,76.35,1.31,66.46,0Z"/><path class="cls-2" d="M71,9c-2.45,9.2-4,18.32,0,27L92.63,25C87.08,15.36,79.82,10.16,71,9Z"/><path class="cls-1" d="M150.42,1c2.75,10.33,4.5,20.57,0,30.27l-24.28-12.3C132.37,8.1,140.53,2.26,150.42,1Z"/><path class="cls-2" d="M147,8.26c2.43,9.13,4,18.17,0,26.74L125.51,24.14C131,14.58,138.22,9.42,147,8.26Z"/><path class="cls-1" d="M74,97.91H0S24,120.12,74.71,106Z"/><path class="cls-3" d="M74,97.91H53.09c.08,6.59-4.41,11-10.06,12.78A119.82,119.82,0,0,0,74.71,106Z"/><path class="cls-1" d="M58.86,103.66c.1-1.8.21-3.77.35-5.93,1.48-24.43,22.47-53,49.33-52.16,43.7,1.41,35.25,55,35.25,55,43.7,18.33-5.64,16.92-5.64,16.92-21.65-5.37-43.26-5.24-64.85,1.41C38.94,126,53.38,109.19,58.86,103.66Z"/><path class="cls-3" d="M118.42,82a12.86,12.86,0,0,0,11.82-7c1.57,11.34,2.91,30.36.85,40.89a125.77,125.77,0,0,0-18.82-2.17c1.49.06,4.79-11,5.2-12.48C117.83,100,121.65,82,118.42,82Z"/><path class="cls-3" d="M90.82,75.68c1.59,0-3.75,14.28-2.44,13.89a60.31,60.31,0,0,0,7.22,24.74,117,117,0,0,0-18.42,3.45C73.31,102.07,78.69,70.23,81.4,67,83.55,68.67,87.38,75.68,90.82,75.68Z"/><path class="cls-1" d="M72.91,47.34c16.1,31.05,56.07,31.05,72.17,0C185.91-4.31,32.08-4.31,72.91,47.34Z"/><path class="cls-4" d="M127.71,65.28c-6.71-24-31.12-24-37.84,0C89.87,65.28,107.85,93,127.71,65.28Z"/><path class="cls-5" d="M96.74,67.44C106,72.6,115.31,72,124.48,69.32c-18.54,20.75-34.61-4-34.61-4a36,36,0,0,1,1.32-3.84A13.34,13.34,0,0,0,96.74,67.44Z"/><path class="cls-1" d="M117.31,72.08C113.56,61,104.72,61,101,72.08,101,72.08,108.73,84.06,117.31,72.08Z"/><path class="cls-3" d="M113.64,65.8a15.47,15.47,0,0,1,3.67,6.28c-4.82,6.73-9.39,5.9-12.46,3.87A13.06,13.06,0,0,0,113.64,65.8Z"/><path class="cls-4" d="M122.62,46.83c-.32,3.69,4.76,7.72,8,7.72,7.62,0,10.24-12.29,2-12.29-2.68,0-7.8.33-9.42,2.83A3.92,3.92,0,0,0,122.62,46.83Z"/><path class="cls-1" d="M129.66,46a4,4,0,0,1,3.92,4.08,1,1,0,0,1-1.92,0A2.08,2.08,0,0,0,127.5,50a1,1,0,1,1-1.92,0A4,4,0,0,1,129.66,46Z"/><path class="cls-4" d="M92.44,46.83c.32,3.69-4.76,7.72-8,7.72-7.62,0-10.24-12.29-2-12.29,2.67,0,7.79.33,9.42,2.83A3.78,3.78,0,0,1,92.44,46.83Z"/><path class="cls-1" d="M85.41,46a4,4,0,0,0-3.92,4.08,1,1,0,0,0,1,.94,1,1,0,0,0,.93-1A2.08,2.08,0,0,1,87.56,50a1,1,0,1,0,1.92,0A4,4,0,0,0,85.41,46Z"/><path class="cls-6" d="M82.94,70.33a48,48,0,0,0,20.77,10.29c11.85,2.16,19.7-1.36,27.59-7.65a15,15,0,0,0,1.52,4.39c-6.35,5.72-13.24,10.5-22.61,10.5a43.2,43.2,0,0,1-7.76-.74C94,85.39,87.36,80.84,81.35,75.36A15.24,15.24,0,0,0,82.94,70.33Z"/><path class="cls-1" d="M93.34,74.42c1.59,0-3.75,14.28-2.44,13.89a60,60,0,0,0,9.38,28.37c.66,7.81-16.49,10.37-19.55,3.15C75.9,108.46,80,72,82,66.22,84.14,67.85,89.91,74.42,93.34,74.42Z"/><path class="cls-1" d="M120.73,75.68c-1.59,0,3.75,14.28,2.44,13.89a60,60,0,0,1-9.38,28.37c-.66,7.81,16.49,10.37,19.56,3.15,4.82-11.37.75-47.85-1.27-53.61C129.94,69.11,124.17,75.68,120.73,75.68Z"/><path class="cls-7" d="M102.17,71.74c.7-2.41,1.76-6.19,6.15-6.31A15.92,15.92,0,0,0,102.17,71.74Z"/><path class="cls-8" d="M72.79,22.12C85.15,8.66,137,11.37,147.87,26,139.87,8,82.63,5,72.79,22.12Z"/></g></g></svg>