<svg xmlns="http://www.w3.org/2000/svg" viewBox="0 0 1882.56 2288.03"><defs><style>.cls-1{fill:#0a6815;}.cls-2{fill:#980e09;}.cls-3{fill:#189b2b;}.cls-4{fill:#18b83d;}.cls-5{fill:#940f0b;}.cls-6{fill:#096814;}.cls-7{fill:#ccb615;}.cls-8{fill:#e9d726;}.cls-9{fill:#0d6d1c;}.cls-10{fill:#480c0c;}.cls-11{fill:#14283a;}.cls-12{fill:#fff3a4;}</style></defs><g id="Layer_2" data-name="Layer 2"><g id="Слой_1" data-name="Слой 1"><path class="cls-1" d="M346.53,2005.16c-21.6-2.6-41-12.3-59.3-24.1-33.4-21.6-63.2-47.6-87.3-79-26.8-35.1-45.1-74.8-39.8-120.3,6.4-54.7,19.3-108,43-158.1,15.3-32.4,32-64.2,42-98.9,8.2-28.3,8.2-56.2-3-83.7a102.41,102.41,0,0,0-37.9-46.9c-21.2-14.6-42.1-15.3-64-1.4-15.7,10-30.7,21.3-48.6,27.4-42.5,14.5-81.3-6.9-91.4-50.4-.5-2-.1-23.9.4-26.2a97.42,97.42,0,0,1,19.6-42.5c23.1-29.1,54-44.5,89.4-55.1,16.9-5.1,48.7-5,71.7-.8a297.77,297.77,0,0,1,99.3,36.9c70,41.5,102.4,103.7,101.7,184.3-.5,54.1-14.7,105-35.8,154.2-8,18.7-12.5,37.9-15.2,57.9-2.9,22.3-2.1,44.2,5.8,65.5,6.8,18.2,18.6,30.9,37.7,36.9,11.7,3.7,23.4,4.3,35.4,4.5,32.8.4,59.8,11.5,76.7,41.4,7.5,13.2,13.7,26.9,16.8,41.9.6,3.1.7,39.9.1,42.7-9.3,48.4-44.4,83.4-93.2,93.4C394.33,2006.76,360.53,2006.76,346.53,2005.16Z"/><path class="cls-2" d="M291.53,1414.56c12.7,23.6,24.1,48.6,31.7,74.3,9.7,32.8-16,67.4-52.9,74.7-12.4,2.4-25.4,1.6-39.9,2.3,5.1-15.1,9.4-27.3,13.2-39.6,8.9-29.3,8-58.3-4.5-86.6-11-24.9-29.3-42.7-54.8-55.6,17.7-4.9,17.2-5.8,26.2-7C241.93,1373,280.53,1394.26,291.53,1414.56Z"/><path class="cls-3" d="M607.73,1284.16H1026c21.5,68.6,50.7,134.2,79.6,199.9,17.8,40.6,39.7,79.6,54.2,121.3,18.1,52,29.6,106.2,45.7,159,13.9,45.6,12.7,91.3,7.3,137.8-4.2,36-8.4,72.2-8.6,108.3-.1,21.7-5.9,38-21.9,51.5a114.58,114.58,0,0,0-10.4,10.5c-22.5,25.1-49.2,42.6-83.5,47.1-3.9.5-7.4,3.6-11,5.5-8.9,4.7-17.3,11.3-26.7,13.7-32.4,8.1-65.1,15.2-97.8,21.9-52.1,10.7-104.6,9.3-157.6,7.5a875.7,875.7,0,0,1-192.7-28.2c-2.5-.6-5.1-.6-9.5-1.1,2.1,2.9,3,4.3,4.1,5.5,14.8,17.4,15.1,36.5-.2,53.1a199.72,199.72,0,0,1-27.3,24.7c-44.7,33-117.9,22.3-153.9-8.9-22.6-19.7-28.1-45.1-15.5-72.3,3.1-6.6,1.7-10.3-3.8-14.1-12.8-8.8-25.7-17.4-37.9-26.9-23.3-18.1-47.5-35.3-68.8-55.6-29.2-27.8-38.9-63.4-32.9-103.4,6.2-41.7,20.8-80.3,42.9-116,39.7-64,80-127.6,119.7-191.6,38.2-61.6,77.1-122.8,113.3-185.5C562.83,1395.76,590.93,1342.36,607.73,1284.16Z"/><path class="cls-4" d="M588.13,1328.16a96.38,96.38,0,0,0,2.6,10.6c22.6,68.9,57.6,129.8,114.7,176.1,26,21.1,56.9,30.2,89.3,35.1,39.7,6,79.3,6.9,118.2-4.7,48.9-14.7,87.6-44.1,118.2-84.5,14.4-19,28.2-38.6,43.9-60.3,5,5.1,11.4,9,13.9,14.6,30.5,68.8,62.7,136.9,89.8,207,17.7,45.7,28.4,94.1,41,141.7,16.8,63.3,17.4,128.4,13.7,192.9-2.5,44.3-13.5,88-20.9,132-2.2,13.2-6,26.2-6.9,39.4-.5,7.4,1.9,16.4,6.3,22.2,10.9,14.5,17.6,30.3,21.5,47.7,5.8,26-4,48.3-27.2,61.3-24,13.5-50.1,15.5-76.8,13.7-30.9-2.2-60.8-7.3-86.1-27.3-17.1-13.6-22.1-31.4-13.6-51.6,19-45.3,33.6-91.8,40-140.6,9.1-69.5,12.5-138.9-9.6-206.9-14-43-33.2-83.7-68.8-113.1-73.8-61.1-168.4-63.5-244.5,5.5-59.3,53.7-78.7,121.9-73,199.4,4.4,60.8,19.7,118.6,49.6,172,17,30.4,34.8,60.3,52.2,90.5a150,150,0,0,1,8.4,15.8c8.9,20.7,5.8,34.8-14,45.5a197.38,197.38,0,0,1-51,19.1c-32.4,7.3-65.4,9.8-98.3,1.9-4.8-1.2-9.6-2.4-14.2-4-37.8-12.9-53.7-45-41.2-83a59.61,59.61,0,0,1,4.7-11.7c6.6-11.1,5.1-21.5-.1-33-29.4-66-53.6-133.9-68.4-204.8-10.6-50.4-14.9-101.5-14.9-153.1,0-38.4-2-76.8-1.2-115.1,1.8-83,15.2-163.6,51.4-239.5,16.2-33.9,29.2-69.4,43.8-104.1a66.56,66.56,0,0,1,3.8-6.9A14.23,14.23,0,0,1,588.13,1328.16Z"/><path class="cls-5" d="M1882.33,429.36c-.9,55.7-21.7,119.3-49,181.8-41.3,94.4-102.3,172.8-184.1,235-28.6,21.7-59.8,38.5-97.3,39.1-31.9.5-60.2-8.9-85.1-28.9-45.4-36.4-81.9-81.2-118.5-125.8-41.6-50.7-77.7-105.3-111-161.7q-12-20.4-24.2-40.6c-10.5-17.6-8.6-39.7,8.4-54.9,14-12.5,30.9-21.7,46.9-31.8a100.88,100.88,0,0,1,21.1-9.7c120.9-42.2,237.5-95.2,356.7-141.6,39.7-15.5,80.4-25.2,123-27,19.7-.8,37.3,3.9,53.1,16.5C1862.73,312,1885.13,361.66,1882.33,429.36Z"/><path class="cls-5" d="M91.43,358.86c24.3-7.4,47.3-13.6,69.8-21.5,11.4-4.1,22.8-10,32.1-17.5,20.2-16.4,23.1-39.7,10.6-62.5-28.1-51.6-69.2-89.8-119.4-119.4-20.6-12.1-17.6-5.8-11.9-28.1,11-42.8,35.2-77.6,73-99.6,15.4-9,37.6-11.5,55.9-9.3,46,5.3,87.9,24.3,125.8,50.8,61.6,43.1,115.5,95.4,171.4,145.3,28.4,25.3,58.2,48.9,86.4,74.3,26.1,23.5,51.4,48.1,76.4,72.8,29.6,29.2,28.5,78.4-.7,109.9-25.5,27.4-55,48.6-87.9,66.5-84.6,46-172.8,83.5-263.1,116.6-13.8,5.1-26.8,13-41,16.4-50.8,12-101-17.4-111.4-69.8-14.6-73.2-40.4-142.7-62.9-213.4C93.43,366.26,92.43,362.16,91.43,358.86Z"/><path class="cls-6" d="M546.93,532.46c-12.5-26.2-24.3-52.9-37.9-78.6-51.2-96.9-104.2-192.7-184.6-269.6-48.2-46.1-100.9-86.6-155.5-124.7-12.6-8.8-28.8-12.3-43.2-18.5-3-1.3-6.5-3.1-7.8-5.7-.7-1.4,2.3-5.3,4.2-7.4,23.4-25.5,53.3-31.6,85.7-26.1,46.2,7.8,89.1,25.4,125.4,54.7,56.3,45.6,110.5,93.8,165.6,140.9,28.6,24.5,57.8,48.3,85.8,73.5,26.1,23.5,51.4,48.1,76.4,72.8,29.5,29,29,77.4.9,109.1-31,35-69.7,58.8-111.1,78.8A25.44,25.44,0,0,1,546.93,532.46Z"/><path class="cls-6" d="M1856.33,316.66c-7.6.9-12.7,1.3-17.8,2.1q-155.1,24.75-279.8,120.4c-22.9,17.6-45.8,35.1-67.7,53.9-13.2,11.4-26,24-36.3,38-35.6,48.5-70.2,97.6-104.6,146.9-6.7,9.6-10.7,21.2-17.3,34.9-1.7-3.1-2.5-5.3-3.9-7.2-39.2-51.7-75.1-105.5-105.4-162.9a47.35,47.35,0,0,0-4.5-7.1c-17-22-17.2-46.2,4.1-63.7,18.2-15,39.7-26.3,60.7-37.4,13.9-7.4,29.5-11.5,44.2-17.4,93.3-37.3,186.4-75.1,280.1-111.6,35.3-13.8,71.3-26.3,107.9-35.7,25.5-6.5,52.8-11,79.3-3.9C1822.33,273.36,1838.93,293.86,1856.33,316.66Z"/><path class="cls-4" d="M995.63,1399.76c-56.2-3-112.7-3.6-168.6-9.6-71.3-7.7-141.1-24.9-209.6-46.5-102.7-32.4-199.6-77.9-295.4-126.6-59-30-114.4-65-165.5-106.8-37.7-30.8-73-64.4-102.9-102.8-49.8-64-61.9-135.2-37.4-212.9,21.6-68.5,63.4-123.7,110.5-176.4,43-48,90.7-91.2,141.3-129.9,78.6-60.1,158.6-119,253.5-153.9,51.4-18.9,103.9-32,156.9-44.5,65-15.4,131.1-21.5,197.5-24.3,130.3-5.5,249.9,32.1,363.7,91.7,84.8,44.4,158.8,104.1,222.1,174.9,76.4,85.4,142.7,178.7,192.4,282.8,22.2,46.5,42.4,93.8,55.1,143.6,15.8,61.8,13.6,124-2.4,185.7-11.3,43.4-38.3,76.6-72.1,104-52.8,42.8-112.4,72.1-178,91.5-70.2,20.8-139.9,42.7-212.8,52.2-69.9,9.1-140.1,13-210.6,9-12.7-.7-25.3-1.2-38-1.7C995.63,1399.36,995.63,1399.56,995.63,1399.76Z"/><path class="cls-7" d="M892.83,404.06c-3.4,29.3-16.2,50.3-47.9,55-.2,0-7.4-.6-7.9-.7-34.7-7.7-55.1-31.6-70-61.8-9.5-19.2-19.3-38.2-28.8-57.3-7.8-15.7-15.2-31.7-18.8-49.1-1.3-6.2-.6-9.2,7.1-10.3,41.7-6.3,83.6-10.3,125.6-13.8,5.2-.4,7.7,1.7,9.7,6,10.3,22.4,19.8,45,25.5,69C890.43,354.56,893,402.06,892.83,404.06Z"/><path class="cls-8" d="M922.93,263.16c4.7.9,11.9-2.8,13.6,4.1,1.8,7.3-3.3,12.3-9.4,16.1-26.6,16.4-55.8,26.1-85.6,34.7A1448.72,1448.72,0,0,1,673,355.76a110.1,110.1,0,0,1-45-2.3c-18-4.6-26.6-34-15.1-48.6,2.2-2.8,5.2-3.5,8.2-4.2,55.8-12.9,111.4-26.1,168.7-30.9,26.2-2.2,52.4-5.1,78.7-6.1C870.73,263.46,911,260.76,922.93,263.16Z"/><path class="cls-9" d="M1268.63,452.36c-19.4,7.3-38.1,15.4-56.9,23-4.6,1.8-7.6,3.5-6.4,9.8,16.2,83.7,44.6,162.5,96.9,230.5,59.6,77.4,137.5,124.5,236.3,133.7,7.5.7,10.4-1,10-8.6-.4-8.4,0-16.9.1-25.3.1-12.1,5.2-19.6,13.8-20.6,8.8-1,16.7,6,18.9,17.7,1.6,8.6,3.1,17.6,1.5,26.2-1.7,9.1,2.2,9,8.9,7.9,20.6-3.3,40.8-8,60.3-15.2,5-1.9,8.8-3.2,11.7,3.5,3,7-2.2,7.7-5.9,9.7a266,266,0,0,1-73.3,26c-6.4,1.3-10.3,4-13.3,10.1-8.6,18-20.4,33.7-36.5,45.8-1.8,1.4-3.5,3.5-6.9,2.3,4.7-13.2,9.7-26.2,14-39.5,4.1-12.5,3.6-13.1-8.8-12.8-86.6,1.8-157.3-34.4-218.8-92-59.3-55.7-95.5-125.4-121.4-201.3a549.35,549.35,0,0,1-20.4-80.8c-1.3-7.4-3.6-8.8-10.1-5.6a73,73,0,0,1-12.9,4.5c-5.4,1.5-10.9,1.5-13.9-4.1s-.5-10.5,3.8-14.1c6.2-5.2,12.4-10.6,19.5-14.3,6.6-3.4,7.9-7.5,7.1-14.3-3-27.4-2.3-54.7,3.6-81.9,2.8-12.8,7.5-24.9,12-37,1.1-2.9,1.3-8,6.7-4.9,3.8,2.2,9.7,1.8,9,9.4-2.9,33.7-1.1,67.4,1.9,101.1,1.5,16.3,1,13,15,10.9C1232.43,449.36,1250.43,447.86,1268.63,452.36Z"/><path class="cls-10" d="M893,1244h-29.6c-1.9-4.7-6.4-3.2-9.9-4-32.5-6.8-65.4-12.7-93.6-32v-6.3c2,.5,3-.9,4.4-2.1,8.6-8.2,17.7-15.2,29.9-18.4,9.1-2.4,19.4-2.2,27-9.1h10.6a228.75,228.75,0,0,1,82.4,52.8v4.2C907.43,1234.56,901.43,1241,893,1244Z"/><path class="cls-5" d="M882.63,1263.86c-22.8-4.9-47.5-10.2-72.2-15.4-8.6-1.8-17.1-3.7-25.7-5-12.5-1.9-19.1-7.3-20.4-17.8s3.5-15,13.9-14.6c9.4.4,18.9-.6,28.4-1.2,34.4-2.3,64.6,12,95.1,24.5,4.1,1.7,8.3,9.5,8,14.1s-5.8,9.7-10.3,12.5C895.43,1263.36,889.83,1262.76,882.63,1263.86Z"/><path class="cls-11" d="M136.33,911.56c19.2,1.7,38.5,2.8,57.6,5.2,44.6,5.4,89.2,11,133.7,17.3,20.2,2.8,38.7,10.3,53,25.7,2.4,2.6,4.6,5.6,8.5,10.3-4.5-.6-6.2-.5-7.7-1-61-20.1-123.6-32-187.5-37.9-15.6-1.4-30.9-6.3-46.2-10.2-4.4-1.1-8.4-4.2-12.5-6.4C135.53,913.56,135.93,912.56,136.33,911.56Z"/><path class="cls-11" d="M1528.73,1179.86c-10.3,0-20.8,1.4-30.7-.3-24.6-4.2-49-9.7-73.4-14.9a838.33,838.33,0,0,0-145.5-17.7,11,11,0,0,1-6-2c13.9-10,29.2-17.5,46.2-14.5,47.4,8.5,94.6,18,141.7,27.8,19.3,4,38.2,9.7,57.3,14.7,3.6.9,7.1,2.2,10.7,3.3Z"/><path class="cls-11" d="M1277.23,1192.76c66.9-5.1,126.3,17.3,185.9,42.1C1454.83,1240.36,1286.93,1202.46,1277.23,1192.76Z"/><path class="cls-11" d="M367.13,1012.46c-13,5.1-182.9-15.4-190.6-23.2C241.63,985.86,304.93,984.76,367.13,1012.46Z"/><path class="cls-11" d="M1388.23,1306.46c-3.4-.4-7.3.2-10.2-1.3-35.9-18.3-71.7-36.9-107.5-55.5-2.1-1.1-3.8-2.8-8.2-6.1,5.9-.5,8.6-1.5,11-.9,16.3,3.9,32.5,7.2,46.8,17.5,17.9,12.9,37.4,23.5,56.2,35.2,4.3,2.7,8.6,5.5,12.8,8.3C1388.83,1304.56,1388.53,1305.56,1388.23,1306.46Z"/><path class="cls-11" d="M221.53,1079.56c11.1-2.5,19.5-4.5,27.9-6.4,20.9-4.6,42-8.8,62.8-13.8,16.4-4,31.8,1,49.2,2.3C351.23,1072.16,235.73,1087.26,221.53,1079.56Z"/><path class="cls-11" d="M1015.53,1219.16c-5.7,2.5-11.2,6.7-17,7.3-21.9,2.1-43.9,3.7-66,4.1-6.3.1-10.2,1.1-12.5,6.5-13.8,32.6-49.9,40.7-79.3,35.1-9.3-1.8-18.7-3.3-28-5.5-37.8-9-61-32.4-69.9-70.4-.7-3-5.9-6.4-9.5-7.2-27.7-5.7-52.4-16.3-69.8-39.9a8.1,8.1,0,0,1-1.7-6.1c5.1,2.3,10.2,4.6,15.2,7.1,27,13.4,54.8,25.9,85.5,21.9,18.2-2.4,36.3-8.6,53.3-15.8,17.7-7.5,23.1-28.3,16.7-50.4-7.9-27.1-24.6-48.9-42.1-70-7.7-9.3-7.5-19.4-3.6-28.5,2.2-5,10.7-10.1,16.5-10.2,35.7-.9,71,1.9,105.1,13.7,11.6,4,24.6,6.1,24.8,22.8a39.42,39.42,0,0,1-24,36.5c-8.4,3.5-16.9,7-24.9,11.5-44.4,24.6-38.2,76.2-13.7,100.4,23.9,23.4,52.4,30.4,83.5,32,20.3,1.1,40.6.2,60.9.2A42.85,42.85,0,0,1,1015.53,1219.16Zm-253.1-20.8c14.6,23.7,29.3,42.8,56,47.8,12.8,2.4,25.7,4.3,38.6,6.3,18.7,2.8,36.6-9.3,42-28.9-25.3-7.2-40.7-27.5-58.1-46C817.33,1190,792.83,1199.36,762.43,1198.36Z"/><path class="cls-11" d="M373.23,704.76c3-48.2,14.3-104.1,50.1-152.6,28.1-38.1,65.1-63.8,109.4-79.2,53.9-18.7,110-.2,148.4,47.9,24.8,31.1,35.7,68.3,45.7,105.7,16.4,61.6,8.5,121.4-19.6,177.6-31.2,62.4-83.8,97.7-153.7,97.6-75.2-.2-130.3-37.6-163.3-105.8C377.93,770.46,372.43,743.36,373.23,704.76Z"/><path class="cls-11" d="M1072.53,833.46c3-50.5,14.6-106.9,51.2-155.9,28.1-37.7,65-62.9,109-78.1,53.9-18.5,110.5-.3,148,48.6,32.7,42.6,47.1,93,52.2,145.2,5.6,56.7-6.2,111.4-38.9,158.9-36.2,52.7-87.7,80.3-152.2,75.9-70.4-4.8-121.2-41.5-152-105C1077.23,897.26,1072.23,871,1072.53,833.46Z"/><path class="cls-12" d="M1275.43,924.86c-20.6-9-28.1-21.2-23.3-37.4,3.8-13,16.2-22,29.1-21.4a29.69,29.69,0,0,1,27.5,23.5c2.8,13.8-4.1,26.7-17.3,32.6-1.8.8-3.6,1.8-5.4,2.8C1282.53,924.86,1278.93,924.86,1275.43,924.86Z"/><path class="cls-12" d="M466.13,592.66c.2-36,25.7-61,62.2-60.7,38.1.2,62.9,23.4,62.9,58.8,0,38.8-25.5,66.2-61.3,66C492.63,656.46,465.93,629.56,466.13,592.66Z"/><path class="cls-12" d="M1290.53,718.16c-.3,38.7-25.9,65.6-62,65.3-37-.4-63.6-27.6-63.1-64.7.5-36.1,26-60.4,62.9-60.1C1266.13,659.06,1290.73,682.56,1290.53,718.16Z"/><path class="cls-12" d="M580.43,797.66c-15.7-.1-29-13.4-29.1-28.9-.1-15.7,14.1-29.7,29.8-29.5,16.3.2,29,13.7,28.7,30.2A29,29,0,0,1,580.43,797.66Z"/></g></g></svg>